<?xml version="1.0" encoding="UTF-8"?>
<svg width="379.09" height="111" enable-background="new 0 0 152 32" version="1.1" viewBox="0 0 379.09 111" xmlns="http://www.w3.org/2000/svg" xmlns:cc="http://creativecommons.org/ns#" xmlns:dc="http://purl.org/dc/elements/1.1/" xmlns:rdf="http://www.w3.org/1999/02/22-rdf-syntax-ns#">
 <metadata>
  <rdf:RDF>
   <cc:Work rdf:about="">
    <dc:format>image/svg+xml</dc:format>
    <dc:type rdf:resource="http://purl.org/dc/dcmitype/StillImage"/>
   </cc:Work>
  </rdf:RDF>
 </metadata>
 <g transform="scale(3.4688)">
  <path d="m10.855 0.19141h-2.6045c-0.2793 0-0.50684 0.22705-0.50684 0.50684v2.5049l-4.125 7.1362v-9.6411c0-0.27979-0.22656-0.50684-0.50684-0.50684h-2.6055c-0.28027 0-0.50684 0.22705-0.50684 0.50684v30.787c0 0.2793 0.22656 0.50684 0.50684 0.50684h2.6055c0.28027 0 0.50684-0.22754 0.50684-0.50684v-11.396l4.125-7.1475v18.544c0 0.2793 0.22754 0.50684 0.50684 0.50684h2.6045c0.28027 0 0.50781-0.22754 0.50781-0.50684v-30.787c0-0.27979-0.22754-0.50684-0.50781-0.50684"/>
  <path d="m93.938 0h-2.6055c-0.2793 0-0.50684 0.22656-0.50684 0.50684v2.5044l-4.126 7.1367v-9.6411c0-0.28027-0.22656-0.50684-0.50586-0.50684h-2.6055c-0.28027 0-0.50781 0.22656-0.50781 0.50684v30.787c0 0.2793 0.22754 0.50684 0.50781 0.50684h2.6055c0.2793 0 0.50586-0.22754 0.50586-0.50684v-11.396l4.126-7.1475v18.544c0 0.2793 0.22754 0.50684 0.50684 0.50684h2.6055c0.2793 0 0.50586-0.22754 0.50586-0.50684v-30.787c0-0.28027-0.22656-0.50684-0.50586-0.50684"/>
  <path d="m35.215 26.233h-2.6992c-0.19922 0-0.36133-0.16211-0.36133-0.36133v-5.6357c0.43555-0.75293 0.94434-1.6318 1.4609-2.5244l2.0361 3.5264s0.47949 0.70801 0.47949 1.6172v2.6602c-0.05762 0.25488-0.25293 0.71777-0.91602 0.71777m-0.37109-19.619c0.9043 0.00781 0.96875 0.91211 0.80859 1.2847-0.09863 0.22949-1.8125 3.3818-3.498 6.4297v-7.3525c0-0.19971 0.16211-0.36182 0.36133-0.36182zm0.44141 8.2021c0.49024-0.84814 0.90234-1.5664 1.1562-2.0103 1.1475-2.0127 2.2334-3.6509 2.2334-5.353v-4.1699c-0.038086-2.2246-2.2119-3.21-3.2979-3.1807-0.20606 0-4.7871-0.0048828-6.3359-0.0063477-0.2793-4.883e-4 -0.50488 0.22656-0.50488 0.50635v30.786c0 0.28027 0.22559 0.50684 0.50586 0.50684 1.6924-0.0039 7.0732-0.01367 7.4102-0.01367 1.085 0.0293 3.2588-0.95508 3.2979-3.1797v-5.0889c0-1.0928-0.44531-1.835-0.44531-1.835z"/>
  <path d="m101.37 7.9941c-0.15918-0.37207-0.0957-1.2764 0.8086-1.2837h2.9883c0.28125 0 0.50781 0.22656 0.50781 0.50635v8.6587c-1.8984-3.4082-4.1894-7.6138-4.3047-7.8813m0.2754-7.7959c-1.085-0.029297-3.2588 0.95605-3.2969 3.1807v4.1699c0 1.7021 1.0859 3.3403 2.2334 5.353 0.19726 0.34619 0.49316 0.86133 0.84473 1.4727l-2.4629 4.2661s-0.44434 0.74121-0.44434 1.835c0 0.95312 2e-3 8.8184 0.0029 11.012 0 0.28027 0.22656 0.50586 0.50586 0.50586h2.6055c0.27929 0 0.50586-0.22656 0.50586-0.50586 0-2.2344-9.8e-4 -10.344-9.8e-4 -10.494 0-0.9082 0.47949-1.6162 0.47949-1.6162l0.84863-1.4697c0.86817 1.5039 1.708 2.9531 2.208 3.8164v9.7617c0 0.2793 0.22656 0.50684 0.50586 0.50684h2.75c0.19922 0 0.36133-0.16211 0.36133-0.3623v-31.076c0-0.2002-0.16016-0.3623-0.36035-0.36182-1.4795 9.766e-4 -7.0264 0.006348-7.2861 0.006348"/>
  <path d="m67.727 26.749c0.03516-0.2207-0.13476-0.41992-0.35742-0.41992h-6.0137c-0.56055 0-1.0137-0.45312-1.0137-1.0127l-0.0059-17.584c0-0.56006 0.4541-1.0142 1.0137-1.0142h4.5605c0.22266 0 0.39258-0.19873 0.35742-0.41895l-0.9023-5.6133c-0.044922-0.28076-0.28711-0.4873-0.57226-0.4873h-4.4844c-0.98047-0.067871-3.6035 0.53613-3.5801 3.605v24.582c-0.02344 3.0908 2.6396 3.6816 3.6016 3.6035v-0.0029h6.0605c0.28516 0 0.52734-0.20703 0.57227-0.4873z"/>
  <path d="m14.67 26.329c-0.22266 0-0.39258 0.19922-0.35644 0.41992l0.76074 4.7363c0.04492 0.28125 0.28711 0.48828 0.57226 0.48828h5.7363c0.98047 0.06738 3.6025-0.53711 3.5801-3.6055v-4.5234h2e-3v-5.4727c0-4.1802-2.8633-4.3779-2.8633-4.3779h-0.0068c0.44035-0.76318 0.84269-1.457 1.0302-1.7871 1.1475-2.0127 1.8281-2.9561 1.8281-4.6582v-4.1699c-0.03906-2.2246-2.2129-3.2168-3.2988-3.1875h-5.5264c-0.28418 0-0.52637 0.20654-0.57129 0.48682l-0.90234 5.6128c-0.03516 0.21973 0.13476 0.41943 0.35742 0.41943h5.4375c0.3584-0.011719 0.80371 0.17725 0.91113 0.75537l9.76e-4 0.45166s-0.05078 1.7104-0.85156 3.0132c-0.51465 0.83789-1.8799 3.0635-1.8799 3.0635h-1.3037c-0.24805 0-0.45996 0.18018-0.5 0.42627l-0.43555 2.7095c-0.03516 0.21973 0.13477 0.41992 0.35742 0.41992h1.9609c0.70898 0 1.0449-0.0039 1.1465 0 0.54004 0.01855 1.5098 0.30078 1.5098 1.7148v1.5391h-2e-3c-0.0029 1.373-0.0049 2.9492-0.0059 4.5137 0 0.55957-0.45508 1.0117-1.0137 1.0117z"/>
  <path d="m53.381 26.329h-6.3047v-8.8115h2.9512c0.22266 0 0.39258-0.19922 0.35742-0.41992l-0.43555-2.7114c-0.0459-0.28125-0.28809-0.4873-0.57227-0.4873h-2.3008v-7.1885h6.375c0.22266 0 0.39258-0.19971 0.35742-0.41943l-0.90039-5.6069c-0.044922-0.28027-0.28711-0.48682-0.57129-0.48682l-8.5166-0.005859c-0.2002 0-0.3623 0.16211-0.3623 0.3623v31.076c0 0.2002 0.16211 0.36133 0.3623 0.36133l8.582-0.0059c0.28516 0 0.52734-0.20606 0.57226-0.48633l0.7627-4.75c0.03613-0.2207-0.13379-0.41992-0.35645-0.41992"/>
  <path d="m80.453 6.2759-0.89746-5.5908c-0.045898-0.28076-0.28809-0.48682-0.57129-0.48682h-9.6592c-0.28418 0-0.52637 0.20654-0.57129 0.48682l-0.89844 5.5908c-0.03516 0.21973 0.13476 0.41895 0.35742 0.41895l4.1211 0.00391v24.794c0 0.28027 0.22656 0.50684 0.50684 0.50684h2.6055c0.28027 0 0.50684-0.22656 0.50684-0.50684 0 0 9.77e-4 -17.438 2e-3 -24.798h4.1416c0.22266-1e-7 0.39258-0.19922 0.35644-0.41895"/>
 </g>
</svg>
