<?xml version="1.0" encoding="UTF-8"?>
<!-- Created with Inkscape (http://www.inkscape.org/) -->
<svg width="156.2mm" height="31.224mm" version="1.1" viewBox="0 0 156.2 31.224" xml:space="preserve" xmlns="http://www.w3.org/2000/svg"><g transform="translate(-588.46 -330.68)"><path d="m615.72 361.57c-2.456-0.32645-4.0217-0.93885-4.2628-1.6673-0.27629-0.83471-0.0722-5.8091 0.25434-6.1994 0.42516-0.50819 1.1341-0.39623 3.198 0.50501 2.5557 1.116 4.7991 1.3274 5.7947 0.54599 1.2748-1.0006 1.4942-3.3309 0.4541-4.8251-0.58635-0.84238-2.269-1.2661-5.0809-1.2794-1.0012-5e-3 -1.8906-0.0794-1.9762-0.16588-0.0857-0.0865-0.18095-1.3306-0.21172-2.7646l-0.0559-2.6074 0.72352-0.23734c0.39793-0.13053 1.7322-0.26101 2.9651-0.28995 2.9248-0.0686 3.88-0.4986 4.1153-1.8524 0.24989-1.4376-0.38999-2.8452-1.5088-3.3189-1.2669-0.53641-3.7868-0.25595-5.973 0.66475-0.63179 0.26608-1.3147 0.483-1.5176 0.48203-0.71587-3e-3 -1.1277-1.1885-1.2911-3.7155-0.14533-2.2477-0.10991-2.567 0.3284-2.9599 1.5375-1.3783 10.165-1.6435 13.018-0.40015 0.818 0.3565 1.6787 0.99598 2.151 1.5981 1.1542 1.0147 2.165 3.8492 1.9211 5.9512-0.0748 3.4366-0.79088 5.4449-2.119 5.9427-0.86005 0.32234-0.83648 0.56271 0.12564 1.2811 1.5292 1.1418 2.5927 4.2488 2.4638 7.1979-0.092 2.1057-0.68409 4.5325-1.3481 5.5256-2.2109 3.3025-8.1251 3.2083-12.168 2.5888zm-26.181-0.72907c-0.26054-0.41655-0.38925-2.4606-0.4937-7.8402-0.0777-4.0022-0.24565-9.6586-0.37324-12.57-0.33151-7.5644-0.31178-8.4405 0.19953-8.8608 0.53824-0.44241 6.6231-0.58123 6.9551-0.15867 0.13967 0.17778 0.31508 2.457 0.38979 5.0649 0.0747 2.6079 0.23981 4.8466 0.36689 4.9749 0.32205 0.32512 1.3623-1.1111 2.589-3.5745 0.86543-1.7379 1.0558-2.4229 1.1874-4.2719 0.0861-1.2111 0.23042-2.2751 0.32053-2.3643 0.0901-0.0893 1.6634-0.18103 3.4963-0.20394 2.6686-0.0334 3.4095 0.0378 3.7192 0.35707 0.31326 0.32298 0.40867 1.781 0.50229 7.6754 0.0636 4.0022 0.16569 8.7652 0.22694 10.585 0.35535 10.556 0.35419 11.047-0.0268 11.361-0.48603 0.39952-6.6806 0.44352-7.0701 0.0502-0.17359-0.17524-0.30841-2.4252-0.35461-5.9179-0.0954-7.2146-0.21987-7.4248-2.2344-3.7748-2.2195 4.0212-2.1747 3.8727-2.0392 6.765 0.093 1.9856 0.0359 2.6704-0.24566 2.9494-0.27228 0.26971-1.1908 0.3575-3.5648 0.3407-2.9677-0.0211-3.2233-0.0632-3.5504-0.58607zm93.438 0.6441c-1.5063-0.36113-3.3422-1.4327-4.1624-2.4294-1.8043-1.6449-1.4551-11.251-1.86-17.412-0.0216-1.4553 0.0728-3.598 0.2099-4.7616 0.21713-1.8438 0.36844-2.2602 1.1781-3.2419 0.9677-1.1733 2.5358-2.1274 3.7518-2.2825 0.39011-0.0498 1.4981-0.22593 2.4622-0.39144s2.3336-0.22049 3.0433-0.12217c0.70971 0.0983 1.6476 0.17273 2.0842 0.16537 0.4366-7e-3 1.3288 0.1484 1.9828 0.34617 0.92019 0.2783 1.2897 0.56366 1.635 1.2625 0.43384 0.84717 0.16745 4.6669-0.31766 5.4959-0.2422 0.37837-0.33819 0.37181-3.8765-0.26508-2.1098-0.37974-3.7012-0.19486-4.054 0.47099-0.75142 1.4182-0.52969 14.31 0.26726 15.539 0.21825 0.33654 0.83346 0.75831 1.3671 0.93724 1.0371 0.34774 3.3803 0.20767 3.9178-0.2342 0.4825-0.39659 2.3577-0.59135 2.8045-0.29127 0.29679 0.19932 0.41525 0.93132 0.4742 2.9301 0.10949 3.7128-0.0688 3.932-3.5474 4.3606-2.4467 0.3015-5.9373 0.26571-7.3603-0.0755zm-51.812-0.64786c-0.3946-0.39835-0.49328-0.92262-0.5041-2.6782-7e-3 -1.2006-0.0527-3.6118-0.10058-5.3583-0.0479-1.7465-0.13543-5.7356-0.19449-8.8646-0.0591-3.129-0.17513-7.1264-0.25792-8.883-0.13109-2.7816-0.0928-3.2511 0.29641-3.6366 0.54961-0.54444 0.0396-0.50276 6.3289-0.51714 4.1415-0.0607 10.947-0.16009 11.786 4.1194 0.14939 0.56545 0.33929 2.0502 0.42201 3.2994 0.17963 2.7128-0.17518 4.207-1.276 5.3738-0.42708 0.45265-0.777 0.92625-0.77759 1.0524-6e-4 0.12619 0.36507 0.58087 0.81259 1.0104 1.2301 1.1806 1.6041 2.1268 1.9582 4.953 0.48037 3.8347 0.11418 6.5497-1.141 8.4592-1.1214 1.706-1.8432 1.8679-8.5865 1.9259-3.2744 0.0282-6.4759 0.0936-7.1145 0.14546-0.87352 0.071-1.2826-0.0284-1.6518-0.40102zm10.493-6.5015c0.59528-0.65155 0.85757-3.1125 0.46165-4.3315-0.22233-0.68456-0.5319-1.0241-1.1251-1.234-2.1849-0.77328-2.857-0.0822-2.8714 2.952-0.013 2.7486 0.19097 3.0997 1.8057 3.1073 0.91349 4e-3 1.4014-0.13497 1.7291-0.49368zm-0.62601-12.305c0.56498-0.55966 0.73421-3.2082 0.25245-3.9511-0.40287-0.62126-0.53802-0.6712-2.058-0.76046-1.0887-0.064-1.2924 0.34145-1.3079 2.6026-0.0119 1.6737 0.0584 1.9549 0.58022 2.3317 0.66068 0.47713 1.9403 0.36463 2.5332-0.22273zm60.559 19.441c-0.66626-0.44805-0.74607-1.7463-0.72047-11.721 0.018-7.0127-0.0679-10.706-0.25724-11.064-0.25386-0.47979-0.51401-0.53223-2.434-0.49057-1.8847 0.0409-2.1923-0.0184-2.4948-0.47835-0.4319-0.65721-0.52492-5.5447-0.11329-5.9524 0.42578-0.42177 2.1674-0.48666 11.914-0.44386 4.8828 0.0211 5.9649 0.0942 6.2909 0.42339 0.28507 0.28779 0.39312 1.0077 0.39148 2.6081-4e-3 3.778-0.0931 3.8842-3.2533 3.8757-1.2625-3e-3 -1.85 0.11043-2.098 0.40642-0.36836 0.43959-0.44004 6.3319-0.2052 16.868 0.0932 4.1818 0.0446 5.315-0.24014 5.597-0.24652 0.24419-1.3204 0.37707-3.4695 0.42931-1.7119 0.0416-3.2016 0.0157-3.3106-0.0576zm15.153-0.0623c-0.36047-0.26621-0.41706-1.9638-0.45927-13.778-0.0625-17.501-0.16383-15.853 0.98631-16.042 1.4293-0.23369 6.188-4e-3 6.3787 0.30722 0.23829 0.38967 0.17468 28.96-0.0653 29.333-0.26023 0.40468-6.3202 0.5639-6.8404 0.17972zm-60.005-0.57912c-0.43217-0.43628-0.4132 0.16168-0.42864-13.508-4e-3 -3.9534-0.0866-7.2672-0.18251-7.364-0.0959-0.0969-1.1326-0.18434-2.3037-0.19451-1.1711-0.0106-2.3098-0.15499-2.5305-0.32183-0.53345-0.40331-0.6515-4.9607-0.14419-5.5661 0.24899-0.29714 0.97838-0.42076 2.7617-0.46805l2.4233-0.0642 0.0456-0.79355c0.0251-0.43645 0.0573-0.91255 0.0716-1.058 0.016-0.16206 1.4133-0.25789 3.6091-0.24749 5.212 0.0425 2.9564-0.20045 3.709 2.1104 0.13389 0.35384 0.68439 0.424 3.4291 0.437 3.0859 0.0146 3.2868 0.0479 3.5747 0.59206 0.42743 0.80782 0.29891 4.7466-0.17009 5.2131-0.26329 0.26189-1.0174 0.34736-2.7025 0.30626-1.2855-0.0314-2.5752-0.1136-2.8659-0.18277-0.29072-0.0692-0.68534-0.0244-0.87694 0.0995-0.41438 0.26797-0.51528 1.8059-0.14312 2.1816 0.14375 0.14513 1.5976 0.3231 3.2307 0.39552 3.3192 0.14717 4.2218 0.45329 5.8376 1.9799 1.6502 1.5591 2.1477 3.2407 2.1637 7.3126 0.0153 3.8919-0.13031 4.9192-0.93764 6.6158-1.2687 2.6662-2.5775 3.0239-10.867 2.9701-5.2794-0.034-6.3688-0.10657-6.7043-0.4453zm10.615-6.5011c0.50715-0.50239 0.76056-3.1843 0.40446-4.2807-0.14977-0.46113-0.56596-0.96778-0.93477-1.1379-1.9993-0.92239-3.1082 0.27767-2.9754 3.2199 0.0699 1.5474 0.17774 1.8964 0.72449 2.3434 0.72938 0.59636 2.1053 0.52475 2.7812-0.14474zm57.74 6.8173c-0.31271-0.38043 0.0263-1.8152 2.0513-8.6817 1.2458-4.2242 1.2638-4.4832 0.371-5.3419-0.92328-0.88806-1.3612-1.8706-1.6314-3.66-0.36624-2.426-0.35196-4.217 0.0491-6.1574 1.4254-6.6209 5.2777-5.7238 11.164-5.6959 5.954 0.0282 6.7197 0.0807 7.1238 0.48846 0.41574 0.41953 0.45036 1.6042 0.42385 14.501-0.0217 10.585-0.10783 14.151-0.3496 14.478-0.46813 0.63389-6.2269 0.78465-6.727 0.17612-0.24815-0.3019-0.33925-1.8501-0.34375-5.8422-5e-3 -4.3618-0.0794-5.4772-0.37793-5.6636-0.7947-0.49627-1.6672 0.46105-1.9969 2.1912-0.10734 0.56312-0.29839 1.2171-0.42456 1.4532-0.29067 0.54404-1.8836 6.4267-1.8861 6.9656-4e-3 0.89553-0.80501 1.1243-4.0082 1.145-2.4077 0.0156-3.1991-0.0663-3.437-0.35582zm11.056-17.488c0.36147-0.13548 0.74886-0.5206 0.86086-0.85583 0.22805-0.68251 0.34722-5.2085 0.13632-5.1769-0.0743 0.0111-0.3482-0.074-0.60868-0.18908-2.1427-0.0695-2.5506 0.0639-2.9345 0.61957-0.73971 0.73272-0.93215 3.3164-0.33417 4.4864 0.60768 1.1889 1.6294 1.5847 2.8802 1.1159z" stroke-width=".26458"/></g></svg>
