<?xml version="1.0" encoding="UTF-8"?>
<!-- Created with Inkscape (http://www.inkscape.org/) -->
<svg width="309.82mm" height="54.769mm" version="1.1" viewBox="0 0 309.82 54.769" xml:space="preserve" xmlns="http://www.w3.org/2000/svg"><g transform="translate(84.643 -123.76)"><path d="m213.46 178.07c-0.15646-0.15407-9.0451-0.39598-11.331-0.30837-2.075 0.0798-2.2029 0.059-2.5355-0.40981-0.5982-0.84286-0.45001-1.5433 0.48812-2.3068 0.46495-0.37844 1.0306-0.68918 1.257-0.69061 0.22639-2e-3 0.71362-0.10994 1.0828-0.24115 0.87451-0.31102 0.96312-0.85173 0.70403-4.2968-0.11141-1.4814-0.19608-5.3126-0.18815-8.5138 0.0253-10.331-0.55501-12.204-3.5695-11.519-1.1698 0.2658-3.6326 1.2682-6.3123 2.5692-3.4334 1.6669-4.5902 1.9222-5.2832 1.1658-0.80133-0.87447-0.52149-1.7299 1.3101-4.0045 0.92355-1.147 1.8968-2.416 2.1628-2.8202 0.5313-0.80723 0.70835-0.86634 1.4093-0.47096 0.34914 0.19691 2.2741 0.25982 7.3706 0.241 3.7939-0.0145 8.6931 0.0381 10.887 0.11552 3.3215 0.11743 4.2342 0.0819 5.4552-0.21272 2.6884-0.64849 2.9429-0.58344 4.6521 1.1895 2.115 2.1938 4.156 4.7953 4.1591 5.3013 4e-3 0.64796-0.8526 1.0872-2.4262 1.244-1.3725 0.13675-1.4456 0.11831-2.4586-0.61952-0.57431-0.41826-1.385-1.1102-1.8015-1.5375-1.4688-1.507-4.2509-2.6441-5.755-2.3523-1.0758 0.20868-1.9288 1.17-2.1765 2.4527-0.21361 1.1059-0.087 13.781 0.18115 18.156 0.218 3.555 0.70934 4.4457 2.5056 4.542 0.41228 0.0221 1.0171 0.1696 1.3442 0.32777 0.49654 0.24006 0.59547 0.42555 0.5998 1.125 4e-3 0.67061-0.12631 0.9496-0.65458 1.3997-0.64265 0.54763-0.89132 0.65743-1.0763 0.47525zm-91.433-0.42194c-1.9937-0.11672-2.4531-0.4303-2.2525-1.5373 0.11542-0.63706 0.25197-0.76355 1.1009-1.02 1.2055-0.36408 1.9019-0.9065 2.2444-1.748 0.24502-0.60202 0.18223-0.81674-0.85112-2.9099-0.61362-1.243-1.1165-2.3954-1.1175-2.5608-2e-3 -0.41927-0.45856-1.2364-1.0226-1.8326-0.46229-0.48869-0.54509-0.49843-2.9897-0.35039-1.3829 0.0837-2.5763 0.18767-2.652 0.23101-0.0761 0.0432-1.06-0.0382-2.1872-0.18085l-2.0495-0.25949-0.73352 0.584c-0.40342 0.32118-0.8015 0.72552-0.88459 0.89859-0.0831 0.17305-0.42569 0.93828-0.76133 1.7007-0.33562 0.76233-0.92274 1.8327-1.3047 2.3786-0.38193 0.54583-0.69306 1.1384-0.69137 1.3166 6e-3 0.66101 1.0267 1.6021 1.9817 1.8276l0.94012 0.22192 0.0713 1.3031c0.0517 0.94064-0.016 1.3764-0.2417 1.5663-0.44688 0.37552-11.395 0.41019-12.186 0.0388-0.4822-0.22657-0.57164-0.42163-0.63319-1.3812-0.09573-1.4931 0.32889-1.7955 2.4494-1.7445 1.3665 0.0332 1.6009-0.0244 2.2979-0.5631 1.2437-0.96097 2.616-2.9516 3.7809-5.4845 0.59578-1.2956 1.1739-2.5016 1.2847-2.6802 1.0498-1.6912 2.0559-3.5092 2.971-5.3687l5.7827-9.8831c1.6301-3.3471 2.6047-4.7269 3.5018-4.958 0.73901-0.19036 1.6278 0.19366 1.631 0.70468 2e-3 0.233 0.0923 0.4783 0.20165 0.54499 0.25035 0.15261 1.2453 1.8956 1.4485 2.5374 0.32195 1.0172 2.5949 6.0746 2.7603 6.1419 0.096 0.039 0.1749 0.19979 0.17587 0.35764 2e-3 0.3539 3.6977 7.7659 5.4355 10.902 0.70232 1.2674 1.6968 3.271 2.21 4.4525 1.304 3.0024 1.9463 3.5713 4.2631 3.7767 0.67672 0.0601 1.3084 0.15652 1.4038 0.21463 0.27634 0.16848 0.21162 1.9007-0.0863 2.3136-0.24599 0.34086-0.89086 0.38362-6.9493 0.4615-3.6729 0.047-7.427 0.0419-8.3424-0.0121zm-4.9355-16.177c0.31525-0.51013-0.36158-2.534-1.0661-3.1877-0.52916-0.49095-0.56637-0.49515-1.2874-0.14581-1.387 0.67202-1.904 2.5329-0.92451 3.3279 0.69264 0.5621 2.9316 0.56599 3.2779 5e-3zm28.655 15.777c-0.27939-0.27593-0.39821-0.71333-0.40298-1.4834-0.0112-1.799 0.14497-1.9346 2.1703-1.8849 2.4086 0.0593 2.4503-3e-3 2.6205-3.9348 0.073-1.67 0.21843-3.8369 0.32485-4.8152 0.10634-0.97845 0.17802-4.3738 0.15927-7.5452l-0.25631-6.8433c-5e-3 -0.7679-0.39737-1.6585-0.79762-1.8092-0.16365-0.0617-0.95149-0.17033-1.7507-0.24165-0.79926-0.0708-1.6838-0.27205-1.9657-0.44632-0.44418-0.2746-0.49722-0.43577-0.3983-1.2098 0.19858-1.5533 0.38743-1.6107 5.1451-1.561 2.2899 0.0238 4.3331 0.10739 4.5405 0.18552 0.20736 0.0783 0.61596 0.0948 0.90803 0.0372 0.4277-0.0844 0.75692 0.12906 1.6914 1.0968l3.4372 3.8984c0.63909 0.71627 1.9917 2.141 3.0058 3.1661 1.8768 1.8971 5.4826 6.0111 7.0559 8.0502 0.92061 1.1933 2.4357 2.6876 3.275 3.2301 1.3283 0.8586 1.6726 0.13121 1.8901-3.994 0.25514-4.8392 0.0221-9.2949-0.56447-10.791-0.28406-0.72464-1.2337-1.3284-2.31-1.4685l-0.86297-0.11245-0.0733-1.2595c-0.0474-0.82333 0.0318-1.422 0.23004-1.7285 0.29895-0.46248 0.38068-0.46901 5.8827-0.4712 3.0688-2e-3 5.7498 0.0662 5.9578 0.15037 0.29141 0.1176 0.3798 0.40838 0.38509 1.2671 9e-3 1.5571-0.36099 2.0099-1.7998 2.1987-0.63956 0.084-1.4566 0.33375-1.8157 0.55518-1.2811 0.79-1.2782 0.77272-1.3674 8.4037-0.0449 3.8536-0.14427 8.5104-0.22038 10.349-0.0765 1.8382-0.0971 4.6883-0.0459 6.3335l0.0923 2.9913-3.1774-0.0762-3.1774-0.0763-0.52071-0.62963c-0.28636-0.34623-1.0909-1.2566-1.7879-2.0229-0.69697-0.76631-1.6563-1.8759-2.132-2.4658-0.47561-0.58986-1.8338-2.085-3.0182-3.3226-3.7121-3.8787-5.3646-5.7524-7.5262-8.5334-0.72745-0.93582-1.0112-1.2008-2.4064-2.2469-0.98148-0.736-1.0919-0.77072-1.4385-0.45316-0.57788 0.52953-0.83282 2.6968-0.69634 5.919 0.0675 1.6002 0.17832 4.1999 0.24569 5.7771 0.0671 1.5773 0.22897 3.0638 0.35914 3.3035 0.30631 0.56398 1.4758 1.0383 2.5436 1.0317 0.46353-3e-3 0.94161 0.11533 1.0624 0.26287 0.1208 0.14744 0.28999 0.85587 0.37603 1.5743 0.12808 1.0697 0.0928 1.3596-0.19403 1.6007-0.27399 0.23036-1.6484 0.30994-6.3031 0.36519-5.5032 0.0651-5.9826 0.0412-6.3489-0.32068zm-228.05 1.2029c-0.96695-0.19391-1.3226-0.64638-1.4446-1.838-0.13686-1.3373 0.06868-1.5082 1.9817-1.6475 2.4104-0.17541 2.269 0.46422 2.2045-9.973-0.03008-4.8609-0.09145-10.002-0.13645-11.424-0.10961-3.4651-0.50704-4.1781-2.3329-4.1852-1.7934-7e-3 -1.9408-0.11174-1.9487-1.3848-0.01083-1.7531 0.17242-1.8417 3.8566-1.8645l3.0796-0.0192 0.51424 0.58965c0.51578 0.59132 0.8394 1.005 4.8255 6.1677 1.1844 1.534 2.3623 2.9726 2.6177 3.1969 0.25537 0.22428 0.46487 0.49752 0.46555 0.60722 6.8e-4 0.10969 0.34292 0.60185 0.76052 1.0936 0.41761 0.49185 1.1045 1.3167 1.5264 1.8332 1.213 1.4849 1.6945 1.791 2.2994 1.4619 1.2432-0.67649 1.8248-1.2449 3.6996-3.6166 1.0988-1.39 2.4009-2.8639 2.8936-3.2752 0.49268-0.41144 1.4664-1.5762 2.1638-2.5883 0.69741-1.0121 1.8351-2.5858 2.5282-3.497 0.69312-0.91125 1.301-1.7818 1.3509-1.9345 0.14446-0.44246 9.7398-0.48466 10.172-0.0445 0.45046 0.45861 0.51222 1.3483 0.14388 2.0727-0.44719 0.87946-0.58286 0.94099-2.1045 0.95409-1.6139 0.0144-2.6231 0.45756-2.6317 1.1569-0.0031 0.2637 0.03585 2.6619 0.08691 5.3292 0.12421 6.4953 0.09914 14.267-0.05091 15.773-0.11913 1.1953-0.10334 1.2413 0.72117 2.0973 0.7623 0.79145 0.94414 0.87475 1.9003 0.86974 1.4212-7e-3 2.2278 0.61568 2.4019 1.8551 0.10874 0.77425 0.04664 0.97827-0.45111 1.4822l-0.5772 0.58445-3.7037-0.14317c-2.0371-0.079-5.7616-0.13996-8.2769-0.13594-5.3776 8e-3 -5.3788 8e-3 -5.1405-1.8078 0.18352-1.3986 0.74438-1.8477 2.124-1.7008 1.1341 0.12069 2.123-0.26302 2.6069-1.0116 0.30879-0.47762 0.34296-1.1278 0.25873-4.923-0.05339-2.405-0.06477-5.0034-0.02536-5.7743 0.09933-1.9428-0.12017-2.8019-0.7146-2.797-0.67688 5e-3 -2.9165 2.1183-4.8042 4.5318-0.89559 1.1451-1.6838 2.1308-1.7515 2.1905-0.06777 0.0598-0.66115 0.79121-1.3187 1.6256-1.5576 1.9765-2.684 3.1417-3.0393 3.1439-0.1568 7.8e-4 -0.81694-0.58579-1.467-1.3039-0.65004-0.71812-1.5725-1.7175-2.0498-2.2208-0.98371-1.0372-2.3015-2.6017-2.5641-3.0443-0.3019-0.5087-2.3438-2.3166-2.8138-2.4912-0.66374-0.24661-0.94114 0.18257-1.2987 2.0095-0.22696 1.1595-0.29122 2.6006-0.22651 5.0802 0.12252 4.6948 0.35255 5.1138 3.0033 5.4718 1.6511 0.22299 2.1149 0.62478 2.1225 1.8388 0.0044 0.74067-0.09221 0.98364-0.47761 1.1986-0.5386 0.30032-9.7951 0.66496-10.959 0.43164zm113.15-0.70493c-0.87418-0.17555-1.2558-0.6863-1.262-1.689-7e-3 -1.1874 0.4761-1.5042 2.3129-1.5156 1.3113-8e-3 1.6211-0.0854 2.1354-0.53399l0.60158-0.52458-0.03558-3.5209c-0.12577-12.434-0.3818-18.184-0.87743-19.705-0.2757-0.8461-0.97114-1.1574-2.563-1.1477-0.7469 5e-3 -1.3449-0.10107-1.4738-0.26024-0.11937-0.14756-0.28542-0.80635-0.36901-1.4642-0.13003-1.0232-0.09172-1.2511 0.26512-1.5781 0.36769-0.33695 0.64721-0.36199 2.3599-0.2115 1.0685 0.0939 2.7033 0.0979 3.6327 8e-3 0.92944-0.089 3.8239-0.17885 6.4322-0.19903 3.7686-0.0287 4.8265 0.0252 5.1523 0.26657 0.58134 0.43014 0.75278 2.2779 0.27931 3.0104-0.31982 0.49476-0.48818 0.54543-1.8395 0.5538-1.9391 0.0125-2.6393 0.53632-2.9661 2.2209-0.30519 1.5733-0.06691 21.182 0.26722 21.993 0.3739 0.90833 1.4517 1.4445 2.8878 1.4365 1.0233-5e-3 1.2835 0.0726 1.5658 0.47018 0.43876 0.61826 0.4382 1.5501-0.0012 1.995-0.30086 0.30459-0.78049 0.33743-3.6092 0.24692-1.7943-0.0576-3.3592-0.0927-3.4777-0.079-1.2581 0.14858-8.8919 0.33255-9.4177 0.22696zm-65.144-0.18166c-0.64302-0.66287-0.72947-1.4263-0.24148-2.1322 0.28563-0.41325 0.53025-0.4824 1.7322-0.48988 1.6886-0.0103 2.5969-0.43143 2.9772-1.3801 0.59792-1.4912-0.09614-19.552-0.87121-22.669-0.30368-1.2214-0.88643-1.6112-2.3947-1.6019-1.0851 6e-3 -1.2898-0.0602-1.5961-0.52138-0.49379-0.74359-0.48325-2.4165 0.01626-2.5784 0.76447-0.24787 6.036-0.44603 11.042-0.4151 1.4821 9e-3 3.2606-0.0374 3.9523-0.10284 1.7888-0.16997 2.4327 1.5e-4 2.7375 0.72332 0.34168 0.81068 0.15564 2.0711-0.39297 2.6623-0.2763 0.29781-0.94462 0.58685-1.7572 0.75987-0.95682 0.20388-1.5243 0.47705-2.0992 1.0105l-0.78786 0.73109 0.01578 7.9386c0.0084 4.3662 0.11338 9.339 0.2327 11.051 0.2896 4.1546 0.51149 4.47 3.3109 4.7051 1.4246 0.11972 1.5262 0.16326 1.6781 0.71928 0.08891 0.32548 0.09203 0.85902 0.0067 1.1856l-0.15469 0.59369-4.5112 0.0664c-2.4812 0.0369-6.27 0.12565-8.4196 0.19777l-3.9084 0.13105-0.56747-0.58496zm52.62-0.0478c-0.98157-0.5245-5.8491-0.65537-17.691-0.47574-10.168 0.15418-10.988 0.13952-11.373-0.20427-0.58234-0.52045-0.54596-1.6204 0.07305-2.2092 0.37444-0.35615 0.76351-0.47347 1.5875-0.47853 0.60031-4e-3 1.4284-0.15004 1.8401-0.32503 1.3066-0.55552 1.3581-0.91071 1.1913-8.2088-0.1712-7.4878-0.19222-10.677-0.087789-13.313 0.065214-1.6463 0.017925-1.9642-0.36869-2.4768-0.24393-0.32342-0.67651-0.65154-0.96129-0.72926-0.28478-0.0779-1.0739-0.29519-1.7536-0.4833-1.8371-0.50865-2.4069-1.5555-1.401-2.5739 0.49851-0.50475 0.55442-0.5104 5.332-0.54622 6.0559-0.0455 11.149 0.26493 11.677 0.71132 0.50469 0.42662 0.52741 2.0264 0.034648 2.439-0.22997 0.19261-0.91364 0.30156-1.9325 0.30786-1.4139 8e-3 -1.6347 0.0682-2.1394 0.57874-0.53444 0.54037-0.56664 0.70329-0.63948 3.2375-0.042181 1.4677-0.10774 2.7658-0.14568 2.8845-0.037923 0.11876 0.019841 3.6106 0.12846 7.7597 0.18406 7.0327 0.2288 7.6134 0.66055 8.5721 0.51714 1.1482 1.1276 1.507 2.9644 1.7417 1.2933 0.16527 5.3108-0.2357 7.1094-0.70952 1.8821-0.49577 5.5088-2.4619 7.7864-4.2211 1.0905-0.84229 2.2383-1.6304 2.5506-1.7514 0.60631-0.23478 1.3804-0.0943 1.6425 0.29847 0.2872 0.43014 0.15524 2.166-0.21084 2.7736-0.1968 0.32667-0.94511 1.5439-1.6629 2.7049-0.71781 1.161-1.4731 2.4515-1.6783 2.8677-0.53707 1.089-1.3714 2.1656-1.6719 2.1574-0.14219-4e-3 -0.52958-0.15185-0.86085-0.3288zm46.875-0.44665c-1.0663-1.1211-0.33894-2.9479 1.1775-2.9574 1.0205-6e-3 2.1447-0.53747 2.3179-1.0953 0.08109-0.26096 0.05711-2.8646-0.05339-5.7858-0.16892-4.4686-0.20911-8.4342-0.11726-11.563 0.03872-1.3186-0.53072-4.9582-0.85128-5.441-0.6638-0.99941-2.1072-1.1591-3.9733-0.43934-0.65054 0.25088-2.6333 1.1956-4.4062 2.0991-3.6641 1.8675-5.421 2.3169-6.1693 1.5777-0.7141-0.70523-0.50481-1.5214 0.88718-3.4592 0.71126-0.99015 1.4497-2.0438 1.6411-2.3414 0.19134-0.29762 0.63395-0.85336 0.98357-1.235 0.62936-0.68714 0.64341-0.69085 1.414-0.3719 0.61032 0.25262 1.4993 0.30297 4.1191 0.23345 1.8374-0.0484 7.0754-0.11188 11.64-0.14018 7.5957-0.0468 8.4219-0.0876 9.7476-0.48171l1.4486-0.4303 0.67624 0.63273c0.37196 0.34797 1.5806 1.6949 2.6858 2.993 1.1052 1.2982 2.1699 2.4918 2.3659 2.6524 0.19604 0.16068 0.35818 0.57361 0.3603 0.91778 0.0047 0.78446-0.59187 1.0498-2.3859 1.0608-1.6308 0.0104-2.8786-0.58752-4.8675-2.3311-2.4036-2.1071-4.1028-2.5989-5.9222-1.7141-1.6619 0.80816-1.8125 1.1919-1.8299 4.6623-0.0079 1.66-0.02281 3.9396-0.03236 5.0661-0.0089 1.1264 0.05657 3.8906 0.14637 6.1428 0.08983 2.2521 0.19302 4.8898 0.22928 5.8615 0.09001 2.4138 0.39762 2.8652 1.9454 2.8556 1.6078-0.0104 2.2909 0.53273 2.2989 1.8262 7e-3 1.2128-0.37322 1.4342-2.4308 1.4137-0.85173-8e-3 -4.0292 0.0532-7.0611 0.13609l-5.5125 0.15152zm-145.24-36.187c-0.5036-0.70952-0.38161-1.2994 0.41675-2.0151l0.74069-0.664-0.04356-5.362c-0.02717-3.3433-0.12774-5.463-0.26715-5.6301-0.39446-0.473-1.1672-0.28382-2.4854 0.60824-1.506 1.0192-2.7133 1.1954-2.9195 0.4261-0.17789-0.66349 0.12553-1.2256 1.4468-2.6804l1.1813-1.3008 1.2409 0.0144c0.68248 8e-3 2.1626 0.0411 3.2892 0.0749 1.1266 0.0336 2.7063-0.0185 3.5106-0.11547 1.4585-0.17527 1.4638-0.17404 2.051 0.50377 0.3238 0.37367 0.95997 1.0973 1.4137 1.608 0.73618 0.82856 0.806 1.0036 0.6487 1.6265-0.28869 1.1433-0.83325 1.1591-2.65 0.0773-2.0582-1.2259-2.5819-1.1606-2.589 0.3226-0.0026 0.56093-0.04359 2.9121-0.09095 5.225l-0.08611 4.205 0.55676 0.80959c0.73573 1.0698 0.87024 1.6738 0.49001 2.2-0.2811 0.38908-0.57828 0.43728-2.9246 0.47457-2.4202 0.0386-2.6351 8e-3 -2.9301-0.40703zm18.17 0.0354c-0.6171-0.16386-0.69905-1.0272-0.16675-1.7565 0.44326-0.60745 0.46529-0.82309 0.37075-3.6302-0.0861-2.5558-0.16252-3.0682-0.53217-3.5677-0.50871-0.68759-1.083-0.75932-1.3916-0.1741-0.12142 0.23036-0.21254 1.7571-0.20271 3.3965 0.01616 2.6739 0.06798 3.0714 0.50843 3.8907 0.74987 1.3948 0.4699 1.662-1.79 1.7081-0.99475 0.0203-1.9789-0.0493-2.1871-0.15569-0.46422-0.23627-0.49572-1.0993-0.06445-1.7666 0.26998-0.41758 0.30222-1.3791 0.20403-6.0835-0.109-5.2221-0.21219-6.3413-0.58446-6.339-0.08208 4.9e-4 -0.27289-0.33465-0.42407-0.74477-0.20225-0.54866-0.21362-0.86183-0.04308-1.1853 0.24108-0.45726 0.38936-0.50931 1.3038-0.45757 0.30168 0.0172 0.81676-0.0734 1.1446-0.1999 0.6108-0.23655 1.3441-0.0235 1.7054 0.49516 0.09048 0.12993 0.15579 1.2649 0.14519 2.5223-0.01058 1.2573 0.04987 2.3965 0.13438 2.5313 0.11198 0.17867 0.32227 0.1566 0.7754-0.0813 0.89571-0.47024 1.6591-0.40977 2.7448 0.21754 1.4704 0.84949 1.8001 1.8184 1.9704 5.79 0.08384 1.955 0.25607 3.5165 0.43576 3.9509 0.4837 1.1692 0.13296 1.5539-1.3707 1.5029-0.67765-0.0229-1.4742 0.0211-1.7702 0.0978-0.29593 0.0769-0.70803 0.0943-0.91578 0.0391zm8.9979-0.30723c-0.9597-0.57715-2.0529-1.8956-2.6684-3.2184-0.4945-1.0626-0.53184-1.3357-0.4137-3.0252 0.15542-2.2224 0.77159-3.4315 2.2675-4.4497 0.76646-0.52166 1.2384-0.66918 2.3596-0.7377 1.2751-0.0782 1.4812-0.028 2.2842 0.54882 1.0995 0.79041 2.0478 2.6448 2.0564 4.021 0.0079 1.3219-0.52988 1.6672-2.508 1.6092-0.80868-0.0236-1.7851 0.0318-2.1699 0.12331-0.59913 0.14254-0.69899 0.25995-0.69554 0.81754 0.0048 0.81651 1.2348 2.1094 2.0018 2.1046 0.51552-3e-3 1.4554-0.79751 1.4527-1.2278-7.5e-4 -0.12155 0.253-0.33879 0.56389-0.48271 0.47243-0.21883 0.63183-0.20232 0.97068 0.10056 0.22299 0.19938 0.4064 0.51858 0.40758 0.70942 0.0032 0.5479-0.8395 1.9995-1.4468 2.4915-1.2567 1.0183-3.3192 1.3028-4.4622 0.61544zm2.828-7.6798c0.09715-0.52832-0.37397-1.3855-0.84126-1.5307-0.56564-0.1756-1.0566 0.10534-1.4156 0.81022-0.51132 1.004-0.26691 1.2829 1.0505 1.1988 0.90722-0.0582 1.1465-0.15281 1.2063-0.47828z" stroke-width=".21556"/></g></svg>
