<?xml version="1.0" encoding="UTF-8"?>
<!-- Created with Inkscape (http://www.inkscape.org/) -->
<svg width="302.95mm" height="74.083mm" version="1.1" viewBox="0 0 302.95 74.083" xml:space="preserve" xmlns="http://www.w3.org/2000/svg"><g transform="translate(191.92 121.27)"><path d="m-135.7-47.404c-0.0645-0.10779-0.13482-2.0186-0.15645-4.2463-0.0216-2.2277-0.10981-5.6966-0.19599-7.7087-0.0861-2.0121-0.14771-3.9524-0.13673-4.3117 0.10926-3.5755 0.71438-10.62 1.0775-12.543l0.17267-0.91459 2.2104-0.1602c2.7829-0.20168 3.1836 0.01 3.5952 1.8988 0.16744 0.76845 0.41851 1.9263 0.55794 2.5731 0.44603 2.0688 2.1199 7.3677 2.6622 8.4275 0.12873 0.25158 0.5293 1.2418 0.89017 2.2006 0.36086 0.95873 0.75315 1.87 0.87175 2.025 0.1186 0.15505 0.36613 0.83823 0.55007 1.5182 0.34778 1.2856 0.8466 1.9274 1.2867 1.6554 0.39378-0.24337 1.796-3.3457 1.9974-4.4191 0.0985-0.52525 0.28366-0.955 0.41139-0.955 0.12772 0 0.23223-0.15793 0.23223-0.35096 0-0.36403 1.9155-6.4375 2.3205-7.3578 0.26325-0.59809 0.71294-1.7815 1.7377-4.573 1.009-2.7486 1.1586-2.8802 3.2337-2.8461 0.94786 0.01561 2.4128 0.10379 3.2556 0.19598l1.5322 0.16763 0.0995 14.684c0.073 10.776 0.0205 14.733-0.19738 14.868-0.55596 0.34359-5.1557 0.45855-5.5414 0.13849-0.29443-0.24436-0.3415-1.3597-0.25238-5.9803 0.0645-3.349 8e-3 -5.8296-0.1384-6.0446-0.4482-0.65925-0.94483-0.11488-1.5568 1.7064-0.33152 0.98672-0.99999 2.676-1.4855 3.7539-0.4855 1.0779-1.2976 2.9594-1.8047 4.181-0.69279 1.6691-1.0705 2.2634-1.5196 2.3911-0.76901 0.21866-4.4821 0.2693-5.006 0.06826-0.22038-0.08457-0.53884-0.58433-0.7077-1.1106-0.16884-0.52625-0.45074-1.1332-0.62646-1.3488s-0.65001-1.4256-1.054-2.6889c-0.40397-1.2633-0.83329-2.3579-0.95404-2.4326-0.12075-0.07462-0.21954-0.3577-0.21954-0.62906 0-0.27136-0.29397-1.0463-0.65328-1.722-0.3593-0.67576-0.65686-1.5345-0.66123-1.9083-8e-3 -0.64388-0.0242-0.65216-0.31582-0.15707-0.21534 0.36555-0.28979 2.1618-0.24771 5.9766 0.0419 3.7912-0.031 5.5638-0.2388 5.8142-0.32315 0.38938-4.8028 0.53581-5.0249 0.16425zm34.166-0.45044c-0.11142-0.44393 0.25538-1.7341 1.1709-4.1186 0.73324-1.9097 1.3332-3.5707 1.3332-3.6911 0-0.12041 0.16789-0.58947 0.37308-1.0424 1.1315-2.4973 1.4561-3.3159 1.4561-3.6719 0-0.21709 0.27821-0.80467 0.61824-1.3057 0.34003-0.50107 0.81478-1.5119 1.055-2.2463 0.24021-0.7344 0.71271-1.9465 1.05-2.6936 0.33729-0.74709 0.86804-2.1227 1.1795-3.0569 0.31142-0.9342 0.68983-2.0513 0.84091-2.4825 0.15108-0.43117 0.42692-1.3719 0.61296-2.0905 0.18604-0.71861 0.53021-1.7519 0.76482-2.2962l0.42656-0.98963 4.8192 0.15006 0.43849 1.4372c0.24117 0.79047 0.78925 2.8483 1.218 4.573 1.1864 4.7729 1.7484 6.7175 2.19 7.5781 0.22125 0.43116 0.48251 1.1955 0.58058 1.6985 0.09806 0.50303 0.63371 2.2081 1.1903 3.789 1.7171 4.8771 3.1857 9.7433 3.0905 10.24-0.07981 0.4166-0.42865 0.48261-2.8952 0.54782l-2.8045 0.07415-0.52318-0.85809c-0.28775-0.47195-0.52362-1.0757-0.52415-1.3416-5.23e-4 -0.26591-0.31942-1.1772-0.70864-2.0252l-0.70766-1.5417h-3.8735c-3.4592 0-3.8892 0.04892-4.0197 0.4573-0.08039 0.25152-0.24955 0.69248-0.37593 0.97992-0.12638 0.28745-0.50725 1.3427-0.84638 2.3449-0.72758 2.1503-0.75587 2.1644-4.4244 2.202-2.4965 0.02557-2.5458 0.01427-2.7051-0.62038zm13.858-11.875c0.22012-0.35616-1.1859-3.9768-1.5032-3.871-0.30571 0.1019-1.4544 2.9469-1.4753 3.6538-0.01124 0.38114 0.22329 0.4573 1.4083 0.4573 0.78199 0 1.4886-0.10805 1.5702-0.24011zm16.664 11.938c-0.23643-0.28488-0.34095-3.8171-0.41193-13.921-0.0523-7.4465-0.03755-14.05 0.03277-14.674l0.12788-1.1345h5.0259c5.5088 0 7.0925 0.20144 9.2118 1.1717 3.3083 1.5146 6.338 6.127 6.338 9.649 0 0.3421-0.23245 1.3746-0.51655 2.2944-1.2519 4.0531-5.0844 7.0867-10.043 7.9496-1.2807 0.22288-2.7301 0.32991-3.2209 0.23785-1.5081-0.28292-1.5983-0.03907-1.6132 4.3613-0.0073 2.1678-0.07597 4.0041-0.15251 4.0806-0.07654 0.07655-1.1116 0.1902-2.3001 0.25258-1.6804 0.08819-2.2314 0.02854-2.4778-0.26832zm10.787-14.463c2.5591-1.1867 3.5277-2.5357 3.5277-4.9131 0-1.1304-0.14673-1.5925-0.78558-2.4744-0.43207-0.59645-0.88526-1.0845-1.0071-1.0845-0.12184 0-0.52912-0.28507-0.90507-0.63349-0.76499-0.70898-2.5118-1.0268-4.8803-0.88797l-1.4372 0.08425-0.04452 5.1458c-0.03983 4.6045 0.0013 5.1595 0.39197 5.2765 0.92555 0.27728 4.1242-0.04206 5.1401-0.51316zm15.485 14.423c-0.29999-0.29999-0.359-2.8566-0.34531-14.96l0.01651-14.598 1.1288-0.15064c0.62084-0.08286 1.7568-0.09857 2.5243-0.03491l1.3955 0.11573 0.16026 1.7334c0.08814 0.9534 0.16094 3.0857 0.16177 4.7385 7.82e-4 1.6528 9e-3 3.3579 0.01816 3.789 0.0092 0.43117 0.0044 4.9757-0.01045 10.099-0.02388 8.21-0.07581 9.3337-0.43765 9.4726-0.83089 0.31884-4.2398 0.16784-4.612-0.20429zm14.516 0.09095c-0.61843-0.24148-0.64334-0.27686-2.6607-3.7795-0.74502-1.2935-1.4717-2.5282-1.6149-2.7438-0.14316-0.21558-0.6164-1.0975-1.0517-1.9598-0.43526-0.86233-1.2467-2.3003-1.8033-3.1954-0.55655-0.89513-1.084-1.8546-1.1721-2.1322-0.08811-0.2776-0.33203-0.64734-0.54204-0.82163-0.62999-0.52284-0.44928-1.1661 1.0042-3.5745 0.76231-1.2632 1.556-2.5906 1.7639-2.9499 0.20782-0.35931 0.56874-0.88846 0.80205-1.1759 0.23331-0.28744 0.87046-1.5221 1.4159-2.7438 0.54544-1.2216 1.3632-2.7503 1.8173-3.3971l0.82557-1.1759 2.4622-0.15386c2.8613-0.1788 3.4857 0.07028 2.8026 1.1181-0.21644 0.332-1.0163 1.7795-1.7774 3.2168-1.7257 3.2586-4.0012 7.2233-4.9943 8.7018-0.41515 0.61802-0.75482 1.1679-0.75482 1.2221 0 0.09036 2.2827 3.9335 2.8751 4.8404 0.14081 0.21558 0.56612 0.97992 0.94514 1.6985 0.37902 0.71861 0.93367 1.653 1.2326 2.0765 0.29889 0.42345 0.73295 1.129 0.96457 1.5679 0.84592 1.6028 1.6164 2.8656 2.276 3.7305 0.57677 0.75618 0.62132 0.93507 0.30643 1.2304-0.44428 0.41666-4.3073 0.71868-5.1222 0.40047zm16.382 0.0142c-5.6467-0.99977-10.469-7.5523-10.447-14.197 0.0096-3.0058 0.69024-6.4008 1.6201-8.0814 0.95062-1.7181 2.1494-3.4109 3.0835-4.3544 2.834-2.8624 8.966-4.2784 12.359-2.8538 1.6335 0.6859 3.5955 1.9393 5.0134 3.2028 1.2838 1.6977 1.3167 1.7488 1.916 3.066 0.61476 1.4537 1.2006 4.2538 0.99956 4.7776-0.12512 0.32605-0.63456 0.40497-2.6141 0.40497-2.7035 0-2.7697-0.03442-3.2648-1.6985-0.43995-1.4787-1.574-3.004-2.891-3.8886-1.4681-0.98602-4.1274-1.2464-5.8827-0.57606-2.6378 1.0074-4.5471 3.9589-4.7825 7.393-0.46118 6.7284 2.8372 11.574 7.8781 11.574 3.0573 0 5.5949-2.0384 6.2568-5.0258l0.30493-1.3763 2.1757-0.0763c2.8129-0.09864 3.0077 0.05267 2.768 2.1501-0.36202 3.1681-2.7974 6.9215-5.3465 8.24-2.3722 1.227-6.3921 1.8069-9.1459 1.3193zm38.152 0.04794c-1.0778-0.04295-2.0457-0.16427-2.1511-0.26961-0.10534-0.10534-0.20084-3.9801-0.21223-8.6106-0.01129-4.6305-0.1129-8.419-0.22558-8.419-0.11268 0-0.38204 0.20578-0.59858 0.4573-0.38735 0.44989-3.0843 4.9814-3.0843 5.1823 0 0.10617-1.965 3.5187-3.2227 5.5968-1.2851 2.1234-2.5808 4.2979-3.0362 5.0956-0.43004 0.75324-0.52759 0.78696-2.4918 0.86099-1.1243 0.04237-2.1602-0.03896-2.302-0.18075-0.16116-0.16117-0.28968-5.647-0.34287-14.635-0.077396-13.089-0.046388-14.416 0.34654-14.809 0.36358-0.36358 0.76371-0.40264 2.5384-0.24784 1.1587 0.10108 2.1664 0.28026 2.2393 0.39818 0.07285 0.11792 0.13206 4.1054 0.13151 8.861-7.81e-4 6.8711 0.06791 8.6466 0.33493 8.6467 0.18475 5e-6 0.55085-0.50142 0.81355-1.1143 0.2627-0.61285 0.67009-1.274 0.9053-1.4692 0.23522-0.19521 0.42768-0.51464 0.42768-0.70984 0-0.19519 0.42485-1.0191 0.94412-1.8308 0.51927-0.81175 1.313-2.1547 1.7639-2.9842 3.0016-5.523 4.9385-8.8578 5.3732-9.2512 0.37841-0.34246 0.9601-0.45577 2.3397-0.45577 1.0099 0 1.9579 0.07528 2.1068 0.16732 0.18032 0.11144 0.2813 4.5916 0.3024 13.415 0.01749 7.2864 0.04817 13.82 0.06825 14.52 0.04727 1.6444-0.36007 1.8894-2.9682 1.7855zm80.927-0.37921c-0.31827-0.32338-0.91931-1.6201-1.3356-2.8815l-0.75698-2.2936-7.1042 0.14486-0.33071 1.1759c-0.18187 0.64675-0.53465 1.8227-0.78394 2.6131l-0.45324 1.4372-1.9568 0.07804c-1.0762 0.04293-2.2346 0.0083-2.5741-0.07692-0.5443-0.13661-0.60128-0.26957-0.48142-1.1233 0.23696-1.6877 1.4996-6.2835 2.5634-9.3303 0.15052-0.43117 0.36888-1.1367 0.48521-1.5679 1.1866-4.3977 3.0718-11.011 4.3687-15.324 0.66901-2.2253 0.69295-2.261 1.6195-2.4143 2.0872-0.34526 3.0928-0.20062 3.6653 0.5272 0.29789 0.37869 0.5416 0.96538 0.5416 1.3038s0.23987 1.2339 0.53304 1.9899c0.29318 0.75608 0.63807 1.8451 0.76642 2.4199 0.96114 4.3047 1.7654 7.2677 3.2628 12.02 2.2525 7.1494 3.2662 10.729 3.274 11.563 2e-3 0.23747-0.64223 0.32664-2.3606 0.32664-2.1056 0-2.4269-0.06421-2.9424-0.58796zm-4.2413-12.282c-0.0999-0.4671-0.27077-0.96686-0.37976-1.1106-0.109-0.14372-0.2785-0.84927-0.37669-1.5679-0.22961-1.6807-0.3921-2.2212-0.6678-2.2212-0.20173 0-0.37112 0.55909-1.0293 3.3971-0.11666 0.50303-0.29911 1.238-0.40546 1.6332l-0.19339 0.71861h3.234zm-59.762 12.325c-1.8958-0.27774-4.0685-1.3341-5.2598-2.5573-1.3414-1.3772-2.6635-4.0941-3.053-6.2738-0.26277-1.4703-0.26696-1.9472-0.01919-2.1948 0.17491-0.1749 1.2356-0.35814 2.3718-0.40974 1.9231-0.08733 2.0805-0.05378 2.4457 0.52122 0.21467 0.33801 0.47385 1.1437 0.57595 1.7905 0.14334 0.90799 0.43479 1.4165 1.2792 2.2318 2.6483 2.5571 5.5054 2.6299 6.8849 0.17537 1.3665-2.4314 0.27564-4.9238-2.3724-5.4206-0.51893-0.09734-1.0607-0.31819-1.2039-0.49076-0.39611-0.47728-0.41566-3.7273-0.02528-4.1977 0.18205-0.21937 0.652-0.39885 1.0443-0.39885 1.2883 0 2.4465-1.0371 2.8526-2.5545 0.49391-1.8454-0.05356-3.4101-1.4215-4.0624-2.3097-1.1014-5.8341-0.07125-6.8574 2.0044-0.29412 0.59662-0.61503 1.7476-0.71313 2.5578l-0.17836 1.4731-1.6068 0.11856c-0.88374 0.06521-1.989 0.01416-2.4561-0.11344-0.76776-0.20973-0.84927-0.32695-0.84927-1.2214 0-3.8217 2.082-7.5968 5.0956-9.2397 1.8311-0.99821 2.8192-1.2361 5.1511-1.2401 3.7239-0.0064 6.3478 1.2766 8.0753 3.9488 1.0053 1.555 1.5377 3.2999 1.5377 5.0398 0 1.3965-1.2146 3.8885-2.3895 4.9026l-0.80961 0.69877 0.95628 0.83962c1.3371 1.1739 2.1574 2.732 2.3647 4.491 0.51472 4.3684-2.9931 8.8642-7.4848 9.5931-1.834 0.2976-1.8269 0.29762-3.9351-0.01124zm18.484 0.05025-1.0452-0.1589-0.04577-14.438c-0.03967-12.514 6e-3 -14.491 0.3453-14.83 0.49698-0.49698 3.9753-0.54583 4.5924-0.0645 0.482 0.37596 1.6544 3.257 1.9153 4.7065 0.09733 0.54054 0.28116 1.0472 0.40858 1.126 0.12743 0.07876 0.23169 0.37303 0.23169 0.65394 0 0.28091 0.11169 0.71494 0.24822 0.9645 0.1365 0.24956 0.425 1.1593 0.6411 2.0216 0.2161 0.86233 0.76122 2.5674 1.2114 3.789 0.4502 1.2216 1.1906 3.2704 1.6454 4.5527 0.45477 1.2824 0.96308 2.3763 1.1296 2.4309 0.30056 0.09865 0.95979-1.4221 1.7945-4.1397 0.23763-0.77371 0.53062-1.6419 0.65106-1.9294 0.12045-0.28744 0.53595-1.5072 0.92335-2.7106 0.38739-1.2034 0.86555-2.4969 1.0626-2.8744 0.19702-0.37758 0.35894-0.82779 0.35983-1.0005 3e-3 -0.62534 2.1747-7.0133 2.5206-7.4151 0.27502-0.31943 0.91257-0.41548 2.8299-0.42633 2.2974-0.01302 2.4888 0.02595 2.6685 0.54298 0.10647 0.30634 0.15938 6.8481 0.11757 14.537-0.06685 12.285-0.12594 14.036-0.48765 14.438-0.3238 0.35975-0.83776 0.4573-2.4094 0.4573-1.2054 0-2.1221-0.12437-2.3113-0.31358-0.22601-0.22601-0.31358-2.0198-0.31358-6.4239 0-4.7251-0.07285-6.086-0.32199-6.003-0.31021 0.10341-1.4861 3.0946-1.5003 3.8164-4e-3 0.19386-0.16966 0.72302-0.36856 1.1759-0.47643 1.0848-1.6064 4.4383-1.9944 5.919-0.45678 1.7431-0.59178 1.8292-2.8669 1.8292-2.4597 0-3.2576-0.47231-3.5309-2.0902-0.09693-0.57356-0.28354-1.1092-0.41475-1.1903-0.13123-0.0811-0.23858-0.37728-0.23858-0.6582 0-0.28091-0.11867-0.71494-0.26372-0.9645-0.14507-0.24956-0.49059-1.1593-0.76786-2.0216-1.3553-4.2153-2.0338-6.0043-2.2543-5.9439-0.13956 0.03822-0.24189 2.6672-0.24189 6.2152 0 5.1812-0.06166 6.188-0.39196 6.3972-0.42296 0.26794-1.856 0.27738-3.5277 0.02323zm-133.86-40.721c-0.4711-0.08685-0.58795-0.28231-0.58795-0.98344 0-1.6391 0.26877-1.5711-6.2091-1.5704l-5.9419 7.84e-4v2.3504l-2.6392 0.07403c-2.1085 0.05915-2.7056-0.0059-2.969-0.32337-0.35493-0.42767-0.63485-5.2306-0.37764-6.4797 0.09872-0.47945 0.36083-0.77227 0.78701-0.87923 0.6422-0.16118 0.93806-0.67877 2.4473-4.2814 0.33114-0.79049 0.7555-1.79 0.943-2.2212 1.0594-2.436 2.1904-5.3275 2.351-6.0102 0.10137-0.43117 0.36928-1.1367 0.59536-1.5679 0.5564-1.0612 1.0748-2.5201 1.0795-3.0384 0.0021-0.23392 0.16792-0.5614 0.36835-0.72775 0.20043-0.16633 0.75651-1.4179 1.2357-2.7812 0.47924-1.3633 1.1175-2.7874 1.4183-3.1647l0.54693-0.6859 4.6445-0.0272c2.5545-0.015 4.7673 0.0486 4.9173 0.14139 0.25304 0.15643 0.26904 3.2039 0.1041 19.822-0.01926 1.9402 0.05731 3.7335 0.17016 3.985 0.11285 0.25151 0.47073 0.4573 0.79528 0.4573 0.85541 0 1.1165 1.3512 0.95939 4.9649l-0.13066 3.0051-1.9598 0.0249c-1.0779 0.01369-2.2244-0.02388-2.5478-0.08351zm-3.1751-8.1566c0.37374-0.0144 0.4216-0.94854 0.45261-8.8354 0.01907-4.8506 0.06619-9.0544 0.1047-9.3418 0.08308-0.61996-0.87061-0.87184-1.285-0.33937-0.1452 0.18659-0.58306 1.3976-0.97303 2.691-0.63759 2.1149-2.6839 7.815-3.2833 9.146-0.12946 0.28745-0.31245 0.81661-0.40664 1.1759-0.0942 0.3593-0.40616 1.1824-0.69324 1.8292-1.143 2.575-1.3655 3.2744-1.1517 3.6203 0.11138 0.18023 3.3364 0.20436 7.2356 0.05414zm-58.512 5.7679c-0.98591-7.6643-0.45184-17.062-0.0274-24.11 0.31132-5.0991 0.37303-5.5061 0.87579-5.776 0.7245-0.38897 15.888-0.3264 16.626 0.0686 0.4578 0.24502 0.50509 0.47403 0.39217 1.8994-0.0707 0.89145-0.25404 3.2083-0.40762 5.1485s-0.30429 7.8198-0.33492 13.066l-0.0557 9.5379-2.2068 0.21472c-3.3314 0.32414-3.3193 0.3358-3.5055-3.3965-0.18193-3.6466-0.0672-12.585 0.22673-17.658l0.20816-3.593h-3.0399c-2.9406 0-3.044 0.0191-3.1668 0.58795-0.45367 2.1022-0.80845 12.121-0.6223 17.573 0.18628 5.456 0.16497 6.0403-0.23101 6.3368-0.4926 0.36886-4.1838 0.44728-4.7307 0.1005zm85.132-0.01975c-0.71472-0.21715-1.2834-0.51416-3.1715-1.6564-1.2847-0.77718-3.353-3.2029-3.353-3.9324 0-0.2362 0.49976-0.74505 1.1106-1.1308 0.61082-0.38573 1.5651-1.0008 2.1207-1.3668l1.0102-0.66543 0.55772 0.65779c0.30675 0.36178 0.85552 1.0488 1.2195 1.5266 0.5642 0.74074 0.86214 0.88808 2.0209 0.99943 2.1924 0.21066 3.4666-1.0885 3.4524-3.5197-0.0075-1.2827-0.57982-1.9902-2.346-2.9001-1.6329-0.84124-1.7374-1.1245-1.4397-3.9037l0.17526-1.6366 1.4139-0.66887c0.77764-0.3679 1.5913-0.92219 1.8081-1.2318 0.57974-0.82768 0.48911-2.3189-0.20346-3.3477-0.79482-1.1807-1.7116-1.596-3.0508-1.3818-1.0229 0.16356-2.7812 1.3001-3.2239 2.0838-0.40722 0.72092-1.4291 0.38359-3.0351-1.0019-0.87461-0.75454-1.5902-1.5836-1.5902-1.8423-1e-5 -0.25875 0.73492-1.2145 1.6332-2.124 2.0809-2.1067 3.8166-2.8377 6.9157-2.9124 1.875-0.0451 2.3119 0.0356 3.452 0.63867 1.8338 0.96992 3.2625 2.4115 4.1194 4.1566 0.61514 1.2527 0.73141 1.8136 0.71631 3.4553-0.02119 2.3037-0.54252 3.5236-2.1887 5.1214l-1.0706 1.0391 1.2467 1.3088c1.514 1.5894 2.1613 3.4023 2.1613 6.053 0 3.6753-1.9376 6.6517-5.1238 7.871-1.4917 0.57085-4.0007 0.7171-5.337 0.3111zm156.8 0.0179c-0.50309-0.14405-0.69213-0.42082-0.83348-1.2204-0.14608-0.82638-0.039-7.8547 0.13497-8.858 0.0234-0.13518-0.16317-0.29079-0.41469-0.3458-0.31293-0.0683-0.4573 0.0602-0.4573 0.40773 0 0.27927-0.24368 1.258-0.5415 2.175-0.53351 1.6426-1.067 3.7442-1.6338 6.4362l-0.28885 1.3719-1.577-0.03092c-2.5266-0.04954-3.0884-0.24959-3.589-1.2779-0.24426-0.50178-0.86999-2.3234-1.3905-4.0481-1.0858-3.5976-1.6906-5.3569-1.8416-5.3569-0.05776 0-0.09164 2.0344-0.07485 4.5208 0.01669 2.4865-0.04707 4.7648-0.14174 5.0631-0.13456 0.42398-0.44644 0.56857-1.4303 0.66311-0.69203 0.0665-1.7765 0.05174-2.4099-0.03278l-1.1516-0.15368-0.05606-14.428c-0.03248-8.3597 0.04297-14.489 0.1796-14.574 0.53801-0.33249 3.9621-0.21159 4.3016 0.15188 0.3478 0.37246 1.1966 2.8284 2.9263 8.467 0.52904 1.7246 1.4134 4.5468 1.9652 6.2715 0.55181 1.7247 1.0756 3.5179 1.164 3.985 0.22022 1.1635 0.55213 1.0647 0.87783-0.26131 0.26877-1.0942 0.94588-3.5256 1.8376-6.5981 0.25026-0.86233 0.60303-2.2146 0.78396-3.0051 0.18092-0.79048 0.41661-1.5548 0.52375-1.6986 0.10716-0.14371 0.25974-0.61407 0.33907-1.0452 0.29754-1.617 1.5075-5.7173 1.7862-6.0532 0.20348-0.24518 1.0098-0.34901 2.7101-0.34901 2.3103 0 2.4404 0.0305 2.8599 0.67078 0.35036 0.5347 0.37497 0.74854 0.12132 1.0542-0.25056 0.30191-0.24734 0.51576 0.0152 1.0063 0.24044 0.44927 0.28632 1.3027 0.16455 3.0615-0.0929 1.3412-0.24301 6.8483-0.33365 12.238-0.0907 5.3896-0.17871 10.27-0.1957 10.844l-0.0309 1.0452-1.824 0.04448c-1.0032 0.02446-2.1168-0.03935-2.4746-0.14182zm-212.32-0.23688c-1.4953-0.27872-2.5126-0.64316-3.0548-1.0944-0.33197-0.27625-1.0267-0.85806-1.5438-1.2929-1.3899-1.1687-3.3714-5.3575-3.3714-7.1268 0-0.56678-0.13503-1.2828-0.30007-1.5912-0.36782-0.68728-0.49518-7.2614-0.16565-8.5505 0.12863-0.50323 0.32658-1.2677 0.43991-1.6989 0.78091-2.9713 3.2871-6.1621 5.9054-7.5184 1.4256-0.73846 1.7932-0.81305 4.0504-0.82171 3.6625-0.014 4.9143 0.73231 7.9286 4.7272 0.66953 0.88735 1.2173 1.84 1.2173 2.1169 0 0.27696 0.29398 1.0564 0.65328 1.7322 0.57746 1.086 0.65173 1.5379 0.63986 3.8933-0.01988 3.9495-0.53677 7.4098-1.3934 9.3281-1.3615 3.049-4.7442 6.6334-7.0858 7.5083-0.85938 0.32109-3.0939 0.54275-3.9197 0.38882zm3.368-6.7866c0.67042-0.53896 1.2886-1.2739 1.3737-1.6332 0.0851-0.35931 0.32413-0.92436 0.53115-1.2557 0.48775-0.78069 0.57005-5.6007 0.14949-8.7557-0.45243-3.3941-2.1043-5.9286-3.864-5.9286-0.75242 0-2.2117 1.0485-2.2117 1.5892 0 0.27572-0.10419 0.5013-0.23153 0.5013-0.44107 0-1.0736 1.7811-1.3576 3.8226-0.42187 3.0332 0.0958 8.5671 0.96294 10.293 1.2748 2.538 2.6774 2.9505 4.6474 1.3667zm66.167 6.771c-0.20513-0.33191-0.1472-25.658 0.06346-27.741l0.17179-1.6985 1.8905-0.0767c3.0438-0.12349 2.8707-0.49382 2.9233 6.2541 0.02484 3.1912 0.09533 5.8833 0.15663 5.9825 0.13613 0.22028 6.2856 0.0906 6.6594-0.14029 0.17563-0.10854 0.21727-2.0887 0.12181-5.791-0.10535-4.0853-0.06176-5.7264 0.1592-5.9926 0.37307-0.44952 4.5543-0.52426 4.825-0.0863 0.09535 0.15421 0.20672 6.5335 0.24756 14.176 0.04087 7.6427 0.15814 14.1 0.26066 14.35 0.13635 0.33183 0.02142 0.51508-0.42811 0.68235-0.83885 0.31217-4.1813 0.34219-4.6649 0.04189-0.32272-0.2004-0.41505-1.2724-0.52262-6.0676l-0.13066-5.8242h-6.5328l-0.13066 6.0102-0.13066 6.0102-2.3958 0.07485c-1.3177 0.04116-2.4621-0.03233-2.543-0.16332zm19.964 0.01773c-0.69638-0.24568-0.73417-0.61722-0.25535-2.5108 0.25879-1.0234 0.67076-2.8603 0.91551-4.0819 0.24474-1.2216 0.59749-2.7503 0.78388-3.3971 0.18639-0.64674 0.41031-1.6808 0.49759-2.2979 0.08726-0.61709 0.25888-1.3226 0.38131-1.5679 0.12244-0.24524 0.60657-2.4449 1.0759-4.8882 0.46929-2.4433 1.007-4.8791 1.1948-5.4129 0.18786-0.53384 0.4599-1.8246 0.60454-2.8683 0.31563-2.2777 0.61414-2.5633 2.6789-2.5633 2.1443 0 2.6619 0.31209 3.1756 1.915 0.87339 2.7254 1.7374 6.1401 2.4245 9.5828 0.38728 1.9402 1.2342 5.5856 1.8821 8.1007 0.64785 2.5151 1.2317 4.8669 1.2975 5.2263 0.065744 0.35931 0.35222 1.4613 0.6366 2.4489 0.29957 1.0404 0.41987 1.8928 0.28598 2.0267-0.12708 0.12709-1.151 0.24855-2.2754 0.26992-1.8741 0.03562-2.0846-0.01348-2.5274-0.58945-0.26568-0.34557-0.48567-0.88715-0.48887-1.2035-0.0069-0.63715-0.67154-3.3338-0.92234-3.7396-0.087749-0.142-1.3244-0.25817-2.7481-0.25817-2.9997 0-2.8051-0.16643-3.5133 3.0051-0.25671 1.1498-0.59877 2.2231-0.76012 2.3852-0.31731 0.31873-3.7021 0.64488-4.3437 0.41854zm9.7899-11.804c0.24886-0.40265-0.93476-4.7186-1.294-4.7186-0.34381 0-1.181 3.0131-1.1798 4.2463 5.236e-4 0.67596 0.069492 0.71861 1.1612 0.71861 0.63827 0 1.229-0.11084 1.3127-0.2463zm11.899 11.82c-0.50303-0.06203-1.0268-0.22245-1.1639-0.35649-0.15195-0.14856-0.25399-5.9009-0.26132-14.732-0.013721-16.54-0.31598-14.766 2.5171-14.773 1.8476-4e-3 2.1037 0.23657 2.843 2.6754 0.88913 2.9332 1.8269 5.933 2.3483 7.5122 0.26102 0.79046 0.90541 2.8483 1.432 4.573 1.7551 5.7484 1.9058 5.8268 3.0164 1.5679 0.41228-1.5809 1.2938-4.5207 1.9589-6.5328 1.3184-3.9886 1.6057-4.9526 1.9465-6.5328 0.69628-3.2284 0.65717-3.1918 3.4589-3.2404 1.1731-0.0203 1.6162 0.0876 2.0208 0.49224 0.50589 0.50587 0.51668 0.8597 0.45085 14.778-0.05776 12.226-0.12244 14.296-0.45298 14.517-0.3687 0.24674-4.1506 0.07381-4.4358-0.20282-0.07195-0.0697-0.13066-2.047-0.13066-4.3941 0-6.0731-0.3138-6.1355-1.9697-0.39176-1.0775 3.7374-1.4353 4.7016-1.845 4.972-0.31658 0.20894-4.035 0.09815-4.4062-0.13126-0.48489-0.29968-1.0236-1.7198-2.0837-5.4926-0.70695-2.5161-1.0699-3.4179-1.4012-3.4817-0.40948-0.0789-0.44153 0.27717-0.38088 4.231 0.040272 2.6281-0.036035 4.4143-0.19509 4.5654-0.33629 0.31954-2.0916 0.52246-3.2664 0.3776zm25.086-0.02668c-0.64675-0.04501-1.2568-0.16259-1.3556-0.26131-0.09883-0.09871-0.21613-6.6974-0.26061-14.664l-0.08084-14.484 0.75965-0.20316c0.86576-0.23154 15.379-0.28342 15.968-0.0571 0.4969 0.19069 0.55987 4.518 0.07265 5.0051-0.1948 0.1948-1.1598 0.31397-2.5478 0.31464-1.2288 5.7e-4 -3.7335 0.0775-5.566 0.17097l-3.3317 0.16992 4e-3 3.0301c2e-3 1.6665 0.09583 3.1747 0.20811 3.3514 0.14872 0.23411 1.7255 0.34047 5.8102 0.39197l5.6061 0.0708 0.07585 2.4606c0.05106 1.6639-0.02279 2.5215-0.22848 2.6486-0.1673 0.10341-2.7822 0.2051-5.811 0.226-3.0288 0.0209-5.5717 0.10285-5.6509 0.18213-0.17148 0.17146-0.03118 5.8714 0.15178 6.1674 0.06965 0.1127 2.6335 0.2049 5.6974 0.2049 4.3176 0 5.6357 0.07822 5.8593 0.34768 0.45697 0.55062 0.07305 4.5432-0.45822 4.767-0.42454 0.17881-12.753 0.31133-14.922 0.16039zm18.903-0.37547c-0.11191-0.17965-0.23272-6.2062-0.26845-13.392-0.03567-7.1861-0.12706-13.671-0.20296-14.41-0.16583-1.6159-0.09533-1.6608 2.6099-1.6608 1.2527 0 1.9959 0.11384 2.1321 0.32663 0.23834 0.37234 0.23948 0.39937 0.29973 7.1861l0.04457 5.0303h3.4998c2.9503 0 3.5247-0.0648 3.6584-0.41334 0.08734-0.22734 0.15862-2.9084 0.15862-5.9579 0-3.964 0.08944-5.634 0.31358-5.8582 0.50047-0.50047 3.9837-0.41126 4.4189 0.11317 0.28824 0.3473 0.35499 3.0516 0.35863 14.528 2e-3 7.7556-0.07435 14.229-0.17074 14.385-0.20457 0.33101-3.0441 0.58458-3.9632 0.35391-0.88822-0.22292-1.313-1.4025-1.0897-3.0261 0.09983-0.72577 0.08224-1.3195-0.03897-1.3193-0.12129 1.29e-4 -0.22052-1.6755-0.22052-3.7237v-3.7239h-7.0575l0.06396 5.3569c0.03517 2.9463 4e-3 5.6215-0.06915 5.9449-0.12448 0.54903-0.27033 0.58795-2.2034 0.58795-1.3733 0-2.1386-0.10994-2.2736-0.32664zm24.305 0.14251c-2.6162-0.06455-3.7798-0.19031-3.9788-0.43009-0.30254-0.36453-0.45841-28.436-0.16058-28.918 0.17311-0.2801 15.201-0.37322 15.916-0.0987 0.33116 0.12707 0.41333 0.59161 0.41333 2.3364 0 1.4553-0.10836 2.2479-0.32663 2.3892-0.17966 0.11627-2.6785 0.2702-5.5529 0.34205l-5.2263 0.13065-0.08354 1.9599c-0.04577 1.0779-6e-3 2.7044 0.08844 3.6144l0.17182 1.6546 5.0673-0.0789c3.6444-0.0567 5.1541 8e-3 5.3764 0.23018 0.18699 0.18699 0.31804 1.2159 0.33183 2.6052l0.02278 2.2962-5.5269 0.0704c-4.0894 0.0521-5.5551 0.15408-5.6353 0.39197-0.05946 0.17685-0.05916 1.6831 7.8e-4 3.3473l0.10915 3.0258 5.2447 0.03754c2.8846 0.02064 5.3549 0.14777 5.4896 0.28251 0.32741 0.3274 0.4741 4.0087 0.1788 4.4871-0.25048 0.40582-4.2276 0.514-11.92 0.32424z" stroke-width=".26131"/><path d="m-170.57-47.362c-0.12-0.09546-0.48527-0.67341-0.81172-1.2843-0.32645-0.61093-0.7576-1.3607-0.95811-1.6662-0.2005-0.30546-0.45547-0.74283-0.56658-0.97193-0.11112-0.2291-0.30366-0.57275-0.42786-0.76366-0.27687-0.42557-1.9864-3.4463-2.4359-4.3043-0.35168-0.67122-0.71117-1.2758-3.4534-5.8074-0.0774-0.12787-0.3826-0.66986-0.67827-1.2044-0.59028-1.0672-1.3752-2.4213-3.1844-5.4939-0.65509-1.1125-1.2494-2.1747-1.3208-2.3604-0.11261-0.29318-1.1643-2.1694-1.5513-2.7675-0.074-0.11455-0.31844-0.52067-0.54294-0.90251-0.2245-0.38183-0.46714-0.76152-0.53919-0.84375-0.0722-0.08223-0.17229-0.27953-0.22272-0.43843-0.0504-0.1589-0.17715-0.32171-0.2816-0.36178-0.10443-0.04008-0.23183-0.26382-0.28308-0.4972-0.0512-0.23338-0.15227-0.46084-0.22448-0.50546-0.0722-0.04462-0.32006-0.43585-0.55079-0.86939-0.23075-0.43354-0.64238-1.1631-0.91474-1.6213-0.27237-0.4582-0.79249-1.3642-1.1558-2.0133-0.36333-0.64911-0.79381-1.4164-0.95659-1.7051-0.32439-0.57526-0.3788-1.0043-0.14566-1.1484 0.0827-0.05111 0.27226-0.37735 0.42128-0.725 0.14902-0.34764 0.4796-0.91871 0.7346-1.269 0.25501-0.35033 0.50999-0.79317 0.56662-0.98408 0.0566-0.19091 0.21088-0.47208 0.3428-0.62481 0.13193-0.15273 0.38276-0.63902 0.55742-1.0806 0.17465-0.44161 0.50611-1.0039 0.73659-1.2496 0.23048-0.24568 0.51033-0.66397 0.6219-0.92953 0.11157-0.26556 0.37359-0.73417 0.58229-1.0414 0.20869-0.30719 0.56693-0.90217 0.79606-1.3222 0.22915-0.42001 0.61879-1.1073 0.86586-1.5273 0.24709-0.42002 0.50387-0.85739 0.57061-0.97194 0.0667-0.11455 0.4993-0.83739 0.9612-1.6063 0.46191-0.76892 0.83983-1.4343 0.83983-1.4787 0-0.04434 0.24659-0.47742 0.54798-0.96236 0.30139-0.48496 0.7145-1.1941 0.91804-1.576s0.44118-0.78796 0.52809-0.9025c0.20129-0.26528 0.46675-0.73448 0.87318-1.5433 0.1771-0.35241 0.41376-0.71692 0.5259-0.80999 0.11215-0.0931 0.4644-0.67948 0.78277-1.3031 0.31837-0.62363 0.65714-1.2276 0.75281-1.3422 0.0957-0.11454 0.44372-0.70811 0.77343-1.319 0.3297-0.61092 0.64749-1.1442 0.70618-1.1851 0.0587-0.0409 0.21021-0.32203 0.3367-0.62482 0.1265-0.30278 0.40106-0.80045 0.61013-1.1059 0.20907-0.30547 0.6498-1.024 0.9794-1.5968 0.3296-0.57275 0.86973-1.4966 1.2003-2.0529 0.33056-0.55636 0.60101-1.0785 0.60101-1.1602 0-0.0818 0.18793-0.38594 0.41763-0.67595 0.22969-0.29003 0.49555-0.70514 0.59079-0.9225 0.39685-0.90566 1.2585-2.2842 1.5129-2.4203 0.33657-0.18013 0.58027-4e-3 0.96322 0.69673 0.64644 1.1826 1.3238 2.3426 1.5487 2.6524 0.13364 0.18399 0.24299 0.39283 0.24299 0.46409 0 0.0713 0.1562 0.33435 0.34711 0.58465 0.19092 0.25031 0.34712 0.49034 0.34712 0.53339 0 0.07 0.95207 1.7056 2.9151 5.0082 0.36313 0.61092 0.8157 1.3919 1.0057 1.7356 0.19 0.34366 0.76811 1.3434 1.2847 2.2216 0.51657 0.8782 1.3146 2.2528 1.7734 3.0546 0.45879 0.80185 1.0033 1.7078 1.21 2.0133 0.20668 0.30547 0.60689 0.96152 0.88935 1.4579 0.6041 1.0616 0.72464 1.2628 1.2312 2.055 0.21001 0.32839 0.38183 0.62369 0.38183 0.65625 0 0.03253 0.38492 0.70109 0.85538 1.4857 0.47046 0.78455 1.0724 1.8326 1.3377 2.329 0.26528 0.49638 0.80287 1.4336 1.1946 2.0827s0.78627 1.3052 0.87666 1.4579c0.0904 0.15273 0.43021 0.71507 0.75515 1.2496 0.32493 0.53456 0.80456 1.3781 1.0658 1.8744 0.26127 0.49638 0.5547 0.99623 0.65206 1.1108 0.0974 0.11455 0.40707 0.63676 0.68824 1.1605 0.62194 1.1584 0.61051 1.2286-0.49312 3.0288-0.45279 0.73859-0.82325 1.3749-0.82325 1.414 0 0.0825-0.67478 1.2258-1.3423 2.2742-0.2545 0.39975-0.46273 0.76014-0.46273 0.80088 0 0.04074-0.25999 0.49469-0.57775 1.0088-0.31777 0.51409-0.83815 1.4033-1.1564 1.9761-0.31826 0.57275-0.88615 1.5498-1.262 2.1711-0.82272 1.3603-1.1215 1.8668-1.5857 2.6885-0.19413 0.34365-0.57348 0.96846-0.84302 1.3885-0.44705 0.69662-0.77095 1.2487-2.0035 3.4152-0.22909 0.40268-0.99689 1.7068-1.7062 2.8979-0.70932 1.1912-1.4511 2.4605-1.6485 2.8207-0.19734 0.3602-0.56142 0.96732-0.80905 1.3492-0.24763 0.38184-0.68874 1.1316-0.98024 1.6662-0.2915 0.53457-0.73729 1.297-0.99064 1.6942-0.25335 0.39725-0.46063 0.78776-0.46063 0.86779 0 0.08003-0.0583 0.14552-0.12949 0.14552-0.0712 0-0.1695 0.12605-0.2184 0.2801-0.0489 0.15406-0.47485 0.93326-0.94657 1.7316-0.47173 0.7983-1.2578 2.1406-1.7468 2.9828-0.489 0.84225-0.96129 1.5314-1.0495 1.5314-0.0882 0-0.2586-0.0781-0.37859-0.17356zm0.76973-4.1654c0.50924-0.79211 0.85352-1.359 1.4125-2.3257 0.49887-0.86275 0.75618-1.2984 2.4362-4.1251 0.80749-1.3586 1.6502-2.7826 1.8727-3.1644 0.22248-0.38183 0.48072-0.8192 0.57388-0.97193 0.0932-0.15274 0.22827-0.40266 0.30027-0.5554 0.072-0.15273 0.29396-0.51564 0.49323-0.80646 0.19928-0.29082 0.49398-0.79067 0.6549-1.1108 0.16091-0.32011 0.37239-0.67574 0.46996-0.79028 0.0976-0.11455 0.47465-0.73936 0.83797-1.3885 0.36331-0.64911 0.85416-1.5153 1.0908-1.9249 0.23661-0.40955 0.5864-1.015 0.77732-1.3455 0.19092-0.33049 0.60497-1.0263 0.92012-1.5463 0.60884-1.0046 1.2045-2.0861 1.8972-3.4447 0.2336-0.4582 0.6325-1.0935 0.88644-1.4118 0.25394-0.31832 0.4617-0.62108 0.4617-0.6728 0-0.05173 0.11501-0.2599 0.25557-0.4626 0.14056-0.2027 0.52288-0.8684 0.84959-1.4793 0.32672-0.61093 0.75842-1.3607 0.95935-1.6662 0.20093-0.30546 0.45905-0.74219 0.5736-0.9705 0.11455-0.22831 0.51111-0.87644 0.88125-1.4403l0.67299-1.0252-0.26538-0.36472c-0.14595-0.2006-0.40734-0.66116-0.58086-1.0235-0.17352-0.36232-0.37302-0.69432-0.44334-0.73778-0.0703-0.04346-0.24358-0.30935-0.38502-0.59087-0.31955-0.63603-2.5146-4.4557-3.047-5.3021-0.57664-0.9168-2.2322-3.7362-2.8744-4.8953-0.30651-0.55314-0.69679-1.2244-0.86728-1.4917-0.17049-0.26729-0.31022-0.53337-0.31051-0.5913-2.7e-4 -0.05793-0.1911-0.36844-0.42404-0.69-0.23294-0.32155-0.54493-0.83649-0.69333-1.1443-0.14839-0.3078-0.37955-0.72214-0.51369-0.92077-0.54652-0.80924-0.62818-0.94529-2.0426-3.4033-0.5762-1.0013-1.0476-1.885-1.0476-1.9637 0-0.0788-0.0781-0.17423-0.17356-0.2122-0.0955-0.038-0.29497-0.3102-0.44337-0.60495s-0.40422-0.72337-0.5685-0.95247c-0.16427-0.2291-0.59937-0.97888-0.96688-1.6662s-0.77319-1.4058-0.90152-1.5968c-0.12833-0.19091-0.27719-0.44084-0.33079-0.55539s-0.17312-0.33419-0.26558-0.48811c-1.2469-2.0756-1.6434-2.7483-1.9856-3.3689-0.5495-0.99664-0.78882-0.93674-1.4742 0.36892-0.29579 0.56346-0.7126 1.282-0.92624 1.5967-0.21365 0.31475-0.93871 1.5407-1.6113 2.7244s-1.4012 2.4133-1.6192 2.7326c-0.21804 0.31922-0.39644 0.63787-0.39644 0.70811 0 0.0703-0.17203 0.37139-0.3823 0.66922-0.21026 0.29784-0.49352 0.7602-0.62946 1.0275s-0.44813 0.81262-0.69377 1.2119c-0.40143 0.65248-1.7153 2.8549-2.4038 4.0295-0.14542 0.2481-0.84907 1.4352-1.5636 2.6381-1.0786 1.8157-1.8318 3.097-3.7747 6.4219-0.0669 0.11455-0.26997 0.4582-0.45119 0.76366-1.0157 1.7121-3.2111 5.5103-3.3405 5.7792-0.0505 0.10518-0.24912 0.44117-0.44113 0.74664-0.53421 0.84984-0.53443 0.85259-0.12821 1.5589 0.20964 0.36448 0.5486 0.9751 0.75327 1.3569 0.20466 0.38183 0.57376 1.0308 0.82023 1.4421 0.24647 0.41132 0.63269 1.0986 0.85827 1.5273 0.45522 0.86512 0.80923 1.4779 1.9352 3.3499 0.42001 0.69829 0.84908 1.4366 0.95347 1.6406 0.1044 0.20403 0.46368 0.81684 0.79839 1.3618 0.33471 0.54495 0.60855 1.0256 0.60855 1.0682 0 0.04256 0.39961 0.7526 0.888 1.5779s1.0976 1.8836 1.3538 2.3519c0.69776 1.2754 1.4164 2.5144 2.0431 3.5226 0.57803 0.92982 2.5884 4.3745 3.2258 5.5273 0.46834 0.84701 1.7586 3.0909 1.9313 3.3586 0.0739 0.11455 0.22898 0.39571 0.34468 0.62482 0.11569 0.2291 0.38218 0.69975 0.59217 1.0459 0.21 0.34615 0.72275 1.2053 1.1395 1.9092 0.4167 0.70388 0.80657 1.2798 0.86638 1.2798 0.0598 0 0.31962-0.32803 0.57736-0.72895zm-0.69223-4.2399c-0.19162-0.12096-1.5999-2.8316-1.5151-2.9164 0.0332-0.03321 0.3784 0.01584 0.76706 0.10911 0.64411 0.15452 1.4178 0.12335 2.3283-0.09382 0.38542-0.09193 0.40448 0.12833 0.0544 0.6284-0.14191 0.20271-0.46159 0.74344-0.71039 1.2016-0.54317 1.0003-0.71703 1.2018-0.92419 1.0711zm-0.79803-4.794c-0.3186-0.25495-0.41312-0.46-0.46608-1.0111-0.064-0.66636-0.0458-0.70992 0.50419-1.2068 0.31384-0.28353 0.68608-0.51552 0.82719-0.51552 0.95885 0 1.7805 0.88705 1.64 1.7706-0.18269 1.1493-1.5943 1.6918-2.5053 0.96284zm-2.6302-1.1692c-0.68982-1.1508-2.0381-3.6381-2.0381-3.7598 0-0.07201-0.0986-0.21275-0.2191-0.31276-0.20283-0.16834-0.89168-1.4004-0.89168-1.5948 0-0.04712 0.26158 0.12261 0.5813 0.37722 1.1351 0.90395 2.2483 1.4921 3.4 1.7963 0.63582 0.16797 1.156 0.34795 1.156 0.39997 0 0.05201-0.24314 0.28997-0.5403 0.52878-0.6147 0.49398-1.1259 1.4373-1.1259 2.0778 0 0.41829-0.19076 0.70672-0.32229 0.4873zm6.9348-0.58537c-0.12978-0.81161-0.56622-1.5463-1.1929-2.008-0.52199-0.38458-0.61259-0.63713-0.22856-0.63713 0.2051 0 1.6824-0.58293 2.5803-1.0182 0.70569-0.34207 0.75412-0.37776 1.8454-1.3598 0.43995-0.39592 0.83539-0.68437 0.87876-0.64101 0.0791 0.0791-0.66201 1.5178-0.98297 1.9082-0.0942 0.11455-0.34727 0.52068-0.56247 0.90251-0.21521 0.38183-0.60659 1.0249-0.86973 1.429-0.26315 0.40413-0.61122 0.99459-0.77349 1.3121-0.39023 0.76361-0.58515 0.79512-0.69435 0.11224zm-4.8306-4.9373c-1.5315-0.31884-2.7672-1.0219-4.161-2.3675-0.52427-0.50614-0.95322-0.94627-0.95322-0.97807 0-0.0318-0.20775-0.35396-0.46165-0.71592-2.3409-3.337-3.7636-7.6451-3.9267-11.89-0.10595-2.7579 0.17821-4.9294 1.038-7.9323 0.25092-0.87632 1.2055-3.1434 1.5478-3.6762 0.0736-0.11455 0.29913-0.52068 0.50114-0.90251 0.8918-1.6856 3.3965-4.5694 4.4353-5.1065 1.7493-0.90459 4.0119-1.0732 5.9116-0.44054 0.85498 0.28474 1.255 0.52307 2.0458 1.219 0.54066 0.47578 1.1248 1.0544 1.2981 1.2857 0.17331 0.23138 0.48976 0.60444 0.70321 0.82901 0.50569 0.53202 1.8176 2.517 2.1685 3.2811 1.1955 2.6031 1.7202 4.2058 2.1643 6.6098 0.50098 2.7121 0.44483 5.2575-0.19207 8.7064-0.43954 2.3802-2.2195 6.306-3.808 8.3987-0.6617 0.87174-2.306 2.5008-2.5242 2.5008-0.08 0-0.36295 0.14242-0.62887 0.3165-0.64706 0.42358-1.6765 0.76072-2.7745 0.90866-1.1642 0.15685-1.4335 0.15164-2.3836-0.04618zm-1.5714-4.1687c1.4198-0.41145 2.0999-0.78772 3.0525-1.6889 0.38182-0.36121 0.89355-0.81526 1.1372-1.009 1.8006-1.432 2.1153-1.6713 2.1984-1.6713 0.0515 0 0.29058-0.0875 0.53122-0.19447 0.6365-0.28291 0.99133-0.35741 2.3599-0.49553 1.4366-0.14498 1.7043-0.32101 1.8374-1.2082 0.0766-0.51057 0.0434-0.66894-0.19291-0.92123-0.27173-0.2901-0.58157-0.93805-0.58157-1.2162 0-0.0714 0.10934-0.13193 0.24298-0.13452 0.13365-0.0026 0.49291-0.12543 0.79838-0.27298 0.30546-0.14755 0.68035-0.27264 0.83308-0.27798 0.36532-0.01276 0.91753-0.49045 1.3678-1.1832 0.29219-0.44956 0.36708-0.74183 0.38345-1.4965 0.0144-0.66224-0.0414-1.0081-0.1895-1.1769-0.16653-0.18973-0.20266-0.57674-0.17509-1.875 0.0302-1.4203 5.3e-4 -1.6794-0.22469-1.9658-0.14269-0.1814-0.25944-0.49264-0.25944-0.69164 0-0.199-0.0555-0.47031-0.12345-0.60291-0.0679-0.1326-0.21719-0.45978-0.33174-0.72706-0.90983-2.1228-1.5542-3.077-2.3544-3.4869-0.28526-0.14608-0.62873-0.4336-0.76327-0.63894-0.4188-0.63917-0.87727-1.02-1.3337-1.108-0.24147-0.04649-0.56227-0.16882-0.71291-0.27178-0.15063-0.10296-0.38868-0.1872-0.529-0.1872s-0.53604-0.21449-0.87936-0.47664c-0.34333-0.26215-0.82382-0.5197-1.0677-0.57234-0.24394-0.05263-0.6622-0.2058-0.92948-0.34036-0.97379-0.49027-2.7244 0.01228-2.9933 0.8593-0.18568 0.58502-0.93963 1.5194-1.4272 1.7688-1.0624 0.54331-1.7551 1.3215-2.4454 2.747-0.36216 0.74795-0.78605 1.498-0.94198 1.6669-0.24936 0.27-0.26287 0.3568-0.11216 0.72064 0.15566 0.37579 0.13516 0.4621-0.22389 0.94266-0.21738 0.29094-0.53582 0.68455-0.70764 0.87469-0.35607 0.39401-0.41567 1.0813-0.10414 1.2008 0.31319 0.12019 0.2527 0.43975-0.18973 1.0022-0.57379 0.72939-0.64523 1.0595-0.30334 1.4014 0.37899 0.37899 0.36054 0.55177-0.12788 1.1973-0.22698 0.29998-0.41444 0.61586-0.41655 0.70197-2e-3 0.0861-0.10215 0.23813-0.22229 0.33783-0.46294 0.38421-0.71687 1.1363-0.5831 1.7272 0.0692 0.30546 0.0887 0.84816 0.0434 1.206-0.06 0.47398-0.0304 0.6813 0.10866 0.76366 0.10501 0.06218 0.27844 0.29822 0.38544 0.52455 0.25758 0.54489 0.96405 0.87099 2.7232 1.257 0.66025 0.14487 1.0787 0.15557 1.7849 0.04562 1.2161-0.18932 1.3663-0.04926 0.80235 0.74799-0.23055 0.32591-0.52824 0.93243-0.66154 1.3478-0.13331 0.41538-0.42468 1.0202-0.6475 1.3441-0.49664 0.72185-0.50195 0.88837-0.0456 1.4306 0.43819 0.52076 0.65011 0.528 2.2114 0.07555zm14.869-4.5951c0.10498-0.3721 0.30079-1.0827 0.43512-1.5791 0.13434-0.49638 0.28166-0.93375 0.32738-0.97193 0.083-0.06936 0.17645-0.67701 0.4055-2.6381 0.31206-2.6718 0.0911-6.4818-0.49607-8.5513-0.11023-0.38854-0.20042-0.8134-0.20042-0.94412 0-0.13072-0.0884-0.40856-0.19636-0.61741-0.10801-0.20886-0.24277-0.6275-0.29948-0.93033-0.0931-0.4971-0.0813-0.53251 0.12157-0.36449 0.12357 0.10235 0.26657 0.32104 0.31778 0.48596 0.0512 0.16493 0.29779 0.61228 0.54795 0.9941 0.25016 0.38183 0.71207 1.1941 1.0265 1.805s0.68083 1.2982 0.81428 1.5273c0.13345 0.2291 0.47655 0.82267 0.76244 1.3191 0.2859 0.49638 0.5802 0.99623 0.65399 1.1108 0.0738 0.11455 0.26626 0.48359 0.42769 0.82009l0.29351 0.61182-0.3119 0.56839c-0.4124 0.75154-1.1052 1.9312-1.6385 2.7899-0.23711 0.38183-0.62814 1.0691-0.86894 1.5273-0.24081 0.4582-0.6078 1.083-0.81555 1.3885-0.20774 0.30546-0.48297 0.77408-0.61162 1.0414-0.12864 0.26728-0.38057 0.66545-0.55982 0.88482l-0.32593 0.39885zm-24.382-1.1278c-0.23994-0.4391-0.49356-0.8921-0.56359-1.0066-0.07-0.11455-0.24268-0.42696-0.38366-0.69424-0.4316-0.81831-1.0768-1.9745-1.5497-2.777-1.6087-2.7299-1.6146-2.7611-0.77251-4.0775 0.27049-0.42284 0.4918-0.79496 0.4918-0.82691 0-0.03195 0.40613-0.75687 0.90251-1.6109 0.49639-0.85404 0.90251-1.5914 0.90251-1.6385 0-0.04713 0.0849-0.18435 0.18864-0.30491 0.10374-0.12056 0.42476-0.65658 0.71337-1.1911 0.28862-0.53456 0.60986-1.0952 0.71388-1.2458 0.18546-0.26856 0.18914-0.26799 0.18914 0.02957 0 0.1669-0.11725 0.60255-0.26056 0.96812-0.64278 1.6397-1.4002 6.5087-1.2036 7.7378 0.049 0.3063 0.11876 1.1832 0.15504 1.9487 0.0683 1.4405 0.40287 3.1618 0.88952 4.5762 0.3251 0.94498 0.31953 0.91156 0.15215 0.91156-0.0707 0-0.32497-0.35927-0.56492-0.79837zm19.062-23.764c-0.80189-0.85974-1.229-1.1865-2.1521-1.6465-0.63344-0.31563-1.4173-0.65489-1.7418-0.75393-0.67247-0.20518-0.7358-0.39601-0.25234-0.76038 0.43746-0.3297 1.0507-1.5033 1.0507-2.0108 0-0.4854 0.32462-0.52984 0.60955-0.0835 0.19412 0.30414 0.76214 1.3088 1.3332 2.3582 0.15519 0.28517 0.63853 1.0662 1.0741 1.7356 1.6958 2.6063 1.7169 2.9177 0.0787 1.1613zm-13.818 0.36823c0.14832-0.24819 0.38703-0.66994 0.53047-0.93722s0.33209-0.57968 0.41922-0.69424c0.21822-0.28687 2.1155-3.5582 2.4412-4.2092 0.33302-0.6656 0.57314-0.59714 0.67942 0.19369 0.11803 0.87829 0.31886 1.2918 0.97107 1.9993 0.39477 0.42827 0.51578 0.64305 0.38567 0.68453-0.10427 0.0332-0.53324 0.16764-0.95325 0.29868-1.3048 0.40708-2.0119 0.84453-3.2324 1.9998-1.2575 1.1903-1.6958 1.425-1.2414 0.66455zm6.7217-4.7351c-0.45629-0.2532-0.85745-0.91902-0.85852-1.4249-2e-3 -0.94946 1.1833-1.647 2.1279-1.2524 0.60629 0.25334 0.92583 0.71504 0.92583 1.3378 0 0.61975-0.31907 1.0842-0.91619 1.3337-0.56598 0.23649-0.86085 0.23782-1.279 6e-3zm-1.4117-4.3594c2e-3 -0.0572 0.12528-0.26033 0.27461-0.45125 0.14934-0.19091 0.27291-0.4488 0.27461-0.5731 2e-3 -0.12429 0.0973-0.30416 0.21243-0.39972 0.11513-0.0955 0.37499-0.4781 0.57745-0.85009 0.50651-0.93061 0.84438-0.91759 1.366 0.0525 0.21555 0.40092 0.56913 0.99013 0.78573 1.3094 0.53522 0.78878 0.51347 0.9288-0.12685 0.81682-1.3324-0.23297-1.7198-0.23669-2.3482-0.0225-0.71275 0.24286-1.0205 0.27859-1.0158 0.11794z" stroke-width=".13885"/></g></svg>
