<?xml version="1.0" encoding="UTF-8"?>
<!-- Created with Inkscape (http://www.inkscape.org/) -->
<svg width="97.367mm" height="38.107mm" version="1.1" viewBox="0 0 97.367 38.107" xml:space="preserve" xmlns="http://www.w3.org/2000/svg"><g transform="translate(-246.69 13.799)"><g stroke-width=".46911"><path d="m254.14 5.4658h2.8562v-4.9317h3.3514c2.8562 0 4.5509-1.7328 4.5509-4.3033 0-1.2567-0.45695-2.323-1.2186-3.1037-0.79987-0.81878-1.9805-1.2758-3.5608-1.2758h-5.979zm2.8562-11.215h2.8944c1.3709 0 2.1707 0.72357 2.1707 1.9993 0 1.2377-0.76166 2.0374-2.2088 2.0374h-2.8564z"/><path d="m272.44 5.7704c4.0178 0 6.5502-3.0085 6.5502-7.0834 0-4.0748-2.5325-7.1024-6.5502-7.1024-4.0178 0-6.5692 3.0276-6.5692 7.1024 0 4.0748 2.5515 7.0834 6.5692 7.0834zm0.0183-2.2659c-2.4944 0-3.7703-2.1136-3.7703-4.8175 0-2.7229 1.2758-4.8365 3.7703-4.8365 2.4945 0 3.7131 2.1136 3.7131 4.8365 0 2.7039-1.2186 4.8175-3.7131 4.8175z"/><path d="m280.49 5.4658h9.1589v-2.304h-6.3978v-11.311h-2.7611z"/><path d="m291.15 5.4658h2.7609v-13.615h-2.7609zm4.17-16.718h-3.0274l-0.79986 2.3802h2.0185z"/><path d="m295.32-5.8257h4.094v11.292h2.7609v-11.292h4.0938v-2.323h-10.949z"/><path d="m307.68 5.4658h2.7612v-13.615h-2.7612z"/><path d="m318.52 5.7514c1.8852 0 3.1991-0.57124 4.132-1.4471 0.91411-0.85686 1.4281-2.0184 1.5043-3.218h-2.7039c-0.17126 1.4281-1.3138 2.3992-2.9324 2.3992-2.2848 0-3.7321-1.9993-3.7321-4.7794 0-2.7039 1.1996-4.7984 3.7131-4.7984 1.5996 0 2.6277 0.89494 2.8754 2.2659h2.7419c-0.28569-2.5896-2.266-4.589-5.6173-4.589-4.0176 0-6.531 3.0847-6.531 7.1215 0 4.0939 2.7227 7.0453 6.55 7.0453z"/><path d="m324.21 5.4658h2.799l0.89491-2.8943h4.9127l0.91411 2.8943h2.8752l-4.7984-13.615h-2.8562zm5.5599-8.9304c0.22867-0.72357 0.57139-2.0945 0.57139-2.0945h0.038s0.32371 1.371 0.5522 2.0945l1.2186 3.9225h-3.5988z"/></g><g stroke-width=".45077"><path d="m255.8 21.762c4.0178 0 6.5502-3.0085 6.5502-7.0834 0-4.0748-2.5325-7.1024-6.5502-7.1024s-6.5692 3.0276-6.5692 7.1024c0 4.0748 2.5515 7.0834 6.5692 7.0834zm0.0191-2.2659c-2.4944 0-3.7701-2.1136-3.7701-4.8175 0-2.7229 1.2756-4.8365 3.7701-4.8365 2.4945 0 3.7131 2.1136 3.7131 4.8365 0 2.7039-1.2186 4.8175-3.7131 4.8175z"/><path d="m263.86 21.457h2.8562v-4.9317h3.3513c2.8562 0 4.5508-1.7328 4.5508-4.3033 0-1.2567-0.45697-2.323-1.2186-3.1037-0.79967-0.81878-1.9803-1.2758-3.5608-1.2758h-5.9788zm2.8562-11.215h2.8942c1.3711 0 2.1708 0.72357 2.1708 1.9993 0 1.2377-0.76166 2.0374-2.2088 2.0374h-2.8562z"/><path d="m275.99 21.457h10.073v-2.304h-7.3119v-3.675h6.3598v-2.2659h-6.3598v-3.0466h7.2547v-2.323h-10.016z"/><path d="m287.77 21.457h2.7609v-5.4649h2.2278c1.7138 0 2.5517 0.83782 2.6659 2.323 0.11423 1.4662 0.15225 2.9895 0.49497 3.1418h2.6467v-0.13328c-0.47597-0.20945-0.39974-1.6756-0.5902-3.5988-0.17146-1.6566-0.81868-2.3802-2.0755-2.742v-0.05711c1.7518-0.47604 2.4945-1.6947 2.4945-3.2942 0-2.2659-1.7518-3.7892-4.3795-3.7892h-6.2455zm2.7609-11.387h3.0084c1.4663 0 2.1707 0.81878 2.1707 1.9232 0 1.0854-0.74266 1.8661-2.2468 1.8661h-2.9324z"/><path d="m304.02 7.843-4.7411 13.614h2.7993l0.89464-2.894h4.9128l0.91406 2.894h2.875l-3.8517-10.93h1.582l2.0565-2.6845h-3.0275l-0.81848 2.0972-0.73894-2.0972zm1.3904 2.5893h0.0378s0.32358 1.371 0.55207 2.0946l1.219 3.9229h-3.5987l1.2183-3.9229c0.22848-0.72358 0.57147-2.0946 0.57147-2.0946z"/><path d="m312.81 21.457h2.761v-5.4649h2.2278c1.7138 0 2.5517 0.83782 2.6659 2.323 0.11423 1.4662 0.15224 2.9895 0.49497 3.1418h2.6469v-0.13328c-0.47617-0.20945-0.39994-1.6756-0.59041-3.5988-0.17126-1.6566-0.81867-2.3802-2.0755-2.742v-0.05711c1.7518-0.47604 2.4944-1.6947 2.4944-3.2942 0-2.2659-1.7518-3.7892-4.3795-3.7892h-6.2455zm2.761-11.387h3.0086c1.4661 0 2.1705 0.81878 2.1705 1.9232 0 1.0854-0.74246 1.8661-2.2468 1.8661h-2.9324z"/><path d="m325.23 21.457h2.7611v-13.615h-2.7611z"/><path d="m329.11 21.457h2.7992l0.8949-2.8943h4.9127l0.9139 2.8943h2.8752l-4.7982-13.615h-2.8564zm5.5601-8.9304c0.22849-0.72357 0.5712-2.0946 0.5712-2.0946h0.038s0.3237 1.371 0.55218 2.0946l1.2188 3.9225h-3.5988z"/></g></g></svg>
