<?xml version="1.0" encoding="UTF-8"?>
<!-- Created with Inkscape (http://www.inkscape.org/) -->
<svg width="305.09" height="80" fill-rule="evenodd" version="1.1" viewBox="0 0 86.104 22.578" xml:space="preserve" xmlns="http://www.w3.org/2000/svg" xmlns:cc="http://creativecommons.org/ns#" xmlns:dc="http://purl.org/dc/elements/1.1/" xmlns:rdf="http://www.w3.org/1999/02/22-rdf-syntax-ns#"><metadata><rdf:RDF><cc:Work rdf:about=""><dc:format>image/svg+xml</dc:format><dc:type rdf:resource="http://purl.org/dc/dcmitype/StillImage"/></cc:Work></rdf:RDF></metadata>
 <defs><style type="text/css"/><style type="text/css"/></defs>
 <g transform="translate(-57.829)"><path transform="scale(.28222)" d="m204.91 9.0938v63.906h13.469v-46.438h14.688v46.438h13.406v-63.906z"/><path d="m80.96 2.5739c0.73998-0.012542 1.643-0.025084 2.3077 0.37626 1.5678 0.94065 2.2074 2.7342 2.0443 4.49-0.30101 3.286-3.3111 5.6063-6.2459 6.6849-0.57624 0.2305-1.1983 0.40525-1.8061 0.52676v5.9531h-3.8002v-18.031zm-1.6179 8.3154c0.47926-0.46193 1.8938-1.9315 1.4549-2.9223-0.16314-0.38747-0.49324-0.46405-0.87794-0.46405h-2.6589v4.5904c0.72818-0.26141 1.5177-0.66008 2.082-1.204z"/><path d="m98.393 2.5696v18.035h-3.8002v-5.4558h-4.7033c0.01254 1.8938 0.4766 3.6372 1.041 5.4558h-3.5243s-1.0159-2.7091-1.1915-6.6347c-0.03763-0.79015 0.05017-2.3955 0.46406-4.1389 0.81523-3.3738 2.9725-7.2618 3.0352-7.2618zm-3.8002 10.059v-0.72744h-4.2267c-0.06271 0.2383-0.12542 0.48914-0.18813 0.72744zm0-2.2199v-2.9097h-2.3579c-0.53032 0.96243-1.0171 1.8728-1.3922 2.9097z"/><path d="m108.38 2.5696c1.0661 0 2.1948 0.087794 2.7342 0.27592 1.7308 0.60202 2.1572 2.1321 2.082 3.888-0.0752 1.5427-0.90302 2.8721-2.0694 3.9633 0.80659 0.97941 1.5376 1.9859 2.0157 3.0335 0.6707 1.4697 0.78076 2.8439 0.021 4.3193-1.2459 2.4193-3.1982 2.5554-5.6865 2.5554h-5.1171v-18.035h6.0202zm0.23829 13.069c0.43897-0.05017 0.73998-0.53931 0.76507-0.94065 0.0627-0.84032-0.92811-1.6054-1.4423-1.9064-0.57599 0.28797-1.1852 0.51891-1.7935 0.72744v2.1447c0.82026 0 1.6528 0.05279 2.4708-0.02508zm-1.1413-6.0703c0.68981-0.35118 1.48-0.8654 1.3294-1.4172-0.15129-0.52963-0.89744-0.4288-1.3294-0.45151-0.51422-0.012542-1.0661 0-1.3294 0v2.4206c0.45758-0.15253 0.89468-0.34318 1.3294-0.55185z"/><path d="m127.54 2.5696v13.094h1.9942v6.8103h-3.3082c-0.4483-1.7942-2.0711-3.1235-4.0038-3.1235-1.9329 0-3.5554 1.3294-4.0037 3.1235h-3.3084v-6.8103h1.806c-0.0376-0.82777 0.20067-4.327 0.61456-6.0578 0.7776-3.2233 2.082-6.7225 2.245-7.0361zm-3.8002 13.094v-8.1774h-1.9942c-1.0034 2.1447-1.3044 6.0453-1.4423 8.1774z"/><path d="m143.37 2.5696v18.035h-3.8002v-5.4558h-4.7033c0.0125 1.8938 0.4766 3.6372 1.041 5.4558h-3.5243s-1.0159-2.7091-1.1915-6.6347c-0.0376-0.79015 0.0502-2.3955 0.46405-4.1389 0.81524-3.3738 2.9725-7.2618 3.0352-7.2618zm-3.8002 10.059v-0.72744h-4.2267c-0.0627 0.2383-0.12542 0.48914-0.18813 0.72744zm0-2.2199v-2.9097h-2.3579c-0.53032 0.96243-1.0171 1.8728-1.3922 2.9097z"/></g>
</svg>
