<?xml version="1.0" encoding="UTF-8"?>
<!-- Created with Inkscape (http://www.inkscape.org/) -->
<svg width="188.14mm" height="75.406mm" version="1.1" viewBox="0 0 188.14 75.406" xmlns="http://www.w3.org/2000/svg">
 <g transform="translate(-63.238 -42.839)">
  <path d="m65.762 42.839c-0.52954-0.005071-1.0495 0.1476-1.0495 0.36018 0 0.16674 0.30012 0.71009 0.66663 1.2077 0.3665 0.4976 0.95268 1.6913 1.3028 2.6526 0.62006 1.7025 0.6326 1.9597 0.47697 9.9472-0.087867 4.5098-0.22212 9.7983-0.29817 11.752-0.35191 9.0361-0.49903 12.49-0.59893 14.068-0.059316 0.93789-0.2406 5.5499-0.40308 10.249-0.33587 9.7139-0.575 12.14-1.3265 13.469-1.3132 2.3227-1.3447 2.4106-1.2728 3.5662 0.033977 0.54609 0.26865 0.57174 5.9738 0.65784 4.0798 0.06162 5.9985-0.00723 6.1304-0.22066 0.10559-0.17085-0.084778-0.88266-0.42323-1.5818-0.59567-1.2305-0.6091-1.4829-0.42581-7.8791 0.50302-17.869 0.59411-32.825 1.8759-48.727 0.20648-0.55237 0.44066-0.62446 2.0226-0.62528 2.9899-0.001547 2.8685-0.1534 2.6712 3.3393-0.094055 1.6647-0.23891 5.5843-0.32194 8.7106-0.083023 3.1263-0.27826 8.4978-0.43357 11.937-0.1553 3.4389-0.33866 8.1075-0.40773 10.374-0.32616 10.704-0.76972 19.263-1.0387 20.036-0.2943 0.84683-1.0663 3.8085-1.0857 4.1651-0.012794 0.23556 9.4821 0.22694 10.888-0.00981l1.0459-0.17622-0.59221-1.1028c-0.51742-0.9634-0.58995-1.5694-0.57051-4.7909 0.012278-2.0283 0.072415-3.7699 0.13332-3.8706l1.7224-44.236c0.11717-5.2743 0.43162-7.7868 1.1834-9.4589 0.3712-0.82561 0.8669-1.5746 1.1012-1.6645 0.46517-0.17851 0.58041-1.1105 0.16898-1.3648-0.23005-0.14217-7.5589-0.33682-21.485-0.57051-2.6573-0.044589-4.9597-0.11302-5.116-0.15244-0.15983-0.040311-0.33715-0.059805-0.51366-0.061495zm126.89 0.75809-0.14831 0.7152c-0.0948 0.45771 0.05081 0.97106 0.40411 1.4258 1.316 1.6939 1.4775 2.3085 1.6779 6.3805 0.10805 2.1964 0.17225 9.9401 0.14314 17.209-0.0336 7.0942 0.39179 18.705-3.0091 28.631-0.81894 2.6332-1.7305 3.6585-3.4856 3.9217-0.92444 0.13863-1.4198 0.37925-1.6433 0.79685-0.4 0.74752-0.63824 9.3769-0.32195 11.668 0.33973 2.4603 0.92196 2.6911 2.4552 0.97513 0.65288-0.73072 1.6838-1.6578 2.2918-2.0603l1.1059-0.73174h9.2062c10.039 0 10.565 0.07237 11.944 1.6366 0.37786 0.42869 1.0217 1.3549 1.4304 2.0583 0.40872 0.70342 0.86484 1.4386 1.0134 1.634 1.0918 1.4361 1.4121-0.9602 1.2826-9.5922l-0.08785-5.826-1.6474-0.14677c-0.97536-0.0868-1.7482-0.31027-1.895-0.54777-0.13786-0.22293-0.19516-8.9952-0.1292-19.748 0.15489-25.259 0.41025-34.063 0.99839-34.426 0.14173-0.08765 0.25735-0.44926 0.25735-0.80357 0-0.35432 0.31976-0.94443 0.71055-1.3115 0.39079-0.36713 0.71055-0.88678 0.71055-1.155 0-0.44424-0.53765-0.49077-6.0394-0.52503-3.3217-0.02062-8.5559-0.069351-11.632-0.10749l-5.5924-0.069247zm-88.163 0.037207c-3.5307 0.0032-6.5624 0.06632-6.7334 0.19689-0.53065 0.40505-0.4318 1.2241 0.29094 2.4097 1.3586 2.2286 1.4028 2.6525 1.2103 11.662-0.17718 8.29-0.45202 14.759-0.98599 23.219-0.14799 2.3447-0.34282 6.2458-0.43305 8.6687-0.28976 7.7816-0.47898 10.916-0.72916 12.079-0.1345 0.62526-0.27239 2.0159-0.30644 3.0903-0.05178 1.6335-0.17653 2.0752-0.76119 2.6996-0.98791 1.0551-1.5553 1.9624-1.3922 2.2262 0.10323 0.16692 10.158 0.24052 13.48 0.0987 0.57801-0.0247 0.41102-0.50705-0.49765-1.4366-1.568-1.604-1.6438-2.0802-1.373-8.6692 0.13486-3.2816 0.44451-8.2049 0.68781-10.94 0.75049-8.4377 0.56908-7.8311 2.1973-7.3313 0.77061 0.23653 1.7334 0.23264 3.7522-0.015503 3.0797-0.37848 3.9566-0.81445 6.3087-3.1383 1.6857-1.6655 2.3522-3.3586 2.3554-5.9795 9.1e-4 -0.87045 0.13942-2.3503 0.30799-3.2882 0.49658-2.7629 0.72707-18.629 0.29611-20.389-0.14313-0.58453-0.6261-1.4931-1.0728-2.0195-0.97805-1.1525-3.8065-2.6261-5.5299-2.881-1.1691-0.17292-6.5328-0.26618-11.072-0.26148zm72.2 0.38757c-1.9133-0.0011-4.9712 0.063163-10.08 0.15865-8.5616 0.16007-8.9248 0.22869-8.5762 1.6175 0.0933 0.37208 0.70012 1.4662 1.3482 2.4314 1.0621 1.5817 1.1943 1.9734 1.3379 3.9662 0.20748 2.8802 0.13749 10.266-0.1881 19.832-0.14365 4.2205-0.27345 9.9757-0.28784 12.789-0.0144 2.8137-0.10655 8.6968-0.20516 13.074-0.17092 7.59-0.21076 8.0248-0.85576 9.4056-0.37196 0.79625-0.93206 1.6791-1.2449 1.9622-0.31282 0.28311-0.56896 0.79946-0.56896 1.1477 0 0.62409 0.04788 0.63245 3.3393 0.54157 18.914-0.52203 18.385-0.45694 20.402-2.5073 2.0278-2.0619 2.3556-3.4258 2.4345-10.131 0.0339-2.888 0.18347-6.4654 0.33228-7.9504 0.44862-4.4768 0.32997-7.1701-0.37879-8.5819-0.83821-1.6696-1.5898-2.4368-3.1791-3.2458-1.9395-0.98726-1.8871-1.1502 1.0454-3.2355 0.54956-0.3908 1.0029-0.81178 1.0072-0.93534 4e-3 -0.12357 0.26078-0.57124 0.56999-0.99477 1.1469-1.571 1.4733-4.4365 1.6133-14.178 0.0924-6.4269 0.03322-9.5086-0.19844-10.369-0.45307-1.6826-1.7026-3.1613-3.4375-4.0685-1.0306-0.53891-1.0404-0.72575-4.2292-0.72812zm-37.509 0.081648c-2.5372-0.0021-4.4791 0.029119-4.7299 0.081649-0.78973 0.16541-1.1387 1.446-0.56741 2.0836 0.58765 0.65584 1.6014 3.8106 1.6014 4.9837 0 0.54186-0.12347 1.3104-0.2744 1.7074-0.15092 0.39697-0.5383 2.7394-0.86093 5.2054-0.32264 2.4659-0.71781 5.123-0.87798 5.9045-0.16016 0.78158-0.39862 2.3173-0.5302 3.4127-0.13157 1.0953-0.50554 3.2692-0.83096 4.8312-0.32541 1.562-0.78197 3.9913-1.0139 5.3981-0.6241 3.7857-0.93444 5.405-1.5792 8.2419-0.65988 2.9032-0.61205 2.6535-1.7064 8.9524-1.5331 8.8245-2.2132 11.306-3.993 14.562-0.72732 1.3306-0.63482 1.3539 5.4141 1.3539 6.4307 0 6.2059 0.10035 5.0038-2.2319-0.9381-1.8201-1.2375-2.9474-1.4666-5.5304-0.18304-2.0637 0.20825-5.3772 0.70125-5.9423 0.24124-0.27649 7.4926-0.38243 7.9241-0.11576 0.44289 0.27373 0.45941 5.005 0.02584 7.4951-0.30134 1.7304-1.5172 4.4736-2.4541 5.5376-0.56454 0.64116-0.26302 0.75075 2.3446 0.85215 1.0942 0.04259 4.2918 0.07751 7.1055 0.07751h5.1155l-0.04083-1.279c-0.023-0.71719-0.38583-2.0275-0.82631-2.9838-0.84769-1.8403-1.2106-4.1732-1.9684-12.647-0.96638-10.751-2.6289-23.03-3.6427-34.39-0.34466-3.2044-0.62684-6.5934-0.62684-7.5313 0-2.3325 0.82866-5.0352 1.9312-6.2983 0.29482-0.33776 0.49044-0.84939 0.43512-1.1369-0.094-0.48816-0.5507-0.52647-6.9174-0.58136-0.93736-0.0086-1.8492-0.012389-2.6949-0.012919zm97.853 0.59325c-2.5372-0.0021-4.4791 0.029119-4.7299 0.081649-0.78973 0.16541-1.1387 1.446-0.56741 2.0836 0.58765 0.65584 1.6015 3.8106 1.6015 4.9837 0 0.54186-0.12296 1.3109-0.27389 1.7079-0.15092 0.39697-0.5383 2.7389-0.86093 5.2049-0.32264 2.4659-0.71833 5.123-0.8785 5.9045-0.16016 0.78158-0.3981 2.3173-0.52968 3.4127-0.13157 1.0953-0.50554 3.2698-0.83096 4.8317-0.32541 1.562-0.78197 3.9908-1.0139 5.3976-0.6241 3.7857-0.93444 5.405-1.5792 8.2419-0.65988 2.9032-0.61205 2.6541-1.7064 8.9529-1.5331 8.8245-2.2137 11.305-3.9936 14.561-0.72732 1.3306-0.6343 1.3539 5.4146 1.3539 6.4307 0 6.2059 0.10036 5.0038-2.2319-0.9381-1.8201-1.2375-2.9474-1.4666-5.5304-0.18304-2.0637 0.20773-5.3772 0.70073-5.9423 0.24124-0.27649 7.4931-0.38191 7.9246-0.11524 0.44289 0.27373 0.45941 5.0045 0.02584 7.4946-0.30133 1.7304-1.5172 4.4736-2.4541 5.5376-0.56453 0.64115-0.26301 0.75073 2.3446 0.85214 1.0942 0.0426 4.2919 0.07803 7.1055 0.07803h5.1154l-0.04082-1.279c-0.023-0.71719-0.38634-2.028-0.82682-2.9843-0.8477-1.8403-1.2106-4.1732-1.9684-12.647-0.96638-10.751-2.6284-23.029-3.6422-34.389-0.34466-3.2044-0.62684-6.5939-0.62684-7.5318 0-2.3325 0.82866-5.0347 1.9312-6.2978 0.29482-0.33776 0.49043-0.84939 0.43511-1.1369-0.094-0.48816-0.55069-0.52698-6.9174-0.58188-0.93736-0.0086-1.8492-0.012389-2.6949-0.012919h-5.2e-4zm-126.97 7.9866c0.85429-0.0043 1.8854 0.31621 2.3166 0.79272 0.44843 0.49553 0.51489 1.2248 0.56173 6.1459 0.0721 7.5706-0.25217 11.883-0.94568 12.566-0.57831 0.57009-3.1576 1.0004-3.7166 0.62012-0.26423-0.17975-0.28371-0.84636-0.08217-2.7823 0.14581-1.4003 0.32288-5.8001 0.39378-9.7777 0.12378-6.9465 0.15153-7.2407 0.70538-7.4455 0.21667-0.08013 0.48212-0.11783 0.76688-0.11937zm91.999 0.76481c0.15561-0.0011 0.31981 0.004726 0.48524 0.016536l1.2036 0.0894c-0.0675 16.437-0.05577 33.348-0.74466 48.608-0.89944 0.27825-6.7005 0.28941-6.7004 0.01292 8e-5 -0.16801 0.2497-0.96183 0.55449-1.7637 2.0026-5.2689 3.4282-18.784 3.4168-32.393-3e-3 -3.6121 0.05152-6.7458 0.12092-6.9634 0.0695-0.21755 0.206-1.9301 0.30386-3.8055 0.0979-1.8754 0.28266-3.514 0.41031-3.6416 0.0957-0.09571 0.483-0.15531 0.94981-0.15865v-5.16e-4zm-28.948 0.51108h5.2e-4c1.6859-0.01439 1.5226 0.79455 1.296 14.658-0.0489 2.9918-0.37103 3.6853-1.8407 3.961h-5.2e-4c-0.56709 0.10634-1.2006 0.25878-1.4082 0.33848-0.20757 0.0797-0.48604-0.023891-0.61908-0.22996-0.23587-0.36528-0.21408-5.3246 0.04495-10.18 0.0709-1.3287 0.13063-3.7906 0.13385-5.471l0.00516-3.0556h1.5472c0.32153 0 0.59992-0.018631 0.84077-0.020671zm-34.831 17.358c0.14192 0 0.40222 1.2468 0.57878 2.7709s0.45416 3.9226 0.61702 5.3294c0.16287 1.4068 0.51752 4.4346 0.78754 6.7283 0.27004 2.2937 0.44468 4.308 0.38861 4.4762-0.0646 0.1938-1.2522 0.30592-3.2406 0.30592h-3.1388l0.16588-1.3503c0.15604-1.2679 0.31294-1.9984 1.0645-4.9733 0.16784-0.66434 0.48274-2.2954 0.70022-3.6241 0.21749-1.3287 0.47634-2.7351 0.57516-3.1259 0.0987-0.39078 0.23107-1.0303 0.29455-1.4211 0.75517-4.6462 0.86657-5.116 1.2072-5.116zm97.853 0.59325c0.14192 0 0.40274 1.2473 0.57929 2.7714 0.17657 1.5241 0.45415 3.922 0.61701 5.3289 0.16287 1.4068 0.51701 4.4346 0.78704 6.7283 0.27004 2.2937 0.44468 4.308 0.3886 4.4762-0.0645 0.1938-1.2522 0.30592-3.2406 0.30592h-3.1383l0.16589-1.3503c0.15604-1.2679 0.31242-1.9984 1.064-4.9733 0.16784-0.66433 0.48326-2.2949 0.70074-3.6236 0.21749-1.3287 0.47633-2.7356 0.57515-3.1264 0.0987-0.39078 0.23108-1.0303 0.29456-1.4211 0.75517-4.6462 0.86607-5.116 1.2066-5.116zm-65.054 10.492c0.72008 6.33e-4 1.5986 0.23902 2.1745 0.59014l0.96583 0.58911-0.17983 7.4388c-0.21514 8.8947-0.34842 10.208-1.0821 10.666-0.29736 0.18569-1.1133 0.41671-1.8133 0.51263l-1.2728 0.17415-0.00207-2.0996c-1e-3 -1.1545-0.01424-5.3597-0.02894-9.3457-0.0146-3.986-0.01343-7.5352 0.00207-7.8869 0.0251-0.55849 0.18165-0.63958 1.2366-0.63872z" stroke-width=".28421"/>
 </g>
</svg>
