<?xml version="1.0" encoding="UTF-8"?>
<!-- Created with Inkscape (http://www.inkscape.org/) -->
<svg width="282.43" height="110.99" version="1.1" xmlns="http://www.w3.org/2000/svg" xmlns:cc="http://creativecommons.org/ns#" xmlns:dc="http://purl.org/dc/elements/1.1/" xmlns:rdf="http://www.w3.org/1999/02/22-rdf-syntax-ns#">
 <metadata>
  <rdf:RDF>
   <cc:Work rdf:about="">
    <dc:format>image/svg+xml</dc:format>
    <dc:type rdf:resource="http://purl.org/dc/dcmitype/StillImage"/>
   </cc:Work>
  </rdf:RDF>
 </metadata>
 <g transform="translate(-296.48 -534.21)">
  <path d="m494.14 645.11c-0.15478-0.05-0.95894-0.2999-1.7871-0.55556-1.8904-0.58362-2.7004-1.3376-3.2765-3.0498-0.49243-1.4636-0.36816-3.4064 0.30248-4.7291 0.58201-1.1478 2.2919-2.5037 3.1574-2.5037 0.42259 0 1.1535-0.22159 1.6243-0.4924 1.0364-0.59615 3.9955-2.8863 5.7398-4.4422 0.70061-0.62487 1.7802-1.5045 2.3992-1.9547 0.61905-0.45024 1.1888-0.89188 1.2662-0.98144 0.0775-0.0896 0.71043-0.59408 1.4069-1.1212 0.69637-0.52709 1.5194-1.2202 1.8289-1.5402 0.73348-0.7585 2.923-2.6654 3.9639-3.4523 4.3832-3.3137 9.4011-7.8056 9.4011-8.4157 0-0.21485 0.12664-0.39063 0.28133-0.39063 0.15894 0 0.28528-0.82661 0.29029-1.8992 9e-3 -1.0446 0.19079-3.2287 0.41313-4.8536 0.675-4.9334 0.58787-6.2014-0.54827-7.9775-1.6515-2.5817-1.6365-2.669 0.80814-4.6664 1.9396-1.5849 2.1333-1.8355 2.1481-2.779 9e-3 -0.57037 0.23151-2.05 0.4945-3.288 0.41417-1.9502 0.56292-2.263 1.1139-2.3415 1.3417-0.19104 4.7789 1.6046 5.9699 3.1188 0.33792 0.4296 1.207 0.91977 2.1653 1.2212 1.7174 0.54016 3.2499 1.6948 3.8885 2.9295 0.82807 1.6013-0.42921 3.7241-3.0031 5.0709-1.3121 0.6865-2.2202 1.9595-2.4106 3.3793-0.0822 0.61178-0.0804 1.1123 0 1.1123 0.0833 0 0.51169-0.56955 0.95149-1.2656 0.43978-0.69612 0.90357-1.2659 1.0308-1.2662 0.1271-2.7e-4 0.42098-0.19042 0.65316-0.42256 1.3246-1.3246 4.601 0.61546 4.6019 2.725 0 1.7302-0.46918 2.4654-3.461 5.4149-2.7532 2.7143-3.8998 4.0053-6.1371 6.91l-1.0167 1.3201-0.20629 4.0545c-0.11349 2.23-0.3656 6.3953-0.56027 9.2562-0.36041 5.2969-0.23256 7.0239 0.63908 8.6372 0.92304 1.7084-0.0624 4.0838-2.0936 5.0478-2.607 1.237-5.4494-0.14665-7.5519-3.6762-1.1772-1.976-1.2031-2.3446-0.3316-4.696 0.89168-2.4056 1.6456-6.5117 1.5355-8.3632l-0.0898-1.5066-0.71808 0.66246c-0.3949 0.36435-1.1546 0.9961-1.6882 1.4039-1.446 1.1052-3.9584 3.7137-9.0511 9.3977-2.7964 3.1211-7.9582 8.167-9.3343 9.1247-0.32574 0.22673-0.83866 0.63912-1.1398 0.91646-0.79755 0.7344-2.7462 1.2266-3.6729 0.92781zm-123.93-1.7064c-0.96217-0.50368-2.0737-1.2133-2.4702-1.577-1.0009-0.91825-4.018-4.7167-4.018-5.0586 0-0.41829-1.4693-3.3403-1.6797-3.3403-0.0999 0-0.41211-0.53812-0.69379-1.1958-0.2817-0.6577-0.70165-1.639-0.93326-2.1806-0.23152-0.54163-0.77176-1.6975-1.2003-2.5686-0.42864-0.87111-0.87174-2.0107-0.98475-2.5323-0.46938-2.1668-4.4914-10.262-5.2706-10.609-0.11605-0.0516-0.211-0.2152-0.211-0.36359s-0.12493-0.42272-0.27773-0.60963c-2.0229-2.4754-2.7613-4.0934-1.9029-4.1694 1.8573-0.16448 3.9579 1.2645 7.5266 5.1202 1.4702 1.5884 3.1825 3.4177 3.8052 4.0651 0.62265 0.64741 1.5044 1.6698 1.9594 2.2719 0.45491 0.60214 0.95839 1.2361 1.1187 1.4089 1.0653 1.1474 2.544 2.9657 2.5521 3.1379 9e-3 0.11319 0.82836 1.0821 1.8289 2.1532 4.1473 4.4392 5.2441 5.151 8.3451 5.4159 2.1837 0.18651 5.6885-0.30045 9.9343-1.3803 2.5241-0.64197 4.1054-0.72386 4.5915-0.23777 0.3144 0.31441-0.82147 3.1179-1.2632 3.1179-0.12833 0-0.2333 0.20761-0.2333 0.46137 0 0.51807-0.39358 0.87559-2.3212 2.1085-0.7351 0.47014-1.3366 0.97056-1.3366 1.112 0 0.14149-0.16622 0.25723-0.36939 0.25723s-0.73329 0.37986-1.1781 0.84412c-0.44479 0.46425-0.97492 0.84411-1.1781 0.84411-0.20316 0-0.36938 0.1319-0.36938 0.29312 0 0.16124-0.83564 0.66806-1.857 1.1263-1.0213 0.45822-2.2194 1.0912-2.6622 1.4065-1.3535 0.96376-3.7979 1.6574-5.7252 1.6246-1.4221-0.0243-2.1259-0.21306-3.526-0.94608zm-69.756 0.13049c-2.2249-0.57123-3.9791-1.4864-3.9791-2.0758 0-0.75732 0.86633-1.0099 3.9734-1.1583 1.7608-0.0842 3.8345-0.32102 4.6083-0.52649 0.77376-0.20544 2.2931-0.53149 3.3764-0.72452 2.9194-0.52025 5.2875-1.3069 8.289-2.7534 2.1018-1.0129 3.0812-1.696 4.5132-3.1479 3.1174-3.1605 4.521-4.837 6.126-7.3168 0.85132-1.3154 1.9103-2.9188 2.3534-3.5631 0.4431-0.64431 0.80569-1.2525 0.80569-1.3515 0-0.0991 0.56972-1.0528 1.2662-2.1196 0.69636-1.0668 1.2662-2.0624 1.2662-2.2125 0-0.15009 0.095-0.3151 0.21102-0.36668 0.283-0.12581 3.1206-5.5955 5.0114-9.6603 0.35993-0.77376 1.4346-2.9882 2.3882-4.9209 0.95358-1.9327 2.0897-4.4017 2.5248-5.4867 0.43507-1.085 1.1182-2.5807 1.5179-3.324 0.39971-0.74326 0.72676-1.5363 0.72676-1.7624 0-0.22604 0.12569-0.63084 0.27934-0.89957 0.15366-0.26871 0.45926-0.99502 0.67915-1.614 0.98315-2.767 1.3513-3.6612 1.5625-3.7953 0.12454-0.079 0.42353-0.7136 0.66431-1.41 0.80106-2.3168 1.8386-5.1722 3.0162-8.3004 0.64078-1.7023 1.7088-4.6144 2.3733-6.4715 1.7422-4.8688 2.0319-5.6322 2.3607-6.2233 0.16208-0.29125 0.70032-2.6187 1.196-5.1721 0.68408-3.5229 0.88951-5.2982 0.85172-7.3611-0.052-2.8514 0.2266-3.6159 1.3163-3.6095 0.68388 4e-3 3.2192 1.2339 3.6722 1.7814 0.21234 0.25677 0.54091 0.46683 0.73009 0.46683 0.18928 0 0.57322 0.25324 0.85331 0.56273 0.28008 0.30952 0.67054 0.56275 0.86758 0.56275 0.19712 0 0.53192 0.17351 0.74396 0.38556 0.21205 0.21206 0.77867 0.58884 1.2591 0.83728 1.0798 0.55841 2.0325 2.0586 1.9036 2.9977-0.0529 0.38687-0.14948 1.0833-0.21422 1.5475-0.21913 1.5716-0.8501 4.0798-1.0263 4.0798-0.0964 0-0.20023 0.30165-0.23077 0.67033-0.0576 0.7014-1.227 4.1794-1.9168 5.703-0.22074 0.48765-0.40104 1.0574-0.40057 1.2662 5.8e-4 0.20874-0.2438 0.88599-0.5426 1.505-0.2989 0.61901-0.92277 2.0751-1.3866 3.2357-0.46369 1.1606-1.1319 2.7434-1.4847 3.5171-0.35295 0.77376-0.61291 1.51-0.57776 1.6361 0.0349 0.1261-0.1921 0.55467-0.50499 0.95239-0.31288 0.39772-0.56877 0.95181-0.56877 1.2313 0 0.27951-0.12115 0.58302-0.26914 0.6745-0.14798 0.0915-0.19768 0.35217-0.11055 0.57934 0.0869 0.22717 0.018 0.41304-0.15299 0.41304-0.17132 0-0.31147 0.17105-0.31147 0.38014 0 0.20908-0.31657 0.97547-0.70343 1.7031-0.38687 0.72762-0.70344 1.4288-0.70344 1.5582s-0.50641 1.102-1.1255 2.1612c-0.61895 1.0593-1.1254 2.2129-1.1254 2.5635 0 0.35064-0.10112 0.63754-0.22482 0.63754-0.12369 0-0.39244 0.4748-0.5973 1.0551-0.20496 0.58032-0.53193 1.245-0.72669 1.4772-0.19485 0.23213-0.44743 0.73859-0.5614 1.1255-0.11405 0.3869-0.35672 0.89335-0.53948 1.1255-0.18276 0.23214-0.6373 1.1185-1.0102 1.9696-0.37279 0.85114-0.8963 1.8718-1.1632 2.2681-0.26705 0.39632-0.57086 1.0611-0.67537 1.4772-0.10445 0.41613-0.30277 0.7566-0.44073 0.7566-0.13797 0-0.25118 0.15827-0.25156 0.35172-2.8e-4 0.19344-0.46153 1.1114-1.0247 2.0399-1.1698 1.9287-4.3206 8.0842-4.3206 8.4409 0 0.13046-0.17794 0.43709-0.39547 0.6814s-1.4466 2.5334-2.7313 5.0868c-1.2847 2.5534-2.4362 4.6848-2.5589 4.7364s-0.22301 0.22243-0.22301 0.37964c0 0.36373-1.8446 3.4272-2.8736 4.7724-0.43129 0.5639-0.78423 1.1432-0.78423 1.2873 0 0.3562-2.3034 3.3074-3.7951 4.8623-2.7888 2.9071-5.2488 5.2053-5.5717 5.2053-0.0998 0-0.45178 0.23144-0.78215 0.51434-1.0671 0.91366-3.5984 2.44-4.0466 2.44-0.23957 0-0.43557 0.10267-0.43557 0.22816 0 0.20584-2.5488 1.0191-3.2357 1.0325-0.15474 3e-3 -0.34537 0.0895-0.4236 0.19216-0.23511 0.30855-3.4881 0.53757-9.1429 0.64369-4.5472 0.0853-5.6553 0.021-7.4163-0.43122zm238.67-12.558c-0.47985-0.0606-1.3028-0.46939-1.8289-0.90821-0.90726-0.75676-0.96397-0.91189-1.0989-3.01-0.13258-2.0617-0.0775-2.3557 0.8054-4.3224 0.52115-1.1606 1.1984-2.8066 1.505-3.6578 0.30645-0.85116 0.99855-2.678 1.5378-4.0597 0.53929-1.3817 1.1515-3.4708 1.3604-4.6426 0.20883-1.1717 0.7109-3.4599 1.1155-5.0848 1.1154-4.4785 2.0309-8.2654 2.7891-11.536 1.5-6.4714 1.6952-7.2191 2.1912-8.394 0.2831-0.67052 0.51471-1.458 0.51471-1.75s0.25326-0.9817 0.56274-1.5327c0.30947-0.55106 0.56273-1.3928 0.56273-1.8707 0-0.56008 0.29388-1.2034 0.82712-1.8108 0.45492-0.51811 1.4212-2.1808 2.1472-3.6949 0.72594-1.5141 1.5421-3.1961 1.8136-3.7377 0.27139-0.54163 0.58672-1.2913 0.70069-1.6658 0.11397-0.37459 0.63492-1.3498 1.1578-2.1671 0.52276-0.81732 0.95055-1.6187 0.95055-1.7809 0-0.17465-0.72867-0.29489-1.7869-0.29489-2.189 0-3.9486-0.80463-5.8456-2.673-1.2564-1.2375-0.0264-3.3666 2.7523-4.7649 1.2513-0.62969 6.0784-3.5665 6.2871-3.8251 0.0775-0.096 0.67877-0.47313 1.3365-0.83828 0.6577-0.36514 1.1958-0.84405 1.1958-1.0642 0-0.23732 0.16906-0.33548 0.41514-0.24104 0.2283 0.0876 0.85613-0.025 1.3952-0.25017 1.5919-0.66514 4.208-0.0672 5.9351 1.3562l1.0242 0.84423-0.17322 1.9167c-0.0952 1.0542-0.37363 2.3974-0.61866 2.9848-0.45387 1.0881-2.3553 3.9836-3.2871 5.0054-1.6509 1.8103-4.972 7.3628-4.972 8.3124 0 0.16895-0.30229 0.96813-0.67177 1.7759-0.36949 0.80781-0.89366 2.2592-1.1647 3.2253-0.27111 0.96613-0.60185 1.8239-0.73508 1.9062-0.13316 0.0823-0.24212 0.39541-0.24212 0.69579 0 0.30037-0.0991 0.54613-0.21998 0.54613-0.12095 0-0.38923 0.60142-0.59618 1.3365-0.20694 0.73507-0.67773 1.9934-1.0463 2.7963-0.36845 0.80286-0.6699 1.5196-0.6699 1.5927 0 0.0731-0.5681 1.3155-1.2626 2.7608-0.69435 1.4453-1.2641 2.8533-1.2662 3.129 0 0.27567-0.19352 0.5741-0.4256 0.66318-0.2321 0.0891-0.42203 0.371-0.42203 0.6265 0 0.25549-0.31657 1.0591-0.70345 1.7859-0.38685 0.72674-0.70342 1.5132-0.70342 1.7477s-0.22661 0.84173-0.50368 1.3494c-0.51216 0.93865-1.7332 4.06-2.2872 5.847-0.64315 2.0746-2.0213 7.0913-2.2614 8.2323-0.13825 0.65646-0.33887 1.4784-0.44602 1.8266-0.25648 0.83394 0.43609 0.85719 1.0046 0.0337 0.22763-0.32964 0.84263-1.121 1.3667-1.7586 1.4481-1.7617 4.0079-5.6792 5.3451-8.1801 1.4372-2.6879 3.4433-5.235 4.6432-5.8955 0.48203-0.26527 1.8602-1.7092 3.0627-3.2088 1.2025-1.4996 3.7157-4.3032 5.5849-6.2304 3.4071-3.5128 5.1903-5.8816 5.6329-7.4824 0.46227-1.6722 0.76769-1.8617 2.4772-1.5375 2.0796 0.39438 2.6982 0.86898 3.2336 2.481 0.25089 0.7556 0.77761 1.805 1.1704 2.3319 0.6319 0.84775 0.69398 1.1364 0.53881 2.5057-0.20317 1.7927-0.65551 3.3764-0.96442 3.3764-0.11793 0-0.35872 0.3166-0.53505 0.70355-0.31098 0.68259-1.6406 1.4258-4.553 2.5448-0.69643 0.26757-1.8029 0.72239-2.4589 1.0107-0.65599 0.28831-1.3189 0.5242-1.473 0.5242-0.62519 0-5.5251 1.7588-5.9382 2.1315-0.24427 0.22045-0.59562 0.40082-0.78074 0.40082-0.75087 0-4.4549 2.075-5.1891 2.907-1.3427 1.5214-2.258 3.0957-2.47 4.2487-0.18767 1.0206-0.11302 1.2122 0.96396 2.4738 0.64201 0.75214 1.8306 1.8112 2.6413 2.3534 0.81061 0.54222 1.8868 1.3666 2.3916 1.832 0.5047 0.46538 1.3609 1.0523 1.9025 1.3042 0.86502 0.40244 3.2699 1.9332 3.6578 2.3284 0.0775 0.0788 0.67878 0.49213 1.3365 0.91843 0.65769 0.42632 1.1959 0.86829 1.196 0.98216 9e-5 0.11387 0.45698 0.71349 1.0153 1.3325 1.6063 1.7811 2.2765 3.0058 2.4886 4.5474 0.25466 1.8522-0.23634 3.4912-1.423 4.7493-0.89488 0.94887-0.97293 0.97326-3.1174 0.97303-2.285-2.2e-4 -3.7901-0.42658-5.7295-1.623-1.0674-0.65851-2.238-2.0535-2.238-2.667 0-0.20566-0.23984-0.84434-0.53296-1.4193-0.29314-0.57494-1.0669-2.7858-1.7194-4.9131-1.1194-3.6491-2.9318-7.683-3.9924-8.8861-0.62537-0.70935-1.0836-0.49684-1.7955 0.83269-0.3211 0.59983-0.71903 1.3438-0.88411 1.6533-0.31911 0.59817-0.8018 1.7837-0.91634 2.251-0.0378 0.15476-0.29171 0.59791-0.56386 0.9848-0.64721 0.92014-2.2896 4.7053-3.0813 7.1015-0.34454 1.0429-0.74323 1.9683-0.88591 2.0565-0.14269 0.0882-0.2594 0.58856-0.2594 1.1119 0 0.52338-0.11226 1.021-0.24947 1.1058s-0.33754 0.6234-0.44508 1.1969c-0.26128 1.3924-1.4179 3.6335-1.9884 3.8523-0.46889 0.17993-1.5649 0.17127-3.1133-0.0246zm-137.62-3.7397c-0.34122-0.13909-1.0661-0.86052-1.6109-1.6032-0.89262-1.2167-0.99127-1.533-0.99751-3.1978 0-1.0162 0.12663-2.5706 0.29002-3.4544 0.16337-0.88375 0.34018-2.1415 0.39292-2.795 0.23047-2.8551 0.55279-4.867 0.88127-5.5002 0.19466-0.37507 0.29511-0.83504 0.2233-1.0222-0.0718-0.18711 0.0586-1.2792 0.28953-2.427 0.5427-2.6958 1.0453-6.4462 0.89621-6.6874-0.2094-0.33883 0.32971-4.3085 0.62519-4.604 0.39576-0.39569 3.1298 1.193 4.2513 2.4703 0.47673 0.54299 1.0721 1.4574 1.323 2.0319 0.49885 1.1428 1.2429 7.5267 0.91691 7.8674-0.11132 0.11633-0.26922 1.1611-0.35097 2.3218-0.0813 1.1606-0.23511 2.7117-0.34104 3.4468-0.22707 1.5751 0.17577 1.7586 1.4768 0.67266 1.5007-1.2526 2.4458-1.591 3.5731-1.2797 1.0534 0.29085 2.0254 1.1196 2.2897 1.9524 0.31883 1.0047-0.7571 2.588-3.5162 5.174-1.0039 0.94089-2.3334 2.231-2.9544 2.867-1.4601 1.4951-4.3852 3.6808-4.9276 3.6819-0.23209 5.7e-4 -0.80189 0.0767-1.2662 0.16935-0.46426 0.0926-1.1233 0.0546-1.4644-0.0845zm27.024-0.61012c-1.6196-0.90684-2.5256-1.7464-4.3504-4.0315-1.5721-1.9686-3.9054-5.7383-3.9054-6.3095 0-0.16643-0.12663-0.30261-0.28141-0.30261s-0.28132-0.17418-0.28132-0.38706c0-0.21286-0.29719-1.0675-0.66043-1.8992-0.36326-0.83171-0.89404-2.0503-1.1796-2.708-0.58617-1.35-0.85784-1.4297-2.1627-0.63413-0.60979 0.37176-1.419 0.56204-2.3931 0.56274-1.3332 8.4e-4 -1.4883-0.0649-1.6472-0.69788-0.23539-0.93765 0.88439-2.8205 2.403-4.0405 1.0345-0.83122 1.1497-1.0386 0.98748-1.7775-0.10112-0.46009-0.36097-1.1762-0.57756-1.5913s-0.39462-0.95692-0.39556-1.204c-8.5e-4 -0.24705-0.19581-0.83815-0.4329-1.3136-0.46718-0.93639-1.3203-4.7501-1.3681-6.1156-0.0284-0.79395 0.0274-0.83945 0.93599-0.76576 0.53108 0.0432 1.1326 0.21687 1.3366 0.38616 0.25655 0.21299 0.3708 0.21563 0.3708 8e-3 0-0.16456-0.12654-0.37746-0.28132-0.4731-0.8602-0.53161 0.31855-4.0637 1.8621-5.5798 0.44602-0.4381 1.8239-1.3299 3.0619-1.9818 1.238-0.65187 2.6296-1.433 3.0924-1.7358 1.342-0.87798 3.7501-3.5303 4.4964-4.9524l0.68587-1.3068-0.62029 0.15379c-0.34113 0.0846-1.0001 0.41942-1.4643 0.74406-0.46427 0.32467-1.414 0.87611-2.1103 1.2255-1.4074 0.70602-3.0859 1.8644-3.5171 2.4273-0.15479 0.20201-1.3576 1.0763-2.673 1.9429-1.3154 0.86657-2.7899 1.9001-3.2768 2.2967-2.7009 2.2005-6.5295 2.012-8.2983-0.40856-0.65041-0.89023-0.92748-2.6219-0.53636-3.3527 0.32516-0.60749 3.249-2.098 4.7239-2.4081 0.50205-0.10552 1.0085-0.34028 1.1255-0.52163 0.11699-0.18134 1.0358-0.74371 2.0416-1.2497 1.0059-0.506 2.3987-1.2983 3.0951-1.7606 1.1683-0.77565 2.7111-1.6089 6.7528-3.6472 0.85113-0.42922 2.1635-0.85448 2.9165-0.94502 0.78272-0.0941 1.5128-0.36134 1.7049-0.62404 0.35993-0.49231 2.1657-0.93403 3.8999-0.95399 0.98117-0.0112 2.0744 0.47125 2.9429 1.299 0.19268 0.18355 0.69494 0.60486 1.1162 0.93624 0.67736 0.53284 0.76335 0.78468 0.74322 2.178-0.0142 0.98468-0.16906 1.6901-0.41277 1.8811-0.21449 0.16805-0.57945 0.67214-0.81106 1.1202-0.35332 0.68342-2.4619 2.9849-7.245 7.9078-1.2819 1.3194-1.3472 1.8063-0.36258 2.7055 1.2757 1.1652 1.1846 2.398-0.25231 3.4142-0.60175 0.42557-1.2361 0.77377-1.4096 0.77377-0.17358 0-0.38876 0.19046-0.47805 0.42322-0.0888 0.23279-1.0666 0.69349-2.1717 1.0238-1.1052 0.33031-2.1478 0.70868-2.3171 0.84082-0.48543 0.37907-3.8775 0.78204-4.1802 0.4966-0.46492-0.43857-0.99165-0.28447-0.82117 0.24025 0.57935 1.7836 1.699 4.248 2.1732 4.7832 0.91965 1.038 1.2607 0.79458 1.4692-1.0489 0.16603-1.4676 0.30891-1.7724 1.1206-2.3916 1.1836-0.90273 2.0332-0.89423 3.9401 0.0395 1.4862 0.72772 1.5298 0.78234 1.5298 1.9172 0 0.91591-0.2714 1.5728-1.257 3.0423-0.69124 1.0308-1.6409 2.276-2.1102 2.7671-0.89271 0.93417-1.0316 1.3617-0.5875 1.8083 0.14629 0.14703 0.6648 1.027 1.1523 1.9555 0.48752 0.92851 1.2312 2.1314 1.6527 2.673 0.42146 0.54163 1.0064 1.3963 1.3 1.8992 0.29361 0.50296 0.6542 0.91445 0.80143 0.91445 0.14713 0 0.19344 0.0742 0.10278 0.16477-0.14949 0.14949 0.42816 0.94986 1.4409 1.9962 0.62717 0.64807 1.2721-0.20237 1.6836-2.2202 1.0033-4.919 1.1684-5.7909 1.2847-6.7827 0.23133-1.9736 1.373-2.4603 2.7583-1.1758 1.3028 1.208 1.4808 2.4055 1.0772 7.2459-0.19674 2.3589-0.42249 5.3968-0.5016 6.7509-0.0869 1.483-0.26458 2.462-0.44725 2.462-0.20676 0-0.21157 0.0916-0.0151 0.28793 0.5959 0.59598 0.0653 1.9589-1.1516 2.9558-1.6231 1.33-3.2323 1.5453-4.8364 0.64715zm50.972-6.6189c-1.4939-0.28545-1.7631-0.38635-2.2726-0.85172-0.79906-0.73-2.0887-2.5204-2.0887-2.8998 0-0.66931-0.97974-1.9537-1.6752-2.1961-0.42524-0.14824-1.0032-0.14574-1.4137 5e-3 -0.9941 0.36776-2.6666 0.0108-3.3063-0.70541-0.30137-0.33745-0.71233-1.0299-0.91333-1.5387-0.31637-0.80076-1.0136-1.4664-1.536-1.4664-0.0879 0-0.16131 0.41151-0.16395 0.91445-9e-3 1.1361-0.90755 4.5632-1.5008 5.705-0.24324 0.46829-0.82117 1.2144-1.2843 1.6581-0.79198 0.75874-0.93874 0.79534-2.468 0.61559-1.7689-0.20789-2.9104-1.0058-3.4114-2.3844-0.90037-2.4776-0.98173-3.2046-0.81409-7.279 0.13909-3.3798 0.33584-4.7827 1.056-7.5301 0.84395-3.2194 0.87769-3.5531 0.72555-7.1766-0.1784-4.2464-0.0833-4.9481 0.69852-5.1525 0.70637-0.18473 1.9057 1.3563 2.1297 2.7364 0.0908 0.55602 0.25391 1.0109 0.36381 1.0109s0.35058 0.66474 0.53495 1.4772c0.18436 0.81244 0.78952 2.3002 1.3449 3.3061s1.1528 2.1128 1.3275 2.4598c0.17471 0.34698 0.40359 0.63186 0.50857 0.63307 0.10487 9.4e-4 0.45812-0.71235 0.78489-1.5857 0.53165-1.4208 0.55905-1.7538 0.26119-3.1654-0.18305-0.86762-0.75777-2.3578-1.2772-3.3114-0.8381-1.5386-1.2408-3.19-0.77781-3.19 0.0917 0 2.5922 1.1847 5.557 2.6326 6.7816 3.312 6.6566 3.2707 6.6566 2.1997 0-0.45814 0.18059-1.7645 0.40133-2.903 0.22075-1.1385 0.46484-2.798 0.54242-3.6879l0.14108-1.6179h-0.97681c-0.65052 0-1.2287 0.23364-1.7312 0.6996-0.91871 0.85182-3.61 1.6973-6.8179 2.1418-3.009 0.41697-3.3495 0.398-3.7953-0.21164-0.51273-0.70124-0.3057-1.0332 1.4906-2.3894 0.87239-0.65868 1.8014-1.3818 2.0643-1.6069 0.26288-0.22512 1.2159-0.8125 2.1178-1.3053 0.90179-0.4928 2.95-1.7004 4.5516-2.6836 2.5046-1.5376 3.138-1.804 4.5291-1.9046 1.3618-0.0985 1.7907-6e-3 2.7155 0.58208 1.8888 1.2023 4.4376 4.2332 4.8919 5.8172 0.24937 0.86969 0.0453 1.8919-1.461 7.3321-0.81295 2.9354-0.89658 3.6628-1.6336 14.209-0.54412 7.7869-0.82175 10.046-1.3444 10.941-0.58408 1.0001-1.927 1.8189-2.7312 1.6652zm-3.6368-15.675 0.2023-3.0685-2.6877 0.16034c-2.9616 0.1767-3.8664 0.4975-3.8664 1.3709 0 1.3461 2.4393 3.6889 4.4063 4.232 0.50565 0.13963 1.0016 0.38682 1.102 0.54932 0.3999 0.64705 0.65032-0.3163 0.84348-3.2441zm42.123-21.451c-0.67811-0.14909-2.0494-1.6135-2.0494-2.1887 0-0.54909 0.84017-1.1908 3.119-2.3821 3.4538-1.8056 5.1447-2.7181 6.6057-3.5645 1.8544-1.0743 5.0941-3.3802 6.3132-4.4935 2.1075-1.9245 4.6119-2.789 6.8562-2.3668 1.947 0.36632 3.2066 0.99762 4.2967 2.1534 1.3256 1.4055 1.4072 2.2218 0.47418 4.7455-0.66176 1.79-0.99212 2.2912-1.9785 3.0015-1.1791 0.84911-3.2727 1.7281-5.1467 2.1609-0.54165 0.12508-2.0768 0.7587-3.4114 1.408l-2.4267 1.1806-1.5227-0.44265c-1.7216-0.50049-3.5231-0.40592-5.521 0.28983-1.349 0.46979-4.4751 0.74756-5.6086 0.49837zm2.2719-9.8098c-0.19248-0.50178 0.60563-1.8263 1.1014-1.8278 0.18986-5.5e-4 0.9721-0.7767 1.7384-1.7247 0.76619-0.94801 1.578-1.9086 1.8041-2.1347 0.52531-0.52528 0.11085-0.82033-1.5034-1.0702-0.62216-0.0963-2.0175-0.59339-3.1007-1.1046-1.0833-0.51122-2.172-0.99707-2.4194-1.0796-0.24729-0.0825-0.7093-0.59024-1.0267-1.1281-0.47361-0.80278-0.51907-1.0923-0.25363-1.6165 0.30891-0.61017 2.0759-1.3658 4.1757-1.7858 0.45512-0.091 2.9399-0.94685 5.5218-1.9019 4.2506-1.5722 4.8106-1.8584 5.9254-3.028 1.6022-1.6809 3.4113-3.9461 3.4113-4.2713 0-0.14086 0.19779-0.47768 0.43959-0.7485 0.60186-0.67423 1.558-2.1918 2.4394-3.8716 0.94978-1.8103 3.0298-6.2252 3.0298-6.431 0-0.0872 0.56982-1.0969 1.2662-2.2439 0.69646-1.147 1.2662-2.2254 1.2662-2.3962 0-0.74777 1.3908-0.63477 3.1864 0.2589 2.0651 1.0278 3.6384 2.6948 4.2922 4.5479 0.80501 2.2817 0.75163 2.484-1.8164 6.8888-0.52247 0.8961-1.3546 2.199-1.8492 2.8954-0.49459 0.69638-1.2467 2.0892-1.6713 3.095-0.42458 1.0059-0.97889 2.1454-1.2318 2.5323-0.25296 0.38688-0.76315 1.2732-1.1339 1.9696-0.37072 0.69638-0.88346 1.4816-1.1394 1.745-0.75124 0.77279-1.169 1.3131-1.169 1.512 0 0.10216-0.36513 0.60169-0.81154 1.1101-0.4464 0.50839-0.85784 1.0338-0.91445 1.1674-0.16848 0.39821-2.5613 2.2361-3.5954 2.7617-0.52813 0.2684-1.6677 0.72995-2.5323 1.0257-1.6664 0.56996-4.1698 2.1385-5.4087 3.3889-0.41021 0.41399-1.2974 1.0297-1.9717 1.3682-0.67424 0.33856-1.4826 0.85021-1.7966 1.137-0.62764 0.57347-2.7093 1.3846-3.5533 1.3846-0.29492 0-0.6095-0.1909-0.69909-0.42422z"/>
 </g>
</svg>
