<?xml version="1.0" encoding="UTF-8" standalone="no"?>
<svg
   class="p-navigation__image"
   width="90.002213"
   height="24.962791"
   viewBox="0 0 90.002213 24.962791"
   version="1.1"
   id="svg7"
   sodipodi:docname="marxists.svg"
   inkscape:version="1.2.2 (b0a8486541, 2022-12-01)"
   xmlns:inkscape="http://www.inkscape.org/namespaces/inkscape"
   xmlns:sodipodi="http://sodipodi.sourceforge.net/DTD/sodipodi-0.dtd"
   xmlns="http://www.w3.org/2000/svg"
   xmlns:svg="http://www.w3.org/2000/svg"
   xmlns:rdf="http://www.w3.org/1999/02/22-rdf-syntax-ns#"
   xmlns:cc="http://creativecommons.org/ns#"
   xmlns:dc="http://purl.org/dc/elements/1.1/">
  <sodipodi:namedview
     id="namedview21"
     pagecolor="#ffffff"
     bordercolor="#999999"
     borderopacity="1"
     inkscape:showpageshadow="0"
     inkscape:pageopacity="0"
     inkscape:pagecheckerboard="0"
     inkscape:deskcolor="#d1d1d1"
     showgrid="false"
     inkscape:zoom="7.375"
     inkscape:cx="53.762712"
     inkscape:cy="9.3559322"
     inkscape:window-width="1318"
     inkscape:window-height="883"
     inkscape:window-x="0"
     inkscape:window-y="0"
     inkscape:window-maximized="1"
     inkscape:current-layer="svg7" />
  <defs
     id="defs11" />
  <title
     id="title2">Ubuntu</title>
  <path
     d="m 10.32804,10.924772 h 2.035007 L 7.4055874,0.21421121 H 4.9574593 L 0,10.924772 H 2.0350064 L 3.1060625,8.5378466 H 9.2416834 Z M 3.8252001,6.9465634 6.1815233,1.6983888 8.5378466,6.9465634 Z"
     style="font-weight:300;font-size:15.3008px;line-height:0.85;font-family:'MADE Outer Sans';-inkscape-font-specification:'MADE Outer Sans Light';letter-spacing:0.00478152px;word-spacing:0px;fill:#ffffff;stroke-width:0.999996"
     id="path113" />
  <path
     d="M 24.394266,10.924772 21.747228,6.8241569 c 1.514779,-0.535528 2.279819,-1.6524864 2.279819,-3.1519648 0,-2.0656081 -1.224064,-3.45798089 -3.886403,-3.45798089 H 13.591901 V 10.924772 h 1.881998 V 7.1607746 h 4.054713 c 0.107105,0 0.229512,-0.015301 0.336617,-0.015301 l 2.356323,3.7792984 z M 15.473899,1.8054944 h 4.284225 c 1.53008,0 2.341022,0.5661297 2.341022,1.8666977 0,1.2699664 -0.856845,1.9126 -2.341022,1.9126 h -4.284225 z"
     style="font-weight:300;font-size:15.3008px;line-height:0.85;font-family:'MADE Outer Sans';-inkscape-font-specification:'MADE Outer Sans Light';letter-spacing:0.00478152px;word-spacing:0px;fill:#ffffff;stroke-width:0.999996"
     id="path115" />
  <path
     d="M 37.649536,10.924772 36.211261,9.3946914 C 37.098707,8.4766434 37.649536,7.1913762 37.649536,5.5694913 37.649536,1.8666976 34.818888,0 31.483314,0 c -3.335575,0 -6.166223,1.8666976 -6.166223,5.5694913 0,3.7027937 2.830648,5.5847927 6.166223,5.5847927 1.300568,0 2.539932,-0.290716 3.549785,-0.872146 l 0.596731,0.642634 z M 31.483314,9.578301 c -2.708242,0 -4.238322,-1.6218848 -4.238322,-4.0088097 0,-2.371624 1.53008,-3.9935089 4.238322,-3.9935089 2.708241,0 4.238321,1.6218849 4.238321,3.9935089 0,0.9792512 -0.260113,1.8360961 -0.749739,2.4940305 L 33.854938,6.8853601 h -2.019706 l 2.019706,2.1421121 C 33.212304,9.3793906 32.416662,9.578301 31.483314,9.578301 Z"
     style="font-weight:300;font-size:15.3008px;line-height:0.85;font-family:'MADE Outer Sans';-inkscape-font-specification:'MADE Outer Sans Light';letter-spacing:0.00478152px;word-spacing:0px;fill:#ffffff;stroke-width:0.999996"
     id="path117" />
  <path
     d="M 47.752842,0.21421121 V 6.5181409 c 0,2.1880145 -0.96395,3.0601601 -3.182566,3.0601601 -2.218616,0 -3.197868,-0.8721456 -3.197868,-3.0601601 V 0.21421121 H 39.49041 V 6.6558481 c 0,3.7486959 2.47873,4.4984359 5.079866,4.4984359 2.585835,0 5.079865,-0.74974 5.079865,-4.4984359 V 0.21421121 Z"
     style="font-weight:300;font-size:15.3008px;line-height:0.85;font-family:'MADE Outer Sans';-inkscape-font-specification:'MADE Outer Sans Light';letter-spacing:0.00478152px;word-spacing:0px;fill:#ffffff;stroke-width:0.999996"
     id="path119" />
  <path
     d="M 52.103043,0.21421121 V 10.924772 h 1.881998 V 0.21421121 Z"
     style="font-weight:300;font-size:15.3008px;line-height:0.85;font-family:'MADE Outer Sans';-inkscape-font-specification:'MADE Outer Sans Light';letter-spacing:0.00478152px;word-spacing:0px;fill:#ffffff;stroke-width:0.999996"
     id="path121" />
  <path
     d="M 65.526637,0.21421121 61.395421,9.4405938 57.248904,0.21421121 H 55.213898 L 60.171357,10.924772 h 2.448128 L 67.576944,0.21421121 Z"
     style="font-weight:300;font-size:15.3008px;line-height:0.85;font-family:'MADE Outer Sans';-inkscape-font-specification:'MADE Outer Sans Light';letter-spacing:0.00478152px;word-spacing:0px;fill:#ffffff;stroke-width:0.999996"
     id="path123" />
  <path
     d="m 74.069266,0 c -3.350875,0 -6.181523,1.8666976 -6.181523,5.5694913 0,3.7027937 2.830648,5.5847927 6.181523,5.5847927 3.335575,0 6.166223,-1.881999 6.166223,-5.5847927 C 80.235489,1.8666976 77.404841,0 74.069266,0 Z m 0,9.578301 c -2.723542,0 -4.238321,-1.6218848 -4.238321,-4.0088097 0,-2.371624 1.514779,-3.9935089 4.238321,-3.9935089 2.708242,0 4.223021,1.6218849 4.223021,3.9935089 0,2.3869249 -1.514779,4.0088097 -4.223021,4.0088097 z"
     style="font-weight:300;font-size:15.3008px;line-height:0.85;font-family:'MADE Outer Sans';-inkscape-font-specification:'MADE Outer Sans Light';letter-spacing:0.00478152px;word-spacing:0px;fill:#ffffff;stroke-width:0.999996"
     id="path125" />
  <path
     d="M 12.118234,14.022719 8.1553266,23.065492 4.1924193,14.022719 H 1.224064 v 10.71056 h 1.8819985 v -9.195781 l 4.0394113,9.195781 h 2.0350064 l 4.0394108,-9.195781 v 9.195781 h 1.881999 v -10.71056 z"
     style="font-weight:300;font-size:15.3008px;line-height:0.85;font-family:'MADE Outer Sans';-inkscape-font-specification:'MADE Outer Sans Light';letter-spacing:0.00478152px;word-spacing:0px;fill:#ffffff;stroke-width:0.999996"
     id="path127" />
  <path
     d="m 26.658767,24.733279 h 2.035006 l -4.957459,-10.71056 h -2.448128 l -4.957459,10.71056 h 2.035006 l 1.071056,-2.386924 h 6.135621 z m -6.50284,-3.978208 2.356323,-5.248174 2.356323,5.248174 z"
     style="font-weight:300;font-size:15.3008px;line-height:0.85;font-family:'MADE Outer Sans';-inkscape-font-specification:'MADE Outer Sans Light';letter-spacing:0.00478152px;word-spacing:0px;fill:#ffffff;stroke-width:0.999996"
     id="path129" />
  <path
     d="m 40.724992,24.733279 -2.647039,-4.100614 c 1.514779,-0.535528 2.279819,-1.652487 2.279819,-3.151965 0,-2.065608 -1.224064,-3.457981 -3.886403,-3.457981 h -6.548742 v 10.71056 h 1.881998 v -3.763997 h 4.054712 c 0.107106,0 0.229512,-0.0153 0.336618,-0.0153 l 2.356323,3.779297 z m -8.920367,-9.119277 h 4.284224 c 1.53008,0 2.341023,0.56613 2.341023,1.866698 0,1.269966 -0.856845,1.9126 -2.341023,1.9126 h -4.284224 z"
     style="font-weight:300;font-size:15.3008px;line-height:0.85;font-family:'MADE Outer Sans';-inkscape-font-specification:'MADE Outer Sans Light';letter-spacing:0.00478152px;word-spacing:0px;fill:#ffffff;stroke-width:0.999996"
     id="path131" />
  <path
     d="m 48.257767,19.148487 4.253622,-5.125768 h -2.417526 l -3.044859,3.840501 -3.04486,-3.840501 h -2.417526 l 4.253622,5.125768 -4.651443,5.584792 h 2.432827 l 3.42738,-4.299525 3.427379,4.299525 h 2.432827 z"
     style="font-weight:300;font-size:15.3008px;line-height:0.85;font-family:'MADE Outer Sans';-inkscape-font-specification:'MADE Outer Sans Light';letter-spacing:0.00478152px;word-spacing:0px;fill:#ffffff;stroke-width:0.999996"
     id="path133" />
  <path
     d="m 54.138069,14.022719 v 10.71056 h 1.881999 v -10.71056 z"
     style="font-weight:300;font-size:15.3008px;line-height:0.85;font-family:'MADE Outer Sans';-inkscape-font-specification:'MADE Outer Sans Light';letter-spacing:0.00478152px;word-spacing:0px;fill:#ffffff;stroke-width:0.999996"
     id="path135" />
  <path
     d="m 63.552854,18.551756 c -2.29512,-0.321317 -3.733395,-0.443723 -3.733395,-1.606584 0,-0.826243 0.566129,-1.545381 2.953054,-1.545381 2.279819,0 3.090762,0.826243 3.182567,1.606584 h 1.9279 c 0,-1.53008 -1.392372,-3.197867 -5.064564,-3.197867 -3.534485,0 -4.896257,1.407674 -4.896257,3.274371 0,1.744291 1.193463,2.570535 3.763997,2.983656 2.983656,0.489626 4.758549,0.38252 4.758549,1.667787 0,1.147561 -1.254665,1.637186 -3.243769,1.637186 -2.310421,0 -3.565087,-0.703837 -3.62629,-1.820795 H 57.55494 c 0,1.927901 1.591283,3.412078 5.584792,3.412078 3.748696,0 5.263476,-1.438275 5.263476,-3.457981 0,-2.080908 -1.820796,-2.539932 -4.850354,-2.953054 z"
     style="font-weight:300;font-size:15.3008px;line-height:0.85;font-family:'MADE Outer Sans';-inkscape-font-specification:'MADE Outer Sans Light';letter-spacing:0.00478152px;word-spacing:0px;fill:#ffffff;stroke-width:0.999996"
     id="path137" />
  <path
     d="m 79.011444,14.022719 h -9.991422 v 1.591283 h 4.054712 v 9.119277 h 1.881998 v -9.119277 h 4.054712 z"
     style="font-weight:300;font-size:15.3008px;line-height:0.85;font-family:'MADE Outer Sans';-inkscape-font-specification:'MADE Outer Sans Light';letter-spacing:0.00478152px;word-spacing:0px;fill:#ffffff;stroke-width:0.999996"
     id="path139" />
  <path
     d="m 87.967208,24.733279 h 2.035006 l -4.957459,-10.71056 h -2.448128 l -4.957459,10.71056 h 2.035006 l 1.071056,-2.386924 h 6.135621 z m -6.50284,-3.978208 2.356323,-5.248174 2.356323,5.248174 z"
     style="font-weight:300;font-size:15.3008px;line-height:0.85;font-family:'MADE Outer Sans';-inkscape-font-specification:'MADE Outer Sans Light';letter-spacing:0.00478152px;word-spacing:0px;fill:#ffffff;stroke-width:0.999996"
     id="path141" />
  <metadata
     id="metadata189">
    <rdf:RDF>
      <cc:Work
         rdf:about="">
        <dc:title>Ubuntu</dc:title>
      </cc:Work>
    </rdf:RDF>
  </metadata>
</svg>
