<?xml version="1.0" encoding="UTF-8"?>
<svg width="279.54" height="86.96" version="1.1" viewBox="0 0 279.54 86.96" xmlns="http://www.w3.org/2000/svg">
 <defs>
  <style>.cls-1{font-size:11px;font-family:Roboto-Bold, Roboto;font-weight:700;letter-spacing:0em;}.cls-1,.cls-7{fill:#111;}.cls-2{letter-spacing:0.01em;}.cls-3{letter-spacing:0em;}.cls-4{letter-spacing:-0.04em;}.cls-5{fill:#db1420;}.cls-6{fill:#fff;}</style>
 </defs>
 <g transform="matrix(2 0 0 2 0 -.18)" data-name="Camada 2">
  <g data-name="Camada 1">
   <rect class="cls-5" y=".09" width="43.48" height="43.48"/>
   <path class="cls-6" d="m26.3 4.65 12.86 34.35h-9.31l-2.2-6.29h-11.91l-2.21 6.29h-9.21l12.86-34.35zm-0.72 21.65-1.58-4.66a71.37 71.37 0 0 1-2.21-7.72q-1 3.74-2.35 7.82l-1.64 4.56z"/>
   <rect class="cls-5" x="48.11" y=".09" width="43.48" height="43.48"/>
   <path class="cls-6" d="m84.76 4.65v34.35h-8.76l-9.26-15.6-2-3.5a29.78 29.78 0 0 1-1.39-2.9c0.22 2.53 0.34 5.44 0.34 8.73v13.27h-8.69v-34.35h9l8.57 14.55q2.49 4.32 3.84 7.2-0.39-5-0.39-8.88v-12.87z"/>
   <rect class="cls-5" x="96.29" y=".09" width="43.48" height="43.48"/>
   <path class="cls-6" d="m102.19 4.65h14.69q7.53 0 11.76 3.84 5.22 4.71 5.23 13.11 0 8.68-4.9 13.44-4.08 4-12.14 4h-14.64zm9 7.39v19.59h5q4.22 0 6.24-2.16 2.4-2.64 2.4-7.59c0-3.74-1.11-6.46-3.31-8.16a9.75 9.75 0 0 0-6-1.68z"/>
  </g>
 </g>
</svg>
