<?xml version="1.0" encoding="UTF-8"?>
<svg width="66.146mm" height="23.626mm" version="1.1" viewBox="0 0 66.146 23.626" xml:space="preserve" xmlns="http://www.w3.org/2000/svg"><defs><clipPath id="clipPath22149"><path d="m0 0h1190.6v841.89h-1190.6z"/></clipPath><clipPath id="clipPath22155"><path d="m0 0h1190.6v841.89h-1190.6z"/></clipPath><clipPath id="clipPath22161"><path d="m0 0h1190.6v841.89h-1190.6z"/></clipPath></defs><g transform="matrix(1.1906 0 0 1.1906 41.465 -136.6)"><path d="m-34.827 114.73h55.557v19.844h-55.557z" fill="#b70e0c" stroke-linecap="round" stroke-linejoin="round" stroke-width=".57631" style="paint-order:markers stroke fill"/><g transform="matrix(.19036 0 0 .19036 -28.198 108.96)" fill="#fff"><path transform="matrix(1.1922,0,0,-1.1922,-188.66,357.64)" d="m353.8 209.82c1.826 0 3.308-1.829 3.308-4.072 0-2.241-1.482-4.07-3.308-4.07-1.833 0-3.312 1.829-3.312 4.07 0 2.243 1.479 4.072 3.312 4.072" clip-path="url(#clipPath22161)"/><path transform="matrix(1.1922,0,0,-1.1922,-188.66,357.64)" d="m188.52 245.17c-2.119-0.495-3.586-1.9-4.789-3.298l-2.302 2.265-1.843-1.791-5.49 4.905-9.647-4.158 8.523-7.735-12.575-13.071c-12.315 14.465 1.186 31.81 11.164 42.549-15.458-7.2-20.24-14.68-24.461-24.248-3.374-9.193-0.251-19.804 6.337-25.512l-8.867-9.383 7.482-6.104 8.327 11.082c5.612-3.121 11.764-3.411 18.536-1.249 0.584-2.714 3.581-7.983 12.556-7.983 4.865 0 7.202 2.332 10.151 3.787 0.485-1.239 2.033-3.129 4.65-3.327 4.159-0.318 5.67 2.385 6.93 4.83l5.873 17.657 3.323-17.002c1.268-6.465 8.166-7.756 11.519-2.367 4.674 5.944 6.32 12.646 6.548 20.034l3.246 0.58 0.029-16.188c0.246-2.041 1.022-3.588 1.894-4.677 4.059-5.046 11.703-3.429 15.111 0.226 0.814-4.957 10.035-4.419 11.659 0.725l7.073 22.391c0.704 2.226 2.325 1.95 2.112-0.141l0.163-26.153 8.782-0.081 0.032 24.953c4e-3 4.118 5.524 4.462 5.538-0.177v-20.87c0.074-1.748 1.114-3.733 4.649-3.817 3.698 0.084 5.577 2.123 8.354 3.888 1.964-4.586 4.869-4.653 7.519-2.873l7.081 4.756c0.912-1.207 2.366-5.902 7.232-5.198 7.317 0.998 12.179 7.901 12.179 11.057-4.876-6.995-13.237-9.656-12.533 0.036 3.952 4.217 17.366 19.142 6.765 23.65-5.109 2.127-14.461-0.803-14.372-8.329-0.383-5.318-0.11-15.417-0.16-18.156-5.863-5.445-5.091-1.688-5.141-0.272v20.667l2.905 0.146v6.878h-2.884l-0.067 2.901h-8.736l0.11-2.95h-2.675v-6.819h2.66l-0.042-21.502c0-0.1-4.809-4.93-5.017-1.897l0.141 19.574c0.035 4.94-2.491 9.805-8.092 10.268-3.96 0.439-5.764-0.513-7.608-3.159-0.315 3.871-7.982 4.904-11.039-3.291l-6.73-21.775c-0.333-1.097-0.393-2.41-1.851-2.452l0.082 30.14-8.34 0.109 0.074-4.143c-6.716 10.042-16.701 1.291-16.749-4.009l-3.46-0.725c0 1.454-1.08 9.472-6.859 8.432-7.997-2.538-4.862-12.763 2.949-12.148l1.472 0.188c0.315-2.916-2.438-17.915-7.125-17.554l-3.115 19.454c-0.271 1.776-0.796 4.009-0.917 6.036-0.481 4.505-5.783 6.529-7.634 1.171l-8.37-25.748v38.702h-9.224v-4.861c-3.371 2.286-6.362 5.155-13.016 3.156m49.505-17.264c-4.616-0.789-6.189 3.008-3.361 4.505 1.974 0.736 3.703-1.232 3.361-4.505m92.5 0.386c-0.167 5.916 6.089 7.908 7.427 4.727 1.164-4.076-3.316-11.036-7.427-15.441zm-78.318-18.123 0.05 20.278c0 1.15 1.291 2.901 4.327 2.403 2.537-1.041 3.977-3.475 3.977-5.22l-0.082-17.752c0-3.623-8.23-4.037-8.272 0.291m-59.411 1.96 4.349-3.988 4.55 6.019c0-9.179-13.394-10.583-13.12 0.637l3.188 2.668 2.834-2.697zm8.862 24.273v-20.579l-7.848 11.988-5.394-4.848v6.677l2.188 2.753-2.088 2.017c-0.028 9.536 13.142 8.587 13.142 1.992m-24.593-4.727 1.587-1.568-0.048-11.871c-3.896-1.288-8.598-0.754-11.656 0.453 0 0.251 10.117 12.572 10.117 12.986m-15.751-20.041 4.38 5.799c9.472-4.423 22.867 2.045 27.748 8.014l6.677-10.35-3.119-4.582-2.008 1.819 1.597 2.583-4.731 5.23c-7.326-6.999-16.916-14.674-30.544-8.513m13.771 23.95-7.662 6.911 6.282 2.647 5.757-4.883 1.627 1.634 1.628-1.634-1.417-1.5 6.739-6.249-4.153-4.851-6.8 6.135-25.367-31.827-4.899 3.87zm-9.09 24.843c-8.257-9.585-18.953-24.156-6.863-39.367l-4.554-4.738c-7.08 6.776-8.508 16.365-5.714 24.011 2.953 8.092 9.467 15.498 17.131 20.094" clip-path="url(#clipPath22155)"/><path transform="matrix(1.1922,0,0,-1.1922,-188.66,357.64)" d="m350.78 224.02c1.327-5.913 2.268-10.449 3.174-12.947 0.877 2.604 1.614 6.787 3.061 12.915 0.852 3.659 3.545 13.984-2.916 14.058-7.254 0.266-4.094-9.702-3.319-14.026" clip-path="url(#clipPath22149)"/></g></g></svg>
