<?xml version="1.0" encoding="UTF-8"?>
<svg id="Camada_1_xA0_Image_1_" width="834" height="209" version="1.1" viewBox="953.91 411.6 834 209" xmlns="http://www.w3.org/2000/svg">
 <style type="text/css">.st0{fill:#FFFFFF;}</style>
 <rect x="953.91" y="411.6" width="834" height="209" fill="#e61e26" stroke-linecap="round" stroke-width="5.5512" style="paint-order:markers stroke fill"/>
 <g transform="translate(870.9 44.779)">
  <path class="st0" d="m611.68 442.37c-1.99-8.56-5.2-16.59-10.41-23.72-3.94-5.4-8.52-10.17-14.75-13.07-6.49-3.02-13.45-3.99-20.5-4.4-11.02-0.65-22.06-0.14-33.09-0.31-0.97-0.01-1.35 0.37-1.42 1.24-0.08 1.04-0.14 2.09-0.27 3.13-0.77 6.13-1.6 12.26-2.34 18.4-0.93 7.65-1.77 15.3-2.71 22.95-0.97 7.91-2.03 15.8-3.01 23.71-1.16 9.36-2.27 18.73-3.4 28.09-0.58 4.84-1.17 9.68-1.76 14.52-0.72 5.88-1.45 11.75-2.18 17.63-0.54 4.37-1.06 8.74-1.64 13.1-0.16 1.19 0.2 1.53 1.42 1.52 5.73-0.06 11.46-0.03 18.41-0.03 6.4-0.17 14.04 0.28 21.66-0.56 5.81-0.64 11.53-1.59 17.03-3.58 11.85-4.3 20.74-12.22 27.41-22.63 8.04-12.54 12-26.43 13.45-41.11 1.16-11.74 0.79-23.36-1.9-34.88zm-32.45 26.33c0.06 7.7-1 14.68-4.51 21.13-3.15 5.79-7.72 9.9-14.32 11.51-1.7 0.41-3.44 0.54-5.19 0.67-1.1 0.08-1.38-0.32-1.25-1.36 0.51-3.84 0.95-7.7 1.42-11.55 0.93-7.75 1.85-15.5 2.79-23.25 0.77-6.29 1.56-12.58 2.35-18.88 0.03-0.21 0.08-0.41 0.11-0.62 0.32-2.58 0.4-2.58 2.99-2.25 7.15 0.91 11.18 5.38 13.62 11.65 1.69 4.32 2.12 8.84 1.99 12.95z"/>
  <path class="st0" d="m796.56 414.87c-4.65-5.35-10.17-9.42-17.15-11.36-6.06-1.68-12.27-2.41-18.52-2.54-9.07-0.19-18.14-0.08-27.21-0.09-3.91-0.01-3.82 0.01-4.26 3.95-0.84 7.66-1.77 15.31-2.7 22.95-0.97 7.9-2.03 15.8-2.99 23.7-1.35 11.13-2.61 22.28-3.96 33.41-0.96 7.91-2.06 15.8-3.04 23.7-1.44 11.65-2.8 23.31-4.27 34.95-0.16 1.3 0.07 1.62 1.39 1.61 5.73-0.06 11.46-0.03 18.36-0.03 6.45-0.17 14.08 0.26 21.71-0.56 7.52-0.81 14.84-2.23 21.69-5.52 9.56-4.58 16.9-11.61 22.59-20.38 7.68-11.86 11.7-24.98 13.37-38.86 1.56-13.01 1.28-25.95-1.91-38.74-2.43-9.68-6.48-18.57-13.1-26.19zm-23.81 75.4c-4.17 7.32-10.41 11.38-18.99 11.75-1.16 0.05-1.64-0.19-1.48-1.45 0.63-4.89 1.2-9.78 1.78-14.67 0.92-7.65 1.82-15.3 2.74-22.95 0.7-5.83 1.45-11.65 2.11-17.49 0.14-1.24 0.68-1.54 1.87-1.46 6.6 0.42 10.98 3.92 13.81 9.6 2.42 4.87 2.95 10.12 3 15.17-0.14 7.68-1.08 14.91-4.84 21.5z"/>
  <path class="st0" d="m487.55 403.94c-6.18-2.31-12.62-3.07-19.18-3.06-11.09 0.01-22.17 0-33.26 0-3.29 0-3.29 0-3.76 3.26-0.02 0.16-0.07 0.31-0.09 0.46-0.78 6.13-1.57 12.27-2.32 18.4-0.94 7.7-1.84 15.4-2.78 23.1-0.75 6.14-1.56 12.27-2.31 18.41-0.95 7.75-1.85 15.51-2.8 23.26-0.74 6.09-1.55 12.16-2.29 18.25-0.95 7.8-1.88 15.61-2.81 23.42-0.57 4.79-1.12 9.58-1.72 14.36-0.13 1.04 0.16 1.34 1.25 1.34 10.5-0.04 21.01-0.03 31.51 0.01 1.01 0 1.51-0.33 1.54-1.3 0.07-1.94 0.47-3.85 0.71-5.77 0.73-5.88 1.41-11.76 2.12-17.64 0.59-4.89 1.17-9.78 1.78-14.67 0.52-4.14 1.08-8.28 1.62-12.42 0.12 0 0.23 0 0.35-0.01 0.15 0.32 0.4 0.63 0.44 0.96 0.26 2.35 0.87 4.63 1.33 6.94 1.85 9.35 3.68 18.7 5.53 28.04 0.92 4.67 1.92 9.33 2.76 14.02 0.23 1.31 0.6 1.87 2.07 1.86 9.92-0.06 19.84-0.03 29.76-0.03 0.9 0 1.8-0.03 2.71 0.01 0.84 0.03 1.17-0.21 0.89-1.1-0.37-1.15-0.67-2.31-0.96-3.48-2.22-8.99-4.43-17.98-6.65-26.97-1.88-7.62-3.76-15.25-5.69-22.85-0.25-0.97 0.12-1.34 0.93-1.63 6.75-2.38 11.59-6.98 15.15-12.99 3.66-6.19 5.57-12.93 6.51-20.02 1.29-9.71 1.3-19.33-1.35-28.84-3.13-11.19-9.9-19.18-20.99-23.32zm-11.07 45.88c-0.15 2.23-0.37 4.84-1.36 7.3-1.64 4.09-4.78 6.42-9.04 7.33-2.12 0.46-4.28 0.67-6.46 0.64-1.22-0.01-1.55-0.46-1.39-1.61 0.6-4.3 1.16-8.6 1.7-12.91 0.51-4.1 1.02-8.2 1.44-12.32 0.13-1.26 0.47-1.88 1.9-1.8 2.17 0.12 4.31 0.21 6.42 0.86 3.42 1.04 5.39 3.39 6.24 6.68 0.46 1.76 0.67 3.6 0.55 5.83z"/>
  <path class="st0" d="m198.8 402.08c-0.47-0.35-1.02-0.17-1.53-0.17-14.11-0.01-28.22 0.03-42.34-0.05-1.73-0.01-2.39 0.62-2.91 2.09-2.58 7.24-5.23 14.46-7.88 21.67-5.24 14.23-10.51 28.45-15.76 42.67-3.28 8.88-6.53 17.78-9.81 26.66-3.71 10.06-7.43 20.12-11.15 30.17-2.47 6.67-4.95 13.34-7.42 20 0.23 1.07 1.11 0.6 1.68 0.6 12.62 0.04 25.24 0.05 37.86 0.06 0.7-0.45 0.74-1.23 0.94-1.92 1.76-6.06 3.51-12.13 5.26-18.2 0.24-0.84 0.7-1.3 1.69-1.29 6.94 0.03 13.87 0.03 20.81 0 1.16-0.01 1.57 0.39 1.55 1.56-0.08 5.92-0.1 11.84-0.13 17.76 0 0.68 0.08 1.35 0.12 2.03 0.27 0.01 0.53 0.01 0.8 0.01 12.68 0.02 25.35 0.03 38.03 0.05 0.73-0.66 0.32-1.49 0.27-2.22-0.81-11.98-1.65-23.97-2.47-35.95-0.79-11.56-1.54-23.13-2.34-34.7-0.69-10.05-1.45-20.09-2.14-30.13-0.79-11.41-1.5-22.82-2.33-34.23-0.14-2.15-0.16-4.35-0.8-6.47m-44.02 92.07c2.95-9.53 5.79-19.1 8.69-28.65 1.95-6.4 3.95-12.78 5.93-19.16 0.37-1.19 0.5-2.45 1.29-3.6 0.47 0.57 0.36 1.11 0.36 1.62-0.18 16.67-0.39 33.34-0.55 50.02-0.01 1.14-0.43 1.4-1.49 1.39-4.34-0.05-8.69-0.06-13.03-0.01-1.33 0.01-1.62-0.26-1.2-1.61z"/>
  <path class="st0" d="m705.73 528.48c-0.78-8.56-1.62-17.12-2.36-25.69-0.94-10.87-1.76-21.74-2.69-32.61-1.11-12.96-2.29-25.9-3.43-38.86-0.85-9.66-1.7-19.33-2.49-29-0.1-1.16-0.51-1.49-1.66-1.48-5.78 0.05-11.56 0.02-17.35 0.02-5.73 0-11.46 0.06-17.19-0.04-1.35-0.02-1.86 0.49-2.24 1.61-4.49 13.06-9.01 26.1-13.53 39.15l-11.61 33.51c-4.61 13.29-9.23 26.58-13.84 39.87-3.27 9.44-6.53 18.88-9.82 28.31-0.63 1.8-0.65 1.83 1.26 1.83h32.63c2.72 0 2.65-0.02 3.31-2.58 1.32-5.06 2.75-10.09 4.06-15.16 0.3-1.17 0.83-1.56 2.08-1.54 6.63 0.06 13.26 0.07 19.89-0.01 1.55-0.02 1.98 0.46 2 1.95 0.1 5.35 0.34 10.7 0.5 16.05 0.03 0.89 0.26 1.31 1.28 1.31 10.45-0.03 20.9-0.03 31.35-0.01 1.02 0 1.27-0.35 1.19-1.3-0.46-5.09-0.88-10.21-1.34-15.33zm-36.48-36.38c-2.92 0-5.84 0.01-8.75-0.01-1.83-0.01-1.82-0.06-1.36-1.73 2.8-10.25 5.94-20.4 8.4-30.74 0.91-3.81 1.54-7.69 2.65-11.46 0.04-0.12 0.12-0.24 0.3-0.57 0 2.91-0.01 5.57 0 8.24 0.06 11.39 0.47 22.77 0.83 34.16 0.07 2.02 0.03 2.1-2.07 2.11z"/>
  <path class="st0" d="m412.46 400.85c-14.86 0.04-29.71 0.02-44.57 0.03-5.94 0-11.88 0.03-17.83-0.02-1.06-0.01-1.51 0.29-1.61 1.34-0.17 1.82-0.42 3.64-0.65 5.46-0.54 4.32-1.11 8.63-1.64 12.95-0.94 7.7-1.84 15.4-2.78 23.1-0.75 6.09-1.57 12.16-2.3 18.25-1.13 9.37-2.18 18.74-3.32 28.11-0.75 6.14-1.63 12.26-2.39 18.4-1.44 11.7-2.81 23.42-4.29 35.11-0.17 1.37 0.19 1.57 1.43 1.57 10.88-0.04 21.75-0.02 32.63-0.02 10.93 0 21.86-0.02 32.79 0.03 1.23 0 1.59-0.36 1.72-1.58 0.84-7.61 1.78-15.2 2.71-22.8 0.53-4.37 1.09-8.73 1.68-13.1 0.15-1.1-0.16-1.47-1.33-1.44-3.39 0.07-6.79 0.03-10.18 0.03-6.9 0-13.79-0.01-20.69 0.01-1.17 0-1.84-0.08-1.62-1.64 0.6-4.15 1.03-8.32 1.42-12.5 0.14-1.46 0.74-1.87 2.21-1.86 8.7 0.07 17.4 0.03 26.1 0.04 0.85 0 1.46 0.03 1.59-1.15 1.25-10.83 2.56-21.65 3.87-32.47 0.33-2.7 0.35-2.69-2.47-2.69-8.28 0-16.55 0-24.83 0.01-1.17 0-1.84-0.06-1.57-1.64 0.61-3.56 1.03-7.16 1.34-10.76 0.13-1.44 0.61-1.84 2.03-1.83 9.07 0.06 18.14 0.03 27.22 0.03 2.43 0 2.39-0.01 2.64-2.38 0.44-4.22 0.93-8.44 1.44-12.66 0.9-7.44 1.78-14.88 2.77-22.31 0.2-1.41-0.23-1.62-1.52-1.62z"/>
  <path class="st0" d="m898.58 400.86c-7.59 0.03-15.17 0.02-22.76 0.02h-39.79c-0.8 0-1.48-0.14-1.63 1.09-0.97 8.17-2.07 16.32-3.07 24.49-1.01 8.17-1.95 16.34-2.94 24.51-1.04 8.58-2.1 17.16-3.16 25.75-0.53 4.32-1.07 8.64-1.59 12.95-0.72 5.93-1.41 11.86-2.14 17.79-0.53 4.32-1.13 8.63-1.65 12.94-0.93 7.65-1.79 15.31-2.78 22.95-0.18 1.4 0.02 1.81 1.52 1.8 10.82-0.06 21.65-0.03 32.47-0.03 10.93 0 21.86-0.02 32.79 0.02 1.12 0 1.51-0.27 1.65-1.44 0.87-7.5 1.85-14.98 2.77-22.47 0.56-4.53 1.06-9.06 1.63-13.59 0.14-1.09-0.11-1.42-1.32-1.41-10.08 0.06-20.16 0.03-30.23 0.03-2.47 0-2.49 0-2.17-2.49 0.5-3.95 1.06-7.9 1.52-11.85 0.14-1.19 0.55-1.64 1.86-1.63 8.75 0.06 17.51 0.01 26.26 0.06 1.17 0.01 1.6-0.38 1.72-1.46 0.3-2.76 0.68-5.52 1.01-8.27 0.98-8.17 1.94-16.34 2.94-24.51 0.25-2.08 0.3-2.08-1.9-2.08-8.43 0-16.87-0.05-25.3 0.03-1.63 0.02-2.01-0.53-1.8-1.99 0.48-3.43 0.93-6.86 1.28-10.3 0.15-1.46 0.63-1.99 2.23-1.98 9.28 0.09 18.57 0.03 27.85 0.06 1.18 0 1.68-0.28 1.77-1.55 0.19-2.66 0.58-5.31 0.9-7.97 1.15-9.36 2.28-18.73 3.47-28.09 0.14-1.21-0.35-1.39-1.41-1.38z"/>
  <path class="st0" d="m341.52 400.88c-11.51 0-23.02 0.02-34.54-0.03-1.2-0.01-1.68 0.42-1.98 1.47-0.96 3.37-1.96 6.73-2.97 10.08-3.54 11.72-7.1 23.43-10.65 35.15-3.11 10.27-5.62 20.7-7.74 31.43-0.48-0.86-0.51-1.49-0.51-2.12-0.03-16.91-1.58-33.74-2.89-50.58-0.63-8-1.27-16-1.86-24-0.08-1.06-0.42-1.43-1.53-1.42-10.56 0.04-21.11 0.04-31.67 0-1.08 0-1.36 0.33-1.23 1.37 0.39 3.12 0.66 6.26 1.02 9.38 1.35 11.87 2.72 23.74 4.07 35.62 1.28 11.3 2.55 22.61 3.82 33.91 1.27 11.25 2.54 22.5 3.8 33.75 1.07 9.53 2.15 19.07 3.2 28.61 0.12 1.07 0.33 1.68 1.68 1.67 9.34-0.07 18.67-0.06 28.01-0.02 1.1 0 1.55-0.37 1.91-1.39 5.02-13.93 10.1-27.85 15.15-41.77 6.8-18.74 13.6-37.48 20.39-56.22 5.23-14.42 10.46-28.83 15.69-43.25 0.6-1.6 0.57-1.64-1.17-1.64z"/>
 </g>
</svg>
