<?xml version="1.0" encoding="UTF-8"?>
<!-- Generator: Adobe Illustrator 28.1.0, SVG Export Plug-In . SVG Version: 6.00 Build 0)  -->
<svg id="a" width="705" height="137" version="1.1" viewBox="0 0 705 137" xml:space="preserve" xmlns="http://www.w3.org/2000/svg">
<style type="text/css">
	.st0{fill:#FFFFFF;}
</style>
<rect width="705" height="137" fill="#cd0412" stroke-linecap="round" stroke-linejoin="round" stroke-width="9.4413" style="paint-order:markers stroke fill"/><path class="st0" d="m79.6 68.1c-0.4-0.1-0.7-0.2-1.1-0.2 0.6-0.2 1.3-0.4 1.9-0.6 4.9-1.7 8.8-4.2 11.6-7.5s4.2-7.5 4.2-12.4-1.3-8.7-3.8-11.9c-2.6-3.3-6-5.7-10.3-7.3s-9-2.4-14.3-2.4h-43.1v3.4h11.4v78.8h-11.4v3.4h43.1c6 0 11.3-0.8 16.1-2.3s8.5-3.9 11.3-7.2c2.8-3.2 4.1-7.4 4.1-12.5 0-5.8-1.7-10.3-5.2-13.8-3.5-3.4-8.3-5.9-14.5-7.5zm-16.4-38.9c3.2 0 5.8 0.5 7.8 1.4s3.5 2.7 4.4 5.3 1.4 6.5 1.4 11.5-0.5 8.8-1.4 11.5c-1 2.7-2.4 4.5-4.4 5.5s-4.6 1.5-7.8 1.5h-2.2-3.1-3.9v-36.7h9.2zm14 71.3c-1.3 2.9-3.1 4.9-5.5 6-2.3 1.1-5.2 1.6-8.5 1.6h-9.2v-38.3h9.2c3.6 0.1 6.5 0.7 8.7 1.5 2.6 1.1 4.5 2.9 5.6 5.6s1.7 6.4 1.7 11.1c-0.1 5.4-0.7 9.5-2 12.5z"/>
<path class="st0" d="m142.2 59c-2.2 0-4.7 0.6-7.5 1.9-2.8 1.2-5.4 4-7.9 8.2h-0.5v-8.7h-24.8v3.4h9.2v44.3h-9.2v3.4h32.2v-3.4h-7.4v-25.5c0-3 0.6-5.8 1.8-8.4s2.6-4.7 4.2-6.2c1.6-1.6 3.1-2.4 4.3-2.4 0.4 0 0.6 0.1 0.7 0.2s0.2 0.2 0.2 0.4c0 0.4-0.2 0.9-0.7 1.6s-0.7 1.8-0.7 3.3c0 2.6 0.9 4.5 2.7 5.8s3.8 1.9 6 1.9c2.4 0 4.4-0.8 6.1-2.3 1.6-1.5 2.4-3.9 2.4-7.2s-0.9-5.9-2.8-7.7c-2.1-1.7-4.8-2.6-8.3-2.6z"/>
<path class="st0" d="m677.9 75c-1.5-3.3-3.5-6.1-6.1-8.5s-5.6-4.2-9-5.6c-3.4-1.3-7.1-2-11-2s-7.6 0.7-11 2-6.4 3.2-9 5.6-4.6 5.2-6.1 8.5-2.2 6.9-2.2 10.8 0.7 7.7 2.2 11c1.5 3.3 3.5 6.2 6.1 8.6s5.6 4.3 9 5.6 7.1 1.9 11 1.9 7.6-0.6 11-1.9 6.4-3.1 9-5.6c2.6-2.4 4.7-5.3 6.1-8.6 1.5-3.3 2.2-6.9 2.2-11s-0.7-7.5-2.2-10.8zm-16.4 25.4c-0.7 3.3-1.8 5.6-3.4 6.8s-3.7 1.8-6.4 1.8-4.8-0.6-6.3-1.8-2.7-3.5-3.3-6.8c-0.7-3.3-1-8.1-1-14.4s0.3-11.1 1-14.4 1.8-5.6 3.3-6.8 3.7-1.8 6.3-1.8 4.8 0.6 6.4 1.8 2.7 3.5 3.4 6.8 1 8.1 1 14.4-0.3 11.1-1 14.4z"/>
<path class="st0" d="m275.7 47.2c2.4 0 4.7-0.9 6.5-2.7s2.7-3.9 2.7-6.4-0.9-4.6-2.7-6.5-4-2.7-6.5-2.7-4.6 0.9-6.4 2.7-2.7 4-2.7 6.5 0.9 4.5 2.7 6.4c1.8 1.8 3.9 2.7 6.4 2.7z"/>
<path class="st0" d="m615.8 105.1c-1.2 0.9-2.5 1.4-4 1.4-2.9 0-4.3-1.7-4.3-5.1v-37.6h13v-3.5h-13v-19.5h-4.7c-1.4 3.4-3.1 6.6-5.2 9.4-2.1 2.9-4.4 5.2-6.9 7s-5.2 2.8-8.1 3.1v3.5h9.2v39.5c0 3.1 1 5.5 3.1 7.1s5.4 2.4 9.9 2.4c4.2 0 7.7-0.8 10.5-2.4 2.7-1.6 5.1-4.5 7.2-8.7l-2.7-1.6c-1.5 2.4-2.8 4.1-4 5z"/>
<path class="st0" d="m208 105.5c-0.7 0.5-1.4 0.8-2 0.8-0.8 0-1.4-0.3-1.9-0.8s-0.7-1.1-0.7-1.8v-33c0-3.5-2-6.3-5.9-8.5s-8.9-3.2-15-3.2c-4.4 0-8.3 0.6-11.8 1.8s-6.2 2.8-8.2 4.8-2.9 4.3-2.9 6.9c0 2.2 0.7 4 2.2 5.6s3.2 2.3 5.4 2.3 4.1-0.8 5.6-2.3 2.3-3.2 2.3-5.2c0-1.6-0.4-2.7-1.2-3.5-0.8-0.7-1.2-1.6-1.2-2.5 0-1.2 0.7-2.2 2.1-3s3.1-1.1 5.1-1.1c2.4 0 4.2 0.6 5.7 1.7 1.4 1.1 2.2 2.7 2.2 4.7v13.3c-6.4 0-11.9 0.7-16.7 2.1s-8.5 3.4-11.1 6.1-3.9 5.8-3.9 9.4c0 3.9 1.4 7 4.3 9.3s6.6 3.5 11 3.5c3.9 0 7.2-0.8 10.1-2.4 2.8-1.6 4.9-3.4 6.3-5.4h0.4c0.6 2.3 1.8 4.2 3.6 5.7s4.2 2.2 7.3 2.2c5.3 0 10-2.5 14.2-7.6l-2.3-2.6c-1.2 1.2-2.2 2.2-3 2.7zm-20.2-10.6c0 3.5-0.9 6.3-2.6 8.5s-3.8 3.2-6.2 3.2c-2.1 0-3.7-0.8-4.8-2.3-1.1-1.6-1.6-3.6-1.6-6.2 0-4 1.3-7 4-9.1s6.4-3.1 11.2-3.1v9z"/>
<path class="st0" d="m580.9 105.5c-0.7 0.5-1.4 0.8-2 0.8-0.8 0-1.4-0.3-1.9-0.8s-0.7-1.1-0.7-1.8v-33c0-3.5-2-6.3-5.9-8.5s-8.9-3.2-15-3.2c-4.4 0-8.3 0.6-11.8 1.8s-6.2 2.8-8.2 4.8-3 4.3-3 6.9c0 2.2 0.7 4 2.2 5.6 1.4 1.5 3.2 2.3 5.5 2.3s4.1-0.8 5.6-2.3 2.3-3.2 2.3-5.2c0-1.6-0.4-2.7-1.2-3.5-0.8-0.7-1.2-1.6-1.2-2.5 0-1.2 0.7-2.2 2.1-3s3.1-1.1 5-1.1c2.3 0 4.2 0.6 5.7 1.7 1.4 1.1 2.2 2.7 2.2 4.7v13.3c-6.4 0-11.9 0.7-16.7 2.1s-8.5 3.4-11.1 6.1-3.9 5.8-3.9 9.4c0 3.9 1.4 7 4.3 9.3s6.6 3.5 11 3.5c3.9 0 7.2-0.8 10-2.4s5-3.4 6.3-5.4h0.5c0.6 2.3 1.8 4.2 3.6 5.7s4.2 2.2 7.3 2.2c5.3 0 10-2.5 14.2-7.6l-2.3-2.6c-1.2 1.2-2.2 2.2-2.9 2.7zm-20.3-10.6c0 3.5-0.8 6.3-2.5 8.5s-3.8 3.2-6.2 3.2c-2.1 0-3.7-0.8-4.8-2.3-1.1-1.6-1.7-3.6-1.7-6.2 0-4 1.3-7 4-9.1 2.7-2 6.4-3.1 11.2-3.1z"/>
<path class="st0" d="m396.3 29.2v-3.4h-26.9v3.4h11.2v37.7h-0.4c-1.2-2.3-3.2-4.2-5.9-5.7s-5.8-2.3-9.4-2.3c-4 0-7.8 1.1-11.5 3.3s-6.6 5.4-8.9 9.4-3.4 8.8-3.4 14.1 1.1 10.1 3.5 14.1c2.3 4.1 5.3 7.2 8.9 9.4s7.5 3.3 11.5 3.3c3.6 0 6.7-0.8 9.3-2.3s4.6-3.4 5.8-5.7h0.5v6.6h24.9v-3.4h-9.2zm-19.4 74.2c-2.5 3.3-5.6 5-9.4 5-2 0-3.7-0.6-5-1.8s-2.2-3.4-2.8-6.6c-0.6-3.2-0.9-7.9-0.9-14s0.3-10.8 0.9-14.1c0.6-3.2 1.5-5.5 2.8-6.7s3-1.8 5-1.8c3.8 0 6.9 1.7 9.4 5 2.4 3.2 3.6 8.2 3.7 14.9v4.8c-0.1 6.9-1.3 12-3.7 15.3z"/>
<path class="st0" d="m532.2 50.2h4.5v-24.4h-70.4v3.4h10.8v78.8h-10.8v3.4h43.3v-3.4h-14.5v-36.9c4.8 0 8.6 0.6 11.6 1.7s5.2 2.9 6.6 5.2 2.1 5.3 2.2 9h4.5v-34.1h-4.7c-0.1 3.3-0.8 6.1-2.2 8.3s-3.6 3.8-6.6 4.9c-2.9 1-6.8 1.5-11.6 1.6v-38.5h18.7c3.9 0 7.1 1 9.9 2.9 2.7 1.9 4.8 4.5 6.3 7.7 1.6 3.2 2.3 6.6 2.4 10.4z"/>
<path class="st0" d="m443.9 106c-3.3 2-7 2.9-11 2.9-2.9 0-5.1-0.6-6.8-1.8s-2.8-3.5-3.5-6.8c-0.7-3.3-1-8-1-14.1v-3.5h33.9v-1.2c0-4.6-1-8.6-3.1-12s-4.9-6-8.5-7.8-7.7-2.7-12.2-2.7c-5.6 0-10.5 1.3-14.6 3.9-4.2 2.6-7.4 5.9-9.6 10s-3.4 8.3-3.4 12.7c0 3.6 0.7 7 2.2 10.2 1.4 3.3 3.5 6.2 6.1 8.7 2.6 2.6 5.6 4.6 9.1 6.1 3.4 1.5 7.1 2.3 11.1 2.3 5.7 0 10.6-1.6 14.8-4.7s7.1-7.3 8.7-12.5h-3.8c-2.3 4.9-5.1 8.3-8.4 10.3zm-18.2-41.2c1.4-1.4 3.3-2.2 5.7-2.2 5.5 0 8.2 3.3 8.2 9.8v6.9h-17.8c0.2-2.8 0.4-5.2 0.8-7.2 0.6-3.5 1.7-5.9 3.1-7.3z"/>
<path class="st0" d="m247.6 80.8c-2.8-1.3-5.9-2.3-9.4-3.1-3.6-0.8-6.2-1.5-8.1-2.3-1.8-0.8-3-1.7-3.6-2.5-0.6-0.9-0.9-1.9-0.9-3.1 0-2 0.9-3.6 2.7-4.8s4.4-1.9 7.9-1.9c4.5 0 7.7 1 9.7 2.8 2 1.9 3.4 5 4.3 9.2l0.3 1.7h4v-16.5h-2.9l-1.2 3.8c-1-1.6-2.7-2.8-5.2-3.8-2.5-0.9-5.4-1.4-8.9-1.4-5.9 0-10.5 1.5-13.7 4.5s-4.8 7.4-4.8 13.2c0 3.9 0.8 7 2.4 9.2 1.6 2.3 3.8 4.1 6.6 5.3s6 2.2 9.6 2.9c5.1 1 8.5 2.1 10.2 3.3s2.4 2.8 2.4 4.6c0 2.2-0.9 3.8-2.6 4.9s-4.4 1.7-7.9 1.7c-5.5 0-9.7-1.2-12.5-3.6s-4.6-5.3-5.3-8.9l-0.7-3.3h-3.8v18.5h3.3l1.7-4.4c2 1.7 4.5 3.1 7.5 4.2s6.2 1.6 9.5 1.6c5.6 0 10.1-1.5 13.5-4.4s5.1-7.4 5.1-13.3c0-3.8-0.8-6.8-2.4-9-1.8-2.1-4-3.8-6.8-5.1z"/>
<polygon class="st0" transform="translate(21.3 23.8)" points="298.4 2 273.5 2 273.5 5.4 282.7 5.4 282.7 84.2 263.1 84.2 263.1 39.9 263.1 38.3 263.1 36.5 238.2 36.5 238.2 39.9 247.4 39.9 247.4 84.2 238.2 84.2 238.2 87.6 306.9 87.6 306.9 84.2 298.4 84.2 298.4 5.4 298.4 3.8"/>
</svg>
