<?xml version="1.0" encoding="UTF-8"?>
<!-- Created with Inkscape (http://www.inkscape.org/) -->
<svg width="115.09mm" height="19.849mm" version="1.1" viewBox="0 0 115.09 19.849" xmlns="http://www.w3.org/2000/svg">
 <g transform="translate(-114.8 -126.82)">
  <g>
   <path d="m137.88 126.82c0.34973 0.20514 0.66542 0.66986 1.099 0.66986 0.0656-0.0962 0.33008-0.38944 0.33008-0.13429 0.45585 0.30951 0.65888 1.2479 0.65888 1.8757h0.11015c0.0721-0.12531 0.18194-0.26765 0.33008-0.26765v0.13428h0.11015v0.13337c-0.3026 0.77938-0.10736 1.7505-0.11665 2.676-0.0486 1.4572-0.0968 2.918-0.14789 4.3757 0.14016 1.3944 0.28033 2.7928 0.41786 4.187 0.0968 0.54031 0.194 1.0847 0.28558 1.6246h-0.1086c-0.1086-0.10427-0.2763-0.26764-0.44011-0.26764-0.0278 0.12531-0.21999 0.84579-0.21999 0.53559h-0.11015c-0.0956-0.70756-0.18998-1.4152-0.28559-2.1229-0.14418-0.40211-0.28683-0.79965-0.43226-1.2018-0.0186-0.0541-0.034-0.10428-0.051-0.15905h0.11016c-0.38246-1.1764-0.18998-2.5373-0.39559-3.8646-0.0693-0.42675-0.48463-0.8167-0.48463-1.093-0.0693-0.18813-0.57241-2.8136-0.21999-2.8136v-0.26827c-0.42177 0-1.4291 0.17143-1.4291 0.80374 0.18194-0.0461 0.36808-0.0878 0.55014-0.13336 0 0.16678 0.0551 0.26765-0.11016 0.26765v0.13397c-0.83698 0.6197-1.6203 2.6632-2.5385 2.8889-0.13615 0.0309-0.3183 9e-3 -0.3183 0.19308h-0.11139c0.0328 1.122-1.3033 2.9481-1.7578 3.8819-0.61434 1.2516-0.98631 2.7886-1.4959 4.1112-0.16244 0.28497-0.32093 0.57006-0.48204 0.85036h-0.11015c0.12717-0.79965 0.25805-1.5953 0.38509-2.395 0.24352-0.7414 0.48728-1.4782 0.73091-2.219 0.11665-0.41865 0.2333-0.83769 0.35106-1.2602 0.36675-0.93434 0.73743-1.8681 1.1055-2.8014 0.26734-0.64063 2.2621-3.8149 2.2621-4.188 0.33139 0.10953 1.6504 0.0337 1.6504-0.5352 0.14419 0 0.11015-0.0464 0.11015 0.13367h0.32875v-0.13367h0.11016c0.0538-0.36481 0.33009-0.64509 0.33009-0.93839-0.8789-0.17575-0.76887-1.3273-0.76887-2.2773h0.1086v0.13335h0.11015c0.0826 0.16368 0.51218 1.072 0.55015 1.072 0.0551-0.13831 0.58942-0.93786 0.32878-0.93786v-0.13429h-0.21999c0.0186 0.15501-0.0851 0.26826-0.21876 0.26826 0-0.18008 0.034-0.13397-0.11016-0.13397 0-0.18008-0.038-0.13429 0.11016-0.13429 0.0851-0.12129 0.21876-0.20112 0.21876-0.40213-0.0368-0.0461-0.0708-0.0875-0.10861-0.13366"/>
   <path d="m208.22 126.96c1.8849 1.1476 3.6951 2.3701 5.7071 3.2204 0.50299 0.20917 1.2025 0.66565 1.7657 0.66565v0.26827h-0.32878v0.13397c0.17172 0.0334 0.4388 0.0247 0.4388 0.26795-1.209 0.45583-3.0598 1.8548-4.1378 2.7466-0.64051 0.49775-1.2784 1.0007-1.9202 1.4986-0.14419 0.0588-0.50951-0.0461-0.64837-0.0705-0.15596-0.0337-0.10738 0.0124-0.10738-0.15502 0.14419 0 0.11016 0.0414 0.11016-0.13398 0.57241-0.41037 5.1647-4.2084 5.1647-4.5558 0.14543 0 0.1114 0.0414 0.1114-0.13428-1.4055-0.26764-2.6485-0.91742-3.9807-1.3856-0.88415-0.31461-1.7054-0.27259-2.418-0.99261-0.10088-0.10024-0.41653-0.26392-0.41653-0.4354 0.25805 0.0461 0.51476 0.0922 0.77019 0.13398-0.17947-0.24692-0.57765-0.33925-0.53965-0.76639 0.19926-0.0795 0.25805-0.15905 0.42962-0.30602"/>
   <path d="m150.74 127.36h0.11016c-0.47285 1.1472-1.4107 1.7377-2.156 2.5961-0.8069 1.072-1.6098 2.148-2.418 3.2199-0.26457 0.29797-0.52788 0.59454-0.79638 0.89186-0.89987 1.294-1.5221 2.8347-2.2019 4.2836-0.29209 0.61143-0.58811 1.5914-1.0518 2.0606-0.53835 0.5356-0.77152-0.32291-1.2666-0.32291v-0.13428h0.11015c0.11264-0.2927 0.56327-1.7417-0.11015-1.7417v-0.13398c0.7283-0.36374 0.93131-1.1179 1.3675-1.8255 0.28435-0.39766 0.57242-0.79572 0.85928-1.1933 0.18349-0.31829 0.37723-0.83752 0.66933-1.0264 0.13242 9e-3 0.26732 0.0186 0.40081 0.0248 0.52527-1.3993 1.8011-2.3956 2.7101-3.4005 0.43354-0.49015 0.86579-0.97572 1.2955-1.4653 0.81994-0.67026 1.6818-1.0725 2.4782-1.8343"/>
   <path d="m211.3 128.7h0.32878-0.32878"/>
   <path d="m207.45 129.1c0.28559 9e-3 0.88022-9e-3 0.88022 0.40158 0.1086-0.0461 0.21876-0.0875 0.32879-0.13397 0.0551-0.0795 0.11014-0.13428 0.11014 0 0.20297 0.13861 0.66018 0.49017 0.66018 0.80386-0.11015 0.52397-0.66018 1.2023-0.66018 1.6081 0.15192 0 0.3301-0.0798 0.3301 0.13397-0.48072 0.84171-0.55931 1.888-0.7689 2.9098-0.11387 0.52801-0.39556 1.0637-0.44011 1.6625-0.10335 1.3272-0.11789 2.6801 0.11385 3.865 0.0309 0.16739 0.0891 0.6739 0.21629 0.6739 0.0916 0.12191 0.11015 0.0965 0.11015 0.26827h-0.21999c-0.71125-1.2725-1.598-3.2199-1.505-4.9576 0.0891-0.84984 0.17946-1.6956 0.26454-2.546 0-0.23422 0.1544-0.80386 0.0316-0.80386-0.0124-0.394-0.0186-0.78749-0.0278-1.1809 0.034-0.39757 0.47413-2.303 0.46761-2.303 0.0368-0.13398 0.0745-0.26826 0.10861-0.40159"/>
   <path d="m118.43 129.24c0.13769 0.11324 0.36805 0.40227 0.55013 0.40227v-0.26826h0.44012c0.28807 0.35143 0.63789 0.42256 0.94703 0.72501 0.78721 0.76547 3.9191 4.5005 4.6578 4.5005v0.1346c-0.1479-0.0461-0.29208-0.0882-0.44011-0.1346v0.1346c0.0996 0.15439 0.1479 0.53571 0.33008 0.53571v0.13397c0.3838-0.22215 0.96145-0.53624 1.4277-0.53624v0.26796c-0.20576 0.12995-0.50036 0.40213-0.76887 0.40213 0 0.17608 0.0353 0.13369-0.1086 0.13369v0.13459c0.18472 0.0217 0.54884 0.0217 0.54884 0.26764-0.97846 0.2302-1.9504 1.0346-2.8306 1.5452-0.25805 0.14636-0.58417 0.46458-0.9064 0.46458 0.0616-0.0922 0.11015-0.11262 0.11015-0.26795h-0.11015v0.1346c-0.90643 1.1007-6.9239 5.6151-6.9239 6.6993h-0.1086c0-0.15501-0.0458-0.26764 0.1086-0.26764 0.51871-2.0477 3.2039-4.2755 4.5819-5.4185 0.82781-0.69541 1.5102-1.5452 2.452-1.9515v-0.13335h0.22c0.0381 0.15439 0.0721 0.26763 0.21999 0.26763 0.17173-0.18409 1.6308-1.4741 1.7578-1.4741-0.48464-0.70356-4.1313-4.0197-4.726-4.0197 0.0891-0.0792 0.21999-0.0665 0.21999-0.26795-0.14789 0-0.11014 0.0424-0.11014-0.13367-0.11015 0.0278-0.44011 0.22557-0.44011 0-0.18473-0.0965-0.76887-0.36832-0.76887-0.67024 0.0247-0.18412-0.23701-0.66974 0-0.66974 0.1742 0.30951 0.8789 0.74492 0.8789 1.0713h0.11014c-0.32615-0.68205-0.98239-1.0463-1.319-1.7417"/>
   <path d="m223.06 130.44h0.33008-0.33008"/>
   <path d="m163.82 130.58c0.10334 0.0588 0.31696 0.26795 0.44011 0.26795-0.0603 0.12129-0.39035 0.93787-0.11015 0.93787v-0.1343c0.23051-0.0922 0.98892-0.356 0.98892-0.67024 0.1377 0 0.22-0.0541 0.22 0.13459h-0.11015c0 0.16739-0.0446 0.26765 0.11015 0.26765-0.53311 0.42714-1.0649 0.85442-1.5967 1.2775-0.91297 0.77007-1.8443 1.7669-2.6446 2.7466-0.0761 0.0879-0.25032 0.39807-0.0445 0.39807v-0.13459c1.6648-0.13368 5.4162 1.1016 6.7864 1.9387 0.27105 0.1971 0.54622 0.394 0.81866 0.5863 0.24227 0.26765 0.29735 0.52341 0.64445 0.65754 0.46631 0.17606 0.98895-0.23422 1.4225-0.23422-0.10489 0.23887-0.81735 1.2055-0.98896 1.2055-2.2817 0-5.0469 1.4951-7.0444 2.3827-2.6341 1.1641-5.3062 2.1526-7.7688 3.6974-0.0693 0.0424-1.674 1.1727-1.674 0.62006h-0.1086c0-0.18069-0.0393-0.13459 0.1086-0.13459 0.62217-0.71179 1.5456-0.94613 2.2778-1.4066 0.2333-0.15099 0.49905-0.60279 0.80033-0.60279 0.0486 0.0625 0.11016 0.13367 0.11016 0 0.61824-0.33978 1.1671-0.74962 1.8678-0.93837v-0.13366c-0.25683 0.0455-0.51086 0.0922-0.76887 0.13366v-0.40162c1.1644-0.65754 2.659-0.92568 3.9426-1.269 0.9169-0.30199 1.8351-0.60267 2.752-0.90826 0.94966-0.29364 2.2346-1.0391 3.1961-1.0391v-0.26765c-0.18224-0.0467-0.36415-0.0879-0.54884-0.13428-0.15439-0.84158-1.0204-0.66974-1.5391-0.66974v-0.13397c-0.39162-0.38117-0.87237-0.54909-1.3007-0.84628-0.32353-0.30539-0.64312-0.60686-0.96668-0.91231-0.46236-0.38995-1.4238-0.62836-2.029-0.67025-0.2333-0.0216-0.75839 0.14666-0.75839 0.55301h-0.22v-0.13459h-0.10861c0-0.18813-0.068-0.40159 0.10861-0.40159 0.0445-0.13428 0.0773-0.26827 0.22-0.26827v-0.26825c-0.16493-0.0414-0.44011-0.0248-0.44011-0.26766h0.11138c0.40737-0.92972 2.2346-3.7521 3.1856-3.7521v-0.40159c0.11017-0.0461 0.22001-0.0882 0.33009-0.13398 0.10861-0.18007 0.22-0.35613 0.32878-0.53624"/>
   <path d="m130.73 130.71h0.11139c-0.0458 0.14234-0.28807 0.66989-0.11139 0.66989 0.0393 0.18007 0.0563 0.40211 0.22124 0.40211-0.3576 0.79965-0.84879 0.77466-1.5286 0.9926-0.18597 0.0705-0.37069 0.14234-0.56061 0.21349v-0.26794h0.11015c0.34711-0.92503 1.1134-1.3896 1.7578-2.0099"/>
   <path d="m222.4 130.71"/>
   <path d="m208.55 130.84v0.26827c0.1284-0.0758 0.21998-0.0758 0.21998-0.26827h-0.21998"/>
   <path d="m214.7 130.98v0.13459c-0.0445 9e-3 0.0124 0.13397 0.10861 0.13397-0.0368-0.0882-0.0708-0.17605-0.10861-0.26856"/>
   <path d="m221.63 130.98h0.33009-0.33009"/>
   <path d="m181.84 131.11h1.429v0.13397c-0.81208 0.3054-1.5758 0.36846-2.5005 0.55667-0.26857 0.11294-0.53572 0.22557-0.80687 0.33519-1.3492 0.20516-2.6996 0.40986-4.054 0.61095-1.7788 0.27661-3.6296 1.1768-5.4988 1.1768v0.1346c0.83566 0.0625 1.5954 0.51425 2.3119 0.7783 0.44667 0.1677 0.89725 0.33507 1.3426 0.50246 0.31044 0.19275 0.6261 0.51936 0.95226 0.7245 0.63529 0.31002 1.2745 0.61953 1.9098 0.92972 0.0891 0.0628 0.62742 0.61549 0.62742 0.28033h0.33008v-0.26795c-0.94965-0.40215-1.9019-0.80374-2.8568-1.2055 0.0708-0.0124 0.14791-0.0217 0.22-0.0337 1.0505-0.0247 1.9084 1.0137 2.9681 1.0346 0.45846 9e-3 0.81865-0.28961 1.2182-0.4109 0.77543-0.24257 1.7906-0.45636 2.6276-0.45636 0.12717-0.0838 0.32875-0.0461 0.32875-0.26825h0.22153v0.13459h-0.11014c-1.5391 0.75735-3.0782 1.5202-4.6172 2.2774v0.13399h0.11015c0.16492 0.1844 0.5331 0.66984 0.7702 0.66984 0 0.17576 0.034 0.1346-0.11014 0.1346v0.13367c-0.38774-0.17946-0.85799-0.56954-1.323-0.57777-0.53573-0.0124-1.006 0.53625-1.4592 0.73273-0.24753 0.0712-0.49513 0.14232-0.74532 0.20947-0.11264 0.0424-0.0996 0.0155-0.0996 0.17172 0.0124 0.0922 0.11017 0.11325 0.11017 0.26765-0.30912 0.0925-0.61436 0.18471-0.92346 0.27692-0.0353 0.0217-1.2745 1.3313-1.2745 1.3313h-0.21999c0.0486-0.20112 0.21999-0.43551 0.21999-0.67038h-0.11015c0 0.17667 0.034 0.13397-0.11015 0.13397-0.18874 0.151-0.88022 0.47783-0.88022 0.80438 0.13893 0 0.21999 0.0668 0.21999-0.13428 0.22-0.0461 0.44011-0.0879 0.66017-0.13397-0.29209 0.28435-1.9884 1.8757-2.3092 1.8757v-0.13367c0.14542 0 0.11015 0.0414 0.11015-0.13398 0.19647-0.27692 0.6536-1.0724 0.99025-1.0724v-0.26764c-0.12717 0-0.22-0.0548-0.22 0.13398-0.26733 0.25062-0.53312 0.50651-0.80032 0.75775-0.26455 0.23825-2.0578 1.298-2.0578 1.6542h-0.32876v-0.13459c0.14264 0 0.11015 0.0424 0.11015-0.1343 0.88939-0.78279 1.7827-1.5616 2.6721-2.3444 1.1474-0.76233 2.2975-1.5202 3.4449-2.2821 0.35365-0.27228 1.5456-1.403 1.9058-1.403v-0.26795c-0.49773-0.23855-0.99285-0.4768-1.4906-0.71587-0.59467-0.48556-1.1618-1.1092-1.8378-1.4863-0.70338-0.39769-2.414-0.59453-2.9118-1.273-0.1677-0.23021 0.0838-0.2596 0.0838-0.5444-0.36286 0.0548-0.70209 0.13399-1.0977 0.13399v-0.13399c0.53182-0.13428 1.061-0.40223 1.6491-0.40223 0.3471-0.28466 0.91296-0.34737 1.3295-0.4768 1.2077-0.38993 2.8634-0.99679 4.1653-0.99679 0.21998-0.0461 0.44011-0.0879 0.65886-0.13397 0.22-0.0461 0.44012-0.0879 0.66018-0.13429 0.33008-0.0878 0.66016-0.17575 0.98894-0.26795-0.051 0.0965-0.17822 0.26795 0 0.26795 0.25805 0.0461 0.51608 0.0922 0.7702 0.13429 0.21876-0.0461 0.43748-0.0879 0.65883-0.13429 0.18194-0.0461 0.3681-0.0878 0.54885-0.13336 0.47678-0.13459 0.95488-0.26795 1.429-0.40211"/>
   <path d="m221.19 131.11"/>
   <path d="m165.35 131.25"/>
   <path d="m208.44 131.25c-0.064 0.18348-0.35367 0.93783-0.21876 0.93783v0.1343c0.13738 0 0.21876 0.0665 0.21876-0.1343 0.11015-0.0461 0.21999-0.0882 0.33008-0.13398-0.11015-0.26825-0.21999-0.53574-0.33008-0.80385"/>
   <path d="m139.97 131.65c0.0916 0.14698 0.16121 0.26827 0.33008 0.26827-0.11015-0.0879-0.21999-0.17605-0.33008-0.26827"/>
   <path d="m119.2 131.78c0.11913 0.20947 0.11665 0.60269 0.0278 0.82076-0.29859 0.69067-0.76627 1.2187-1.1226 1.8588-1.0073 1.7836-1.433 4.2922-1.433 6.7002h-0.11015c-0.10612-0.11294-0.26052-0.26857-0.4401-0.26857v0.26857c0.0393 0.17946 0.0761 0.35966 0.11014 0.53572h-0.11014c-0.31174-2.4329-0.20948-7.1269 1.2299-8.8185 0.48727-0.57764 1.3086-0.58182 1.8482-1.097"/>
   <path d="m114.8 131.92h0.11015-0.11015"/>
   <path d="m188.98 132.05c0.11015 0.0458 0.21875 0.0922 0.33008 0.13398h-0.11139v0.1343c-0.47284 0.29672-2.4167 1.5866-2.4167 2.2773-1.281 0.71636-2.3944 1.8676-3.5615 2.8725-0.40868 0.31409-0.81866 0.62833-1.23 0.9384-0.37068 0.39344-0.52527 1.1553-0.96145 1.4695-0.0656 0.0217-0.12716 0.0461-0.19121 0.0671-0.13089 3e-3 -0.21102-0.0278-0.21102 0.14635-0.73484 0.48151-0.93654 1.5201-1.7408 1.9305-0.11138 0.0541-0.12717 0.0671-0.12717 0.2138 6e-3 0.0217 0.0155 0.0415 0.0248 0.0625 0 0.0631 0 0.12531-2e-3 0.18844-0.0693 0.54896-1.1173 1.5657-1.4081 2.0646-0.33008 0.54844-0.3825 1.4484-0.88679 1.8296-0.068 0.0507-0.25402 0.26393-0.25402 9e-3 -0.23701-0.19648-0.33008-0.54386-0.33008-0.93734-0.39819 0.0278-0.80294 0-1.209 0-0.0368 0.35552-0.0721 0.7157-0.10861 1.0719h-0.22122c-0.0124-0.17605-0.16493-0.80427 0-0.80427 0.11385-0.22153 1.2784-2.144 1.3203-2.144 0.0786-0.96695 1.2588-1.6583 1.7919-2.131 0.42569-0.38538 0.77672-1.03 1.2155-1.4158 0.63528-0.48911 1.2705-0.97979 1.9032-1.4736 0.69423-0.57817 1.3505-1.2893 2.0565-1.8676 0.80815-0.66567 1.6871-1.206 2.4913-1.8092 0.69291-0.5859 1.3871-1.1717 2.0774-1.7581 0.56718-0.46511 1.2195-0.51935 1.7618-1.0678"/>
   <path d="m192.06 132.18c0.18473 0.0374 0.7689 0.0795 0.7689 0.26765 0.25404 0.53624 0.65884 1.1891 0.65884 1.8762 0.14418 0 0.11138 0.0421 0.11138-0.13398h0.10861c0-0.18007 0.034-0.13366-0.10861-0.13366 0.047-0.26859 0.047-1.3405 0.32876-1.3405v0.13397c0.41917 0.69946 0.65887 1.2102 0.65887 2.144h0.11015v0.13398h0.11015c0.0721-0.10026 0.2005-0.26796 0.32878-0.26796v0.13429h0.11139c0.0721 1.3732 0.28808 2.6672 0.58028 3.8732 0.17173 0.45231 0.34711 0.90408 0.5187 1.3523-0.0316 0.0922-0.11015 0.11294-0.11015 0.26827 1.281 0.40633 2.5621 0.81618 3.8392 1.2229 0.12036 0.0541 0.22804 0.0792 0.22804 0.25125h0.1086c0-0.18008-0.0368-0.13398 0.11016-0.13398 0.0931-0.70772 0.18596-1.4158 0.27507-2.1276 0.12717-0.40567 0.25806-0.81197 0.3851-1.2224 0.14263 0 0.11015 0.0421 0.11015-0.13397-0.0656-0.0421-0.61954-0.53624-0.22123-0.53624 0.0798 0.10953 0.22123 0.23082 0.22123 0.40211h0.11015c0.17173-1.3646 0.78591-2.6923 1.3387-3.8185 0.16895-0.39347 0.34058-0.78279 0.50822-1.1768 0.37723-0.28435 0.75581-0.5695 1.133-0.85401 0.13892-0.0718 0.86449-0.3141 0.86449-0.0461h0.11139c-0.27105 1.1932-1.2496 2.244-1.8102 3.2618-0.80686 1.4485-1.2941 2.9558-1.7788 4.6095-0.1414 0.28496-0.28157 0.57412-0.42309 0.85912-0.0826 0.28002-0.16121 0.91692-0.49382 0.91692 0.0656 0.0752 0.46368 0.40157 0.21875 0.40157-0.14667 0.21785-0.39426 0.53627-0.65887 0.53627v-0.26796c-0.0368-0.18007-0.0721-0.35565-0.10861-0.53613-1.1802-0.0461-2.2058-0.35564-3.3008-0.50209-0.73223-0.0668-1.4592-0.13057-2.1914-0.19678-0.16893-0.0216-0.54357-0.12532-0.53571-0.21752 0.35366 0.0124 0.70732 0.0247 1.057 0.0374 0.19648 0.0247 0.35497 0.0461 0.50559-0.0922-0.0656-0.0155-0.13089-0.0331-0.19895-0.0501-0.23053-0.0879-1.4906-0.21753-1.4906-0.45229 0.18224-0.0461 0.36808-0.0879 0.54883-0.13428v-0.26827c-0.17172-0.0501-0.66016-0.12593-0.66016-0.4021h0.11139v0.13397c0.29456 0.0216 0.88941 0.2726 1.0715-0.0832-0.0278-0.1971-0.0551-0.38943-0.0838-0.58644-0.1677-0.81654-0.61041-1.3523-0.86842-2.0937-0.21226-0.56901-0.42573-1.1385-0.63793-1.7126-0.48071-0.93325-1.708-2.0476-1.5692-3.2951"/>
   <path d="m208.22 132.45v0.40211h0.21876v-0.13397c0-0.12995-0.14016-0.20112-0.21876-0.26826"/>
   <path d="m162.83 132.59v0.13336-0.13336"/>
   <path d="m192.17 132.72v0.26795c0.14016-0.0838 0.21875-0.0631 0.21875-0.26795h-0.21875"/>
   <path d="m130.08 133.12h0.55013v0.13398c-1.509 1.7208-3.627 6.0044-3.627 8.5755h-0.33008c-0.0405-0.74961-0.30508-1.3861-0.27507-2.1398 0.0628-1.5914 1.2103-3.6973 1.7696-5.0537 0.1021-0.2599 0.81341-1.051 0.81341-1.1144 0.21999 0.0885 0.44012 0.18069 0.66017 0.26826 0.0996-0.2596 0.26734-0.46458 0.43878-0.66985"/>
   <path d="m203.71 133.39v0.26795c0.13615-0.0541 0.32877-0.0541 0.32877-0.26795h-0.32877"/>
   <path d="m187.89 133.93c1.1815 0.91741 1.1776 4.0697 1.5666 5.657 0.0445 0.19678-0.0523 0.5065 0.081 0.5065 0.11015 0.0464 0.22154 0.0925 0.33008 0.13397v0.1343c-0.1807 0.0461-0.36281 0.0922-0.54881 0.13397v0.13428c0.18194 0.62364 0.36805 1.252 0.54881 1.8757-0.36018 0.27631-0.29455 1.0718-0.87889 1.0718 0-0.31355 0.0879-1.474-0.21998-1.474v0.26794c-0.0956 0.25528 0.0523 1.4741-0.11017 1.4741v0.13428h-0.76889c-0.0186-0.2138-6e-3 -0.93786-0.21876-0.93786 0.1807-0.89594 0.0405-1.8426 0.068-2.8223 0.0309-1.1973 0.21628-2.4074 0.25001-3.597 0.0247-0.90824-0.31566-1.775-0.0996-2.6924"/>
   <path d="m203.49 133.93c-0.10861 0.17204-0.70732 1.206-0.43878 1.206v-0.13398c0.16244-0.2466 0.54881-0.72462 0.54881-1.072h-0.11015"/>
   <path d="m154.91 134.06c0.44011 0.0875 0.87892 0.17915 1.319 0.26765v-0.26765h-1.319"/>
   <path d="m154.36 134.19v0.13398c0.14418 0 0.11014-0.0461 0.11014 0.13367h0.11139v-0.13367c-0.0721-0.0461-0.14418-0.0885-0.22153-0.13398"/>
   <path d="m207.67 134.19c0.0368 0.13398 0.0761 0.26765 0.11016 0.40159v-0.13397c-0.038-0.0876-0.0733-0.17544-0.11016-0.26765"/>
   <path d="m156.12 134.46v0.13397-0.13397"/>
   <path d="m193.6 134.6c0.0811 0.14264 0.17018 0.40227 0.32876 0.40227-0.0968-0.20514-0.1544-0.2596-0.32876-0.40227"/>
   <path d="m133.37 135.4c-0.0838 0.16337-0.16647 0.53573-0.33008 0.53573 0.0575 0.17606 0.0575 0.26826 0.21876 0.26826 0.0393-0.20947 0.12438-0.54032 0.11138-0.80387"/>
   <path d="m174.26 135.4c0.25681 0.0461 0.51478 0.0922 0.76889 0.13397v0.13369c-0.25805-0.0875-0.51217-0.17546-0.76889-0.26766"/>
   <path d="m156.67 135.67c0.0575 0.15501 0.0656 0.26825 0.21999 0.26825 0 0.17606-0.0393 0.13398 0.11015 0.13398-0.0931-0.19276-0.16492-0.28033-0.33008-0.40211"/>
   <path d="m194.81 135.67v0.26825c0.13739-0.0795 0.22-0.0712 0.22-0.26825h-0.22"/>
   <path d="m202.5 135.67c0.0656 0.0885 0.11015 0.12995 0.11015 0.26825 0.0186-0.0752-0.081-0.18843-0.11015-0.26825"/>
   <path d="m208.66 135.8c0.0931 0.10026 0.11014 0.23856 0.11014 0.40175-0.14789 0-0.11014-0.0455-0.11014 0.13397h-0.22v-0.26825c0.14543 0 0.11015 0.0421 0.11015-0.13399 0.038-0.0461 0.0745-0.0875 0.11015-0.13366"/>
   <path d="m208.66 136.61c2.9367 0 5.6769 0.93839 8.573 0.93839v0.26765c-0.44011 0.0461-0.87892 0.0925-1.319 0.13459v0.13366c0.18194 0.0461 0.36808 0.0922 0.55014 0.13398v0.26795c-1.3911-0.21349-3.834-1.2392-5.2866-0.99664-0.11665 0.0155-0.53968 0.15098-0.53968-0.0752h0.44011v-0.13429c-0.84486-0.12997-1.6714-0.32235-2.418-0.67026"/>
   <path d="m194.92 137.01v0.26796c0.1414-0.0838 0.21875-0.0628 0.21875-0.26796h-0.21875"/>
   <path d="m201.84 137.01v0.26796c0.12036-0.0792 0.21876-0.0582 0.21876-0.26796h-0.21876"/>
   <path d="m208.88 137.01h0.33009-0.33009"/>
   <path d="m207.12 137.14c0.0124 0.23887 6e-3 0.80426 0.22154 0.80426-0.0486-0.35196-0.0628-0.54029-0.22154-0.80426"/>
   <path d="m209.21 137.14h0.32878-0.32878"/>
   <path d="m209.87 137.28"/>
   <path d="m210.2 137.28"/>
   <path d="m211.19 137.54h0.43748v0.13366c-0.14667-0.0455-0.29085-0.0875-0.43748-0.13366"/>
   <path d="m221.52 137.81"/>
   <path d="m142.5 138.35c-0.3576 0.68257-0.44012 1.6076-0.44012 1.6076 0.18194-0.23824 0.45453-1.4736 0.65887-1.4736-0.0721-0.0458-0.14418-0.0879-0.21875-0.13397"/>
   <path d="m170.85 138.75"/>
   <path d="m192.94 138.88h0.88023v0.1346h-0.11016v0.13368c-0.33008 0.0461-0.66016 0.0922-0.98892 0.13397 0.13089 0.0752 0.32876 0.0588 0.32876 0.26826-0.16121 0.0217-2.1966 0.4942-2.1966 0.13398h0.21877c0.54357-0.3893 1.2823-0.49423 1.8678-0.80427"/>
   <path d="m190.85 139.96h1.5378v0.13429c-0.44668 0-1.192 0.12129-1.5378-0.13429"/>
   <path d="m155.13 140.09c-0.0446 0.11294-0.19524 0.40215 0 0.40215 0-0.18008-0.038-0.13398 0.11014-0.13398v-0.26826h-0.11014"/>
   <path d="m185.8 140.36c0.25806 0.0879 0.51478 0.18008 0.76886 0.26826v-0.13428c0.25032-0.10427 0.61829 0 0.87894 0v0.13428c-0.55278 0.11295-1.1055 0.22619-1.6622 0.33913-0.94704 0.16739-1.8928 0.33924-2.8398 0.50663-0.84615 0.19679-1.6897 0.39388-2.5385 0.58578-0.14419 0.0155-0.87237 0.151-0.87237-0.0916 1.319-0.25991 2.6682-0.9384 4.0671-0.9384 0.64579-0.46462 1.5181-0.18409 2.198-0.66972"/>
   <path d="m155.35 141.16v0.13366s0.11665 0.13398 0.21876 0.13398v-0.13398h-0.10861c-0.038-0.0461-0.0733-0.0875-0.11015-0.13366"/>
   <path d="m178.1 142.5c-0.0458 0.13831-0.317 0.67025-0.11139 0.67025 0.0931-0.14697 0.26857-0.40212 0.44011-0.40212 0-0.18007 0.034-0.13428-0.11016-0.13428v-0.13397h-0.21875"/>
   <path d="m176.78 142.77c-0.0616 0.0922-0.94439 1.206-0.54883 1.206v-0.13428h0.11014c0.0968-0.22216 0.55278-0.79154 0.43881-1.0718"/>
   <path d="m169.64 143.44c0 0.31004-0.29333 0.66973-0.55014 0.66973v-0.13336c0.14419 0 0.11015 0.0421 0.11015-0.13428 0.14666-0.13398 0.29611-0.26827 0.44011-0.40212"/>
   <path d="m177.22 143.84c-0.0124 0.15501-0.0575 0.40175 0.11015 0.40175-0.038-0.13429-0.0721-0.26766-0.11015-0.40175"/>
   <path d="m175.58 144.51"/>
   <path d="m167.66 144.65c0.12562 0.0548 0.18873 0.40212 0 0.40212v-0.13399-0.26825"/>
  </g>
  <g fill-rule="evenodd">
   <path d="m152.72 134.6-1.9753 0.55722c-1.4146 0.5322-4.5819 2.3281-5.0141 4.2709-0.0761 0.3264 0.17544 0.59911 0.17544 0.79964l0.52919 1.2433c0.799 1.1518 2.1599 1.3028 3.4266 1.3028 0.36019-0.28497 1.0623-0.40227 1.5391-0.40227l0.66017-0.13336 0.94309-0.49014c1.3714-0.92567 2.4874-2.1854 3.3218-3.815 0.0891-0.17947 0.25002-0.51883 0.45977-0.51883-0.0814-0.37712-0.16368-0.74963-0.24877-1.1262-0.0943-0.25124-0.63003-0.6831-0.63003-0.88364 0.14789-0.0461 0.2961-0.0879 0.44011-0.13397v-0.13428h-0.11016c-0.86843-0.70757-2.325-0.53625-3.517-0.53625zm3.4069-0.93787c0.21628 0.11294 1.099 0.51936 1.099 0.80387h0.22v-0.13367h-0.11016c0.0786-0.20917 0.44927-0.40212 0.66016-0.40212v0.26826c0.14668 0.49014 0.29489 0.98394 0.44012 1.4736 0.14667-0.0461 0.29457-0.0875 0.43878-0.13369-0.18874 1.7546-0.79377 2.9728-1.6661 4.2668-0.13366 0.19246-0.3746 0.69071-0.64182 0.69071v-0.26827h0.11016c0.0445-0.12593 0.0814-0.26825 0.21998-0.26825v-0.13398h-0.21998c-0.0798 0.14264-0.55015 0.80438-0.33009 0.80438-0.53836 1.0887-3.627 2.6549-4.7181 2.5874-0.13088-9e-3 -0.44665-0.24691-0.44665-0.0414h-0.22c0.11913 0.0671 0.32876 0.0628 0.32876 0.26764-0.32876 0.0461-0.65884 0.0922-0.98892 0.13398v-0.13398c0.13738 0 0.22 0.0671 0.22-0.13366-0.18194 0.0455-0.36415 0.0922-0.54884 0.13366v0.13398c0.14945 0 0.32878-0.0792 0.32878 0.13429-0.92345 0-1.6688 0.40162-2.528 0.40162v-0.13337l0.88022-0.13428c0-0.18008-0.038-0.13397 0.10861-0.13397v-0.13429c-0.12315 0.0217-1.3177 0.43958-1.3177 0.13429-0.0551-0.64064-2.0892-1.0847-2.0892-1.206 0.15068 0 0.33008 0.0752 0.33008-0.1343-0.12716 0-0.22 0.0671-0.22-0.13336h-0.21998c6e-3 0.16678 0.0551 0.26766-0.10861 0.26766l-0.75708-1.2859c-0.6248-1.7248 0.13893-3.5334 1.3504-4.5255 0.47025-0.39401 1.0846-0.59927 1.5967-0.90051 0.8383-0.50668 1.5731-1.3278 2.6459-1.3278l0.65886-0.13366c0.33268-0.24691 0.99942-0.26765 1.429-0.26765 0.98895-0.54073 3.2419 0.39714 4.0658-0.40268"/>
   <path d="m225.58 129.77c-0.55013 0.33008-1.5456 0.66973-2.1979 0.66973-0.17946-0.34333-2.2464 0.66985-2.6394 0.66985 0 0.17544 0.0353 0.13397-0.10861 0.13397v0.13368l0.33008-0.13368c-0.26733 0.32235-0.63265 0.4227-0.96667 0.60277-0.63005 0.33048-1.133 0.84162-1.5548 1.5451-1.1474 1.8963 0.75317 4.2832 2.3001 4.2832 0.31963-0.17543 0.92215-0.13366 1.3203-0.13366l0.87893-0.13397c0.47025-0.31831 1.2666-0.40225 1.8678-0.40225l1.1815-0.72855c0.77283-0.5229 1.9478-1.5202 2.435-2.4493 1.0675-2.0518-1.5823-3.7521-2.8464-4.057zm1.209-1.0724c0.53573 0.29736 1.0544 0.7828 1.5181 1.2182 0.24629 0.23019 0.5842 0.33927 0.84092 0.51124 0.5292 0.34739 0.69817 1.4782 0.74269 2.1689l-0.24505 1.863c-0.69684 0.59101-1.188 1.491-1.9203 2.0394-1.6176 1.2019-4.2544 2.0058-6.3213 2.0979l-0.6615 0.15099c0.11387-0.22215 0.39953-0.30167 0.39953-0.56127-0.0486-0.0879-0.47419-9e-3 -0.62219-9e-3 -1.0361 0-3.0284-0.7875-3.4056-2.0355-0.18998-0.61956 2e-3 -1.2055 2e-3 -1.8169h-0.21999c-0.0721 0.26764-0.14419 0.53572-0.22 0.80385h-0.10861c0.33925-2.6801 3.9374-5.4937 6.0437-5.4937l0.7702-0.13429 1.5587-0.23423c-6e-3 -0.12129 0.0588-0.16739 0.19894-0.16739 0.52526-0.2432 1.2025-9e-3 1.6491-0.40213"/>
   <path d="m206.51 143.09c-0.52001 0-0.9562-0.0693-1.3073-0.20606-0.34972-0.13707-0.52656-0.30755-0.52656-0.51125 0-0.20453 0.1677-0.37502 0.50169-0.5132 0.33401-0.13769 0.74925-0.20668 1.2444-0.20668 0.53178 0 0.95488 0.0733 1.2732 0.21906 0.31696 0.14635 0.47414 0.34122 0.47414 0.58641v6e-3h-2.0054v0.12469c0 0.12933 0.0588 0.22928 0.1742 0.29982 0.11386 0.0705 0.27785 0.1052 0.49252 0.1052 0.21474 0 0.42047-0.0278 0.61955-0.0854 0.19896-0.0566 0.37331-0.1377 0.52526-0.24289l0.12439 0.0312c-0.15719 0.12933-0.36938 0.22772-0.63792 0.29425-0.26735 0.0665-0.58418 0.0999-0.95226 0.0999zm0.24752-0.72867c0-0.28868-0.0155-0.46303-0.0433-0.52239-0.0278-0.0597-0.11263-0.0894-0.2528-0.0894-0.12562 0-0.20576 0.0247-0.24227 0.0749-0.0368 0.0504-0.0551 0.1612-0.0551 0.33308v0.20421h0.59336"/>
   <path d="m209.65 143.09c-0.33793 0-0.62217-0.0693-0.85009-0.20606-0.22648-0.13707-0.34186-0.30755-0.34186-0.51125 0-0.20453 0.11541-0.37502 0.34449-0.5132 0.22804-0.13769 0.51216-0.20668 0.85139-0.20668 0.34058 0 0.62481 0.0687 0.85405 0.20607l0.0316 0.0186v-0.7347h-0.34319v-0.0993c0.32748-3e-3 0.60909-6e-3 0.84619-6e-3 0.23578-9e-3 0.5187-0.0186 0.84486-0.0319v1.9468h0.34186v0.0993l-0.79116 0.0186-0.79115 0.0217v-0.30755c-0.0368 0.0353-0.0838 0.069-0.13893 0.10086-0.23051 0.13739-0.5174 0.20669-0.85798 0.20669zm0.54099-1.2331c-0.0981 0-0.16121 0.0309-0.18596 0.09-0.0278 0.0609-0.0405 0.20205-0.0405 0.4257 0 0.22247 0.0124 0.36388 0.0405 0.42374 0.0247 0.0594 0.0879 0.0894 0.18596 0.0894 0.12036 0 0.20823-0.0415 0.26454-0.12314 0.0563-0.0823 0.0838-0.21288 0.0838-0.39155 0-0.17791-0.0278-0.30848-0.0838-0.39084-0.0563-0.0823-0.14418-0.12315-0.26454-0.12315"/>
   <path d="m212.82 142.95v-1.1588h-0.34318v-0.0993c0.32746-3e-3 0.61039-6e-3 0.84616-9e-3 0.23578-9e-3 0.5187-0.0186 0.84615-0.0316v1.2981h0.31831v0.0993h-2.0106v-0.0993zm0.67458-1.9694c0.20823 0 0.38377 0.0248 0.52786 0.0783 0.14264 0.0526 0.21475 0.11665 0.21475 0.19339 0 0.0767-0.0721 0.14077-0.21475 0.19338-0.14418 0.052-0.3196 0.0786-0.52786 0.0786-0.20823 0-0.38509-0.0278-0.52789-0.0786-0.14418-0.0526-0.21628-0.11665-0.21628-0.19338 0-0.0767 0.0721-0.14079 0.21628-0.19339 0.14295-0.0523 0.31963-0.0783 0.52789-0.0783"/>
   <path d="m217.98 142.73c-0.16492 0.11881-0.36678 0.20731-0.60516 0.26609-0.2398 0.0588-0.51869 0.0885-0.83569 0.0885-0.49776 0-0.9143-0.0693-1.2509-0.20606-0.33665-0.13707-0.50562-0.30755-0.50562-0.51125 0-0.20453 0.16894-0.37502 0.50562-0.5132 0.3366-0.13769 0.75314-0.20668 1.2509-0.20668 0.44667 0 0.80032 0.0405 1.0571 0.12036 0.25526 0.0795 0.38379 0.18873 0.38379 0.3285 0 0.094-0.0616 0.17389-0.18348 0.23887-0.12314 0.065-0.27229 0.0978-0.4506 0.0978-0.17823 0-0.32745-0.0278-0.45058-0.0869-0.12191-0.0582-0.18348-0.12934-0.18348-0.21288 0-0.0845 0.0616-0.15563 0.18473-0.2135 0.0315-0.0155 0.068-0.0278 0.10612-0.0399 0.0708-0.0217 0.11139-0.0467 0.12036-0.0761 6e-3 -0.0309-0.0216-0.0476-0.0863-0.0538-0.0486-6e-3 -0.0981-6e-3 -0.14945-6e-3 -0.22927 0-0.39035 0.0436-0.48074 0.13242-0.0903 0.0882-0.13614 0.24506-0.13614 0.47025 0 0.22558 0.0458 0.38223 0.13614 0.46974 0.0903 0.0879 0.25156 0.13211 0.48204 0.13211 0.19122 0 0.36674-0.0216 0.52526-0.065 0.15966-0.043 0.2986-0.10643 0.41522-0.19059zm-1.3256 0.31464-0.16771 0.20359h6e-3c0.17172 0 0.30384 0.0186 0.39687 0.0535 0.0943 0.0362 0.14141 0.0875 0.14141 0.15408 0 0.0758-0.0656 0.13924-0.19648 0.18967-0.12964 0.0507-0.29208 0.0761-0.48726 0.0761-0.11541 0-0.23825-9e-3 -0.36805-0.0217-0.12965-0.0155-0.23578-0.0337-0.31437-0.0566l0.11541-0.12129c0.16647 0.0346 0.27106 0.0563 0.31308 0.0634 0.0418 6e-3 0.0851 0.0124 0.12562 0.0124 0.0851 0 0.1544-0.0124 0.20823-0.0334 0.0535-0.0217 0.0798-0.0507 0.0798-0.0844 0-0.0309-0.0186-0.0523-0.0616-0.0681-0.0405-0.0155-0.0996-0.0248-0.17698-0.0248-0.10087 0-0.1612 3e-3 -0.18069 9e-3l0.34056-0.35155h0.22401"/>
   <path d="m220.12 143.09c-0.50557 0-0.92868-0.0693-1.2705-0.20606-0.34188-0.13707-0.51348-0.30755-0.51348-0.51125 0-0.20422 0.17172-0.37502 0.51348-0.5132 0.34186-0.13769 0.76497-0.20668 1.2705-0.20668 0.50562 0 0.93002 0.069 1.2719 0.20668 0.34187 0.13831 0.51214 0.3091 0.51214 0.5132 0 0.2036-0.17018 0.37409-0.51214 0.51125-0.34187 0.13707-0.76627 0.20606-1.2719 0.20606zm0-0.0968c0.14017 0 0.22526-0.0309 0.25403-0.0894 0.0278-0.0594 0.0433-0.23701 0.0433-0.53114 0-0.29519-0.0155-0.47273-0.0433-0.53313-0.0278-0.0597-0.11386-0.09-0.25403-0.09-0.14016 0-0.22401 0.0309-0.25278 0.09-0.0278 0.0603-0.0433 0.23794-0.0433 0.53313 0 0.29426 0.0155 0.47179 0.0433 0.53114 0.0278 0.06 0.11262 0.0894 0.25278 0.0894zm-0.98762-1.4847c0.0124-0.0978 0.0693-0.18069 0.18194-0.24784 0.11263-0.0674 0.24351-0.10148 0.39429-0.10148 0.047 0 0.11139 6e-3 0.18875 0.0155 0.0798 9e-3 0.18193 0.0247 0.30909 0.0455 0.0838 0.0155 0.17421 0.0278 0.26981 0.0368 0.0968 9e-3 0.17018 0.0155 0.22402 0.0155 0.0575 0 0.1086-9e-3 0.14944-0.0248 0.0433-0.0155 0.0733-0.0393 0.0943-0.0696h0.16493c-9e-3 0.0981-0.0708 0.18069-0.18195 0.24815-0.11263 0.0671-0.24351 0.10087-0.39429 0.10087-0.034 0-0.0903-6e-3 -0.1677-0.0155-0.0786-9e-3 -0.18719-0.0278-0.33008-0.0504-0.0733-0.0124-0.15718-0.0216-0.25403-0.0309-0.0943-9e-3 -0.17544-0.0124-0.23979-0.0124-0.0575 0-0.10737 9e-3 -0.14945 0.0247-0.0433 0.0155-0.0733 0.0393-0.0944 0.0693h-0.16492"/>
   <path d="m224.05 143.09c-0.52003 0-0.95621-0.0693-1.3059-0.20606-0.35234-0.13707-0.52787-0.30755-0.52787-0.51125 0-0.20453 0.1677-0.37502 0.50037-0.5132 0.33401-0.13769 0.74924-0.20668 1.2444-0.20668 0.5318 0 0.95619 0.0733 1.2732 0.21906 0.31566 0.14635 0.47547 0.34122 0.47547 0.58641v6e-3h-2.0041v0.12469c0 0.12933 0.0563 0.22928 0.17018 0.29982 0.11665 0.0705 0.28033 0.1052 0.49512 0.1052 0.21351 0 0.4218-0.0278 0.61828-0.0854 0.19896-0.0566 0.37461-0.1377 0.52523-0.24289l0.12438 0.0312c-0.15594 0.12933-0.36937 0.22772-0.63788 0.29425-0.26734 0.0665-0.5842 0.0999-0.95097 0.0999zm0.24506-0.72867c0-0.28868-0.0124-0.46303-0.0421-0.52239-0.0278-0.0597-0.11263-0.0894-0.2528-0.0894-0.12438 0-0.20576 0.0247-0.24103 0.0749-0.0368 0.0504-0.0538 0.1612-0.0538 0.33308v0.20421h0.58943"/>
   <path d="m228.53 142.1c-0.14789-0.11262-0.33141-0.19957-0.55146-0.26053-0.22001-0.0603-0.45977-0.0906-0.72172-0.0906-0.0838 0-0.15316 9e-3 -0.20576 0.0322-0.0535 0.0216-0.0786 0.0498-0.0786 0.0845 0 0.0322 0.0575 0.065 0.17544 0.0984 0.11541 0.0315 0.2828 0.0619 0.49905 0.0903 0.40345 0.0532 0.70077 0.12439 0.89201 0.21133 0.19122 0.0875 0.28684 0.19711 0.28684 0.32891 0 0.15193-0.10211 0.27229-0.30509 0.3618-0.20297 0.0885-0.47807 0.13305-0.82651 0.13305-0.31699 0-0.60385-0.035-0.85535-0.10396l-0.71517 0.112h6e-3v-0.52446h0.12314c0.12315 0.11975 0.32486 0.22 0.59993 0.29983 0.2763 0.0798 0.55665 0.11974 0.84092 0.11974 0.11016 0 0.19772-0.0124 0.26579-0.0356 0.0656-0.0247 0.0996-0.0554 0.0996-0.0953 0-0.0328-0.0656-0.0665-0.19648-0.1018-0.12842-0.0346-0.31438-0.068-0.55671-0.0999-0.34057-0.0461-0.60908-0.11542-0.80556-0.20918-0.19648-0.0937-0.29486-0.20019-0.29486-0.31776 0-0.14729 0.0943-0.26394 0.2828-0.35051 0.18997-0.0869 0.44667-0.13057 0.76889-0.13057 0.29982 0 0.55801 0.0309 0.7728 0.0897l0.62219-0.0978v0.45582h-0.1219"/>
  </g>
 </g>
</svg>
