<?xml version="1.0" encoding="UTF-8"?>
<svg width="285" height="130" version="1.1" viewBox="0 0 285 130" xml:space="preserve" xmlns="http://www.w3.org/2000/svg"><rect width="285" height="130" fill="#f8000c" stroke-linecap="round" stroke-linejoin="round" stroke-width="11.552" style="paint-order:markers stroke fill"/><path d="m243.37 69.693 2.574-19.339 2.574 19.339zm9.565-40.388h-13.913l-6.54 41.066-3.061 22.808h10.783l1.809-13.27h7.884l1.774 13.27h10.818l-3.061-22.908zm-37.868 10.179c2.098 0 3.154 1.2064 3.154 3.6317v36.279c0 2.4001-1.056 3.6065-3.154 3.6065h-3.189v-43.517zm-13.914 53.683h14.296c8.998-0.0251 13.497-4.6118 13.497-13.785v-36.266c0-9.1859-4.313-13.798-12.94-13.81h-14.841v63.861zm-17.995-53.683c2.099 0 3.154 1.2064 3.154 3.6317v9.4121c0 1.7467-0.673 2.8776-2.029 3.418-0.348 0.1256-1.09 0.1884-2.25 0.1884h-1.287v-16.65zm-13.137 53.683h10.725v-27.457h0.58l7.34 27.47h11.687l-10.331-29.418c4.684-1.6964 7.015-5.4411 7.015-11.234v-9.4121c0-9.1859-4.313-13.798-12.94-13.81h-14.076zm-27.653 0h25.241v-10.179h-14.516v-16.65h12.487v-10.204h-12.487v-16.65h14.516v-10.179h-25.241zm-3.699-63.861h-10.725v51.082c0 2.4001-1.067 3.6065-3.189 3.6065-2.098 0-3.1536-1.2064-3.1536-3.6065v-51.082h-10.725v51.082c0 9.211 4.6263 13.81 13.879 13.81 9.276-0.0251 13.914-4.6243 13.914-13.81zm-41.567 51.069c0 2.4002-1.0667 3.6065-3.1886 3.6065-2.0986 0-3.1537-1.2063-3.1537-3.6065v-38.277c0-2.4001 1.0435-3.6065 3.119-3.6065h0.0695c2.0987 0.0251 3.1538 1.2189 3.1538 3.6065zm10.725-38.277c0-9.1859-4.6379-13.785-13.914-13.785-9.2526 0-13.879 4.5992-13.879 13.785v38.289c0 8.5701 3.6756 13.119 11.05 13.66 0.0696 3.8452 1.5305 6.4967 4.406 7.9418 2.1451 1.1058 6.2612 1.6587 12.337 1.6587v-8.8089c-6.5859-0.0377-9.902-0.3518-9.9483-0.9299 6.6322-0.8293 9.9483-5.3406 9.9483-13.521zm-58.31 5.8684c0 5.9564 2.9451 11.008 8.8236 15.155 5.4959 3.908 8.2439 7.2883 8.2439 10.116v7.1502c0 2.4001-1.0551 3.6065-3.1538 3.6065-2.1218 0-3.1885-1.2064-3.1885-3.6065v-9.0602h-10.725v9.0602c0 9.1859 4.6379 13.798 13.914 13.81 9.2526 0 13.879-4.5992 13.879-13.81v-7.9167c0-5.8056-2.945-10.782-8.8236-14.929-5.4959-3.9081-8.2438-7.1628-8.2438-9.764v-5.6799c0-2.4001 1.0435-3.6065 3.1189-3.6065h0.0696c2.0987 0.0251 3.1538 1.2189 3.1538 3.6065v9.0602h10.725v-9.0602c0-9.1859-4.6379-13.785-13.914-13.785-9.2526 0-13.879 4.5992-13.879 13.785zm-27.016 45.201h25.242v-10.179h-14.517v-16.65h12.499v-10.204h-12.499v-16.65h14.517v-10.179h-25.242z" fill="#fff"/></svg>
