<?xml version="1.0" encoding="UTF-8" standalone="no"?>
<svg
   id="Camada_1"
   version="1.1"
   viewBox="0 0 1649.3 332.4"
   xmlns="http://www.w3.org/2000/svg"
   xmlns:svg="http://www.w3.org/2000/svg">
  <!-- Generator: Adobe Illustrator 29.3.1, SVG Export Plug-In . SVG Version: 2.1.0 Build 151)  -->
  <defs
     id="defs313">
    <style
       id="style311">
      .st0 {
        fill: #fff;
      }

      .st1 {
        isolation: isolate;
      }
    </style>
  </defs>
  <rect
     class="st0"
     x="382"
     y="204.6"
     width="1244.8"
     height="7.1"
     id="rect315"
     style="fill:#334764;fill-opacity:1" />
  <path
     class="st0"
     d="m 426.7,290 h -21.8 l -5.6,10.6 h -8.9 l 27.9,-52.1 h 9.9 l 9.4,52.1 h -9 z m -1.1,-6.7 -4.3,-24.5 -12.9,24.5 z"
     id="path317"
     style="isolation:isolate;fill:#334764;fill-opacity:1" />
  <path
     class="st0"
     d="m 492.8,245.2 -9.8,55.4 h -8.5 l 9.8,-55.4 z"
     id="path319"
     style="isolation:isolate;fill:#334764;fill-opacity:1" />
  <path
     class="st0"
     d="m 542,259.4 -7.3,41.3 h -8.5 l 0.8,-4.9 c -1.6,1.7 -3.6,3 -6,4 -2.3,1 -4.7,1.5 -7.2,1.5 -4.3,0 -7.8,-1.2 -10.4,-3.5 -2.6,-2.3 -3.9,-5.7 -3.9,-10 0,-4.3 0.1,-2.5 0.4,-4.1 l 4.3,-24.3 h 8.5 l -4,23 c -0.2,1.4 -0.3,2.4 -0.3,3 0,2.7 0.8,4.8 2.3,6.3 1.5,1.4 3.6,2.2 6.3,2.2 2.7,0 5.8,-0.9 8,-2.8 2.2,-1.9 3.6,-4.6 4.3,-8.1 l 4.1,-23.5 h 8.5 z"
     id="path321"
     style="isolation:isolate;fill:#334764;fill-opacity:1" />
  <path
     class="st0"
     d="m 561.1,289.2 c -0.1,0.7 -0.1,1.1 -0.1,1.3 0,1 0.3,1.8 1,2.3 0.6,0.5 1.7,0.7 3.2,0.7 h 5.2 l -1.3,7.1 h -6.7 c -3.3,0 -5.8,-0.7 -7.6,-2 -1.7,-1.3 -2.6,-3.4 -2.6,-6.3 0,-2.9 0,-2.1 0.3,-3.1 l 4,-22.8 h -4.9 l 1.2,-7 h 4.9 l 1.8,-10.3 h 8.6 l -1.8,10.3 h 10 l -1.2,7 h -10 z"
     id="path323"
     style="isolation:isolate;fill:#334764;fill-opacity:1" />
  <path
     class="st0"
     d="m 585.5,268.8 c 2.3,-3.2 5.1,-5.7 8.4,-7.5 3.3,-1.8 6.7,-2.7 10.3,-2.7 3.6,0 6,0.6 8.2,1.9 2.2,1.3 3.8,2.9 4.9,4.8 l 1,-6 h 8.6 l -7.3,41.3 H 611 l 1.1,-6.1 c -1.8,1.9 -4.1,3.6 -6.8,4.9 -2.7,1.3 -5.7,1.9 -8.9,1.9 -3.2,0 -5.9,-0.7 -8.3,-2.1 -2.4,-1.4 -4.3,-3.4 -5.7,-6 -1.4,-2.6 -2.1,-5.5 -2.1,-8.9 0,-3.4 0.1,-3 0.4,-4.6 0.7,-4.1 2.3,-7.8 4.5,-11 z m 29.5,8.1 c 0,-3.3 -1,-6 -3,-7.9 -2,-1.9 -4.4,-2.9 -7.4,-2.9 -3,0 -4.3,0.5 -6.4,1.6 -2.1,1.1 -3.9,2.6 -5.5,4.7 -1.5,2.1 -2.6,4.5 -3.1,7.4 -0.2,0.9 -0.3,2 -0.3,3.1 0,3.4 1,6.1 3,8.1 2,2 4.4,3 7.4,3 3,0 4.3,-0.5 6.4,-1.6 2.1,-1.1 3.9,-2.7 5.5,-4.8 1.5,-2.1 2.6,-4.6 3.1,-7.5 0.2,-0.9 0.3,-2 0.3,-3.1 z"
     id="path325"
     style="isolation:isolate;fill:#334764;fill-opacity:1" />
  <path
     class="st0"
     d="m 665,268.8 c 2.3,-3.2 5.1,-5.7 8.4,-7.5 3.3,-1.8 6.8,-2.7 10.4,-2.7 3.6,0 5.2,0.6 7.6,1.8 2.4,1.2 4.2,2.7 5.5,4.7 l 3.5,-19.9 h 8.6 l -9.8,55.4 h -8.6 l 1.1,-6.2 c -1.8,2 -4,3.7 -6.7,5 -2.7,1.3 -5.6,1.9 -8.8,1.9 -3.2,0 -5.9,-0.7 -8.4,-2.1 -2.4,-1.4 -4.4,-3.4 -5.7,-6 -1.4,-2.6 -2.1,-5.5 -2.1,-8.9 0,-3.4 0.1,-3 0.4,-4.6 0.7,-4.1 2.3,-7.8 4.5,-11 z m 29.6,8.1 c 0,-3.3 -1,-6 -3,-7.9 -2,-1.9 -4.4,-2.9 -7.4,-2.9 -3,0 -4.3,0.5 -6.4,1.6 -2.1,1.1 -3.9,2.6 -5.5,4.7 -1.5,2.1 -2.6,4.5 -3.1,7.4 -0.2,0.9 -0.3,2 -0.3,3.1 0,3.4 1,6.1 3,8.1 2,2 4.4,3 7.4,3 3,0 4.3,-0.5 6.4,-1.6 2.1,-1.1 3.9,-2.7 5.5,-4.8 1.5,-2.1 2.6,-4.6 3.1,-7.5 0.2,-0.9 0.3,-2 0.3,-3.1 z"
     id="path327"
     style="isolation:isolate;fill:#334764;fill-opacity:1" />
  <path
     class="st0"
     d="m 751.1,263 c 3.1,2.9 4.6,6.8 4.6,11.7 0,4.9 -0.1,2.5 -0.4,4.1 -0.2,1.1 -0.5,2.4 -1,4 h -31.5 c 0,0.3 0,0.9 0,1.6 0,2.9 0.9,5.3 2.7,7 1.8,1.7 4.2,2.6 7.2,2.6 4.6,0 8.2,-1.9 10.7,-5.8 h 9.2 c -1.9,3.8 -4.7,6.9 -8.4,9.3 -3.7,2.4 -8,3.6 -12.8,3.6 -4.8,0 -6.5,-0.7 -9.1,-2 -2.6,-1.3 -4.6,-3.3 -6.1,-5.8 -1.4,-2.5 -2.2,-5.5 -2.2,-8.9 0,-3.4 0.1,-3 0.4,-4.6 0.7,-4.2 2.3,-8 4.6,-11.2 2.3,-3.2 5.2,-5.7 8.6,-7.5 3.4,-1.7 7.2,-2.6 11.2,-2.6 4,0 9.2,1.4 12.3,4.3 z m -4.2,11.8 c 0,-2.7 -0.9,-4.9 -2.7,-6.5 -1.8,-1.6 -4.2,-2.4 -7.1,-2.4 -2.9,0 -5.8,1 -8.2,2.9 -2.4,1.9 -4.1,4.6 -5,7.9 h 22.9 c 0,-0.9 0.1,-1.5 0.1,-1.9 z"
     id="path329"
     style="isolation:isolate;fill:#334764;fill-opacity:1" />
  <path
     class="st0"
     d="m 793.9,268.8 c 2.3,-3.2 5.1,-5.7 8.5,-7.5 3.4,-1.7 7,-2.6 11,-2.6 4,0 8.9,1.2 11.8,3.6 2.8,2.4 4.5,5.8 4.9,10.1 h -9.2 c -0.4,-2 -1.3,-3.6 -2.8,-4.8 -1.4,-1.1 -3.4,-1.7 -5.9,-1.7 -2.5,0 -6.5,1.2 -9,3.7 -2.5,2.5 -4.1,5.9 -4.9,10.4 -0.3,1.6 -0.4,2.9 -0.4,3.9 0,3.3 0.8,5.8 2.5,7.6 1.6,1.8 3.9,2.7 6.9,2.7 4.9,0 8.6,-2.2 10.9,-6.5 h 9.2 c -1.9,4.2 -4.8,7.5 -8.5,10 -3.7,2.5 -8,3.7 -12.9,3.7 -4.9,0 -9.3,-1.5 -12.4,-4.5 -3,-3 -4.6,-7 -4.6,-12.1 0,-5.1 0.1,-3.1 0.4,-4.8 0.7,-4.2 2.3,-8 4.5,-11.2 z"
     id="path331"
     style="isolation:isolate;fill:#334764;fill-opacity:1" />
  <path
     class="st0"
     d="m 855,245.2 -9.8,55.4 h -8.5 l 9.8,-55.4 z"
     id="path333"
     style="isolation:isolate;fill:#334764;fill-opacity:1" />
  <path
     class="st0"
     d="m 864.9,268.8 c 2.3,-3.2 5.1,-5.7 8.4,-7.5 3.3,-1.8 6.7,-2.7 10.3,-2.7 3.6,0 6,0.6 8.2,1.9 2.2,1.3 3.8,2.9 4.9,4.8 l 1,-6 h 8.6 l -7.3,41.3 h -8.6 l 1.1,-6.1 c -1.8,1.9 -4.1,3.6 -6.8,4.9 -2.7,1.3 -5.7,1.9 -8.9,1.9 -3.2,0 -5.9,-0.7 -8.3,-2.1 -2.4,-1.4 -4.3,-3.4 -5.7,-6 -1.4,-2.6 -2.1,-5.5 -2.1,-8.9 0,-3.4 0.1,-3 0.4,-4.6 0.7,-4.1 2.3,-7.8 4.5,-11 z m 29.6,8.1 c 0,-3.3 -1,-6 -3,-7.9 -2,-1.9 -4.4,-2.9 -7.4,-2.9 -3,0 -4.3,0.5 -6.4,1.6 -2.1,1.1 -3.9,2.6 -5.5,4.7 -1.5,2.1 -2.6,4.5 -3.1,7.4 -0.2,0.9 -0.3,2 -0.3,3.1 0,3.4 1,6.1 3,8.1 2,2 4.4,3 7.4,3 3,0 4.3,-0.5 6.4,-1.6 2.1,-1.1 3.9,-2.7 5.5,-4.8 1.5,-2.1 2.6,-4.6 3.1,-7.5 0.2,-0.9 0.3,-2 0.3,-3.1 z"
     id="path335"
     style="isolation:isolate;fill:#334764;fill-opacity:1" />
  <path
     class="st0"
     d="m 920.9,299.8 c -2.3,-1 -4.2,-2.3 -5.5,-4.1 -1.3,-1.8 -2,-3.8 -2,-6.1 0,-2.3 0,-0.9 0.1,-1.6 h 8.3 c -0.2,1.9 0.4,3.5 1.7,4.7 1.3,1.2 3.2,1.9 5.7,1.9 2.5,0 4.4,-0.4 5.9,-1.3 1.5,-0.8 2.3,-2.1 2.3,-3.7 0,-1.6 -0.6,-2.5 -1.9,-3.4 -1.3,-0.8 -3.3,-1.8 -6.1,-2.8 -2.6,-1 -4.8,-2 -6.4,-2.9 -1.6,-0.9 -3.1,-2.1 -4.3,-3.7 -1.2,-1.6 -1.8,-3.5 -1.8,-5.9 0,-2.4 0.7,-4.5 2.1,-6.3 1.4,-1.8 3.3,-3.2 5.8,-4.3 2.5,-1.1 5.3,-1.5 8.5,-1.5 3.2,0 5.5,0.5 7.8,1.5 2.3,1 4,2.3 5.3,4.1 1.3,1.8 1.9,3.8 1.9,6.1 0,2.3 0,1.2 0,1.6 h -8.1 c 0.2,-1.9 -0.4,-3.5 -1.7,-4.7 -1.3,-1.2 -3.2,-1.8 -5.7,-1.8 -2.5,0 -3.9,0.4 -5.2,1.3 -1.3,0.9 -2,2.1 -2,3.7 0,1.6 0.7,2.8 2,3.7 1.3,0.9 3.4,1.9 6.2,3 2.5,1 4.6,1.9 6.2,2.8 1.6,0.9 3,2.1 4.1,3.6 1.1,1.5 1.7,3.4 1.7,5.6 0,2.2 -0.7,4.6 -2.2,6.4 -1.5,1.8 -3.5,3.2 -6.1,4.2 -2.6,1 -5.5,1.5 -8.8,1.5 -3.3,0 -5.4,-0.5 -7.8,-1.5 z"
     id="path337"
     style="isolation:isolate;fill:#334764;fill-opacity:1" />
  <path
     class="st0"
     d="m 964,299.8 c -2.3,-1 -4.2,-2.3 -5.5,-4.1 -1.3,-1.8 -2,-3.8 -2,-6.1 0,-2.3 0,-0.9 0.1,-1.6 h 8.3 c -0.2,1.9 0.4,3.5 1.7,4.7 1.3,1.2 3.2,1.9 5.7,1.9 2.5,0 4.4,-0.4 5.9,-1.3 1.5,-0.8 2.3,-2.1 2.3,-3.7 0,-1.6 -0.6,-2.5 -1.9,-3.4 -1.3,-0.8 -3.3,-1.8 -6.1,-2.8 -2.6,-1 -4.8,-2 -6.4,-2.9 -1.6,-0.9 -3.1,-2.1 -4.3,-3.7 -1.2,-1.6 -1.8,-3.5 -1.8,-5.9 0,-2.4 0.7,-4.5 2.1,-6.3 1.4,-1.8 3.3,-3.2 5.8,-4.3 2.5,-1.1 5.3,-1.5 8.5,-1.5 3.2,0 5.5,0.5 7.8,1.5 2.3,1 4,2.3 5.3,4.1 1.3,1.8 1.9,3.8 1.9,6.1 0,2.3 0,1.2 0,1.6 h -8.1 c 0.2,-1.9 -0.4,-3.5 -1.7,-4.7 -1.3,-1.2 -3.2,-1.8 -5.7,-1.8 -2.5,0 -3.9,0.4 -5.2,1.3 -1.3,0.9 -2,2.1 -2,3.7 0,1.6 0.7,2.8 2,3.7 1.3,0.9 3.4,1.9 6.2,3 2.5,1 4.6,1.9 6.2,2.8 1.6,0.9 3,2.1 4.1,3.6 1.1,1.5 1.7,3.4 1.7,5.6 0,2.2 -0.7,4.6 -2.2,6.4 -1.5,1.8 -3.5,3.2 -6.1,4.2 -2.6,1 -5.5,1.5 -8.8,1.5 -3.3,0 -5.4,-0.5 -7.8,-1.5 z"
     id="path339"
     style="isolation:isolate;fill:#334764;fill-opacity:1" />
  <path
     class="st0"
     d="m 1037.3,263 c 3.1,2.9 4.6,6.8 4.6,11.7 0,4.9 -0.1,2.5 -0.4,4.1 -0.2,1.1 -0.6,2.4 -1,4 H 1009 c 0,0.3 0,0.9 0,1.6 0,2.9 0.9,5.3 2.7,7 1.8,1.7 4.2,2.6 7.2,2.6 4.6,0 8.2,-1.9 10.7,-5.8 h 9.2 c -1.9,3.8 -4.7,6.9 -8.4,9.3 -3.7,2.4 -8,3.6 -12.8,3.6 -4.8,0 -6.5,-0.7 -9.1,-2 -2.6,-1.3 -4.6,-3.3 -6.1,-5.8 -1.4,-2.5 -2.2,-5.5 -2.2,-8.9 0,-3.4 0.1,-3 0.4,-4.6 0.7,-4.2 2.3,-8 4.6,-11.2 2.3,-3.2 5.2,-5.7 8.6,-7.5 3.4,-1.7 7.2,-2.6 11.2,-2.6 4,0 9.3,1.4 12.3,4.3 z m -4.2,11.8 c 0,-2.7 -0.9,-4.9 -2.7,-6.5 -1.8,-1.6 -4.2,-2.4 -7.1,-2.4 -2.9,0 -5.8,1 -8.2,2.9 -2.4,1.9 -4.1,4.6 -5,7.9 h 22.9 c 0,-0.9 0.1,-1.5 0.1,-1.9 z"
     id="path341"
     style="isolation:isolate;fill:#334764;fill-opacity:1" />
  <path
     class="st0"
     d="m 1056.5,299.8 c -2.3,-1 -4.2,-2.3 -5.5,-4.1 -1.3,-1.8 -2,-3.8 -2,-6.1 0,-2.3 0,-0.9 0.1,-1.6 h 8.3 c -0.2,1.9 0.4,3.5 1.7,4.7 1.3,1.2 3.2,1.9 5.7,1.9 2.5,0 4.4,-0.4 5.9,-1.3 1.5,-0.8 2.3,-2.1 2.3,-3.7 0,-1.6 -0.6,-2.5 -1.9,-3.4 -1.3,-0.8 -3.3,-1.8 -6.1,-2.8 -2.6,-1 -4.8,-2 -6.4,-2.9 -1.6,-0.9 -3.1,-2.1 -4.3,-3.7 -1.2,-1.6 -1.8,-3.5 -1.8,-5.9 0,-2.4 0.7,-4.5 2.1,-6.3 1.4,-1.8 3.3,-3.2 5.8,-4.3 2.5,-1.1 5.3,-1.5 8.5,-1.5 3.2,0 5.5,0.5 7.8,1.5 2.3,1 4,2.3 5.3,4.1 1.3,1.8 1.9,3.8 1.9,6.1 0,2.3 0,1.2 0,1.6 h -8.1 c 0.2,-1.9 -0.4,-3.5 -1.7,-4.7 -1.3,-1.2 -3.2,-1.8 -5.7,-1.8 -2.5,0 -3.9,0.4 -5.2,1.3 -1.3,0.9 -2,2.1 -2,3.7 0,1.6 0.7,2.8 2,3.7 1.3,0.9 3.4,1.9 6.2,3 2.5,1 4.6,1.9 6.2,2.8 1.6,0.9 3,2.1 4.1,3.6 1.1,1.5 1.7,3.4 1.7,5.6 0,2.2 -0.7,4.6 -2.2,6.4 -1.5,1.8 -3.5,3.2 -6.1,4.2 -2.6,1 -5.5,1.5 -8.8,1.5 -3.3,0 -5.4,-0.5 -7.8,-1.5 z"
     id="path343"
     style="isolation:isolate;fill:#334764;fill-opacity:1" />
  <path
     class="st0"
     d="m 1156.5,262.2 c 2.6,2.3 3.9,5.7 3.9,10 0,4.3 -0.1,2.5 -0.4,4.1 l -4.3,24.3 h -8.5 l 4.1,-23.1 c 0.2,-1.4 0.3,-2.4 0.3,-3 0,-2.7 -0.8,-4.8 -2.3,-6.3 -1.5,-1.4 -3.6,-2.2 -6.3,-2.2 -2.7,0 -6,1 -8.2,3 -2.2,2 -3.6,4.8 -4.2,8.5 v -0.2 l -4.1,23.3 h -8.5 l 7.3,-41.3 h 8.5 l -0.8,4.8 c 1.7,-1.7 3.7,-3 6,-4 2.3,-1 4.7,-1.5 7.2,-1.5 4.3,0 7.8,1.2 10.4,3.5 z"
     id="path345"
     style="isolation:isolate;fill:#334764;fill-opacity:1" />
  <path
     class="st0"
     d="m 1175,268.8 c 2.3,-3.2 5.1,-5.7 8.4,-7.5 3.3,-1.8 6.7,-2.7 10.3,-2.7 3.6,0 6,0.6 8.2,1.9 2.2,1.3 3.8,2.9 4.9,4.8 l 1,-6 h 8.6 l -7.3,41.3 h -8.6 l 1.1,-6.1 c -1.8,1.9 -4.1,3.6 -6.8,4.9 -2.7,1.3 -5.7,1.9 -8.9,1.9 -3.2,0 -5.9,-0.7 -8.3,-2.1 -2.4,-1.4 -4.3,-3.4 -5.7,-6 -1.4,-2.6 -2.1,-5.5 -2.1,-8.9 0,-3.4 0.1,-3 0.4,-4.6 0.7,-4.1 2.3,-7.8 4.5,-11 z m 29.5,8.1 c 0,-3.3 -1,-6 -3,-7.9 -2,-1.9 -4.4,-2.9 -7.4,-2.9 -3,0 -4.3,0.5 -6.4,1.6 -2.1,1.1 -3.9,2.6 -5.5,4.7 -1.5,2.1 -2.6,4.5 -3.1,7.4 -0.2,0.9 -0.3,2 -0.3,3.1 0,3.4 1,6.1 3,8.1 2,2 4.4,3 7.4,3 3,0 4.3,-0.5 6.4,-1.6 2.1,-1.1 3.9,-2.7 5.5,-4.8 1.5,-2.1 2.6,-4.6 3.1,-7.5 0.2,-0.9 0.3,-2 0.3,-3.1 z"
     id="path347"
     style="isolation:isolate;fill:#334764;fill-opacity:1" />
  <path
     class="st0"
     d="m 1256.6,299.8 c -2.3,-1 -4.2,-2.3 -5.5,-4.1 -1.3,-1.8 -2,-3.8 -2,-6.1 0,-2.3 0,-0.9 0.1,-1.6 h 8.3 c -0.2,1.9 0.4,3.5 1.7,4.7 1.3,1.2 3.2,1.9 5.7,1.9 2.5,0 4.4,-0.4 5.9,-1.3 1.5,-0.8 2.3,-2.1 2.3,-3.7 0,-1.6 -0.6,-2.5 -1.9,-3.4 -1.3,-0.8 -3.3,-1.8 -6.1,-2.8 -2.6,-1 -4.8,-2 -6.4,-2.9 -1.6,-0.9 -3.1,-2.1 -4.3,-3.7 -1.2,-1.6 -1.8,-3.5 -1.8,-5.9 0,-2.4 0.7,-4.5 2.1,-6.3 1.4,-1.8 3.3,-3.2 5.8,-4.3 2.5,-1.1 5.3,-1.5 8.5,-1.5 3.2,0 5.5,0.5 7.8,1.5 2.3,1 4,2.3 5.3,4.1 1.3,1.8 1.9,3.8 1.9,6.1 0,2.3 0,1.2 0,1.6 h -8.1 c 0.2,-1.9 -0.4,-3.5 -1.7,-4.7 -1.3,-1.2 -3.2,-1.8 -5.7,-1.8 -2.5,0 -3.9,0.4 -5.2,1.3 -1.3,0.9 -2,2.1 -2,3.7 0,1.6 0.7,2.8 2,3.7 1.3,0.9 3.4,1.9 6.2,3 2.5,1 4.6,1.9 6.2,2.8 1.6,0.9 3,2.1 4.1,3.6 1.1,1.5 1.7,3.4 1.7,5.6 0,2.2 -0.7,4.6 -2.2,6.4 -1.5,1.8 -3.5,3.2 -6.1,4.2 -2.6,1 -5.5,1.5 -8.8,1.5 -3.3,0 -5.4,-0.5 -7.8,-1.5 z"
     id="path349"
     style="isolation:isolate;fill:#334764;fill-opacity:1" />
  <path
     class="st0"
     d="m 1337,259.4 -7.3,41.3 h -8.5 l 0.8,-4.9 c -1.6,1.7 -3.6,3 -6,4 -2.3,1 -4.7,1.5 -7.2,1.5 -4.3,0 -7.8,-1.2 -10.4,-3.5 -2.6,-2.3 -3.9,-5.7 -3.9,-10 0,-4.3 0.1,-2.5 0.4,-4.1 l 4.3,-24.3 h 8.5 l -4,23 c -0.2,1.4 -0.3,2.4 -0.3,3 0,2.7 0.8,4.8 2.3,6.3 1.5,1.4 3.6,2.2 6.3,2.2 2.7,0 5.8,-0.9 8,-2.8 2.2,-1.9 3.6,-4.6 4.3,-8.1 l 4.1,-23.5 h 8.5 z"
     id="path351"
     style="isolation:isolate;fill:#334764;fill-opacity:1" />
  <path
     class="st0"
     d="m 1349.4,268.8 c 2.3,-3.2 5.1,-5.7 8.4,-7.5 3.3,-1.8 6.7,-2.7 10.3,-2.7 3.6,0 6,0.6 8.2,1.9 2.2,1.3 3.8,2.9 4.9,4.8 l 1,-6 h 8.6 l -7.3,41.3 h -8.6 l 1.1,-6.1 c -1.8,1.9 -4.1,3.6 -6.8,4.9 -2.7,1.3 -5.7,1.9 -8.9,1.9 -3.2,0 -5.9,-0.7 -8.3,-2.1 -2.4,-1.4 -4.3,-3.4 -5.7,-6 -1.4,-2.6 -2.1,-5.5 -2.1,-8.9 0,-3.4 0.1,-3 0.4,-4.6 0.7,-4.1 2.3,-7.8 4.5,-11 z m 29.6,8.1 c 0,-3.3 -1,-6 -3,-7.9 -2,-1.9 -4.4,-2.9 -7.4,-2.9 -3,0 -4.3,0.5 -6.4,1.6 -2.1,1.1 -3.9,2.6 -5.5,4.7 -1.5,2.1 -2.6,4.5 -3.1,7.4 -0.2,0.9 -0.3,2 -0.3,3.1 0,3.4 1,6.1 3,8.1 2,2 4.4,3 7.4,3 3,0 4.3,-0.5 6.4,-1.6 2.1,-1.1 3.9,-2.7 5.5,-4.8 1.5,-2.1 2.6,-4.6 3.1,-7.5 0.2,-0.9 0.3,-2 0.3,-3.1 z"
     id="path353"
     style="isolation:isolate;fill:#334764;fill-opacity:1" />
  <path
     class="st0"
     d="m 1491.4,262.2 c 2.6,2.3 3.9,5.7 3.9,10 0,4.3 -0.1,2.5 -0.4,4.1 l -4.3,24.3 h -8.5 l 4.1,-23.1 c 0.2,-1.4 0.3,-2.4 0.3,-3 0,-2.7 -0.8,-4.8 -2.3,-6.3 -1.5,-1.4 -3.6,-2.2 -6.3,-2.2 -2.7,0 -6,1 -8.2,3 -2.2,2 -3.6,4.8 -4.2,8.5 l -4.1,23.1 h -8.5 l 4.1,-23.1 c 0.2,-1.4 0.3,-2.4 0.3,-3 0,-2.7 -0.8,-4.8 -2.3,-6.3 -1.5,-1.4 -3.6,-2.2 -6.3,-2.2 -2.7,0 -6,1 -8.2,3 -2.2,2 -3.6,4.8 -4.2,8.5 v -0.2 l -4.1,23.3 h -8.5 l 7.3,-41.3 h 8.5 l -0.8,4.8 c 1.6,-1.7 3.6,-3 6,-4 2.4,-1 4.7,-1.5 7.2,-1.5 2.5,0 6.1,0.7 8.5,2.1 2.4,1.4 4,3.4 5,6.1 1.6,-2.5 3.9,-4.5 6.8,-6 2.9,-1.5 5.9,-2.2 8.9,-2.2 4.3,0 7.8,1.2 10.4,3.5 z"
     id="path355"
     style="isolation:isolate;fill:#334764;fill-opacity:1" />
  <path
     class="st0"
     d="m 1509.9,268.8 c 2.3,-3.2 5.1,-5.7 8.4,-7.5 3.3,-1.8 6.7,-2.7 10.3,-2.7 3.6,0 6,0.6 8.2,1.9 2.2,1.3 3.8,2.9 4.9,4.8 l 1,-6 h 8.6 l -7.3,41.3 h -8.6 l 1.1,-6.1 c -1.8,1.9 -4.1,3.6 -6.8,4.9 -2.7,1.3 -5.7,1.9 -8.9,1.9 -3.2,0 -5.9,-0.7 -8.3,-2.1 -2.4,-1.4 -4.3,-3.4 -5.7,-6 -1.4,-2.6 -2.1,-5.5 -2.1,-8.9 0,-3.4 0.1,-3 0.4,-4.6 0.7,-4.1 2.3,-7.8 4.5,-11 z m 29.6,8.1 c 0,-3.3 -1,-6 -3,-7.9 -2,-1.9 -4.4,-2.9 -7.4,-2.9 -3,0 -4.3,0.5 -6.4,1.6 -2.1,1.1 -3.9,2.6 -5.5,4.7 -1.5,2.1 -2.6,4.5 -3.1,7.4 -0.2,0.9 -0.3,2 -0.3,3.1 0,3.4 1,6.1 3,8.1 2,2 4.4,3 7.4,3 3,0 4.3,-0.5 6.4,-1.6 2.1,-1.1 3.9,-2.7 5.5,-4.8 1.5,-2.1 2.6,-4.6 3.1,-7.5 0.2,-0.9 0.3,-2 0.3,-3.1 z m -15.3,-28.4 c 1.8,-1.5 3.8,-2.2 6,-2.2 2.2,0 1.7,0.1 2.3,0.4 0.6,0.3 1.4,0.7 2.4,1.4 0.6,0.5 1.2,0.9 1.7,1.1 0.5,0.3 1,0.4 1.7,0.4 0.7,0 1.6,-0.3 2.3,-0.8 0.7,-0.5 1.2,-1.3 1.5,-2.4 h 4.8 c -0.9,2.9 -2.2,5.1 -4,6.6 -1.8,1.5 -3.8,2.2 -6,2.2 -2.2,0 -1.7,-0.1 -2.4,-0.4 -0.6,-0.3 -1.4,-0.8 -2.3,-1.4 -0.7,-0.5 -1.3,-0.9 -1.8,-1.2 -0.5,-0.3 -1,-0.3 -1.6,-0.3 -0.8,0 -1.6,0.3 -2.2,0.8 -0.6,0.5 -1.1,1.3 -1.5,2.4 h -4.8 c 0.8,-2.9 2.2,-5.1 3.9,-6.6 z"
     id="path357"
     style="isolation:isolate;fill:#334764;fill-opacity:1" />
  <path
     class="st0"
     d="m 1567.4,299.1 c -2.6,-1.4 -4.7,-3.5 -6.2,-6.1 -1.5,-2.6 -2.2,-5.7 -2.2,-9.1 0,-3.4 1.1,-8.9 3.3,-12.7 2.2,-3.8 5.2,-6.9 9,-9.1 3.8,-2.2 8.1,-3.4 12.8,-3.4 4.7,0 6.6,0.7 9.3,2.2 2.7,1.5 4.8,3.5 6.3,6.1 1.5,2.6 2.3,5.7 2.3,9.1 0,3.4 -1.1,8.9 -3.4,12.7 -2.2,3.8 -5.3,6.9 -9.1,9.1 -3.8,2.2 -8.1,3.3 -12.8,3.3 -4.7,0 -6.6,-0.7 -9.2,-2.2 z m 18,-7.4 c 2.4,-1.6 4.2,-3.8 5.6,-6.4 1.3,-2.7 2,-5.5 2,-8.6 0,-3.1 -1,-6.1 -2.9,-8 -1.9,-1.9 -4.4,-2.8 -7.3,-2.8 -2.9,0 -5.5,0.8 -7.8,2.4 -2.3,1.6 -4,3.8 -5.3,6.5 -1.3,2.7 -1.9,5.6 -1.9,8.7 0,3.1 0.9,5.9 2.7,7.8 1.8,1.8 4.2,2.8 7.1,2.8 2.9,0 5.5,-0.8 7.8,-2.4 z"
     id="path359"
     style="isolation:isolate;fill:#334764;fill-opacity:1" />
  <path
     class="st0"
     d="M649.6,180c-10.3,3.3-19.8-15.5-25.7-17.2-3.1-.8-14.6,1.9-20.7,1.5-58-4.6-60.2-94.8,0-100.2,53-4.7,71.7,54.1,37.9,88.8l15.7,12.5-7.1,14.6h-.1ZM601.8,85.6c-26.1,4.9-25.9,53.8,1.5,57.4,42.5,5.7,41.3-65.4-1.5-57.4Z"
     id="path365"
     style="fill:#334764;fill-opacity:1" />
  <path
     class="st0"
     d="M919.9,67.6c23.7,3.3,34.7,31.5,15.8,47.5-2.8,2.4-7.2,2.4-7.9,5.3,19,6.8,13.2,27.1,19.3,42.2h-24.7c-.7-6-3.5-35.2-11.4-35.2h-29v35.2h-24.7v-94.9c19.4,1.9,43.7-2.6,62.4,0h.2ZM882,109.7h32.6c8.7,0,8.7-22.9,0-22.9h-32.6v22.9Z"
     id="path367"
     style="fill:#334764;fill-opacity:1" />
  <path
     class="st0"
     d="M956,164.4v-96.9h44.8c1,0,11.1,3.7,13,4.6,34,16,35.7,70.8,1.4,87.3-1.9,1-13.3,5-14.4,5h-44.8ZM980.5,143.2c49.7,8.6,48.7-63,0-54.5v54.5Z"
     id="path369"
     style="fill:#334764;fill-opacity:1" />
  <polygon
     class="st0"
     points="459.8 67.6 459.8 87 406.9 87 406.9 104.5 449.2 104.5 449.2 123.9 406.9 123.9 406.9 143.2 459.8 143.2 459.8 162.6 382.3 162.6 382.3 67.6 459.8 67.6"
     id="polygon371"
     style="fill:#334764;fill-opacity:1" />
  <polygon
     class="st0"
     points="845.1 67.6 845.1 87 792.4 87 792.4 104.5 834.5 104.5 834.5 123.9 792.4 123.9 792.4 143.2 845.1 143.2 845.1 162.6 767.7 162.6 767.7 67.6 845.1 67.6"
     id="polygon373"
     style="fill:#334764;fill-opacity:1" />
  <path
     class="st0"
     d="M551.2,95.7c-5.7-.8-15,1.4-20-.3-2.8-1-4.2-6.2-7.2-8.6-9.7-7.2-37.3-3.5-31.5,10.1,4.9,11.4,55.1,2.2,60.1,29.8,8.9,49.8-80.5,49.3-85.8,4l20,.3c3.6,2.5,4.4,6.7,8.3,9.3,12.5,8.9,46.5,4.2,36.8-10.3-7.9-11.5-55.1-2.4-59.5-30.2-7.4-46.3,75.9-48.8,79.1-4.3h-.3v.2Z"
     id="path375"
     style="fill:#334764;fill-opacity:1" />
  <path
     class="st0"
     d="M692,67.6v64.2c0,1.8,5.1,8.6,7.5,10.1,8.2,5.4,22.9,4.9,28.4-4,1.2-2.1,4.4-11.4,4.4-13.2v-57.2h21.1v69.5c0,1-3.1,8.6-3.7,10.3-11.4,23-56.5,24.7-72.6,6.4-1.8-2.1-8-12.9-8-14.8v-71.3h22.9,0Z"
     id="path377"
     style="fill:#334764;fill-opacity:1" />
  <path
     class="st0"
     d="M1135.4,162.6h-26.4l-4.6-12.5-39.5,1.1-3.3,11.2h-26.4l46.5-95.2,10.4.4,43.4,94.8h0v.2ZM1098.5,132.6l-13.2-31.6-13.2,31.6h26.4,0Z"
     id="path379"
     style="fill:#334764;fill-opacity:1" />
  <path
     class="st0"
     d="m 212.2,289.7 c 1.4,-1.4 7.5,-3.8 9.9,-5.5 29.1,-20.4 87.9,-68.2 44.3,-103.4 -34,-27.5 -84.8,-0.6 -104,32.5 -17.3,30 -14.3,62.8 3,92.1 l 19.1,26.1 c -29.8,2.9 -61.2,-1.1 -88.1,-14.6 L 63,38.2 c 0,-1.6 0.4,-2.5 1.4,-3.6 1.8,-2.1 13.8,-9.7 17,-11.6 80.5,-47.4 184.8,-19 230,62.1 42,75.1 19,172.1 -52.6,219.5 -14.3,9.4 -19.8,13.9 -35,2.1 -2.9,-2.3 -15.2,-13.3 -11.4,-17 z"
     id="path381"
     style="fill:#9d272d;fill-opacity:1" />
  <path
     class="st0"
     d="m 40.8,58.6 28.5,241.9 c -0.9,1 -6.9,-4.1 -8,-5 C -7.7,242.2 -20.9,133.1 34,64.9 c 1.6,-2 4,-6.5 6.7,-6.3 0,0 0,0 0,0 z"
     id="path383"
     style="fill:#9d272d;fill-opacity:1" />
  <path
     class="st0"
     d="m 221.5,206.5 c 13.6,-1.9 23,8.7 19.6,22.1 -2.6,10.4 -29.9,33.8 -39.7,38.6 -1.1,0.6 -2.1,1.6 -3.6,1.1 -6.5,-9.7 -7.9,-29 -3.8,-39.7 3.4,-8.7 18.3,-20.9 27.6,-22.1 z"
     id="path385"
     style="fill:#9d272d;fill-opacity:1" />
  <path
     class="st0"
     d="m 1476.1,65.1 c 26.6,3.8 35.2,37.7 9.5,48.5 v 4.2 c 16.6,4.8 12,26.8 14.6,38.7 0.5,2.5 5.2,0 4.3,3.5 l -25.4,-0.8 c -3.5,-2.5 -2.8,-34.9 -11.5,-34.9 H 1437 v 35.9 h -23.3 V 65.3 c 19.3,2 43.6,-2.7 62.2,0 v 0 z m -39.1,40.1 h 34.7 c 6.5,0 8.3,-21.1 -2.2,-21.1 h -32.8 v 21.1 z"
     id="path389"
     style="fill:#334764;fill-opacity:1" />
  <path
     class="st0"
     d="m 1649.3,113.3 c 0,28.1 -22.8,50.7 -50.7,50.7 -27.9,0 -50.7,-22.8 -50.7,-50.7 0,-27.9 22.8,-50.7 50.7,-50.7 27.9,0 50.7,22.8 50.7,50.7 z m -56.8,-28.8 c -29.9,5.2 -27.4,62.5 9.8,58.4 32.8,-3.7 30.6,-65.3 -9.8,-58.4 z"
     id="path391"
     style="fill:#334764;fill-opacity:1" />
  <path
     class="st0"
     d="M 1175.6,162.2 V 65.3 h 45.4 c 0.8,0 13,5.2 14.8,6.3 31.6,17.6 31.6,66.8 0,84.5 -2,1.2 -14,6.3 -14.8,6.3 h -45.4 z m 23.1,-21.1 c 50,8.3 49.9,-63 0,-54.9 z"
     id="path393"
     style="fill:#334764;fill-opacity:1" />
  <path
     class="st0"
     d="m 1363,65.4 c 4.5,2.7 34.7,84 42.6,94.4 h -25.9 c -5.7,-18.5 -29.8,-8.1 -45.4,-10.3 l -3.7,10.5 h -25.9 l 44.6,-94.8 c 1.3,-0.8 12.6,-0.8 14.1,0 v 0 l -0.3,0.2 v 0 z m 4.5,67.2 c -5,-9.8 -6.2,-24.3 -14.8,-31.6 l -10.6,31.6 z"
     id="path395"
     style="fill:#334764;fill-opacity:1" />
  <rect
     class="st0"
     x="1272.6"
     y="65.099998"
     width="23.299999"
     height="96.900002"
     id="rect397"
     style="fill:#334764;fill-opacity:1" />
  <rect
     class="st0"
     x="1513"
     y="65.099998"
     width="23.299999"
     height="96.900002"
     id="rect399"
     style="fill:#334764;fill-opacity:1" />
  <path
     class="st0"
     d="m 1380.1,33.5 c -9.6,9.6 -18.3,26.3 -33.8,23.1 7.5,-18 12.1,-27.1 33.8,-23.1 z"
     id="path401"
     style="fill:#334764;fill-opacity:1" />
</svg>
