<?xml version="1.0" encoding="UTF-8"?>
<!-- Created with Inkscape (http://www.inkscape.org/) -->
<svg width="800" height="480" version="1.1" viewBox="0 0 800 480" xmlns="http://www.w3.org/2000/svg">
 <g transform="translate(1.5,-2)" fill="#912523">
  <g stroke-width="9.6216" aria-label="Fidel">
   <path d="m76.19 63.733-2.3088 10.005c30.783 3.4631 31.938 4.6175 25.781 38.095l-29.629 153.53c-6.1567 32.707-9.235 35.016-37.71 37.71l-2.6936 10.389h101.59l2.3088-10.389c-35.016-2.6936-37.71-5.3871-31.938-37.71l13.468-70.417h40.018c33.092 0 33.862 3.0784 33.862 31.168h10.774l14.622-73.88h-11.159c-10.389 25.012-11.544 27.705-45.021 27.705h-40.018l16.931-88.118c2.3088-13.083 3.4631-15.392 16.161-15.392h31.553c27.32 0 33.862 4.2327 37.325 13.853 2.6936 7.6959 3.8479 20.394 4.2327 33.092l11.159-1.1544c2.6936-22.318 5.7719-51.562 6.9263-58.489z"/>
   <path d="m308.61 66.811c-13.468 0-21.164 13.083-21.164 22.703 0.3848 10.005 6.9263 16.931 16.161 16.931 11.544 0 20.394-10.389 20.394-22.318-0.38479-9.235-5.3871-17.316-15.392-17.316zm0.38479 204.71c-8.8502 8.0806-22.318 18.085-26.936 18.085-2.3088 0-3.0783-3.0783-0.76958-12.313l26.551-106.2c4.2327-18.085 4.6175-30.399-3.8479-30.399-10.389 0-37.325 15.777-58.489 36.555l4.6175 8.8502c11.544-10.005 23.088-16.546 26.166-16.546 2.6936 0 2.6936 3.8479 0.38479 12.313l-23.857 98.507c-7.6959 31.553-2.6936 37.71 5.0023 37.71 13.468 0 43.482-22.703 56.18-38.479z"/>
   <path d="m507.54 270.37c-10.389 10.389-22.703 18.855-27.32 18.855-2.6936 0-3.4631-3.4631-1.5392-12.698 13.468-74.65 29.629-149.3 47.714-226.26 1.5392-7.6959 0.76958-10.774-2.6936-10.774-5.7719 0-26.551 9.6198-58.873 13.468l-1.1544 9.6198h12.313c16.931 0 18.085 1.5392 14.622 18.855l-12.698 63.491c-9.6198-3.8479-17.316-4.2327-22.703-4.2327-18.085 0-50.023 13.853-68.108 29.629-28.09 24.242-44.636 65.415-44.636 101.59 0 30.783 12.313 46.175 25.012 46.175 10.774 0 23.088-6.1567 37.325-17.7 13.468-10.389 33.477-27.32 50.793-50.408l0.76958-0.38479-6.9263 32.707c-6.1567 29.629-0.76959 35.786 6.9263 35.786 10.774 0 36.171-14.622 56.565-38.864zm-121.21 22.703c-6.5415 0-11.929-8.8502-11.929-28.475 0-32.323 15.007-80.807 40.788-99.277 6.9263-5.0023 15.007-8.0806 26.936-8.0806 11.544 0 25.396 4.6175 31.168 10.005l-12.313 55.025c-12.698 23.088-55.025 70.802-74.65 70.802z"/>
   <path d="m654.53 265.75c-19.24 18.855-40.018 29.629-56.18 29.629-23.472 0-30.014-22.703-30.014-43.482 0-3.8479 0-7.6959 0.76959-12.313 36.94-9.235 101.59-30.014 101.59-68.108 0-16.546-13.468-30.783-33.862-30.783-16.161 0-36.555 8.8502-53.101 21.548-30.399 23.088-46.175 63.491-46.175 99.661 0 45.79 24.627 56.18 42.327 56.18 18.47 0 47.33-7.3111 81.191-43.482zm-31.938-109.28c11.159 0 19.24 7.6959 19.24 21.164 0 17.7-16.161 35.401-71.187 50.023 6.5415-43.097 25.781-60.797 36.171-66.569 4.2327-2.6936 10.389-4.6175 15.777-4.6175z"/>
   <path d="m751.12 268.44c-10.774 11.159-26.551 21.164-30.783 21.164-2.3088 0-3.8479-2.3088-1.5392-13.468 16.161-76.189 31.938-150.84 47.714-225.1 1.5392-8.0807 1.1544-11.544-2.3088-11.544-5.0023 0-26.936 10.005-56.949 13.468l-1.5392 9.235 10.389 0.38479c17.7 0 20.009 2.6936 16.161 19.624-13.083 63.106-26.551 126.21-40.018 189.32-8.0807 37.71-1.924 46.56 5.3871 46.56 11.929 0 39.249-17.316 59.258-41.173z"/>
  </g>
  <g stroke-width="2.3708" aria-label="Soldado de las Ideas">
   <path d="m29.63 424.6c0.18963 6.7317 0.18963 11.852 0.28444 14.032 2.0859 2.3703 8.7228 5.8784 16.308 5.8784 10.904 0 20.669-7.0162 20.669-18.109 0-7.4902-4.4562-12.421-10.998-17.351l-2.8444-2.0859c-4.9303-3.7925-8.8176-7.2058-8.8176-12.705 0-5.7836 3.9822-11.093 10.619-11.093 8.1539 0 10.619 6.4473 11.378 13.558l2.7496-0.28444c0.09481-4.2666-0.09481-9.2917 0.28444-13.274-0.7585-0.28444-2.3703-0.85332-4.1718-1.517-2.6548-0.94813-5.9732-1.6118-9.0072-1.6118-11.378 0-19.247 7.111-19.247 16.972 0 7.8695 6.2577 13.084 10.619 16.592l2.6548 2.0859c5.4992 4.3614 8.8176 7.9643 8.8176 13.369 0 7.4902-4.6458 12.231-11.378 12.231-10.429 0-14.317-9.7658-15.36-16.972z"/>
   <path d="m87.845 444.22c5.3095 0 10.524-2.56 14.601-5.9732 6.6369-5.4992 10.145-14.791 10.145-22.945 0-9.3865-4.7407-14.791-12.61-14.791-2.9392 0-6.8265 1.2326-10.24 3.034-7.8695 4.1718-14.412 13.558-14.412 25.884 0 7.6799 3.5081 14.791 12.515 14.791zm3.4133-3.7925c-5.0251 0-7.9643-4.4562-7.9643-11.472 0-14.601 6.3525-22.376 10.05-23.988 1.0429-0.47406 2.1807-0.85332 3.6029-0.85332 4.3614 0 7.6799 3.6977 7.6799 11.378 0 12.136-5.2147 22.186-10.335 24.367-0.94813 0.37926-1.8963 0.56888-3.034 0.56888z"/>
   <path d="m134.97 431.99c-2.6548 2.7496-6.5421 5.2147-7.585 5.2147-0.56888 0-0.94813-0.56888-0.37925-3.3185 3.9822-18.773 7.8695-37.167 11.757-55.466 0.37926-1.9911 0.28444-2.8444-0.56887-2.8444-1.2326 0-6.6369 2.4651-14.032 3.3185l-0.37926 2.2755 2.56 0.0948c4.3614 0 4.9303 0.66369 3.9822 4.8355-3.2236 15.549-6.5421 31.099-9.8606 46.648-1.9911 9.2917-0.47407 11.472 1.3274 11.472 2.9392 0 9.6709-4.2666 14.601-10.145z"/>
   <path d="m182.37 432.47c-2.56 2.56-5.594 4.6458-6.7317 4.6458-0.6637 0-0.85332-0.85331-0.37926-3.1288 3.3185-18.394 7.3006-36.787 11.757-55.75 0.37925-1.8963 0.18962-2.6548-0.66369-2.6548-1.4222 0-6.5421 2.3703-14.506 3.3185l-0.28444 2.3703h3.034c4.1718 0 4.4562 0.37925 3.6029 4.6458l-3.1288 15.644c-2.3703-0.94813-4.2666-1.0429-5.594-1.0429-4.4562 0-12.326 3.4133-16.782 7.3006-6.9214 5.9732-10.998 16.118-10.998 25.031 0 7.585 3.034 11.378 6.1629 11.378 2.6548 0 5.6888-1.517 9.1969-4.3614 3.3185-2.56 8.2487-6.7317 12.515-12.421l0.18962-0.0948-1.7066 8.0591c-1.517 7.3006-0.18963 8.8176 1.7066 8.8176 2.6548 0 8.9124-3.6029 13.938-9.5761zm-29.866 5.594c-1.6118 0-2.9392-2.1807-2.9392-7.0162 0-7.9643 3.6977-19.911 10.05-24.462 1.7066-1.2326 3.6977-1.9911 6.6369-1.9911 2.8444 0 6.2577 1.1378 7.6799 2.4651l-3.034 13.558c-3.1288 5.6888-13.558 17.446-18.394 17.446z"/>
   <path d="m228.55 432.09c-2.7496 2.7496-6.068 4.9303-6.8265 4.9303-0.56888 0-0.85332-0.7585-0.18962-4.077 2.1807-12.041 5.0251-24.936 6.5421-30.814l-0.28444-0.37925c-1.0429 0-2.2755-0.28444-3.6029-0.56888-1.9911-0.37925-3.8873-0.66369-5.8784-0.66369-5.9732 0-12.895 3.3184-17.635 7.3006-6.9214 5.7836-11.378 16.118-11.378 25.694 0 7.585 3.034 10.714 5.4992 10.714 2.56 0 5.6888-1.7066 8.8176-4.2666 4.077-3.3185 8.5332-7.8695 12.231-13.084h0.18963l-1.8963 9.0072c-1.3274 6.9214-0.0948 8.3436 1.7066 8.3436 2.3703 0 8.7228-3.5081 13.843-9.8606zm-28.823 6.068c-1.3274 0-2.56-1.9911-2.56-6.2577 0-9.3865 3.7925-20.574 10.24-25.315 1.6118-1.2326 4.2666-1.9911 6.7317-1.9911s5.0251 0.66369 6.3525 1.3274c-0.66369 3.034-2.0859 9.8606-3.1288 13.653-3.2236 6.5421-13.938 18.583-17.635 18.583z"/>
   <path d="m275.95 432.47c-2.56 2.56-5.594 4.6458-6.7317 4.6458-0.6637 0-0.85332-0.85331-0.37926-3.1288 3.3185-18.394 7.3006-36.787 11.757-55.75 0.37925-1.8963 0.18962-2.6548-0.66369-2.6548-1.4222 0-6.5421 2.3703-14.506 3.3185l-0.28444 2.3703h3.034c4.1718 0 4.4562 0.37925 3.6029 4.6458l-3.1288 15.644c-2.3703-0.94813-4.2666-1.0429-5.594-1.0429-4.4562 0-12.326 3.4133-16.782 7.3006-6.9214 5.9732-10.998 16.118-10.998 25.031 0 7.585 3.034 11.378 6.1629 11.378 2.6548 0 5.6888-1.517 9.1969-4.3614 3.3185-2.56 8.2487-6.7317 12.515-12.421l0.18962-0.0948-1.7066 8.0591c-1.517 7.3006-0.18963 8.8176 1.7066 8.8176 2.6548 0 8.9124-3.6029 13.938-9.5761zm-29.866 5.594c-1.6118 0-2.9392-2.1807-2.9392-7.0162 0-7.9643 3.6977-19.911 10.05-24.462 1.7066-1.2326 3.6977-1.9911 6.6369-1.9911 2.8444 0 6.2577 1.1378 7.6799 2.4651l-3.034 13.558c-3.1288 5.6888-13.558 17.446-18.394 17.446z"/>
   <path d="m296.05 444.22c5.3095 0 10.524-2.56 14.601-5.9732 6.6369-5.4992 10.145-14.791 10.145-22.945 0-9.3865-4.7406-14.791-12.61-14.791-2.9392 0-6.8265 1.2326-10.24 3.034-7.8695 4.1718-14.412 13.558-14.412 25.884 0 7.6799 3.5081 14.791 12.515 14.791zm3.4133-3.7925c-5.0251 0-7.9643-4.4562-7.9643-11.472 0-14.601 6.3525-22.376 10.05-23.988 1.043-0.47406 2.1807-0.85332 3.6029-0.85332 4.3614 0 7.6799 3.6977 7.6799 11.378 0 12.136-5.2147 22.186-10.335 24.367-0.94813 0.37926-1.8963 0.56888-3.034 0.56888z"/>
   <path d="m390.01 432.47c-2.56 2.56-5.594 4.6458-6.7317 4.6458-0.66369 0-0.85332-0.85331-0.37925-3.1288 3.3185-18.394 7.3006-36.787 11.757-55.75 0.37925-1.8963 0.18963-2.6548-0.66369-2.6548-1.4222 0-6.5421 2.3703-14.506 3.3185l-0.28444 2.3703h3.034c4.1718 0 4.4562 0.37925 3.6029 4.6458l-3.1288 15.644c-2.3703-0.94813-4.2666-1.0429-5.594-1.0429-4.4562 0-12.326 3.4133-16.782 7.3006-6.9214 5.9732-10.998 16.118-10.998 25.031 0 7.585 3.034 11.378 6.1628 11.378 2.6548 0 5.6888-1.517 9.1969-4.3614 3.3185-2.56 8.2487-6.7317 12.515-12.421l0.18963-0.0948-1.7066 8.0591c-1.517 7.3006-0.18963 8.8176 1.7066 8.8176 2.6548 0 8.9124-3.6029 13.938-9.5761zm-29.866 5.594c-1.6118 0-2.9392-2.1807-2.9392-7.0162 0-7.9643 3.6977-19.911 10.05-24.462 1.7066-1.2326 3.6977-1.9911 6.6369-1.9911 2.8444 0 6.2577 1.1378 7.6799 2.4651l-3.034 13.558c-3.1288 5.6888-13.558 17.446-18.394 17.446z"/>
   <path d="m426.23 431.33c-4.7407 4.6458-9.8606 7.3006-13.843 7.3006-5.7836 0-7.3954-5.594-7.3954-10.714 0-0.94813 0-1.8963 0.18963-3.034 9.1021-2.2755 25.031-7.3954 25.031-16.782 0-4.077-3.3185-7.585-8.3436-7.585-3.9822 0-9.0072 2.1807-13.084 5.3095-7.4902 5.6888-11.378 15.644-11.378 24.557 0 11.283 6.068 13.843 10.429 13.843 4.551 0 11.662-1.8014 20.006-10.714zm-7.8695-26.927c2.7496 0 4.7407 1.8963 4.7407 5.2147 0 4.3614-3.9822 8.7228-17.54 12.326 1.6118-10.619 6.3525-14.98 8.9124-16.403 1.043-0.66369 2.56-1.1378 3.8873-1.1378z"/>
   <path d="m473.26 431.99c-2.6548 2.7496-6.5421 5.2147-7.585 5.2147-0.56888 0-0.94813-0.56888-0.37925-3.3185 3.9822-18.773 7.8695-37.167 11.757-55.466 0.37925-1.9911 0.28444-2.8444-0.56888-2.8444-1.2326 0-6.6369 2.4651-14.032 3.3185l-0.37925 2.2755 2.56 0.0948c4.3614 0 4.9303 0.66369 3.9822 4.8355-3.2236 15.549-6.5421 31.099-9.8606 46.648-1.9911 9.2917-0.47406 11.472 1.3274 11.472 2.9392 0 9.6709-4.2666 14.601-10.145z"/>
   <path d="m519.06 432.09c-2.7496 2.7496-6.068 4.9303-6.8265 4.9303-0.56888 0-0.85332-0.7585-0.18963-4.077 2.1807-12.041 5.0251-24.936 6.5421-30.814l-0.28444-0.37925c-1.043 0-2.2755-0.28444-3.6029-0.56888-1.9911-0.37925-3.8873-0.66369-5.8784-0.66369-5.9732 0-12.895 3.3184-17.635 7.3006-6.9214 5.7836-11.378 16.118-11.378 25.694 0 7.585 3.034 10.714 5.4992 10.714 2.56 0 5.6888-1.7066 8.8176-4.2666 4.077-3.3185 8.5332-7.8695 12.231-13.084h0.18962l-1.8963 9.0072c-1.3274 6.9214-0.0948 8.3436 1.7066 8.3436 2.3703 0 8.7228-3.5081 13.843-9.8606zm-28.823 6.068c-1.3274 0-2.56-1.9911-2.56-6.2577 0-9.3865 3.7925-20.574 10.24-25.315 1.6118-1.2326 4.2666-1.9911 6.7317-1.9911s5.0251 0.66369 6.3525 1.3274c-0.66369 3.034-2.0859 9.8606-3.1288 13.653-3.2236 6.5421-13.938 18.583-17.635 18.583z"/>
   <path d="m533.28 444.22c7.6799 0 17.161-7.111 17.161-14.317 0-4.077-2.2755-6.8266-7.9643-11.093-3.4133-2.6548-6.1628-5.0251-6.1628-8.4384 0-3.2236 2.3703-5.3095 5.1199-5.3095 3.2236 0 5.4992 1.8963 7.3954 4.2666 0.56888 0.75851 1.1378 0.94814 2.0859 0.37926 1.4222-0.85332 2.3703-2.2755 2.3703-3.8873 0-2.4651-3.2236-5.3095-7.3954-5.3095-3.034 0-7.585 1.9911-10.524 4.551-3.7925 3.3184-4.9303 6.3525-4.9303 9.1969 0 4.8355 3.9822 8.3436 8.2487 11.567 4.4562 3.5081 5.4992 5.594 5.4992 7.9643 0 3.034-2.4651 5.6888-6.2577 5.6888-3.1288 0-6.6369-2.0859-9.102-5.7836-0.47407-0.66369-1.2326-0.85332-2.3703-0.28444-1.6118 0.94813-2.8444 2.3703-2.7496 3.9822 0 3.3185 5.1199 6.8266 9.5761 6.8266z"/>
   <path d="m612.26 381.55h-24.083l-0.66369 2.4651c7.8695 0.7585 8.5332 1.2326 7.2058 8.1539l-7.6799 39.916c-1.4222 7.2058-2.0859 7.8695-9.4813 8.4384l-0.66369 2.56h24.272l0.56888-2.56c-7.7747-0.56888-8.3436-1.1378-6.9214-8.4384l7.6799-39.916c1.3274-6.9214 1.8014-7.3954 9.1969-8.1539z"/>
   <path d="m649.61 432.47c-2.56 2.56-5.594 4.6458-6.7317 4.6458-0.66369 0-0.85331-0.85331-0.37925-3.1288 3.3185-18.394 7.3006-36.787 11.757-55.75 0.37925-1.8963 0.18962-2.6548-0.66369-2.6548-1.4222 0-6.5421 2.3703-14.506 3.3185l-0.28444 2.3703h3.034c4.1718 0 4.4562 0.37925 3.6029 4.6458l-3.1288 15.644c-2.3703-0.94813-4.2666-1.0429-5.594-1.0429-4.4562 0-12.326 3.4133-16.782 7.3006-6.9214 5.9732-10.998 16.118-10.998 25.031 0 7.585 3.034 11.378 6.1629 11.378 2.6548 0 5.6888-1.517 9.1969-4.3614 3.3185-2.56 8.2487-6.7317 12.515-12.421l0.18962-0.0948-1.7066 8.0591c-1.517 7.3006-0.18963 8.8176 1.7066 8.8176 2.6548 0 8.9124-3.6029 13.938-9.5761zm-29.866 5.594c-1.6118 0-2.9392-2.1807-2.9392-7.0162 0-7.9643 3.6977-19.911 10.05-24.462 1.7066-1.2326 3.6977-1.9911 6.6369-1.9911 2.8444 0 6.2577 1.1378 7.6799 2.4651l-3.034 13.558c-3.1288 5.6888-13.558 17.446-18.394 17.446z"/>
   <path d="m685.83 431.33c-4.7406 4.6458-9.8606 7.3006-13.843 7.3006-5.7836 0-7.3954-5.594-7.3954-10.714 0-0.94813 0-1.8963 0.18962-3.034 9.1021-2.2755 25.031-7.3954 25.031-16.782 0-4.077-3.3185-7.585-8.3436-7.585-3.9822 0-9.0072 2.1807-13.084 5.3095-7.4902 5.6888-11.378 15.644-11.378 24.557 0 11.283 6.068 13.843 10.429 13.843 4.551 0 11.662-1.8014 20.006-10.714zm-7.8695-26.927c2.7496 0 4.7406 1.8963 4.7406 5.2147 0 4.3614-3.9822 8.7228-17.54 12.326 1.6118-10.619 6.3525-14.98 8.9124-16.403 1.0429-0.66369 2.56-1.1378 3.8873-1.1378z"/>
   <path d="m733.14 432.09c-2.7496 2.7496-6.068 4.9303-6.8265 4.9303-0.56888 0-0.85332-0.7585-0.18963-4.077 2.1807-12.041 5.0251-24.936 6.5421-30.814l-0.28444-0.37925c-1.043 0-2.2755-0.28444-3.6029-0.56888-1.9911-0.37925-3.8873-0.66369-5.8784-0.66369-5.9732 0-12.895 3.3184-17.635 7.3006-6.9214 5.7836-11.378 16.118-11.378 25.694 0 7.585 3.034 10.714 5.4992 10.714 2.56 0 5.6888-1.7066 8.8176-4.2666 4.077-3.3185 8.5332-7.8695 12.231-13.084h0.18962l-1.8963 9.0072c-1.3274 6.9214-0.0948 8.3436 1.7066 8.3436 2.3703 0 8.7228-3.5081 13.843-9.8606zm-28.823 6.068c-1.3274 0-2.56-1.9911-2.56-6.2577 0-9.3865 3.7925-20.574 10.24-25.315 1.6118-1.2326 4.2666-1.9911 6.7317-1.9911s5.0251 0.66369 6.3525 1.3274c-0.66369 3.034-2.0859 9.8606-3.1288 13.653-3.2236 6.5421-13.938 18.583-17.635 18.583z"/>
   <path d="m747.36 444.22c7.6799 0 17.161-7.111 17.161-14.317 0-4.077-2.2755-6.8266-7.9643-11.093-3.4133-2.6548-6.1628-5.0251-6.1628-8.4384 0-3.2236 2.3703-5.3095 5.1199-5.3095 3.2236 0 5.4992 1.8963 7.3954 4.2666 0.56888 0.75851 1.1378 0.94814 2.0859 0.37926 1.4222-0.85332 2.3703-2.2755 2.3703-3.8873 0-2.4651-3.2236-5.3095-7.3954-5.3095-3.034 0-7.585 1.9911-10.524 4.551-3.7925 3.3184-4.9303 6.3525-4.9303 9.1969 0 4.8355 3.9822 8.3436 8.2487 11.567 4.4562 3.5081 5.4992 5.594 5.4992 7.9643 0 3.034-2.4651 5.6888-6.2577 5.6888-3.1288 0-6.6369-2.0859-9.1021-5.7836-0.47406-0.66369-1.2326-0.85332-2.3703-0.28444-1.6118 0.94813-2.8444 2.3703-2.7496 3.9822 0 3.3185 5.1199 6.8266 9.5761 6.8266z"/>
  </g>
 </g>
</svg>
