<?xml version="1.0" encoding="UTF-8"?>
<!-- Created with Inkscape (http://www.inkscape.org/) -->
<svg width="153.22mm" height="39.688mm" version="1.1" viewBox="0 0 153.22 39.688" xmlns="http://www.w3.org/2000/svg">
 <defs>
  <clipPath id="clipPath26">
   <path d="m0 122h470v-122h-470z"/>
  </clipPath>
 </defs>
 <g transform="translate(-38.823 -94.768)">
  <g transform="matrix(.35118 0 0 -.35118 66.742 126.69)">
   <path d="m0 0 3.867-8.152-27.013 36.041 7.427 1.521z" fill="#bf1006"/>
  </g>
  <g transform="matrix(.35118 0 0 -.35118 50.83 100.1)">
   <path d="m0 0 5.553-59.307 1.268 42.518-3.781 19.364z" fill="#bf1006"/>
  </g>
  <g transform="matrix(.35118 0 0 -.35118 32.904 136.03)">
   <g clip-path="url(#clipPath26)">
    <g transform="translate(118.88 31.962)">
     <path d="m0 0c-6.225-4.51-12.41-8.99-18.661-13.522-0.252 0.351-0.475 0.64-0.68 0.943-6.931 10.457-13.873 20.907-20.771 31.386-0.608 0.922-1.248 1.247-2.33 0.918l-0.11-0.545c0.044-4.981 0.029-9.967-4e-3 -14.952-0.026-3.72-0.292-7.469-0.834-11.145-0.844-5.738-4.487-9.433-9.557-11.865-3.46-1.66-7.158-2.498-10.954-2.86-7.29-0.688-14.386 0.223-21.313 2.619-7.812 2.699-12.267 8.284-14.352 15.914-4.101 13.647-1.844 25.281-1.844 25.281h18.954s-2.008-19.539 4.905-24.129c0.435-0.289 0.906-0.519 1.419-0.68 0.062-0.03 0.128-0.055 0.19-0.077 7e-3 0 0.015-4e-3 0.022-7e-3 1.075-0.399 2.304-0.487 3.471-0.582 1.05-0.088 2.117 0.121 3.175 0.088 1.931-0.066 3.266 0.823 4.213 2.414 1.39 2.344 1.906 4.967 2.235 7.615 0.201 1.62 0.347 3.244 0.453 4.868 0.472 7.158 0.132 14.327-0.16 21.496-0.154 3.76-0.257 7.527-0.502 11.283-0.31 4.748-0.757 9.484-1.122 14.225-0.044 0.578-0.088 1.152-0.132 1.73l-2.608-0.187-19.275-1.372-1.09 15.256 40.672 4.148 0.289-4.356c1.291 0.198 2.582 0.413 3.873 0.585 7.736 1.043 15.421 1.203 22.911-1.456 8.442-2.999 13.413-9.012 15.102-17.754 1.054-5.438 1.058-10.888-0.27-16.287-1.767-7.209-6.167-12.209-12.952-15.149-0.314-0.136-0.625-0.279-0.936-0.417-0.058-0.03-0.117-0.07-0.3-0.179 6.302-7.762 12.553-15.461 18.873-23.248" fill="#bf1006"/>
    </g>
    <g transform="translate(42.751 29.323)">
     <path d="m0 0c-0.51 0.163-0.982 0.392-1.417 0.683 0.45-0.25 0.921-0.476 1.417-0.683" fill="#bf1006"/>
    </g>
    <g transform="translate(42.944 29.248)">
     <path d="M 0,0 C -0.064,0.023 -0.129,0.048 -0.193,0.075 -0.118,0.052 -0.055,0.027 0,0" fill="#bf1006"/>
    </g>
    <g transform="translate(79.94 78.113)">
     <path d="m0 0c-0.196 0.05-0.396 0.042-0.592 0.034-0.348-0.018-0.7-0.045-1.047-0.067l-0.067-4e-3 0.144-2.253c0.013-4e-3 0.027-3e-3 0.04-2e-3 0.352 0.022 0.709 0.041 1.064 0.067 0.165 0.016 0.333 0.04 0.496 0.081 0.269 0.067 0.446 0.234 0.5 0.515 0.034 0.163 0.023 0.328 8e-3 0.493-0.022 0.213-0.032 0.431-0.067 0.643-0.053 0.261-0.216 0.43-0.479 0.493m7.585 0.524-1.892-0.121 0.395-6.199-1.469-0.093-0.395 6.194-1.897-0.121-0.084 1.31 5.259 0.335zm-5.589-2.024c-2e-3 -0.461-0.104-0.892-0.431-1.244-0.222-0.237-0.498-0.385-0.8-0.489-0.223-0.072-0.453-0.132-0.683-0.155-0.499-0.041-0.992-0.081-1.491-0.118-0.022-6e-3 -0.049-3e-3 -0.08-5e-3l0.176-2.761-1.47-0.093-0.478 7.508c0.013 1e-3 0.027 6e-3 0.044 7e-3 0.873 0.056 1.75 0.116 2.624 0.162 0.432 0.024 0.862 6e-3 1.281-0.114 0.638-0.179 1.031-0.592 1.179-1.24 0.054-0.22 0.082-0.446 0.092-0.678 0.017-0.259 0.038-0.521 0.037-0.78m24.459 10.027-18.855-1.201-6.973 17.561-4.682-18.304-18.859-1.202 15.963-10.111-4.687-18.305 14.551 12.056 15.962-10.112-6.971 17.562z" fill="#fff"/>
    </g>
    <g transform="translate(384.58 71.261)">
     <path d="m0 0c-2.346 0.168-4.69 0.311-7.037 0.442-3.184 0.179-6.369 0.335-9.555 0.45-0.168 5e-3 -0.336 0.01-0.556 0.014-1.102 15.659-2.2 29.458-3.3 40.603 0.102 0.013 0.181 0.033 0.261 0.033 6.225 0.051 12.448 0.052 18.672 0.021 0.057-1e-3 0.114-6e-3 0.17-0.016 0.091-2.719 0.178-5.453 0.268-8.202-0.169 9e-3 -0.339 0.014-0.509 0.03-2.757 0.27-5.515 0.507-8.272 0.711-0.161 0.011-0.323 0.023-0.498 0.036 0.239-2.048 0.469-4.067 0.701-6.135 1.961-0.32 3.872-0.658 5.712-1.004 0.094-2.87 0.185-5.695 0.28-8.625-1.833 0.261-3.576 0.485-5.378 0.698 0.217-3.246 0.428-6.46 0.64-9.755 2.764-0.322 5.449-0.675 8.136-1.073 0.088-2.747 0.177-5.49 0.265-8.228" fill="#bf1006"/>
    </g>
    <g transform="translate(132.79 77.972)">
     <path d="m0 0c2.54-0.263 5.082-0.506 7.641-0.72 0.207-1.486 1.244-2.43 2.733-3.02 0.475-0.19 1.022-0.248 1.539-0.312 0.437-0.052 0.879-4e-3 1.318-0.039 0.801-0.063 1.343 0.206 1.712 0.717 0.544 0.752 0.719 1.623 0.816 2.521 0.322 2.975 0.013 6.154-0.265 9.49-0.119 1.424-0.216 2.881-0.373 4.363-0.199 1.872-0.454 3.782-0.675 5.732-0.212 1.88-0.411 3.789-0.621 5.772 2.851-0.111 5.64-0.184 8.498-0.223 0.073-0.779 0.16-1.571 0.221-2.355 0.407-5.36 0.857-10.359 1.197-14.959 0.241-3.25 0.367-6.303 0.471-9.142 0.044-1.215-0.011-2.395-0.183-3.517-0.266-1.744-1.725-2.779-3.793-3.494-1.412-0.482-2.934-0.739-4.506-0.86-3.015-0.226-5.974-7e-3 -8.885 0.813-3.404 0.946-5.355 3.166-6.296 6.285-0.224 0.738-0.35 1.493-0.522 2.245-8e-3 0.237-0.018 0.465-0.027 0.703" fill="#bf1006"/>
    </g>
    <g transform="translate(265.66 88.356)">
     <path d="m0 0c-0.349 6.887-0.699 13.535-1.049 20.051 3.026 0.398 6.012 0.775 9.058 1.149 0.507-11.625 1.011-24.484 1.517-39.033-0.175-9e-3 -0.323-0.019-0.473-0.024-2.703-0.05-5.406-0.095-8.109-0.162-0.305-8e-3 -0.383 0.196-0.495 0.396-1.941 3.467-3.881 6.749-5.821 9.931-0.595 0.977-1.192 1.942-1.79 2.902-0.07 0.114-0.147 0.223-0.303 0.311-0.068-4.731-0.137-9.494-0.205-14.265-2.809-0.131-5.588-0.256-8.412-0.377-0.649 12.116-1.295 24.382-1.943 37.308 0.841 0.128 1.646 0.259 2.45 0.37 1.575 0.23 3.151 0.436 4.723 0.673 0.322 0.05 0.469-0.046 0.614-0.316 3.318-6.279 6.647-12.281 9.976-18.598 0.06-0.115 0.128-0.226 0.192-0.344 0.023 9e-3 0.047 0.019 0.07 0.028" fill="#bf1006"/>
    </g>
    <g transform="translate(204.58 76.874)">
     <path d="m0 0c0.259 0.015 0.582 0.034 0.853 0.049 0.106 2.426 0.765 4.955 1.182 7.658 0.621 4.002 1.313 8.349 1.974 13.009 0.232 1.64 0.459 3.322 0.708 5.038 0.019 0.132 0.193 0.328 0.302 0.343 3.393 0.403 6.787 0.803 10.18 1.218 0.069 8e-3 0.14 2e-3 0.239-1e-3 -0.326-1.928-0.647-3.795-0.972-5.629-1.528-8.64-3.056-16.396-4.586-23-0.598-2.586-1.204-4.99-1.788-7.211-0.06-0.23-0.173-0.29-0.487-0.294-3.954-0.022-7.908-0.04-11.862-0.054-1.051-3e-3 -2.102-0.024-3.189-0.032-3.239 8.141-6.466 19.189-9.703 33.688 0.139 0.024 0.257 0.046 0.378 0.056 3.138 0.259 6.276 0.539 9.415 0.852 0.259 0.026 0.375-0.039 0.447-0.34 2.246-9.318 4.505-17.239 6.741-24.003 0.137-0.418 0.113-0.874 0.168-1.347" fill="#bf1006"/>
    </g>
    <g transform="translate(345.63 88.99)">
     <path d="m0 0c1.593-0.011 3.096-6e-3 4.602-0.072 0.787-0.034 1.4 0.268 1.894 0.897 0.219 0.279 0.452 0.555 0.622 0.867 2.159 3.998 2.861 8.121 1.938 12.259-0.464 2.077-1.271 3.942-2.671 5.482-0.8 0.88-1.741 1.457-3.098 1.313-0.642-0.069-1.306-0.025-1.958-0.05-0.779-0.029-1.555-0.084-2.382-0.126 0.354-5.849 0.705-12.738 1.053-20.57m-8.116-9.257c-0.448 16.091-0.897 28.445-1.344 37.061 0.359 0.012 0.695 0.029 1.032 0.042 4.99 0.209 9.978 0.412 14.967 0.656 2.446 0.12 4.394-0.525 5.968-1.983 1.671-1.542 2.629-3.528 3.337-5.729 1.054-3.274 1.5-6.875 1.525-10.674 0.015-2.375-0.041-4.828-0.228-7.339-0.215-2.881-0.79-5.756-2.222-8.343-1.411-2.558-3.488-3.928-6.137-3.874-5.573 0.114-11.151 0.204-16.725 0.165-0.041-1e-3 -0.085 8e-3 -0.173 0.018" fill="#bf1006"/>
    </g>
    <g transform="translate(158.86 105.99)">
     <path d="m0 0c2.953 0.043 5.819 0.11 8.732 0.202 5e-3 -0.171 0.011-0.327 0.015-0.489 0.14-5.441 0.211-10.475 0.445-15.087 0.161-3.168 0.503-6.144 0.851-8.914 0.203-1.616 0.526-3.16 1.189-4.587 0.085-0.182 0.189-0.355 0.292-0.532 0.3-0.51 0.727-0.801 1.503-0.768 0.89 0.038 1.791-0.022 2.684-3e-3 2.067 0.047 3.547 1.024 3.796 2.705 0.107 0.725-3e-3 1.497-0.058 2.267-0.042 0.566-0.187 1.148-0.226 1.731-0.32 4.716-0.623 10.019-0.933 15.906-0.124 2.348-0.259 4.789-0.385 7.321-0.014 0.254-0.015 0.506-0.025 0.794 2.77 0.126 5.534 0.27 8.335 0.431 0.054-0.722 0.126-1.433 0.155-2.133 0.156-3.836 0.28-7.45 0.453-10.845 0.273-5.339 0.61-10.138 0.852-14.404 0.14-2.472-0.515-4.612-2.237-6.363-1.275-1.295-3.086-1.969-5.159-2.36-3.992-0.743-8.027-0.82-12.107 3e-3 -1.136 0.233-2.204 0.588-3.186 1.09-1.681 0.855-2.507 2.077-2.8 3.606-0.64 3.348-1.091 7.028-1.393 11.019-0.297 3.928-0.552 8.147-0.754 12.652-0.097 2.168-0.031 4.4-0.039 6.758" fill="#bf1006"/>
    </g>
    <g transform="translate(306.83 111.12)">
     <path d="m0 0c2.928 0.197 5.794 0.372 8.71 0.54-6e-3 -0.389-0.03-0.77-0.013-1.151 0.184-3.947 0.329-8.434 0.584-13.46 0.132-2.612 0.418-5.357 0.717-8.243 0.219-2.131 0.533-4.339 1.202-6.516 0.059-0.192 0.133-0.378 0.198-0.571 0.328-0.974 0.844-1.49 1.78-1.326 0.813 0.141 1.648 0.078 2.47 0.15 2.12 0.185 3.586 1.87 3.829 4.409 0.1 1.049-0.01 2.11-0.067 3.137-0.043 0.768-0.185 1.518-0.224 2.264-0.316 5.887-0.615 11.13-0.921 15.739-0.131 1.96-0.266 3.804-0.397 5.532-0.013 0.164-0.015 0.325-0.024 0.507 2.772 0.13 5.524 0.243 8.331 0.347 0.053-0.446 0.129-0.901 0.158-1.369 0.153-2.514 0.276-5.264 0.446-8.25 0.276-4.845 0.617-10.305 0.861-16.385 0.139-3.453-0.516-6.895-2.222-10.053-1.27-2.356-3.076-3.761-5.149-4.607-4.006-1.648-8.053-1.953-12.147-0.568-1.136 0.383-2.202 0.998-3.184 1.843-1.68 1.443-2.499 3.488-2.791 5.897-0.735 6.078-1.232 11.653-1.542 16.75-0.281 4.633-0.455 8.857-0.646 12.664-0.046 0.915 0.023 1.817 0.041 2.72" fill="#bf1006"/>
    </g>
    <g transform="translate(232.7 102.01)">
     <path d="m0 0c0.232-2.065 0.462-4.062 0.696-6.058 1.939 0.115 3.852 0.233 5.724 0.353 0.094-2.679 0.186-5.263 0.28-7.884-1.823-0.227-3.567-0.435-5.387-0.654 0.215-2.834 0.423-5.517 0.635-8.188 4.05 0.328 8.068 0.675 12.13 1.038 0.142-2.402 0.282-4.759 0.426-7.149-7.106-0.455-14.179-0.862-21.3-1.215-1.101 10.417-2.2 22.542-3.303 37.056 7.72 0.715 15.401 1.436 23.148 2.125 0.145-2.685 0.287-5.302 0.431-7.929-4.51-0.508-8.98-1.004-13.48-1.495" fill="#bf1006"/>
    </g>
    <g transform="translate(304.83 115.36)">
     <path d="m0 0c-0.135-2.134-0.267-4.385-0.403-6.897-2.733-0.212-5.438-0.432-8.186-0.672 0.531-8.511 1.057-18.557 1.582-30.318-3.393-0.248-6.752-0.507-10.156-0.772-0.481 11.554-0.953 21.571-1.431 30.35-3.186-0.353-6.335-0.718-9.548-1.1 0.078 2.758 0.154 5.405 0.231 7.997 9.294 0.531 18.557 0.999 27.911 1.412" fill="#bf1006"/>
    </g>
    <g transform="translate(144.84 45.898)">
     <path d="m0 0c2.07-0.233 4.088-0.182 6.098 0.139 1.303 0.208 2.569 0.536 3.708 1.244 1.011 0.628 1.718 1.485 1.909 2.678 0.444 2.784-0.869 5.042-3.539 5.999-2.896 1.037-5.852 0.758-8.882 0.305 0.236-3.468 0.469-6.887 0.706-10.365m13.23-7.91c3.09-4.358 6.154-8.679 9.254-13.05-3.476-2.189-6.93-4.363-10.42-6.561-0.122 0.195-0.232 0.357-0.329 0.526-3.333 5.816-6.671 11.629-9.985 17.456-0.291 0.513-0.621 0.709-1.208 0.57v-16.82c-3.537 0.192-7.033 0.381-10.554 0.572v45.372c0.168 8e-3 0.326 0.027 0.484 0.02 2.376-0.096 4.751-0.262 7.128-0.271 1.617-6e-3 3.235 0.214 4.854 0.325 4.159 0.287 8.263 0.106 12.163-1.573 4.396-1.892 6.837-5.271 7.435-9.99 0.372-2.937 0.184-5.843-0.71-8.675-1.194-3.782-3.713-6.295-7.433-7.626-0.172-0.061-0.342-0.126-0.513-0.191-0.033-0.012-0.064-0.032-0.166-0.084" fill="#bf1006"/>
    </g>
    <g transform="translate(259 28.169)">
     <path d="m0 0v-0.054c0.329 0 0.658-2e-3 0.988 1e-3 1.629 0.011 3.125 0.356 4.22 1.695 0.884 1.081 1.265 2.357 1.259 3.714-4e-3 1.052-0.212 2.102-0.293 3.156-0.261 3.371-0.51 6.743-0.752 10.116-0.049 0.689-0.11 1.388-0.051 2.073 0.154 1.792 0.247 3.574-0.196 5.342-0.427 1.702-1.412 2.687-2.787 2.736-0.639 0.022-1.282 0.022-1.92-0.012-3.142-0.166-4.81-1.651-5.19-4.769-0.19-1.556-0.181-3.138-0.248-4.708-0.2-4.695-0.492-9.391 0.048-14.082 0.149-1.291 0.391-2.565 0.99-3.738 0.485-0.952 1.196-1.547 2.342-1.475 0.528 0.032 1.06 5e-3 1.59 5e-3m15.387 13.051c0.075-3.018 0.183-6.035 0.215-9.054 0.022-2.069-0.437-4.062-1.268-5.959-1.292-2.955-3.506-4.911-6.566-5.878-5.126-1.62-10.305-1.833-15.497-0.359-2.252 0.639-4.272 1.708-5.696 3.675-0.868 1.199-1.142 2.599-1.371 4.004-1.105 6.769-1.543 13.588-1.42 20.44 0.07 3.914 0.336 7.82 1.413 11.615 0.223 0.787 0.533 1.553 0.845 2.311 0.819 1.986 2.31 3.066 4.421 3.508 4.147 0.869 8.318 1.22 12.537 0.856 2.172-0.187 4.298-0.615 6.31-1.512 2.408-1.073 3.953-2.804 4.556-5.437 0.811-3.543 1.301-7.117 1.375-10.745 0.051-2.487 9e-3 -4.976 9e-3 -7.464 0.046 0 0.091 0 0.137-1e-3" fill="#bf1006"/>
    </g>
    <g transform="translate(432.38 43.578)">
     <path d="m0 0c-0.093-3.639-0.192-7.278 0.343-10.896 0.171-1.159 0.43-2.299 1.046-3.32 0.466-0.773 1.113-1.22 2.063-1.199 0.877 0.02 1.756-0.042 2.633-0.044 1.647-5e-3 3.166 0.33 4.279 1.686 0.886 1.079 1.268 2.354 1.264 3.711-3e-3 1.052-0.211 2.103-0.293 3.156-0.261 3.389-0.512 6.78-0.755 10.171-0.048 0.671-0.108 1.352-0.049 2.018 0.157 1.792 0.266 3.578-0.198 5.341-0.423 1.61-1.249 2.91-3.488 2.756-0.365-0.026-0.732-3e-3 -1.097-0.015-3.171-0.104-4.983-1.623-5.296-4.767-0.285-2.853-0.311-5.731-0.452-8.598m20.549-2.378c0.076-3.018 0.184-6.037 0.214-9.055 0.02-2.069-0.443-4.061-1.277-5.957-1.289-2.932-3.486-4.879-6.526-5.846-5.143-1.637-10.338-1.847-15.548-0.366-2.232 0.635-4.235 1.698-5.656 3.643-0.875 1.196-1.157 2.593-1.386 3.997-1.117 6.841-1.558 13.734-1.421 20.659 0.076 3.841 0.341 7.674 1.404 11.397 0.225 0.786 0.526 1.554 0.836 2.313 0.822 2.007 2.322 3.1 4.456 3.545 3.657 0.761 7.337 1.118 11.061 0.957 2.379-0.103 4.722-0.46 6.977-1.289 2.929-1.078 4.804-3.001 5.451-6.159 0.704-3.431 1.202-6.876 1.269-10.375 0.048-2.487 0.01-4.976 0.01-7.464z" fill="#bf1006"/>
    </g>
    <g transform="translate(212.98 65.528)">
     <path d="m0 0c0.561-2.329 1.116-4.614 1.663-6.901 1.811-7.576 3.628-15.151 5.413-22.733 0.125-0.529 0.017-1.113 0.017-1.712h1.174c-0.202 1.723 0.359 3.344 0.667 4.995 1.051 5.652 2.149 11.296 3.231 16.942 0.528 2.761 1.057 5.521 1.586 8.281 0.035 0.177 0.081 0.352 0.124 0.545 4.191 0.107 8.356 0.213 12.607 0.321-3.502-15.271-6.862-29.924-10.371-45.226-6.069 0.086-12.133 0.173-18.236 0.26-3.327 15.181-6.521 29.758-9.854 44.965 4.02 0.089 7.966 0.175 11.979 0.263" fill="#bf1006"/>
    </g>
    <g transform="translate(379.03 48.964)">
     <path d="m0 0c-3.232-0.214-6.417-0.425-9.672-0.641 0.022 0.328 0.041 0.612 0.061 0.897 0.122 1.813 0.157 3.62-0.495 5.361-0.539 1.438-1.42 2.061-2.954 2.041-0.876-0.012-1.767 4e-3 -2.622-0.152-2.278-0.415-3.711-1.999-3.853-4.355-0.325-5.387-0.636-10.778-0.435-16.179 0.065-1.733 0.209-3.47 0.759-5.135 0.159-0.481 0.378-0.951 0.637-1.386 0.385-0.649 0.957-1.057 1.747-1.051 1.371 0.011 2.748-0.044 4.111 0.072 2.166 0.184 3.771 1.819 4.015 4.121 0.13 1.22 0.023 2.465 0.023 3.796 2.854 0.182 5.837 0.373 8.939 0.57 0.051-1.712 0.2-3.39 0.13-5.06-0.103-2.456-0.728-4.797-2.052-6.908-1.452-2.317-3.574-3.756-6.172-4.431-1.759-0.457-3.578-0.684-5.368-1.023-0.165-0.031-0.421-0.087-0.461-0.195-0.388-1.056-0.738-2.125-1.112-3.227 0.385-0.084 0.705-0.139 1.018-0.223 2.917-0.787 4.25-3.053 3.609-6.032-0.895-4.157-4.61-5.614-7.545-5.285-1.65 0.185-3.29 0.461-4.934 0.699-0.161 0.024-0.317 0.077-0.534 0.13 0.709 1.527 1.403 3.023 2.079 4.479 1.265-0.106 2.479-0.236 3.697-0.3 0.726-0.038 1.415 0.13 1.957 0.687 0.555 0.57 0.56 1.172-0.02 1.721-0.686 0.649-1.557 0.846-2.453 0.97-0.431 0.06-0.864 0.109-1.391 0.175 0.855 2.106 1.694 4.171 2.495 6.142-1.806 0.316-3.586 0.531-5.312 0.964-1.17 0.293-2.311 0.804-3.381 1.377-2.366 1.268-3.535 3.355-3.944 5.976-1.06 6.794-1.53 13.627-1.394 20.497 0.07 3.511 0.301 7.019 1.189 10.437 0.305 1.175 0.744 2.327 1.229 3.443 0.735 1.69 2.055 2.653 3.883 3.043 4.746 1.012 9.514 1.361 14.327 0.642 2.294-0.343 4.501-0.979 6.385-2.422 1.135-0.869 1.912-1.988 2.293-3.384 0.922-3.365 1.382-6.797 1.52-10.277 7e-3 -0.178 1e-3 -0.356 1e-3 -0.574" fill="#bf1006"/>
    </g>
    <g transform="translate(334.33 65.253)">
     <path d="m0 0c0.241 0.011 0.419 0.026 0.597 0.026 2.891 2e-3 5.782-9e-3 8.673 0.013 0.472 3e-3 0.626-0.112 0.632-0.603 0.054-4.189 0.125-8.378 0.207-12.566 0.12-6.146 0.309-12.29 0.359-18.436 0.03-3.696-0.958-7.119-3.427-9.988-1.523-1.77-3.524-2.757-5.733-3.351-5.015-1.351-10.028-1.498-15.006 0.165-1.846 0.617-3.481 1.595-4.703 3.172-0.997 1.286-1.285 2.802-1.456 4.355-0.815 7.386-1.182 14.802-1.323 22.227-0.081 4.205-7e-3 8.413 0.012 12.62 2e-3 0.657 0.082 1.314 0.116 1.971 0.014 0.275 0.089 0.43 0.418 0.428 3.22-0.011 6.44-8e-3 9.66-0.012 0.051 0 0.102-0.026 0.206-0.056v-0.525c-0.024-5.835-0.146-11.672-0.038-17.505 0.073-3.926 0.416-7.85 0.745-11.766 0.167-1.977 0.497-3.948 1.287-5.805 0.361-0.851 0.909-1.294 1.894-1.226 1.219 0.086 2.452-1e-3 3.67 0.1 2.023 0.169 3.538 1.72 3.99 3.809 0.255 1.179 0.164 2.349 0.042 3.539-0.16 1.561-0.218 3.135-0.253 4.705-0.168 7.462-0.312 14.925-0.469 22.388-0.016 0.762-0.065 1.524-0.1 2.321" fill="#bf1006"/>
    </g>
    <g transform="translate(402.94 40.173)">
     <path d="m0 0c-0.866 4.346-1.725 8.661-2.584 12.975-0.039-5e-3 -0.078-0.01-0.116-0.015-1.109-4.31-2.217-8.621-3.333-12.96zm-20.207-19.816c3.319 15.077 6.511 29.578 9.838 44.693 0.641 0.034 1.276 0.076 1.912 0.1 3.93 0.145 7.86 0.278 11.79 0.439 0.476 0.019 0.431-0.314 0.494-0.563 1.15-4.506 2.291-9.016 3.431-13.525 2.581-10.203 5.16-20.406 7.739-30.609 0.044-0.176 0.079-0.353 0.134-0.604h-0.621c-3.019 0-6.037 9e-3 -9.056-0.01-0.451-2e-3 -0.66 0.101-0.788 0.574-0.871 3.222-1.791 6.43-2.664 9.652-0.135 0.496-0.337 0.648-0.855 0.637-2.597-0.056-5.195-0.066-7.793-0.093-0.126-1e-3 -0.253-0.011-0.431-0.02-0.342-1.584-0.685-3.165-1.026-4.745-0.403-1.873-0.798-3.748-1.223-5.616-0.033-0.149-0.262-0.362-0.401-0.363-3.439-0.018-6.878-0.01-10.317-6e-3 -0.035 0-0.068 0.024-0.163 0.059" fill="#bf1006"/>
    </g>
    <g transform="translate(197.57 65.135)">
     <path d="m0 0c0.063-3.031 0.125-6.006 0.188-9.042h-15.904c0.193-2.331 0.381-4.601 0.572-6.923 2.288-0.134 4.541-0.265 6.752-0.395v-9.328h-6.366c0.133-3.48 0.26-6.835 0.389-10.25 4.772-0.089 9.499-0.177 14.298-0.267 0.065-2.931 0.129-5.845 0.195-8.824-8.386 0.064-16.72 0.128-25.127 0.193-0.772 14.851-1.543 29.674-2.318 44.582 9.125 0.085 18.19 0.169 27.321 0.254" fill="#bf1006"/>
    </g>
    <g transform="translate(289.85 30.548)">
     <path d="m0 0c5.931 0.497 11.772 0.986 17.648 1.479 0.771-3.663 1.534-7.283 2.321-11.021-10.212-0.301-20.366-0.6-30.604-0.902-0.457 15.217-0.894 29.779-1.352 45.033h10.891c0.364-11.477 0.728-22.986 1.096-34.589" fill="#bf1006"/>
    </g>
    <g transform="translate(412.38 74.918)">
     <path d="m0 0c-1.761-2.91-3.855-5.294-7.358-5.811-2.174-0.32-4.202 0.275-6.052 1.45-0.338 0.215-0.651 0.473-0.96 0.729-0.99 0.819-2.092 0.941-3.154 0.284-0.921-0.57-1.726-1.327-2.658-2.062-1.167 1.105-2.437 2.306-3.749 3.548 1.245 1.884 2.797 3.369 4.96 4.115 1.327 0.458 2.706 0.647 4.018 0.067 0.819-0.362 1.555-0.942 2.275-1.492 0.847-0.648 1.666-1.313 2.76-1.495 1.122-0.188 2.163-0.074 2.96 0.842 0.622 0.715 1.212 1.458 1.862 2.244 1.625-0.771 3.316-1.574 5.096-2.419" fill="#bf1006"/>
    </g>
   </g>
  </g>
 </g>
</svg>
