<?xml version="1.0" encoding="UTF-8"?>
<svg xmlns="http://www.w3.org/2000/svg" viewBox="0 0 225.5 48"><defs><style>.cls-1{fill:#fff;}.cls-2{fill:red;}</style></defs><g id="Camada_2" data-name="Camada 2"><g id="Camada_1-2" data-name="Camada 1"><path class="cls-1" d="M66.41,35.67H68.1v3.06H60V35.67h1.69V13.46H60V10.4h6.41Z"/><path class="cls-1" d="M73.44,38.73q-4,0-4-4.14V31.32c0-2.72,1.35-4.07,4-4.07H77.9V22.93c0-.72-.37-1.08-1.12-1.08H75.31c-.75,0-1.12.36-1.12,1.08v2.3H69.47v-2.3q0-4.11,4-4.11h5.22q3.95,0,4,4.11V35.67h1.7v3.06Zm.75-4.14c0,.72.37,1.08,1.12,1.08H77.9V30.31H75.2a.91.91,0,0,0-1,1Z"/><path class="cls-1" d="M91,38.73,85.89,21.85H84.06v-3h6l3.24,11.42,2.38-8.43H94.17v-3h6.41v3H98.71l-5,16.88Z"/><path class="cls-1" d="M106.74,35.67h1.69v3.06h-8.1V35.67H102V22.93q0-4.11,4-4.11h1.08V17.17h3v4.68h-2.24a1,1,0,0,0-1.11,1.08Z"/><path class="cls-1" d="M115.55,38.73q-4,0-4-4.14V31.32c0-2.72,1.34-4.07,4-4.07H120V22.93c0-.72-.37-1.08-1.12-1.08h-1.47c-.75,0-1.12.36-1.12,1.08v2.3h-4.71v-2.3q0-4.11,4-4.11h5.22q4,0,4,4.11V35.67h1.69v3.06Zm.75-4.14c0,.72.37,1.08,1.12,1.08H120V30.31h-2.7a.91.91,0,0,0-1,1Z"/><path class="cls-2" d="M126.17,18.82H137q4,0,4,4.11V34.59q0,4.14-4,4.14h-4.42v3.71h1.69V45.5h-8.1V42.44h1.69V21.85l-1.69,0Zm6.41,3V35.67h2.59a1,1,0,0,0,1.11-1.08V22.93a1,1,0,0,0-1.11-1.08Z"/><path class="cls-2" d="M147,38.73q-4,0-4-4.14V31.32c0-2.72,1.34-4.07,4-4.07h4.39V22.93a1,1,0,0,0-1.11-1.08h-1.48a1,1,0,0,0-1.11,1.08v2.3H143v-2.3q0-4.11,4-4.11h5.22q4,0,4,4.11V35.67h1.69v3.06Zm.76-4.14a1,1,0,0,0,1.11,1.08h2.59V30.31h-2.7c-.67,0-1,.35-1,1Z"/><path class="cls-2" d="M165.49,35.67h1.69v3.06h-8.1V35.67h1.69V13.46h-1.69V10.4h6.41Z"/><path class="cls-2" d="M172.52,38.73q-4,0-4-4.14V31.32c0-2.72,1.34-4.07,4-4.07H177V22.93a1,1,0,0,0-1.11-1.08h-1.48a1,1,0,0,0-1.12,1.08v2.3h-4.71v-2.3q0-4.11,4-4.11h5.22q4,0,4,4.11V35.67h1.69v3.06Zm.75-4.14a1,1,0,0,0,1.12,1.08H177V30.31h-2.7a.91.91,0,0,0-1,1Z"/><path class="cls-2" d="M190.05,38.73,185,21.85h-1.84v-3h6l3.24,11.42,2.37-8.43h-1.47v-3h6.4v3h-1.87l-5,16.88Z"/><path class="cls-2" d="M205.82,35.67h1.69v3.06h-8.1V35.67h1.7V22.93q0-4.11,4-4.11h1.08V17.17h3v4.68h-2.23c-.75,0-1.12.36-1.12,1.08Z"/><path class="cls-2" d="M214.63,38.73q-4,0-4-4.14V31.32c0-2.72,1.34-4.07,4-4.07h4.39V22.93A1,1,0,0,0,218,21.85H216.5a1,1,0,0,0-1.11,1.08v2.3h-4.72v-2.3q0-4.11,4-4.11h5.22q4,0,4,4.11V35.67h1.69v3.06Zm.76-4.14a1,1,0,0,0,1.11,1.08h2.59V30.31h-2.7c-.67,0-1,.35-1,1Z"/><path class="cls-2" d="M24,0A24,24,0,1,0,48,24,24,24,0,0,0,24,0Zm0,14.25L27.71,18,24,21.67,20.29,18ZM24,36.5,9.17,21.67,12.88,18,27.71,32.79Zm7.42-7.42-3.71-3.7L35.12,18l3.71,3.71Z"/></g></g></svg>