<?xml version="1.0" encoding="UTF-8"?>
<!-- Generator: Adobe Illustrator 16.0.0, SVG Export Plug-In . SVG Version: 6.00 Build 0)  -->
<svg width="220" height="53.53" enable-background="new 0 0 169 28.331" version="1.1" viewBox="0 0 220 53.53" xml:space="preserve" xmlns="http://www.w3.org/2000/svg">
<path d="m208.08 42.314-4.8238-4.3255c-5.6971 3.2486-12.285 2.8154-17.785-0.86274-0.12189-0.0675-0.2071-0.16095-0.36568-0.24615h-0.12308c-0.64854 0.74202-1.258 1.7184-1.6237 2.6935 0.30888 0.52545 1.155 0.9586 0.86274 1.7835-0.0675 0.30178-0.36687 0.55504-0.71362 0.64853-0.94795 0.0355-1.3527-1.0059-2.0273-1.5302-0.27219-0.29113-0.52545-0.43196-0.66628-0.74084l2.5432-6.9362 0.0935-0.0556c3.8296 3.3125 9.7244 5.0581 14.539 3.2462 0.6367-0.24379 1.4059-0.54439 1.8568-1.0426l-0.0284-0.11125c-2.0273-1.9432-4.2048-3.8758-6.3054-5.8001-0.22486-0.18817-0.36687-0.34675-0.59173-0.49705h-0.11243c-1.1089 1.0119-1.9716 2.2616-3.1338 3.2829l-0.12308-0.026-2.8166-2.516c0.91007-1.2391 2.0556-2.2438 3.032-3.5575l-0.0663-0.17752-0.8154-0.83552c0.32072-0.61066 0.84498-1.1077 1.4059-1.5858 0.45208 0.09349 0.61066 0.66628 1.1562 0.73137 0.79765-0.73137 1.3882-1.6793 2.2994-2.4308l3.8095 1.5385 0.0473 0.1219c-0.97517 1.2675-2.0841 2.2438-3.0592 3.548 0 0.03787 0.0272 0.09468 0.0923 0.17752 1.9622 1.7539 3.9243 3.445 5.98 5.161 0.52427 0.39528 0.86273 0.79883 1.3787 1.0994l0.18817-0.0462c2.1776-2.3385 2.8817-6.0261 2.2616-8.954-0.78699-4.909-3.8001-9.2913-7.6581-11.629-1.6048-1.0426-3.5942-1.8497-5.3883-2.3941 0.75149-0.15858 1.6521 0.13136 2.5066 0.27219 6.3433 1.6332 10.887 5.1622 13.514 10.896 2.2154 4.5054 1.9065 9.4428-1.0982 13.665l-0.85327 1.1077v0.12308c0.084 0.19645 0.29942 0.28166 0.44972 0.46864l4.0829 3.6036c-0.51716 0.75149-1.1633 1.4545-1.8403 2.1326l-0.0805-1e-3zm-191.22 1.2154c-2.2213-0.15622-3.4876-1.2154-4.7871-2.6474-4.4403-5.4202-0.89587-14.772 2.703-19.641 2.3101-2.7468 4.2876-4.0794 7.6001-5.4888 0.02722 0.01302 0.05562 0.02722 0.08166 0.04142 0 0.08284-1.1172 1.0012-1.6178 1.5113-2.4793 3.7847-11.089 25.283-1.8699 24.777 3.9847-0.66273 6.1918-4.6486 7.9149-7.9161 0.33728-0.75741 1.1906-3.1326 1.8201-5.1101 0.6296-1.9764 1.2166-3.9953 1.1787-5.0096-0.0142 0.06272-4.5693 0.88996-6.4806-0.56569-4.8273-3.2143 1.0545-10.788 5.6747-5.8096 0.81422 1.0758 1.3515 2.3444 1.5444 3.8344 0.07219 0.26273 0.09468 0.74558 0.23196 0.78936 0.86274-0.13136 2.7835-3.0462 2.9965-3.4379 0.21184-0.3219 0.86037-1.7326 1.2758-2.6202-0.47456 3.9823-2.7965 6.2356-4.3113 7.4664-0.85327 7.1149-5.1433 19.826-13.955 19.826zm10.372-20.026c-6.9244 0-4.8131-8.799 0.27456-6.2616 1.5728 1.1716 2.0959 3.1717 2.4131 5.1587 0 0.99292-2.1089 1.0343-2.6876 1.103zm34.996 12.148 4.0084-15.016c1.0332-3.2805-4.1042-3.0119-5.0415 1.4935l-5.2202 20.043-4.9705-0.0462c-0.28995-0.28994 4.3492-16.039 5.3303-19.973 0.93729-3.6001-2.1385-4.5516-4.3054-2.0829-0.3574 0.55859-0.73847 1.1775-0.93848 1.8959l-5.6178 20.248c-1.5444 0-3.0746-0.0485-4.606-0.0355l5.4107-20.647c2.2935-7.2664-7.522-3.8237-8.5706 1.9302h-0.1858c1.3622-6.1551 8.1268-10.638 13.648-4.6758 5.1137-4.7338 9.4747-2.2237 10.25-0.59883 4.5859-3.7977 10.922-1.3207 9.2996 4.6817l-3.7598 13.398c-0.64025 2.2864-0.39764 4.4983 2.5989 3.7054 0.97161-0.41894 1.7148-1.5539 2.1089-2.9385l4.2368-14.951 4.5516-0.0142-4.535 16.665c-1.1042 3.7504 4.9421 0.35385 6.1397-0.72309-1.7089-6.0273 1.4166-20.948 8.7682-22.162 5.0202-0.23551 4.5516 4.4403 3.3231 8.1374-0.05444 0.13728-2.8829 6.0403-3.2959 6.0403-0.09586 0.15148-2.1101 3.1728-2.2888 3.1728-0.92428 1.3929-2.5657 2.8722-3.7788 4.0864-1.5018 1.2947 1.271 3.8734 3.5575 3.2095 1.4201-0.36687 2.9279-1.3136 3.5302-2.703l4.7078-15.809 4.4095 0.12545-4.0143 15.104c-1.2225 3.8924 3.5255 2.6249 4.4308-0.49113l4.2652-14.682-1.7704 0.0024 1.2402-4.1646 1.5622-0.12308 0.60119-1.6036 4.5965 0.0059-0.45918 1.4769 1.9184 0.17397-1.2462 4.2474-1.645 0.0012-4.2131 14.741c-0.31598 1.5302-0.44142 3.806 2.0829 3.3515 1.032-0.41066 2.0557-1.3089 2.374-1.9728-0.79529-2.7788 0.89705-16.485 8.6865-16.204 3.8663-0.01065 4.5421 1.7622 4.8841 2.8675 0.46864-0.41421 0.80474-2.1267 1.0107-2.6782l4.6155-0.11479-4.1776 15.908c-1.0225 3.148 3.0971 2.4758 4.0983 0.0473l4.8533-11.617c3.1882-7.6344 9.5161-3.5918 9.8262-1.8332 1.942-3.3563 11.575-3.8947 10.216 2.3018l-2.9125 10.52c-0.62486 2.2557 3.8226 1.7444 4.3421-0.15859l4.1385-15.162-1.6509 0.0497 1.2592-4.3374 1.6864 0.02249 0.59764-1.9598 4.593 0.06036-0.52664 1.8178 1.8687 0.02249-1.0982 4.2794-1.8604 0.06154-3.9302 15.41c-1.2793 3.6521 4.0143 2.0758 5.5102 0.64262-0.16923-6.7658 1.9776-13.868 6.9161-15.827 3.8072-1.7657 6.2084 1.4698 4.9397 5.2758-1.8474 4.8013-5.1989 7.6806-8.8854 10.128 0.0698 5.9113 6.0711 0.0781 8.541-2.0983-1.0533 2.1278-8.1883 11.302-11.117 3.7989-3.5716 2.1799-8.8605 5.1539-11.177-0.25207-0.97989 2.3196-10.465 6.1682-8.9043-1.3823 0.0142 0 2.3728-8.2072 2.5515-9.2002 1.49-4.4959-2.7858-4.7161-4.5243-1.8059-1.2414 2.8-1.8048 6.3173-2.7421 9.3516-0.0828 0.46865-1.4355 5.5977-1.7385 5.806-1.6426-0.15148-3.2959-0.0142-4.8001-0.0272-0.24852-0.16686 1.0474-4.7042 1.2817-5.38 0.64853-2.9515 1.8758-5.9705 2.4-8.8972 0-2.8533-2.4131-2.3574-3.6415-0.7148-0.9515 1.6545-1.6545 3.5847-2.29 5.4604-0.0142 0-1.3929 3.6012-1.4497 3.8628-0.44024 0.86747-0.88049 1.7503-1.3231 2.6356-2.1219 3.0616-6.8404 5.103-9.515 1.5444-0.57989-0.19408-1.1456 0.45445-1.6426 0.71717-3.3788 2.303-6.0545 1.5574-8.206-1.5326-0.45563-0.30296-0.71717 0-1.0071 0.29113-2.3243 2.3219-7.4344 3.9089-9.4617-0.31835-2.5314 2.8107-6.4948 4.1669-8.4818-0.27574-6.5267 5.7741-8.8735 1.5752-9.5836 0.0237-6.7599 3.916-9.5422 3.7125-11.197 1.1302-1.9693 3.4557-11.523 2.9456-9.4593-4.7847zm107.88 1e-3c-0.42131-1.9054 2.7716-15.977 7.4842-11.459 1.4628 2.4415-1.6687 6.5658-3.4332 8.3303-0.69114 0.74439-3.0983 2.8947-4.051 3.129zm-53.006 4.9326c-4.316-0.85919-0.16569-13.498 1.7633-15.716 0.45444-0.91007 1.9977-1.3787 2.9788-1.0888 2.69 1.1858 1.9042 3.3527 1.4355 5.6143-0.23432 0-2.2355 9.1161-3.2817 10.165-0.75977 0.85326-1.8213 0.90179-2.8959 1.026zm-32.522-4.6214 4.9575-17.085c0.51835-1.7811 1.9314-2.7847 3.5515-1.2379 2.0131 3.0344-1.2012 8.3161-2.6071 11.145-0.5574 0.73019-3.6746 5.2817-5.9019 7.1788zm-5.7965-15.143c-3.3788-0.35859-2.69-4.0001-0.28995-5.2001 4.3598-1.3799 4.0971 4.6616 0.28995 5.2001zm20.507-0.25208c-3.3788-0.35859-2.69-4.0001-0.28876-5.2001 4.3575-1.3787 4.0959 4.6616 0.28876 5.2001z" clip-rule="evenodd" fill="#222" fill-rule="evenodd" stroke-width="1.1834"/>
</svg>
