<?xml version="1.0" encoding="UTF-8"?>
<svg width="741pt" height="307pt" version="1.1" viewBox="0 0 741 307" xmlns="http://www.w3.org/2000/svg">
 <path d="m142.51 118.68c-13.914-7.8125-30.16-23.441-39.531-36.863 6.0352 3.4961 14.664-9.6992 1.3867-13.773 1.4258-0.46484 2.6524-1.1172 3.5078-1.8867-12.559-3.0469-15.988-9.1367-14.465-25.504-4.5234 2.9492-6.5 6.8164-6.8359 10.914-2.8008 1.8672-4.0703 5.0508-4.0625 9.2266-14.211-2.4688-18.059 3.0273-20.312 9.1641-4.1836 11.422 4.9492 1.1445 3.4258 11.039-1.5195 9.8984 6.3711-0.72266 7.2344 7.6133 1.1406 11.039 4.1836-2.2852 8.3711 4.9492 4.1875 7.2305 6.8516 0.3789 5.3281-7.9922-0.82032-4.5156-1.4141-8.6914-1.375-12.004 4.4258 12.504 13.922 28.352 25.355 43.594 13.699 18.27 17.125 36.539-7.2305 62.801-46.816-22.457-86.781-24.738-79.93 42.629 15.984-40.727 44.531-47.195 63.941-40.344-43.77 0.75781-54.047 23.215-25.121 67.367-3.8047-36.922 3.4258-52.906 30.07-59.375-31.973 20.93-26.645 36.539 4.9453 61.66-21.313-35.777-3.1797-65.574 17.891-59.375 0.32422 0.0937 0.65235 0.17188 0.97656 0.25-2.582 7.4531-3.5 16.07-2.1641 22.992-2.0625 6.2461-5.0117 11.23-7.1875 13.676-4.5664-0.38281-7.9922-1.9062-9.5156-3.8086 1.1445 8.3711 6.4726 8.7539 9.8984 10.656 4.1875 11.418 6.4688 19.031 6.8516 24.363-4.1875 0.37891-7.2344 2.2812-7.2344 5.707h31.211c0-7.2344-12.176-6.0898-17.129-6.0898-4.1875-10.656-8.3711-25.5-7.9883-29.688 0.23438-2.6172 3.4414-7.4531 6.5547-11.922 16.305-3.4219 26.719-20.996 24.789-32.578 20.977-14.883 32.316-48.328-1.6562-67.398" fill="#ed1c24" fill-rule="evenodd"/>
 <path d="m109.97 135.8c0 14.629-11.855 26.484-26.484 26.484-14.625 0-26.488-11.855-26.488-26.484 0-14.633 11.863-26.488 26.488-26.488 14.629 0 26.484 11.855 26.484 26.488" fill="#fab50d" fill-rule="evenodd"/>
 <g fill="#ed1c24" fill-rule="evenodd">
  <path d="m564.22 224.11v-49.047h36.613v49.047h13.305v-92.168l-13.305-0.0312v29.844h-36.613v-29.844h-13.297v78.883h-25.227v-78.883h-13.305v78.98h-38.066v-30.738h16.672v-13.316h-16.672v-21.617h27.141v-13.309h-40.438v92.277z"/>
  <path d="m250.74 145.23v79.137h66.641v-79.098h19.215c9.9453 0 17.449 7.0508 17.449 16.395 0 3.8828-0.98437 9.3672-5.668 13.465-2.668 2.332-6.2734 3.9375-10.645 4.8555-0.92968 0.19531-1.8828 0.375-2.8789 0.50781-3.5117 0.46094-7.4375 0.53125-11.758 0.17969l1.2188 2.3476 41.527 80.086h14.996l-36.82-71c5.082-1.4961 9.5-3.7773 13.117-6.9726 6.5898-5.7578 10.211-14.102 10.211-23.469 0-16.66-13.508-29.695-30.75-29.695l-32.516-0.0547v79.152h-40.027v-30.863h16.504v-13.324h-16.504v-21.648h29.863v-13.316h-53.121l-27.922 88.328-27.93-88.328h-13.949l41.879 132.45 37.672-119.13z"/>
  <path d="m437.73 156.3v67.691h13.312v-93.145h-19.422l-20.152 65.609-20.156-65.609h-19.465v92.992h13.312v-67.688l26.309 85.648z"/>
  <path d="m668.13 145.26c-20.324 0-36.902 16.578-36.902 36.902s16.578 36.902 36.902 36.902c20.32 0 36.898-16.578 36.898-36.902s-16.578-36.902-36.898-36.902m0-13.359c27.68 0 50.262 22.578 50.262 50.262 0 27.684-22.582 50.262-50.262 50.262-27.688 0-50.266-22.578-50.266-50.262 0-27.684 22.578-50.262 50.266-50.262"/>
 </g>
</svg>
