<?xml version="1.0" encoding="UTF-8"?>
<!-- Created with Inkscape (http://www.inkscape.org/) -->
<svg width="153.77mm" height="64.123mm" version="1.1" viewBox="0 0 153.77 64.123" xmlns="http://www.w3.org/2000/svg">
 <defs>
  <clipPath id="clipPath11594">
   <path d="m0 1080h1920v-1080h-1920z"/>
  </clipPath>
  <clipPath id="clipPath12756">
   <path d="m0 1080h1920v-1080h-1920z"/>
  </clipPath>
  <clipPath id="clipPath11804">
   <path d="m0 1080h1920v-1080h-1920z"/>
  </clipPath>
  <clipPath id="clipPath12396">
   <path d="m0 1080h1920v-1080h-1920z"/>
  </clipPath>
  <clipPath id="clipPath11489">
   <path d="m0 1080h1920v-1080h-1920z"/>
  </clipPath>
  <clipPath id="clipPath12456">
   <path d="m0 1080h1920v-1080h-1920z"/>
  </clipPath>
  <clipPath id="clipPath11579">
   <path d="m0 1080h1920v-1080h-1920z"/>
  </clipPath>
  <clipPath id="clipPath12276">
   <path d="m0 1080h1920v-1080h-1920z"/>
  </clipPath>
  <clipPath id="clipPath10885">
   <path d="m0 1080h1920v-1080h-1920z"/>
  </clipPath>
  <clipPath id="clipPath12044">
   <path d="m0 1080h1920v-1080h-1920z"/>
  </clipPath>
  <clipPath id="clipPath11789">
   <path d="m0 1080h1920v-1080h-1920z"/>
  </clipPath>
  <clipPath id="clipPath12351">
   <path d="m0 1080h1920v-1080h-1920z"/>
  </clipPath>
  <clipPath id="clipPath12411">
   <path d="m0 1080h1920v-1080h-1920z"/>
  </clipPath>
  <clipPath id="clipPath12134">
   <path d="m0 1080h1920v-1080h-1920z"/>
  </clipPath>
  <clipPath id="clipPath11849">
   <path d="m0 1080h1920v-1080h-1920z"/>
  </clipPath>
  <clipPath id="clipPath12576">
   <path d="m0 1080h1920v-1080h-1920z"/>
  </clipPath>
  <clipPath id="clipPath10837">
   <path d="m0 1080h1920v-1080h-1920z"/>
  </clipPath>
  <clipPath id="clipPath12381">
   <path d="m0 1080h1920v-1080h-1920z"/>
  </clipPath>
  <clipPath id="clipPath11909">
   <path d="m0 1080h1920v-1080h-1920z"/>
  </clipPath>
  <clipPath id="clipPath12164">
   <path d="m0 1080h1920v-1080h-1920z"/>
  </clipPath>
  <clipPath id="clipPath11624">
   <path d="m0 1080h1920v-1080h-1920z"/>
  </clipPath>
  <clipPath id="clipPath12089">
   <path d="m0 1080h1920v-1080h-1920z"/>
  </clipPath>
  <clipPath id="clipPath11519">
   <path d="m0 1080h1920v-1080h-1920z"/>
  </clipPath>
  <clipPath id="clipPath11609">
   <path d="m0 1080h1920v-1080h-1920z"/>
  </clipPath>
  <clipPath id="clipPath10789">
   <path d="m0 1080h1920v-1080h-1920z"/>
  </clipPath>
  <clipPath id="clipPath12119">
   <path d="m0 1080h1920v-1080h-1920z"/>
  </clipPath>
  <clipPath id="clipPath11774">
   <path d="m0 1080h1920v-1080h-1920z"/>
  </clipPath>
  <clipPath id="clipPath10771">
   <path d="m0 1080h1920v-1080h-1920z"/>
  </clipPath>
  <clipPath id="clipPath12516">
   <path d="m0 1080h1920v-1080h-1920z"/>
  </clipPath>
  <clipPath id="clipPath12014">
   <path d="m0 1080h1920v-1080h-1920z"/>
  </clipPath>
 </defs>
 <g transform="translate(-27.569 -117.07)" fill="#a72823">
  <path transform="matrix(.35278 0 0 -.35278 -343.38 328.62)" d="m1104.2 457.56c-1.698 0.154-3.284 0.896-4.596 2.157-1.386 1.333-2.316 3.119-2.46 4.726-0.055 0.608 0.056 1.355 0.301 2.013 0.19 0.51 0.668 1.324 1.105 1.884 0.644 0.824 1.602 1.794 2.71 2.744 1.473 1.261 2.801 2.256 7.041 5.266 4.066 2.885 5.815 4.259 7.47 5.869 0.279 0.269 0.699 0.67 0.936 0.889 0.806 0.745 1.781 1.826 2.833 3.135 0.586 0.731 0.934 1.18 2.035 2.631 1.778 2.345 2.247 2.922 2.979 3.673 0.613 0.628 1.004 0.933 1.482 1.161 0.226 0.108 0.268 0.117 0.488 0.13 0.291 0.011 0.56-0.029 0.867-0.13 0.484-0.161 0.916-0.401 1.975-1.096 0.813-0.531 1.651-1.019 3.393-1.974 6.018-3.301 11.191-5.764 14.086-6.711 3.705-1.211 7.779-1.65 11.841-1.28 3.256 0.298 6.333 1.112 8.695 2.306 0.769 0.389 1.739 0.995 1.761 1.098 0 0.022-0.617 0.675-1.458 1.535-4.733 4.836-8.903 9.099-11.979 12.241-1.922 1.965-6.176 6.311-9.452 9.66-3.274 3.35-5.977 6.105-6.006 6.127-0.045 0.033-0.105-0.019-0.905-0.815-0.471-0.468-2.035-2.018-3.474-3.443-1.442-1.424-3.09-3.053-3.664-3.622-0.92-0.911-1.067-1.046-1.225-1.127-0.277-0.144-0.45-0.188-0.762-0.188-0.411 0-0.757 0.115-1.072 0.361-0.074 0.058-2.892 2.837-6.263 6.174-4.423 4.382-6.165 6.127-6.268 6.268-0.557 0.779-0.57 1.514-0.04 2.17 0.071 0.086 2.438 2.357 5.256 5.04 10.285 9.795 15.371 14.636 15.563 14.814 0.241 0.221 0.421 0.332 0.7 0.427 0.422 0.147 0.896 0.143 1.621-0.014 0.372-0.079 1.703-0.36 7.337-1.549 0.766-0.161 2.415-0.51 3.664-0.774 2.866-0.605 4.875-1.03 7.455-1.574 1.595-0.336 2.064-0.444 2.162-0.497 0.169-0.091 0.459-0.401 0.546-0.584 0.098-0.211 0.168-0.509 0.168-0.723 0-0.356 0.461 0.116-5.74-5.857-3.08-2.967-5.597-5.411-5.597-5.432 0-0.053 29.392-29.777 29.43-29.763 0.048 0.018 0.461 0.565 0.788 1.05 1.677 2.482 3.08 5.865 3.938 9.488 0.446 1.893 0.824 4.221 0.894 5.528 0.031 0.553 0 2.537-0.056 3.481-0.161 2.809-0.511 5.192-1.122 7.638-0.48 1.917-1.146 3.863-1.838 5.365-0.12 0.262-0.386 0.86-0.593 1.328-0.831 1.896-1.276 2.849-1.836 3.947-2.049 4.005-4.665 7.78-8.195 11.816-2.333 2.669-11.895 11.352-15.378 13.966-0.567 0.425-0.637 0.516-0.637 0.829 0 0.387 0.318 0.699 0.704 0.696 0.147 0 0.187-0.017 1.409-0.605 1.282-0.618 2.526-1.204 3.781-1.78 1.974-0.911 2.237-1.033 2.72-1.278 0.268-0.137 0.691-0.358 0.941-0.493 0.248-0.135 0.666-0.36 0.928-0.5 3.836-2.03 7.592-4.385 10.758-6.741 2.95-2.198 5.913-4.717 8.822-7.501 1.117-1.069 1.893-1.879 2.857-2.979 2.431-2.779 4.648-6.157 6.015-9.178 1.209-2.666 2.239-5.552 2.854-8.002 1.396-5.562 1.901-10.833 1.495-15.648-0.046-0.547-0.199-1.648-0.346-2.471-0.661-3.72-1.761-7.126-3.352-10.375-1.328-2.714-2.818-5.179-4.819-7.978-0.216-0.303-0.312-0.459-0.298-0.483 0.012-0.022 0.397-0.428 0.86-0.909 9.163-9.523 14.723-15.315 14.776-15.397 0.134-0.212 0.341-0.627 0.451-0.915 0.222-0.577 0.322-1.077 0.346-1.716 0.053-1.47-0.461-2.919-1.499-4.219-0.209-0.259-0.778-0.826-1.048-1.042-0.8-0.637-1.821-1.13-2.736-1.315-0.175-0.035-0.454-0.079-0.615-0.096-0.365-0.038-1.134-0.016-1.468 0.041-0.78 0.135-1.475 0.397-2.211 0.834l-0.333 0.199-1.768 1.781c-0.976 0.978-4.428 4.459-7.674 7.731-3.248 3.274-5.92 5.953-5.92 5.953s-0.458-0.281-0.951-0.625c-2.174-1.513-3.462-2.298-5.23-3.192-2.929-1.478-6.747-2.809-9.839-3.431-5.076-1.019-10.59-0.894-15.871 0.36-2.462 0.584-4.977 1.468-6.931 2.434-0.939 0.464-3.901 2.227-5.91 3.517-3.147 2.023-5.578 3.83-8.454 6.278-0.956 0.815-1.225 1.033-1.269 1.033 0 0-0.35-0.223-0.667-0.492-0.294-0.255-1.284-1.257-1.639-1.663-1.047-1.196-2.513-3.094-3.525-4.567-0.643-0.934-1.175-1.768-3.426-5.391-2.976-4.786-4.634-7.09-6.397-8.883-0.988-1.004-1.817-1.643-2.72-2.097-0.67-0.339-1.583-0.583-2.468-0.668-0.261-0.024-1.002-0.031-1.237-9e-3" clip-path="url(#clipPath11594)"/>
  <path transform="matrix(.35278 0 0 -.35278 -343.38 328.62)" d="m1262.2 529.39c0 5.015-4.196 8.802-10.03 8.802h-9.262v-17.758l9.262-0.051c5.885-0.051 10.03 3.941 10.03 9.007m-41.194 25.456c0 1.966 1.593 3.559 3.559 3.559h27.605c16.989 0 31.164-12.793 31.164-28.913 0-15.915-13.867-29.27-31.164-29.27h-9.262v-20.749c0-1.965-1.593-3.559-3.559-3.559h-14.784c-1.966 0-3.559 1.594-3.559 3.559z" clip-path="url(#clipPath12756)"/>
  <path transform="matrix(.35278 0 0 -.35278 -343.38 328.62)" d="m1289.1 517.16c0 24.409 19.752 43.19 45.441 43.19 9.551-0.137 19.719-3.9 27.807-10.217 1.537-1.2 1.787-3.432 0.589-4.971l-8.235-10.578c-1.179-1.515-3.356-1.856-4.909-0.727-4.625 3.365-10.126 5.461-15.2 5.461-12.691 0-23.284-9.671-23.284-22.311 0-12.793 11.053-22.209 22.823-22.209 5.754 0 11.01 2.272 15.681 5.78 1.567 1.177 3.793 0.853 4.97-0.715l8.245-10.981c1.15-1.532 0.895-3.717-0.608-4.904-7.53-5.947-17.093-9.905-28.288-9.905-23.283 0-45.032 17.194-45.032 43.087" clip-path="url(#clipPath11804)"/>
  <path transform="matrix(.35278 0 0 -.35278 -343.38 328.62)" d="m1416.1 503.7c0 4.811-3.479 7.728-9.671 7.728l-10.952 0.051v-15.659h10.798c5.015 0 9.825 2.456 9.825 7.88m-15.25 35.667h-5.373v-12.946h5.22c4.759 0 8.341 2.354 8.341 6.601 0 3.992-3.48 6.345-8.188 6.345m36.231-38.277c0-13.049-10.951-25.177-27.48-25.177h-31.648c-1.965 0-3.559 1.594-3.559 3.559v75.373c0 1.966 1.594 3.559 3.559 3.559h23.563c14.942 0 25.893-10.081 25.893-21.441 0-8.495-5.629-14.584-9.006-14.584 8.801 0 18.678-8.854 18.678-21.289" clip-path="url(#clipPath12396)"/>
  <path transform="matrix(.35278 0 0 -.35278 -343.38 328.62)" d="m1225.7 465.61c0 0.544-0.47 0.954-1.123 0.954h-1.037v-1.925l1.037-5e-3c0.659-6e-3 1.123 0.426 1.123 0.976m-4.611 3.145h3.488c1.902 0 3.489-1.387 3.489-3.134 0-1.725-1.553-3.174-3.489-3.174h-1.037v-2.635h-2.451z" clip-path="url(#clipPath11489)"/>
  <path transform="matrix(.35278 0 0 -.35278 -343.38 328.62)" d="m1232.5 462.6-0.945 2.119-0.951-2.119zm0.779-1.737h-3.448l-0.47-1.043h-2.681l4.291 9.054h1.162l4.297-9.054h-2.687z" clip-path="url(#clipPath12456)"/>
  <path transform="matrix(.35278 0 0 -.35278 -343.38 328.62)" d="m1239.8 464.83 1.002-5e-3c0.522-6e-3 0.997 0.349 0.997 0.898 0 0.555-0.481 0.899-0.997 0.899h-1.002zm2.48-5.015-2.469 3.883v-3.883h-2.451l-0.012 8.942h3.506c1.993 0 3.42-1.303 3.42-2.906 0-1.115-0.694-2.047-1.599-2.447l2.475-3.589z" clip-path="url(#clipPath11579)"/>
  <path transform="matrix(.35278 0 0 -.35278 -343.38 328.62)" d="m1252.1 466.54h-2.211v-6.724h-2.458v6.724h-2.217v2.219h6.886z" clip-path="url(#clipPath12276)"/>
  <path transform="matrix(.35278 0 0 -.35278 -343.38 328.62)" d="m1253.2 468.76h2.452v-8.943h-2.452z" clip-path="url(#clipPath10885)"/>
  <path transform="matrix(.35278 0 0 -.35278 -343.38 328.62)" d="m1262.8 464.28c0 1.403-1.008 2.257-2.664 2.257h-0.561v-4.488h0.584c1.639 0 2.641 0.844 2.641 2.231m2.458-6e-3c0-2.774-1.919-4.46-5.059-4.46h-3.013v8.937l3.013 5e-3c3.14 0.012 5.059-1.686 5.059-4.482" clip-path="url(#clipPath12044)"/>
  <path transform="matrix(.35278 0 0 -.35278 -343.38 328.62)" d="m1273.7 464.29c0 1.381-1.123 2.447-2.589 2.447-1.467 0-2.59-1.066-2.59-2.447 0-1.376 1.123-2.435 2.59-2.435 1.466 0 2.589 1.059 2.589 2.435m-7.659-0.016c0 2.684 2.2 4.721 5.07 4.721 2.869 0 5.069-2.037 5.069-4.721 0-2.663-2.2-4.688-5.075-4.688-2.87 0-5.064 2.025-5.064 4.688" clip-path="url(#clipPath11789)"/>
  <path transform="matrix(.35278 0 0 -.35278 -343.38 328.62)" d="m1280.6 464.29c0 2.646 2.21 4.682 5.086 4.682 1.192-0.016 2.469-0.521 3.414-1.353l-1.409-1.754c-0.567 0.499-1.317 0.827-1.999 0.827-1.421 0-2.606-1.049-2.606-2.419 0-1.387 1.237-2.408 2.555-2.408 0.773 0 1.466 0.355 2.062 0.872l1.397-1.803c-0.882-0.777-2.056-1.316-3.459-1.316-2.607 0-5.041 1.864-5.041 4.672" clip-path="url(#clipPath12351)"/>
  <path transform="matrix(.35278 0 0 -.35278 -343.38 328.62)" d="m1297 464.29c0 1.381-1.123 2.447-2.589 2.447-1.467 0-2.59-1.066-2.59-2.447 0-1.376 1.123-2.435 2.59-2.435 1.466 0 2.589 1.059 2.589 2.435m-7.658-0.016c0 2.684 2.199 4.721 5.069 4.721 2.869 0 5.069-2.037 5.069-4.721 0-2.663-2.2-4.688-5.075-4.688-2.87 0-5.063 2.025-5.063 4.688" clip-path="url(#clipPath12411)"/>
  <path transform="matrix(.35278 0 0 -.35278 -343.38 328.62)" d="m1310.6 468.84v-9.026h-2.452v3.545l-2.486-3.395h-0.017l-2.491 3.395v-3.545h-2.452v9.026h0.985l3.964-5.259 3.964 5.259z" clip-path="url(#clipPath12134)"/>
  <path transform="matrix(.35278 0 0 -.35278 -343.38 328.62)" d="m1312.1 463.07v5.692h2.469v-5.687c0-0.743 0.658-1.237 1.357-1.237 0.694 0 1.369 0.505 1.369 1.237v5.687h2.47v-5.692c0-2.052-1.719-3.501-3.833-3.501-2.113 0-3.832 1.449-3.832 3.501" clip-path="url(#clipPath11849)"/>
  <path transform="matrix(.35278 0 0 -.35278 -343.38 328.62)" d="m1329.3 468.77v-9.043h-0.779l-4.748 4.455v-4.371h-2.452v9.036h0.79l4.732-4.438v4.361z" clip-path="url(#clipPath12576)"/>
  <path transform="matrix(.35278 0 0 -.35278 -343.38 328.62)" d="m1330.9 468.76h2.452v-8.943h-2.452z" clip-path="url(#clipPath10837)"/>
  <path transform="matrix(.35278 0 0 -.35278 -343.38 328.62)" d="m1334.4 461.33 1.483 1.409c0.384-0.549 1.1-0.882 1.874-0.882 0.521 0 1.031 0.183 1.031 0.549 0 0.461-0.946 0.866-1.85 1.254-1.169 0.488-2.171 1.231-2.171 2.58 0 1.548 1.517 2.652 3.271 2.652 1.408 0 2.508-0.644 2.869-1.526l-1.415-1.321c-0.275 0.472-0.985 0.678-1.426 0.678-0.504 0-0.865-0.25-0.865-0.556 0-0.41 0.653-0.543 1.65-0.948 1.444-0.588 2.4-1.443 2.4-2.763 0-1.703-1.638-2.763-3.489-2.763-1.518 0-2.898 0.649-3.362 1.637" clip-path="url(#clipPath12381)"/>
  <path transform="matrix(.35278 0 0 -.35278 -343.38 328.62)" d="m1348.7 466.54h-2.211v-6.724h-2.457v6.724h-2.217v2.219h6.885z" clip-path="url(#clipPath11909)"/>
  <path transform="matrix(.35278 0 0 -.35278 -343.38 328.62)" d="m1353.8 462.6-0.944 2.119-0.952-2.119zm0.78-1.737h-3.449l-0.47-1.043h-2.68l4.29 9.054h1.163l4.296-9.054h-2.686z" clip-path="url(#clipPath12164)"/>
  <path transform="matrix(.35278 0 0 -.35278 -343.38 328.62)" d="m1366.9 462.83c0 0.521-0.39 0.838-1.083 0.838l-1.225 5e-3v-1.697h1.208c0.561 0 1.1 0.266 1.1 0.854m-1.707 3.866h-0.601v-1.403h0.584c0.533 0 0.934 0.255 0.934 0.715 0 0.433-0.39 0.688-0.917 0.688m4.056-4.149c0-1.415-1.226-2.73-3.077-2.73h-3.94v8.943h3.036c1.673 0 2.898-1.093 2.898-2.324 0-0.921-0.63-1.582-1.008-1.582 0.985 0 2.091-0.959 2.091-2.307" clip-path="url(#clipPath11624)"/>
  <path transform="matrix(.35278 0 0 -.35278 -343.38 328.62)" d="m1372.7 464.83 1.002-5e-3c0.522-6e-3 0.997 0.349 0.997 0.898 0 0.555-0.481 0.899-0.997 0.899h-1.002zm2.48-5.015-2.469 3.883v-3.883h-2.451l-0.012 8.942h3.506c1.993 0 3.42-1.303 3.42-2.906 0-1.115-0.693-2.047-1.599-2.447l2.475-3.589z" clip-path="url(#clipPath12089)"/>
  <path transform="matrix(.35278 0 0 -.35278 -343.38 328.62)" d="m1384.1 462.6-0.945 2.119-0.951-2.119zm0.779-1.737h-3.448l-0.47-1.043h-2.68l4.29 9.054h1.162l4.297-9.054h-2.687z" clip-path="url(#clipPath11519)"/>
  <path transform="matrix(.35278 0 0 -.35278 -343.38 328.62)" d="m1388.2 461.33 1.483 1.409c0.384-0.549 1.1-0.882 1.873-0.882 0.521 0 1.032 0.183 1.032 0.549 0 0.461-0.946 0.866-1.85 1.254-1.169 0.488-2.171 1.231-2.171 2.58 0 1.548 1.517 2.652 3.271 2.652 1.408 0 2.508-0.644 2.869-1.526l-1.415-1.321c-0.275 0.472-0.985 0.678-1.426 0.678-0.504 0-0.865-0.25-0.865-0.556 0-0.41 0.653-0.543 1.649-0.948 1.444-0.588 2.401-1.443 2.401-2.763 0-1.703-1.638-2.763-3.489-2.763-1.518 0-2.898 0.649-3.362 1.637" clip-path="url(#clipPath11609)"/>
  <path transform="matrix(.35278 0 0 -.35278 -343.38 328.62)" d="m1396.1 468.76h2.452v-8.943h-2.452z" clip-path="url(#clipPath10789)"/>
  <path transform="matrix(.35278 0 0 -.35278 -343.38 328.62)" d="m1406.2 462.05v-2.23h-5.986v8.942h2.452v-6.712z" clip-path="url(#clipPath12119)"/>
  <path transform="matrix(.35278 0 0 -.35278 -343.38 328.62)" d="m1409.6 466.55v-1.248h2.933v-1.981h-2.933v-1.281h3.563v-2.225h-5.986v8.943h5.986v-2.208z" clip-path="url(#clipPath11774)"/>
  <path transform="matrix(.35278 0 0 -.35278 -343.38 328.62)" d="m1414.6 468.76h2.452v-8.943h-2.452z" clip-path="url(#clipPath10771)"/>
  <path transform="matrix(.35278 0 0 -.35278 -343.38 328.62)" d="m1421.1 464.83 1.002-5e-3c0.521-6e-3 0.997 0.349 0.997 0.898 0 0.555-0.481 0.899-0.997 0.899h-1.002zm2.48-5.015-2.469 3.883v-3.883h-2.451l-0.012 8.942h3.506c1.993 0 3.42-1.303 3.42-2.906 0-1.115-0.694-2.047-1.599-2.447l2.475-3.589z" clip-path="url(#clipPath12516)"/>
  <path transform="matrix(.35278 0 0 -.35278 -343.38 328.62)" d="m1434.6 464.29c0 1.381-1.123 2.447-2.589 2.447-1.467 0-2.59-1.066-2.59-2.447 0-1.376 1.123-2.435 2.59-2.435 1.466 0 2.589 1.059 2.589 2.435m-7.659-0.016c0 2.684 2.2 4.721 5.07 4.721 2.869 0 5.069-2.037 5.069-4.721 0-2.663-2.2-4.688-5.075-4.688-2.87 0-5.064 2.025-5.064 4.688" clip-path="url(#clipPath12014)"/>
 </g>
</svg>
