<?xml version="1.0" encoding="UTF-8"?>
<svg width="1424" height="659" version="1.1" viewBox="0 0 1424 659" xmlns="http://www.w3.org/2000/svg">
 <rect width="1424" height="659" fill="#ce1920" stroke-linecap="round" stroke-width="4.6765" style="paint-order:markers stroke fill"/>
 <g fill="#fbe919">
  <path d="m375 166.62c-32.39-26.48-76.09-39.63-130.99-39.63h-189.01v419.02h102.25v-149.62h87.5c55.23 0 98.8-13.26 130.81-40.01 31.98-26.53 47.97-58.66 47.97-95.96s-16.15-67.35-48.53-93.79zm-136.41 147.22h-81.33v-104.37h66.12c36.36 0 62.01 3.75 76.97 11.41 15.09 7.64 22.59 21.21 22.59 40.79 0 34.79-28.07 52.17-84.36 52.17z"/>
  <path d="m834.66 431.5c-42.59 23.58-91.87 29.69-112.93 29.69-42.44 0-77.29-11.73-104.46-35.35s-40.77-53.55-40.77-89.81 13.79-65.75 41.4-89.1c27.51-23.21 62.99-34.9 106.49-34.9s64.85 5.56 109.33 25.99l31.2-75.07c-40.28-24.07-89.61-35.98-147.84-35.98-73.06 0-132.25 20.5-177.5 61.32-45.31 41.03-67.95 90.77-67.95 149.47s21.46 108.02 64.39 148.12c43 40.02 100.69 60.11 173.15 60.11 55.88 0 109.43-13.58 160.38-40.68l-34.9-73.81z"/>
  <path d="m1211.6 369.72c24.35-24.14 46.38-108.63-60.63-164.29 23.83 18.49 84.03 96.76 40.01 143.68l-74.45-74.45 27.62-27.62-45.16-3.95-46.92 46.92 24.56 24.56 21.49-21.49 71.64 71.65c-22.11 10.41-49.12 3.82-65.82-14.66l-5.8 5.8-9.48-2.8-3.39 3.39c-3.96 0.36-7.45 2.77-9.18 6.34-1.18 2.44-3.08 4.45-5.45 5.75-12.43 6.83-23.24 16.25-31.69 27.65-3.98 5.36-3.44 12.84 1.29 17.57 4.73 4.72 12.2 5.28 17.57 1.29 11.39-8.45 20.82-19.27 27.65-31.7 1.3-2.37 3.31-4.28 5.75-5.45 2.68-1.3 4.75-3.6 5.74-6.4 24.86 25.34 63.22 30.79 93.89 14.29l27.64 27.64c3.29 3.29 8.09 4.58 12.58 3.37 4.5-1.2 8.01-4.71 9.21-9.21 1.2-4.49-0.08-9.29-3.37-12.58z"/>
  <path d="m1335.6 298.28c-2.15-14.34-5.84-28.18-10.87-41.34l30.77-15.41-28.37-53.85-32.64 16.35c-9.07-11.38-19.36-21.75-30.68-30.91l17.94-30.81-53.92-28.37-17.41 28.25c-12.53-4.85-25.68-8.46-39.3-10.7v-31.74h-65.2v31.76c-13.62 2.25-26.78 5.87-39.33 10.73l-17.4-28.29-53.91 28.37 18.04 30.8c-11.32 9.16-21.62 19.53-30.7 30.93l-32.69-16.36-28.4 53.85 30.85 15.44c-5.03 13.16-8.71 26.99-10.87 41.31h-34.11v62.39h34.55c2.34 14.19 6.15 27.87 11.32 40.88l-31.75 15.83 28.4 53.91 34.31-17.16c8.95 10.96 19.04 20.92 30.1 29.75l-19.06 32.77 53.91 28.34 18.78-30.53c12.12 4.6 24.79 8.03 37.91 10.2v34.57h65.25v-34.56c13.12-2.15 25.8-5.59 37.91-10.17l18.8 30.49 53.92-28.34-19.02-32.72c11.08-8.84 21.18-18.82 30.15-29.79l34.25 17.15 28.37-53.91-31.67-15.81c5.17-13.01 8.99-26.7 11.33-40.9h34.56v-62.39h-34.11zm-197.05 179.8c-82.84 0-149.99-67.15-149.99-149.99s67.15-149.99 149.99-149.99 149.99 67.15 149.99 149.99-67.16 149.99-149.99 149.99z"/>
 </g>
</svg>
