<svg alt="Partido Comunista Português" role="img" fill="#b20000" xmlns="http://www.w3.org/2000/svg" height="271.2" viewBox="0 0 935.1 271.2" width="935.1"><title>Partido Comunista Português</title>
<path d="M925,53.2c-6.7-9.8-17-17.4-30.9-22.5c-13.9-5.2-31.1-7.7-51.7-7.7H723.8l-26.4,150h-73.5
c-9.2,26.8-24.9,40.2-47.1,40.2c-24.2,0-36.6-13.6-37.3-40.9c0.9-10.9,1.8-19,2.6-24.2c3.3-19.4,9.5-35.7,18.8-48.7
c9.3-13.1,21.6-19.6,36.8-19.6c9.2,0,17.6,2.7,25.3,8c7.7,5.4,11.1,15.7,10,30.9h73.3c0.4-16.8-1.6-32.1-6.1-45.8
c-4.4-13.7-14.3-25.5-29.6-35.2c-15.3-9.7-37-14.9-65.1-15.5c-18.8-0.4-38.1,3.8-57.9,12.8c-19.8,8.9-37.3,22.9-52.5,41.8
c-2.5,3.1-4.8,6.4-7.1,9.8c-0.5-13.1-3.8-24.2-10.1-33.3c-6.7-9.8-17.1-17.4-30.9-22.5c-13.9-5.2-31.1-7.7-51.7-7.7H276.8
l-43.7,247.8h81.1l13.4-77.3h41.6c43.1,0,74.6-11.5,94.5-34.5c-0.5,4.9-1,10.6-1.4,17c0.4,29.9,10,53.2,28.6,69.8
c18.6,16.7,44.7,25,78,25c21.4,0,40.8-4.1,58.4-12.4c17.5-8.3,32.4-20,44.6-35.2c11-13.6,19.1-28.5,24.5-44.7l-16.3,92.3h81.1
l13.4-77.3h41.6c66.9,0,105.8-27.7,116.9-83.1c1.4-7.4,2.1-14.2,2.1-20.6C935.1,75.2,931.7,63.1,925,53.2z M398.9,126.6
c-7,6-15.8,9.1-26.3,9.1h-35.1l10.3-55h24.1c25,0,37.5,7.2,37.5,21.6C409.4,112.5,405.9,120.5,398.9,126.6z M845.9,126.6
c-7,6-15.8,9.1-26.3,9.1h-35l10.3-55H819c25,0,37.5,7.2,37.5,21.7C856.4,112.5,852.9,120.5,845.9,126.6z"></path>
<path d="M188.7,223.7v-0.9l6.5-8.5c23-32.3,25.4-70.1,8.4-104.6c-20.1-43.9-54.9-70.9-103.5-83.4
C93.7,25.3,86.8,23,81,24.3c13.7,4.2,29,10.3,41.2,18.3c29.5,17.9,52.6,51.4,58.6,89c4.7,22.4-0.6,50.6-17.3,68.5l-1.4,0.3
c-3.9-2.3-6.5-5.4-10.5-8.4c-15.7-13.1-30.7-26.1-45.8-39.5c-0.5-0.6-0.7-1.1-0.7-1.4c7.5-10,16-17.5,23.4-27.2l-0.3-0.9L99,111.3
c-7,5.7-11.5,13-17.6,18.6c-4.1-0.5-5.4-4.9-8.8-5.6c-4.3,3.7-8.3,7.5-10.8,12.2l6.3,6.4l0.5,1.4c-7.5,10-16.2,17.7-23.2,27.2
l21.6,19.3l0.9,0.2c8.9-7.8,15.5-17.4,24-25.1h0.9c1.7,1.1,2.8,2.4,4.5,3.8c16.1,14.7,32.8,29.5,48.3,44.4l0.2,0.9
c-3.4,3.8-9.3,6.1-14.2,8c-36.9,13.9-82,0.5-111.3-24.9l-0.7,0.4L0,251.5c1.1,2.4,3,3.4,5.1,5.7c5.2,4,8.3,12,15.5,11.7
c2.7-0.7,5-2.7,5.5-5c2.2-6.3-4.2-9.6-6.6-13.6c2.8-7.5,7.5-14.9,12.4-20.6h0.9c1.2,0.6,1.9,1.4,2.8,1.9
c42.1,28.2,92.5,31.5,136.1,6.6l36.9,33.1h0.6c5.2-5.2,10.1-10.6,14.1-16.3l-31.3-27.6C191,225.9,189.4,225.3,188.7,223.7z"></path>
<path d="M22.8,58.4l23.3-15.7l20,14.8l-9.4-24.3l18.2-10.6H52.3L44.9,0l-8.6,22.6H15.1l18.4,11.6L22.8,58.4z M24.2,24.6
H39l6-15.7L50,24.7h15.6L53,32.1l6.6,16.9L45.7,38.6L29.5,49.5L37,32.7L24.2,24.6z"></path>
</svg>
