<svg viewBox="0 0 144.12 213.79" xmlns="http://www.w3.org/2000/svg"><g transform="translate(-40.12 -50.51)"><rect width="144.12" height="213.79" x="40.12" y="50.51" ry="15.78" fill="#ec3237"/><path d="m78.3 64.73 3.2 9.82h10.32l-8.35 6.07 3.19 9.81-8.36-6.06-8.35 6.06 3.2-9.81-8.36-6.07h10.32z" fill="#fef110"/><g fill="#fef110" stroke-width=".26" color="#000"><path style="-inkscape-font-specification:'KacstDecorative Bold Italic';-inkscape-stroke:none" d="m570.22 735.09-.29 1.47-6.94 35.7h12.35l2.24-11.63h4.19c2.9 0 5.38-.3 7.47-.94h.01a13.94 13.94 0 0 0 5.47-3.2v-.01a14.12 14.12 0 0 0 3.24-4.74c.75-1.81 1.13-3.73 1.13-5.71 0-3.28-1.26-6.17-3.65-8.1-2.4-1.95-5.6-2.84-9.38-2.84zm10.45 9.91h3.23c1.18 0 1.81.26 2.14.53v.01h.02c.34.3.5.57.5 1.39 0 1.47-.35 2.24-1 2.81-.65.58-1.7.98-3.45.98h-2.56z" transform="matrix(1.0221 0 0 1.0221 -514.9 -545.22)"/><path style="-inkscape-font-specification:'KacstDecorative Bold Italic';-inkscape-stroke:none" d="M164.81 194.33c-.8 0-1.57.18-2.28.54-.7.35-1.32.87-1.82 1.53a6.24 6.24 0 0 0-.96 1.88c-.22.68-.33 1.4-.33 2.16 0 1.19.37 2.21 1.09 2.95a3.8 3.8 0 0 0 2.83 1.11c.44 0 .9-.05 1.36-.16.47-.1.96-.25 1.46-.46l.23-.09.05-.27.53-2.98c-4.6 4.09-6.36-5.24.29-2.38l.53-2.96-.3-.16a6.4 6.4 0 0 0-1.35-.53 5.11 5.11 0 0 0-1.33-.18zM169.9 194.5l-1.92 9.83h3.26l.66-3.36h.33c.3 0 .44.07.52.13.08.07.23.29.35.68l.76 2.55h3.28l-.94-3.14a3.7 3.7 0 0 0-.62-1.32c-.06-.07-.16-.07-.22-.13.36-.17.79-.22 1.04-.53.48-.55.71-1.27.71-2.08a2.4 2.4 0 0 0-.95-2 4.18 4.18 0 0 0-2.5-.64zm2.75 2.62h.55c.34 0 .53.07.58.1v.01c.06.04.09.06.09.25 0 .38-.1.57-.25.7-.15.15-.4.25-.85.25h-.38z" transform="translate(-514.9 -545.22) scale(3.86309)"/></g><path d="m91.4 102.15-23.83 22.7 14.65 14.6 9.64-10.6 70.09 70.09s2.86.4 6.97-3.7c4.1-4.1 3.7-6.97 3.7-6.97l-70.1-70.09 13.36-12.22-24.48-3.8z" fill="#fef110"/><path d="M87.44 155.14 75.3 167.28s-2.88 3.13-6.78 4.2c-3.9 1.07-12.14 11.42-12.14 11.42s-1.53 3.97 2.01 7.51c3.54 3.55 7.65 2.7 9.17 1.18 1.52-1.52 7.68-6.9 9.39-11.61 1.71-4.7 2.6-4.85 2.6-4.85l7.23-7.23s16.2 29.58 54.48 14.6c0 0 13.95-6.97 20.11-24.09 6.17-17.11 8.03-41.38-16.89-59.33-7.35-5.2-15.09-9.5-23.54-11.62l-2.24-.38s33.15 27.86 29.9 51.79c-3.25 23.92-28.67 30.85-31.68 31.03-3 .18-13.99 1.3-29.48-14.76z" fill="#fef110"/></g></svg>