<?xml version="1.0" encoding="UTF-8"?>
<!-- Generator: Adobe Illustrator 28.1.0, SVG Export Plug-In . SVG Version: 6.00 Build 0)  -->
<svg version="1.1" id="Camada_1" xmlns="http://www.w3.org/2000/svg" xmlns:xlink="http://www.w3.org/1999/xlink" x="0px" y="0px" viewBox="0 0 310.98 81.59" style="enable-background:new 0 0 310.98 81.59;" xml:space="preserve">
<g>
	<path d="M27.07,62.68c0,4.99-2.59,9.12-7.68,9.12c-4.8,0-7.58-3.36-8.45-8.54v18.33H0V14.4h10.94v7.78   c0.86-5.18,3.65-8.54,8.45-8.54c5.09,0,7.68,4.13,7.68,9.12V62.68z M13.63,64.03c1.73,0,2.5-1.54,2.5-3.65V25.05   c0-2.11-0.77-3.65-2.5-3.65c-1.63,0-2.69,1.54-2.69,3.65v35.33C10.94,62.49,12,64.03,13.63,64.03z"/>
	<path d="M56.26,58.27c0,8.74-5.09,13.53-13.05,13.53c-8.45,0-13.73-4.9-13.73-13.63V27.36c0-8.74,5.28-13.73,13.44-13.73   c8.26,0,13.34,4.9,13.34,13.73v16.89H40.62v13.92c0,3.17,1.06,5.18,3.94,5.18c2.59,0,3.94-2.11,3.94-6.24v-8.16h7.78V58.27z    M40.62,37.15h4.7V26.11c0-2.78-0.48-4.8-2.4-4.8c-1.82,0-2.3,2.02-2.3,4.8V37.15z"/>
	<path d="M64.49,43.58c-3.74-3.17-6.05-6.34-6.05-11.33v-5.28c0-8.64,4.99-13.34,13.05-13.34c8.06,0,12.29,4.9,12.29,12.67v9.41   H73.9v-9.6c0-2.78-0.58-4.8-2.4-4.8c-1.82,0-2.3,2.02-2.3,4.8v4.61c0,2.98,1.54,4.32,3.94,6.62l4.99,4.32   c3.65,2.98,5.95,6.24,5.95,11.62v5.47c0,8.64-5.09,13.05-13.25,13.05c-8.16,0-12.57-4.9-12.57-12.67v-9.89h9.98v10.17   c0,2.78,0.77,4.7,2.59,4.7c1.82,0,2.4-1.92,2.4-4.7v-5.38c0-2.5-1.15-4.13-3.74-6.43L64.49,43.58z"/>
	<path d="M93.6,13.63c4.8,0,7.58,3.36,8.45,8.54V14.4h10.94v67.2h-10.94V63.26c-0.86,5.18-3.65,8.54-8.45,8.54   c-5.09,0-7.68-4.13-7.68-9.12V22.75C85.92,17.76,88.51,13.63,93.6,13.63z M102.05,25.05c0-2.11-1.06-3.65-2.69-3.65   c-1.73,0-2.5,1.54-2.5,3.65v35.33c0,2.11,0.77,3.65,2.5,3.65c1.63,0,2.69-1.54,2.69-3.65V25.05z"/>
	<path d="M131.59,14.4h11.04v56.64h-11.04v-7.87c-0.77,5.28-3.55,8.64-8.35,8.64c-5.09,0-7.58-4.22-7.58-9.21V14.4h10.94v45.98   c0,2.11,0.67,3.65,2.3,3.65c1.73,0,2.69-1.54,2.69-3.65V14.4z"/>
	<path d="M145.28,10.56V0h10.94v10.56H145.28z M145.28,71.03V14.4h10.94v56.64H145.28z"/>
	<path d="M164.38,43.58c-3.74-3.17-6.05-6.34-6.05-11.33v-5.28c0-8.64,4.99-13.34,13.05-13.34s12.29,4.9,12.29,12.67v9.41h-9.89   v-9.6c0-2.78-0.58-4.8-2.4-4.8c-1.82,0-2.3,2.02-2.3,4.8v4.61c0,2.98,1.54,4.32,3.94,6.62l4.99,4.32   c3.65,2.98,5.95,6.24,5.95,11.62v5.47c0,8.64-5.09,13.05-13.25,13.05s-12.58-4.9-12.58-12.67v-9.89h9.98v10.17   c0,2.78,0.77,4.7,2.59,4.7c1.82,0,2.4-1.92,2.4-4.7v-5.38c0-2.5-1.15-4.13-3.74-6.43L164.38,43.58z"/>
	<path d="M185.59,53.85c0-6.62,2.4-9.21,7.78-12.96c5.86-4.13,7.97-5.09,7.97-14.4c0-3.17-0.29-5.28-2.4-5.28   c-2.02,0-2.4,1.92-2.4,5.28v9.22h-10.17v-9.5c0-8.06,4.9-12.58,12.77-12.58c10.56,0,12.77,6.82,12.77,13.82v43.58h-4.32   c-3.65,0-6.05-1.82-6.05-6.91v-1.44c-0.48,6.24-3.74,8.83-8.06,8.83c-5.09,0-7.87-3.84-7.87-9.89V53.85z M196.25,59.23   c0,3.36,0.38,5.18,2.5,5.18c1.82,0,2.69-2.21,2.69-4.99V40.51c-0.77,1.54-2.02,2.59-3.36,4.42c-1.82,2.59-1.82,5.38-1.82,8.74   V59.23z"/>
	<path d="M215.28,15.36h-3.26V14.4h3.26V4.99c0-3.84,1.54-4.99,4.51-4.99h3.17v1.06h-3.36c-2.59,0-3.17,1.44-3.17,3.94v9.41h6.62   v0.96h-6.62v55.68h-1.15V15.36z"/>
	<path d="M223.49,55.1c0-6.43,2.88-9.6,6.53-13.44c4.03-4.61,7.3-9.98,7.3-16.03c0-7.97-1.63-10.85-5.95-10.85   c-4.32,0-6.43,3.65-6.43,10.56v10.18h-1.06V25.34c0-7.49,2.59-11.61,7.49-11.61c5.09,0,7.1,3.46,7.1,11.9v45.4h-0.19   c-0.86,0-0.96-0.48-0.96-1.63v-4.51c-0.29,3.17-2.69,6.62-6.82,6.62c-4.7,0-7.01-3.94-7.01-8.83V55.1z M224.65,62.59   c0,4.9,2.21,7.97,6.14,7.97c3.84,0,6.53-3.55,6.53-8.74V29.95c-0.48,3.17-3.36,8.83-6.72,12.48c-3.84,4.03-5.95,7.3-5.95,13.06   V62.59z"/>
	<path d="M256.9,62.59c0,5.09-2.4,9.12-7.1,9.12c-4.13,0-6.53-3.26-6.91-6.43v16.32h-1.15V14.4h1.15v5.76   c0.38-3.17,2.78-6.43,6.91-6.43c4.7,0,7.1,4.03,7.1,9.12V62.59z M249.32,70.65c4.03,0,6.43-3.07,6.43-8.54V23.33   c0-5.47-2.4-8.54-6.43-8.54c-3.65,0-6.43,3.26-6.43,8.54v38.78C242.89,67.39,245.67,70.65,249.32,70.65z"/>
	<path d="M275.26,60.28c0,6.91-2.4,11.42-7.87,11.42c-5.28,0-7.87-4.8-7.87-12.09V25.82c0-7.3,2.5-12.09,7.97-12.09   c5.38,0,7.78,4.8,7.78,12.09v16.22h-14.59v17.66c0,6.91,2.5,10.94,6.82,10.94c4.61,0,6.91-3.55,6.91-10.56V48.48h0.86V60.28z    M260.67,41.08h13.44V25.73c0-6.91-2.21-10.94-6.62-10.94c-4.61,0-6.82,4.03-6.82,10.94V41.08z"/>
	<path d="M282.1,39.45c-2.21-2.5-4.42-4.9-4.42-9.12v-5.18c0-7.01,2.3-11.42,7.68-11.42c5.18,0,7.1,4.42,7.1,11.61v10.18h-1.06   V25.44c0-7.1-1.73-10.66-6.05-10.66c-4.42,0-6.53,3.46-6.53,10.37v5.18c0,3.94,1.82,5.86,4.22,8.45l6.14,7.01   c2.3,2.69,3.74,5.28,3.74,8.83v5.18c0,7.49-2.11,11.9-7.49,11.9c-4.99,0-7.87-3.94-7.87-11.71V48.48h1.06V59.8   c0,7.3,2.5,10.85,6.82,10.85c4.51,0,6.33-3.55,6.33-10.85v-5.18c0-3.17-1.25-5.47-3.55-8.16L282.1,39.45z"/>
	<path d="M310.65,62.59c0,5.09-2.4,9.12-7.1,9.12c-4.13,0-6.53-3.26-6.91-6.43v16.32h-1.15V14.4h1.15v5.76   c0.38-3.17,2.78-6.43,6.91-6.43c4.7,0,7.1,4.03,7.1,9.12V62.59z M303.07,70.65c4.03,0,6.43-3.07,6.43-8.54V23.33   c0-5.47-2.4-8.54-6.43-8.54c-3.65,0-6.43,3.26-6.43,8.54v38.78C296.63,67.39,299.42,70.65,303.07,70.65z"/>
</g>
</svg>