<?xml version="1.0" encoding="UTF-8"?>
<svg width="720" height="360" version="1.1" viewBox="0 0 190.5 95.25" xmlns="http://www.w3.org/2000/svg" xmlns:cc="http://creativecommons.org/ns#" xmlns:dc="http://purl.org/dc/elements/1.1/" xmlns:rdf="http://www.w3.org/1999/02/22-rdf-syntax-ns#">
 <metadata>
  <rdf:RDF>
   <cc:Work rdf:about="">
    <dc:format>image/svg+xml</dc:format>
    <dc:type rdf:resource="http://purl.org/dc/dcmitype/StillImage"/>
   </cc:Work>
  </rdf:RDF>
 </metadata>
 <g transform="translate(0 -201.75)">
  <rect y="201.75" width="190.5" height="95.25" fill="#f00" style="paint-order:markers stroke fill"/>
  <g fill="#ff0" stroke-width="1.4586" aria-label="PSTU">
   <path d="m35.613 262.7v10.6h-12.532v-35.605h12.532v12.649q5.0363-2.6352 7.9643-5.739 2.401-2.5767 2.401-4.7434 0-2.2839-2.1082-3.1623-1.2883-0.46849-4.0407-0.46849h-19.091l2.9281-10.775h19.442q8.2571 0 12.298 4.0993 3.3965 3.3965 3.3965 9.077 0 6.3832-4.8606 11.946-5.7976 6.8516-18.33 12.122z"/>
   <path d="m87.688 225.45 2.9281 10.775h-11.771q-1.6983 0-2.5767 0.2928-0.81986 0.29281-0.81986 1.2884 0 0.76129 0.70273 1.8154l1.3469 1.5226 8.7256 9.6626q2.7524 3.0452 4.0993 5.1534 0.87842 1.5812 1.3469 3.1037t0.46849 3.1623q0 4.0407-2.4596 7.1445-3.3965 3.9236-10.424 3.9236h-14.582l-2.9281-10.775h12.591q1.6397 0 2.5181-0.29281t0.87842-1.2883q0-0.7613-0.70273-1.8154l-1.3469-1.5226-8.4914-9.604q-3.5722-4.0993-4.7434-6.5588-1.1127-2.6938-1.1127-4.9191 0-4.0407 2.4596-7.1444 3.3965-3.9236 10.424-3.9236z"/>
   <path d="m127.47 225.45 2.928 10.775h-13.352v37.069h-12.532v-37.069h-13.352l2.9281-10.775z"/>
   <path d="m169.76 225.45v47.844h-20.321q-9.7212 0-14.699-5.6804-4.275-5.1534-4.275-13.996 0-4.802 1.0541-9.604 1.1127-4.802 3.1037-9.5455l1.8154-4.1578 2.3424-4.8606h13.528l-3.5137 7.7301-2.1082 5.2119-1.6397 4.6263q-1.7568 5.9147-1.7568 10.424 0 5.7976 3.6894 7.9058 2.0496 1.1712 5.5633 1.1712h4.6849v-37.069z"/>
  </g>
 </g>
</svg>
