<svg width="238" height="47" viewBox="0 0 238 47" fill="none" xmlns="http://www.w3.org/2000/svg">
<path d="M40.8468 3.7292C41.3427 3.7292 41.7457 3.85035 42.0556 4.09264C42.3779 4.33493 42.5391 4.6299 42.5391 4.97754C42.5391 5.25143 42.4399 5.48846 42.2416 5.68861C42.0556 5.87823 41.8014 5.97304 41.4791 5.97304C41.2064 5.97304 40.9708 5.8993 40.7725 5.75182C40.5865 5.60434 40.4935 5.40418 40.4935 5.15135C40.4935 4.80372 40.7043 4.51929 41.1258 4.29806C41.039 4.19272 40.9088 4.14004 40.7353 4.14004C40.2518 4.14004 39.8117 4.30333 39.415 4.6299C39.0182 4.94593 38.7083 5.33571 38.4852 5.79922C38.262 6.26274 38.1504 6.69992 38.1504 7.11076V10.4607C38.1504 10.9453 38.3116 11.2824 38.6339 11.472C38.9686 11.6617 39.4645 11.7565 40.1216 11.7565V12.0883L39.6753 12.0725C38.4108 12.0409 37.6049 12.0251 37.2578 12.0251C36.9355 12.0251 36.204 12.0462 35.0635 12.0883V11.7565C35.5842 11.7565 35.9499 11.6775 36.1606 11.5194C36.3714 11.3509 36.4768 11.0507 36.4768 10.6187V5.67281C36.4768 5.18823 36.3714 4.83532 36.1606 4.6141C35.9499 4.39287 35.5842 4.28226 35.0635 4.28226V3.95042C35.4602 3.98203 35.8445 3.99783 36.2164 3.99783C36.9975 3.99783 37.6421 3.92409 38.1504 3.77661V5.75182C38.3736 5.22509 38.7269 4.75631 39.2104 4.34547C39.7063 3.93462 40.2518 3.7292 40.8468 3.7292Z" fill="black"/>
<path d="M50.306 10.1921C50.0828 10.7715 49.6613 11.2719 49.0415 11.6933C48.434 12.1041 47.6963 12.3095 46.8285 12.3095C45.9483 12.3095 45.1859 12.141 44.5412 11.8039C43.8965 11.4562 43.4006 10.9769 43.0535 10.3659C42.7188 9.74438 42.5514 9.02804 42.5514 8.21688C42.5514 7.30038 42.725 6.50503 43.0721 5.83083C43.4192 5.15662 43.9089 4.64043 44.5412 4.28226C45.1735 3.91355 45.9111 3.7292 46.7541 3.7292C47.8699 3.7292 48.7253 4.0189 49.3204 4.59829C49.9279 5.16716 50.2316 6.03625 50.2316 7.20557H44.411C44.3738 7.50054 44.3552 7.83764 44.3552 8.21688C44.3552 8.91216 44.4854 9.51789 44.7458 10.0341C45.0185 10.5503 45.3718 10.9506 45.8057 11.235C46.252 11.5089 46.7169 11.6459 47.2004 11.6459C47.7955 11.6459 48.3224 11.5247 48.7811 11.2824C49.2398 11.0401 49.6241 10.6345 49.9341 10.0657L50.306 10.1921ZM46.6798 4.02943C46.0971 4.02943 45.595 4.27173 45.1735 4.75631C44.752 5.2409 44.4916 5.95724 44.3924 6.90534H48.4464C48.4712 6.08365 48.3286 5.39891 48.0187 4.85112C47.7211 4.30333 47.2748 4.02943 46.6798 4.02943Z" fill="black"/>
<path d="M57.9087 3.99783C58.4542 3.99783 58.9253 3.98203 59.322 3.95042V4.26646C59.0741 4.28753 58.8509 4.38234 58.6526 4.55089C58.4666 4.71944 58.2868 4.99334 58.1133 5.37258L55.0635 12.1673H54.7474L51.3257 5.16716C51.1397 4.80898 50.96 4.57196 50.7864 4.45608C50.6129 4.3402 50.4331 4.28226 50.2471 4.28226V3.95042C50.8918 3.99256 51.4373 4.01363 51.8836 4.01363C52.8382 4.01363 53.644 3.99256 54.3011 3.95042V4.28226C53.8424 4.28226 53.5076 4.31386 53.2969 4.37707C53.0861 4.42974 52.9808 4.57723 52.9808 4.81952C52.9808 4.967 53.0489 5.19876 53.1853 5.51479L55.4726 10.3185L57.5182 5.75182C57.6546 5.43578 57.7228 5.18822 57.7228 5.00914C57.7228 4.76685 57.6112 4.59303 57.388 4.48768C57.1773 4.3718 56.8301 4.29806 56.3466 4.26646V3.95042C56.9913 3.98203 57.512 3.99783 57.9087 3.99783Z" fill="black"/>
<path d="M61.2958 0C61.6181 0 61.8971 0.100077 62.1326 0.300232C62.3682 0.500387 62.4859 0.737413 62.4859 1.01131C62.4859 1.28521 62.3682 1.52223 62.1326 1.72239C61.8971 1.92254 61.6181 2.02262 61.2958 2.02262C60.9735 2.02262 60.6945 1.92254 60.459 1.72239C60.2234 1.52223 60.1056 1.28521 60.1056 1.01131C60.1056 0.737413 60.2234 0.500387 60.459 0.300232C60.6945 0.100077 60.9735 0 61.2958 0ZM62.2628 10.6187C62.2628 11.0507 62.3682 11.3509 62.5789 11.5194C62.7897 11.6775 63.1554 11.7565 63.6761 11.7565V12.0883C62.5355 12.0462 61.7855 12.0251 61.426 12.0251C61.0664 12.0251 60.3164 12.0462 59.1758 12.0883V11.7565C59.6965 11.7565 60.0623 11.6775 60.273 11.5194C60.4838 11.3509 60.5891 11.0507 60.5891 10.6187V5.67281C60.5891 5.18823 60.4838 4.83532 60.273 4.6141C60.0623 4.39287 59.6965 4.28226 59.1758 4.28226V3.95042C59.5726 3.98203 59.9569 3.99783 60.3288 3.99783C61.1098 3.99783 61.7545 3.92409 62.2628 3.77661V10.6187Z" fill="black"/>
<path d="M67.9526 3.7292C68.3989 3.7292 68.7956 3.78714 69.1427 3.90302C69.4899 4.0189 69.7688 4.15585 69.9796 4.31386C70.1159 4.39814 70.2275 4.44028 70.3143 4.44028C70.5375 4.44028 70.6738 4.20852 70.7234 3.745H71.1511C71.1015 4.26119 71.0767 5.15662 71.0767 6.43129H70.649C70.5127 5.73602 70.2461 5.16189 69.8494 4.70891C69.4651 4.25592 68.8886 4.02943 68.12 4.02943C67.6737 4.02943 67.3079 4.14005 67.0228 4.36127C66.7377 4.57196 66.5951 4.86692 66.5951 5.24616C66.5951 5.61487 66.7439 5.92564 67.0414 6.17846C67.3389 6.42076 67.8162 6.71572 68.4733 7.06336C68.5849 7.11603 68.7522 7.20557 68.9754 7.33199C69.5457 7.64802 70.0044 7.92719 70.3515 8.16948C70.6986 8.41177 70.9776 8.69094 71.1883 9.00697C71.4115 9.323 71.523 9.68644 71.523 10.0973C71.523 10.7926 71.2131 11.3351 70.5932 11.7249C69.9858 12.1146 69.2357 12.3095 68.3431 12.3095C67.7852 12.3095 67.2955 12.2358 66.874 12.0883C66.6013 11.9724 66.3471 11.8302 66.1116 11.6617C66.062 11.6195 66.0062 11.5984 65.9442 11.5984C65.8574 11.5984 65.7769 11.6511 65.7025 11.7565C65.6405 11.8618 65.5909 12.0093 65.5537 12.1989H65.126C65.1756 11.5984 65.2004 10.545 65.2004 9.03857H65.6281C65.7645 10.0288 66.0124 10.7715 66.3719 11.2666C66.7315 11.7512 67.3451 11.9935 68.2129 11.9935C68.6469 11.9935 69.0312 11.8723 69.3659 11.6301C69.7006 11.3878 69.868 11.0085 69.868 10.4923C69.868 10.0815 69.7006 9.73385 69.3659 9.44942C69.0436 9.16499 68.5105 8.82261 67.7666 8.42231C67.1592 8.09574 66.6881 7.82711 66.3533 7.61642C66.031 7.40573 65.7583 7.14763 65.5351 6.84213C65.312 6.53664 65.2004 6.17846 65.2004 5.76762C65.2004 5.10395 65.4607 4.59829 65.9814 4.25066C66.5021 3.90302 67.1592 3.7292 67.9526 3.7292Z" fill="black"/>
<path d="M75.1892 3.96623H77.9414V4.28226H75.1892V10.3975C75.1892 10.8716 75.2884 11.2139 75.4868 11.4246C75.6975 11.6353 75.995 11.7407 76.3794 11.7407C76.7637 11.7407 77.0922 11.609 77.365 11.3456C77.6377 11.0823 77.8671 10.6503 78.053 10.0499L78.4249 10.1289C78.115 11.5826 77.3092 12.3095 76.0074 12.3095C75.5859 12.3095 75.2388 12.2674 74.9661 12.1831C74.6933 12.0988 74.4516 11.9672 74.2408 11.7881C73.9681 11.5563 73.7759 11.2719 73.6643 10.9348C73.5652 10.5977 73.5156 10.1447 73.5156 9.57583V4.28226H71.7304V3.96623H73.5156V1.54857C74.2098 1.5275 74.7677 1.45376 75.1892 1.32734V3.96623Z" fill="black"/>
<path d="M81.2611 12.1989C80.4801 12.1989 79.8974 12.0356 79.5131 11.7091C79.1412 11.372 78.9552 10.9084 78.9552 10.3185C78.9552 9.84446 79.104 9.45468 79.4015 9.14918C79.7114 8.84368 80.071 8.60139 80.4801 8.42231C80.9016 8.24322 81.4533 8.0536 82.1351 7.85344C82.8294 7.65329 83.3439 7.46894 83.6786 7.30038C84.0133 7.13183 84.1807 6.90534 84.1807 6.62091V5.64121C84.1807 5.03021 84.0257 4.6141 83.7158 4.39287C83.4183 4.16111 82.9968 4.04524 82.4513 4.04524C81.5835 4.04524 80.9698 4.23486 80.6103 4.6141C80.8582 4.66677 81.0628 4.77738 81.2239 4.94593C81.3975 5.11448 81.4843 5.32517 81.4843 5.578C81.4843 5.84136 81.3851 6.05205 81.1867 6.21007C80.9884 6.35755 80.7342 6.43129 80.4243 6.43129C80.0772 6.43129 79.8168 6.34175 79.6433 6.16266C79.4697 5.97304 79.3829 5.74655 79.3829 5.48319C79.3829 5.23036 79.4511 5.01967 79.5875 4.85112C79.7362 4.68257 79.9532 4.51402 80.2383 4.34547C80.5359 4.16638 80.914 4.0189 81.3727 3.90302C81.8314 3.78714 82.3335 3.7292 82.879 3.7292C83.846 3.7292 84.5774 3.92409 85.0733 4.31386C85.3832 4.55616 85.5878 4.85112 85.687 5.19876C85.7986 5.53586 85.8544 5.98358 85.8544 6.5419V10.9348C85.8544 11.1981 85.8977 11.3878 85.9845 11.5036C86.0713 11.6195 86.2201 11.6775 86.4308 11.6775C86.5796 11.6775 86.716 11.6511 86.8399 11.5984C86.9763 11.5352 87.1189 11.451 87.2677 11.3456L87.4722 11.6142C87.1499 11.8249 86.8709 11.9777 86.6354 12.0725C86.4122 12.1568 86.1271 12.1989 85.78 12.1989C85.1849 12.1989 84.7696 12.0725 84.534 11.8197C84.2985 11.5668 84.1807 11.2245 84.1807 10.7926C83.8088 11.3193 83.3811 11.688 82.8976 11.8987C82.4141 12.0988 81.8686 12.1989 81.2611 12.1989ZM82.0794 11.5668C82.8976 11.5668 83.598 11.1665 84.1807 10.3659V7.26878C84.0691 7.41626 83.9142 7.53741 83.7158 7.63222C83.5174 7.72703 83.2137 7.85344 82.8046 8.01146C82.3335 8.18001 81.9492 8.3433 81.6516 8.50131C81.3665 8.6488 81.1186 8.85422 80.9078 9.11758C80.697 9.38094 80.5917 9.71805 80.5917 10.1289C80.5917 10.6029 80.728 10.9611 81.0008 11.2034C81.2735 11.4457 81.633 11.5668 82.0794 11.5668Z" fill="black"/>
<path d="M5.37029 24.0585L5.8254 27.3229C8.67742 24.7234 11.5294 23.4237 14.3815 23.4237C17.4155 23.4237 19.3421 24.6327 20.1613 27.0508C22.801 24.6327 25.5316 23.4237 28.3533 23.4237C30.3861 23.4237 31.9335 23.9527 32.9954 25.0106C34.0574 26.0685 34.5883 27.61 34.5883 29.6351V46.4106H27.8982V31.7207C27.8982 30.7535 27.7313 30.0734 27.3976 29.6805C27.0638 29.2875 26.4419 29.0911 25.5316 29.0911C24.8035 29.0911 24.1056 29.2271 23.4381 29.4991C22.7706 29.7712 21.7997 30.3001 20.5254 31.086V46.4106H14.0629V31.7207C14.0629 30.7535 13.8657 30.0734 13.4712 29.6805C13.1071 29.2875 12.5003 29.0911 11.6508 29.0911C10.4675 29.0911 8.81395 29.7409 6.69011 31.0406V46.4106H0V24.0585H5.37029Z" fill="black"/>
<path d="M50.5594 23.4237C54.7464 23.4237 57.7047 24.3305 59.4341 26.144C61.1938 27.9274 62.0737 30.9651 62.0737 35.2572C62.0737 39.5493 61.1938 42.587 59.4341 44.3703C57.7047 46.1234 54.7464 47 50.5594 47C46.3421 47 43.3535 46.1234 41.5938 44.3703C39.8644 42.587 38.9997 39.5493 38.9997 35.2572C38.9997 30.9349 39.8644 27.882 41.5938 26.0987C43.3535 24.3154 46.3421 23.4237 50.5594 23.4237ZM50.5594 28.4563C48.7693 28.4563 47.5709 28.9097 46.9641 29.8165C46.3573 30.7233 46.0539 32.5368 46.0539 35.2572C46.0539 37.9171 46.3573 39.7004 46.9641 40.6072C47.5709 41.5139 48.7693 41.9673 50.5594 41.9673C52.2889 41.9673 53.457 41.5139 54.0638 40.6072C54.7009 39.7004 55.0195 37.9171 55.0195 35.2572C55.0195 32.5671 54.7161 30.7686 54.1093 29.8618C53.5025 28.9248 52.3192 28.4563 50.5594 28.4563Z" fill="black"/>
<path d="M88.7488 24.0585L81.376 44.8237C81.0119 45.8816 80.2838 46.4106 79.1915 46.4106H73.3661C72.2738 46.4106 71.5457 45.8816 71.1816 44.8237L63.8088 24.0585H70.954L75.0045 38.0682C75.3382 39.3075 75.6568 40.6374 75.9602 42.058H76.5519L77.5986 38.0682L81.6491 24.0585H88.7488Z" fill="black"/>
<path d="M93.9132 14.1746H96.9169C98.2216 14.1746 98.8739 14.8244 98.8739 16.1241V18.5724C98.8739 19.8722 98.2216 20.522 96.9169 20.522H93.9132C92.6086 20.522 91.9563 19.8722 91.9563 18.5724V16.1241C91.9563 14.8244 92.6086 14.1746 93.9132 14.1746ZM98.7829 46.4106H92.0928V24.0585H98.7829V46.4106Z" fill="black"/>
<path d="M109.859 24.0585L110.314 27.3229C113.166 24.7234 116.018 23.4237 118.87 23.4237C121.904 23.4237 123.831 24.6327 124.65 27.0508C127.289 24.6327 130.02 23.4237 132.842 23.4237C134.875 23.4237 136.422 23.9527 137.484 25.0106C138.546 26.0685 139.077 27.61 139.077 29.6351V46.4106H132.387V31.7207C132.387 30.7535 132.22 30.0734 131.886 29.6805C131.552 29.2875 130.93 29.0911 130.02 29.0911C129.292 29.0911 128.594 29.2271 127.927 29.4991C127.259 29.7712 126.288 30.3001 125.014 31.086V46.4106H118.551V31.7207C118.551 30.7535 118.354 30.0734 117.96 29.6805C117.596 29.2875 116.989 29.0911 116.139 29.0911C114.956 29.0911 113.302 29.7409 111.179 31.0406V46.4106H104.488V24.0585H109.859Z" fill="black"/>
<path d="M158.734 37.4788H150.633C150.846 39.111 151.331 40.2142 152.09 40.7885C152.879 41.3326 154.168 41.6046 155.958 41.6046C158.355 41.6046 161.146 41.4384 164.332 41.1059L164.969 45.2771C162.633 46.3954 159.371 46.9546 155.184 46.9546C150.967 46.9546 147.963 46.0478 146.173 44.2343C144.383 42.4207 143.488 39.4284 143.488 35.2572C143.488 30.8744 144.353 27.8065 146.082 26.0534C147.842 24.3003 150.785 23.4237 154.911 23.4237C158.643 23.4237 161.344 24.0736 163.012 25.3733C164.681 26.6428 165.531 28.5923 165.561 31.222C165.561 33.3076 165.015 34.8793 163.923 35.9373C162.861 36.9649 161.131 37.4788 158.734 37.4788ZM150.497 33.4436H156.868C157.688 33.4436 158.234 33.2471 158.507 32.8542C158.81 32.4613 158.962 31.887 158.962 31.1313C158.962 30.0734 158.689 29.348 158.143 28.9551C157.597 28.5319 156.595 28.3203 155.139 28.3203C153.41 28.3203 152.226 28.6679 151.589 29.3631C150.952 30.0281 150.588 31.3882 150.497 33.4436Z" fill="black"/>
<path d="M175.372 24.0585L175.872 27.3682C179.119 24.7385 182.32 23.4237 185.475 23.4237C187.508 23.4237 189.055 23.9527 190.117 25.0106C191.21 26.0685 191.756 27.61 191.756 29.6351V46.4106H185.066V31.7207C185.066 30.7233 184.899 30.0432 184.565 29.6805C184.262 29.2875 183.7 29.0911 182.881 29.0911C181.455 29.0911 179.377 29.7712 176.646 31.1313V46.4106H169.91V24.0585H175.372Z" fill="black"/>
<path d="M205.893 28.547V39.111C205.893 39.9573 206.075 40.5467 206.439 40.8792C206.803 41.2117 207.44 41.3779 208.35 41.3779H211.218L211.946 46.0478C210.216 46.6524 208.108 46.9546 205.62 46.9546C203.587 46.9546 202.009 46.3954 200.887 45.2771C199.764 44.1285 199.203 42.5416 199.203 40.5165V28.547H195.243V24.2851L199.203 24.0585V17.8017H205.893V24.0585H212.128V28.547H205.893Z" fill="black"/>
<path d="M226.47 23.4237C230.657 23.4237 233.615 24.3305 235.344 26.144C237.104 27.9274 237.984 30.9651 237.984 35.2572C237.984 39.5493 237.104 42.587 235.344 44.3703C233.615 46.1234 230.657 47 226.47 47C222.253 47 219.264 46.1234 217.504 44.3703C215.775 42.587 214.91 39.5493 214.91 35.2572C214.91 30.9349 215.775 27.882 217.504 26.0987C219.264 24.3154 222.253 23.4237 226.47 23.4237ZM226.47 28.4563C224.68 28.4563 223.481 28.9097 222.874 29.8165C222.268 30.7233 221.964 32.5368 221.964 35.2572C221.964 37.9171 222.268 39.7004 222.874 40.6072C223.481 41.5139 224.68 41.9673 226.47 41.9673C228.199 41.9673 229.367 41.5139 229.974 40.6072C230.611 39.7004 230.93 37.9171 230.93 35.2572C230.93 32.5671 230.627 30.7686 230.02 29.8618C229.413 28.9248 228.23 28.4563 226.47 28.4563Z" fill="black"/>
</svg>
