<?xml version="1.0" encoding="UTF-8"?>
<svg width="295" height="90" version="1.1" viewBox="0 0 295 90" xml:space="preserve" xmlns="http://www.w3.org/2000/svg"><rect width="295" height="90" fill="#da696a" stroke-linecap="round" stroke-linejoin="round" stroke-width="8.4644" style="paint-order:markers stroke fill"/><g fill="#fff" stroke-width="1.0638"><path d="m64.367 23.967c0.52755 0 0.95628 0.12888 1.286 0.38664 0.34287 0.25776 0.51436 0.57155 0.51436 0.94138 0 0.29137-0.10553 0.54353-0.31649 0.75646-0.19787 0.20172-0.4683 0.30258-0.81117 0.30258-0.29011 0-0.54074-0.07845-0.7517-0.23534-0.19787-0.15689-0.29681-0.36983-0.29681-0.6388 0-0.36982 0.22426-0.6724 0.67266-0.90776-0.09234-0.11206-0.23085-0.16811-0.41542-0.16811-0.51436 0-0.98255 0.17371-1.4046 0.52113-0.42213 0.3362-0.75181 0.75086-0.98915 1.244-0.23745 0.49311-0.35617 0.95819-0.35617 1.3953v3.5638c0 0.51553 0.17149 0.87415 0.51436 1.0759 0.35606 0.20181 0.88362 0.30266 1.5827 0.30266v0.35298l-0.47479-0.01681c-1.3452-0.03362-2.2026-0.05042-2.5718-0.05042-0.34287 0-1.1211 0.02245-2.3344 0.06723v-0.35298c0.55394 0 0.94298-0.08404 1.1671-0.25223 0.22426-0.17926 0.33638-0.49862 0.33638-0.95819v-5.2616c0-0.51551-0.11213-0.89095-0.33638-1.1263-0.22415-0.23535-0.61319-0.35302-1.1671-0.35302v-0.35302c0.42202 0.03363 0.83085 0.05044 1.2265 0.05044 0.83096 0 1.5167-0.07845 2.0574-0.23534v2.1013c0.23745-0.56035 0.6133-1.0591 1.1277-1.4961 0.52755-0.43707 1.1079-0.65561 1.7409-0.65561z"/><path d="m74.43 30.843c-0.23745 0.61638-0.68585 1.1487-1.3452 1.597-0.64628 0.43702-1.4311 0.65553-2.3543 0.65553-0.93638 0-1.7474-0.17926-2.4333-0.53787-0.68585-0.36989-1.2134-0.87979-1.5827-1.5298-0.35606-0.66119-0.53415-1.4233-0.53415-2.2862 0-0.975 0.18468-1.8211 0.55394-2.5384 0.36926-0.71724 0.89021-1.2664 1.5629-1.6474 0.67266-0.39224 1.4573-0.58836 2.3541-0.58836 1.187 0 2.097 0.30819 2.7301 0.92456 0.64628 0.60518 0.96936 1.5297 0.96936 2.7737h-6.1921c-0.03957 0.3138-0.05936 0.67242-0.05936 1.0759 0 0.73966 0.13851 1.3841 0.41553 1.9332 0.29011 0.54915 0.66596 0.975 1.1276 1.2776 0.47479 0.29138 0.96936 0.43713 1.4837 0.43713 0.63309 0 1.1936-0.12894 1.6816-0.3867 0.48798-0.25777 0.89681-0.68926 1.2266-1.2944zm-3.8577-6.556c-0.61989 0-1.154 0.25777-1.6024 0.77328-0.4484 0.51552-0.72543 1.2776-0.83096 2.2862h4.3128c0.02638-0.87414-0.12532-1.6026-0.455-2.1853-0.3166-0.58276-0.79138-0.87414-1.4244-0.87414z"/><path d="m82.518 24.253c0.58032 0 1.0815-0.01681 1.5035-0.05044v0.33621c-0.26372 0.02242-0.50117 0.12328-0.71213 0.30258-0.19787 0.17931-0.38915 0.47069-0.57372 0.87414l-3.2445 7.2284h-0.33628l-3.6401-7.447c-0.19787-0.38104-0.38904-0.63319-0.57372-0.75647-0.18457-0.12328-0.37585-0.18492-0.57372-0.18492v-0.35302c0.68585 0.04483 1.2662 0.06724 1.741 0.06724 1.0155 0 1.8728-0.02241 2.5718-0.06724v0.35302c-0.48798 0-0.84415 0.03362-1.0683 0.10086-0.22426 0.05603-0.33628 0.21294-0.33628 0.47069 0 0.15689 0.07245 0.40345 0.21755 0.73965l2.4333 5.1103 2.1762-4.8582c0.14511-0.33621 0.21766-0.59957 0.21766-0.79008 0-0.25776-0.11872-0.44267-0.35617-0.55474-0.22415-0.12328-0.59351-0.20172-1.1079-0.23534v-0.33621c0.68585 0.03363 1.2398 0.05044 1.6618 0.05044z"/><path d="m86.121 20c0.34287 0 0.63968 0.10646 0.89021 0.3194 0.25064 0.21293 0.37585 0.46509 0.37585 0.75647 0 0.29138-0.12521 0.54353-0.37585 0.75647-0.25053 0.21292-0.54734 0.31939-0.89021 0.31939s-0.63968-0.10647-0.89021-0.31939c-0.25064-0.21294-0.37596-0.46508-0.37596-0.75647 0-0.29138 0.12532-0.54354 0.37596-0.75647 0.25053-0.21293 0.54734-0.3194 0.89021-0.3194zm1.0287 11.296c0 0.45958 0.11213 0.77894 0.33628 0.95819 0.22426 0.16819 0.6133 0.25223 1.1672 0.25223v0.35298c-1.2134-0.04479-2.0113-0.06723-2.3937-0.06723-0.38255 0-1.1804 0.02245-2.3938 0.06723v-0.35298c0.55394 0 0.94308-0.08404 1.1672-0.25223 0.22426-0.17926 0.33628-0.49862 0.33628-0.95819v-5.2616c0-0.51551-0.11202-0.89095-0.33628-1.1263-0.22415-0.23535-0.6133-0.35302-1.1672-0.35302v-0.35302c0.42213 0.03363 0.83096 0.05044 1.2266 0.05044 0.83085 0 1.5167-0.07845 2.0574-0.23534z"/><path d="m93.203 23.967c0.47479 0 0.89681 0.06164 1.2661 0.18492 0.36936 0.12328 0.66606 0.26897 0.89032 0.43706 0.145 0.08966 0.26372 0.13449 0.35606 0.13449 0.23745 0 0.38245-0.24655 0.43521-0.73966h0.455c-0.05277 0.54914-0.07915 1.5017-0.07915 2.8578h-0.455c-0.145-0.73965-0.42862-1.3504-0.85064-1.8323-0.40883-0.4819-1.0221-0.72285-1.8398-0.72285-0.47479 0-0.86394 0.11768-1.1672 0.35302-0.3033 0.22414-0.455 0.53792-0.455 0.94137 0 0.39224 0.1583 0.72285 0.47479 0.99181 0.31649 0.25777 0.82426 0.57155 1.5233 0.94138 0.11872 0.05603 0.2967 0.15129 0.53415 0.28578 0.6067 0.3362 1.0947 0.63319 1.4639 0.89095 0.36926 0.25776 0.66606 0.55474 0.89021 0.89095 0.23745 0.3362 0.35606 0.72284 0.35606 1.1599 0 0.73968-0.32968 1.3168-0.98915 1.7315-0.64617 0.41457-1.4441 0.62192-2.3937 0.62192-0.59351 0-1.1145-0.0784-1.5629-0.23532-0.29011-0.1233-0.56053-0.27458-0.81106-0.45383-0.05277-0.04489-0.11213-0.06734-0.17808-0.06734-0.09234 0-0.17798 0.05606-0.25713 0.16819-0.06596 0.11202-0.11872 0.26894-0.1583 0.47064h-0.455c0.05277-0.63883 0.07915-1.7595 0.07915-3.3621h0.455c0.14511 1.0534 0.40883 1.8435 0.79128 2.3702 0.38255 0.51553 1.0353 0.7733 1.9585 0.7733 0.4617 0 0.87053-0.12894 1.2266-0.3866 0.35606-0.25777 0.53415-0.66128 0.53415-1.2104 0-0.43702-0.17809-0.80686-0.53415-1.1094-0.34287-0.30259-0.91-0.66682-1.7014-1.0927-0.64617-0.34742-1.1473-0.63319-1.5035-0.85733-0.34287-0.22414-0.63298-0.49871-0.87043-0.82371-0.23734-0.32499-0.35606-0.70603-0.35606-1.1431 0-0.70603 0.27692-1.244 0.83085-1.6138 0.55394-0.36983 1.253-0.55474 2.097-0.55474z"/><path d="m100.9 24.219h2.9279v0.3362h-2.9279v6.5056c0 0.50436 0.10553 0.86851 0.31659 1.0927 0.22415 0.22415 0.54064 0.33628 0.94958 0.33628 0.40883 0 0.75829-0.14011 1.0485-0.42032 0.2901-0.28011 0.53415-0.73968 0.73191-1.3784l0.39564 0.08404c-0.32968 1.5465-1.1869 2.3198-2.5718 2.3198-0.4484 0-0.81766-0.04479-1.1078-0.13447-0.29022-0.08968-0.54734-0.22968-0.7716-0.42021-0.29011-0.24659-0.49457-0.54915-0.6133-0.90776-0.10543-0.35862-0.15819-0.84053-0.15819-1.4457v-5.6315h-1.8991v-0.3362h1.8991v-2.572c0.73851-0.02241 1.332-0.10086 1.7804-0.23535z"/><path d="m107.36 32.978c-0.83085 0-1.4507-0.17372-1.8596-0.52106-0.39564-0.35862-0.59351-0.85181-0.59351-1.4794 0-0.5043 0.1583-0.91896 0.47479-1.244 0.32968-0.325 0.71223-0.58276 1.1474-0.77327 0.44841-0.19052 1.0353-0.39224 1.7606-0.60518 0.73862-0.21292 1.286-0.40904 1.642-0.58836 0.35607-0.17931 0.53415-0.42026 0.53415-0.72284v-1.0422c0-0.65-0.16489-1.0927-0.49457-1.328-0.31649-0.24655-0.7649-0.36982-1.3452-0.36982-0.92319 0-1.5761 0.20172-1.9585 0.60517 0.26373 0.05603 0.48139 0.1737 0.65277 0.35301 0.18468 0.17931 0.27702 0.40345 0.27702 0.67242 0 0.28017-0.10553 0.50431-0.31659 0.67241-0.21096 0.15689-0.48139 0.23534-0.81107 0.23534-0.36925 0-0.64628-0.09526-0.83085-0.28578-0.18468-0.20172-0.27702-0.44267-0.27702-0.72284 0-0.26897 0.0725-0.49311 0.21766-0.67242 0.15819-0.17931 0.38904-0.35862 0.69234-0.53793 0.31659-0.19052 0.71883-0.34742 1.2068-0.47069 0.48798-0.12328 1.0221-0.18492 1.6024-0.18492 1.0287 0 1.8068 0.20733 2.3344 0.62198 0.32968 0.25777 0.54734 0.57155 0.65287 0.94138 0.11872 0.35862 0.17808 0.83492 0.17808 1.4289v4.6733c0 0.28011 0.0461 0.48192 0.13841 0.60511 0.0923 0.1233 0.25064 0.185 0.47479 0.185 0.15829 0 0.3034-0.02808 0.43521-0.08415 0.1451-0.06723 0.29681-0.15681 0.4551-0.26894l0.21756 0.28574c-0.34287 0.22415-0.63968 0.3867-0.89022 0.48755-0.23744 0.08968-0.54074 0.13447-0.91 0.13447-0.63308 0-1.0749-0.13447-1.3255-0.4034-0.25053-0.26904-0.37585-0.63319-0.37585-1.0927-0.39564 0.56032-0.85064 0.95255-1.365 1.1767-0.51436 0.21287-1.0947 0.31936-1.741 0.31936zm0.87054-0.67245c0.87042 0 1.6155-0.42585 2.2354-1.2776v-3.2948c-0.11872 0.15689-0.28351 0.28578-0.49457 0.38664-0.21107 0.10086-0.53415 0.23534-0.96936 0.40345-0.50117 0.17931-0.91 0.35302-1.2266 0.52112-0.3033 0.1569-0.56702 0.37544-0.79128 0.65561-0.22425 0.28017-0.33627 0.6388-0.33627 1.0759 0 0.50426 0.145 0.88532 0.43521 1.1431 0.29011 0.25777 0.67255 0.3866 1.1474 0.3866z"/><path d="m26.626 45.594 0.48416 3.4728c3.0341-2.7654 6.0681-4.1481 9.1022-4.1481 3.2277 0 5.2772 1.2862 6.1487 3.8586 2.8082-2.5724 5.7131-3.8586 8.7149-3.8586 2.1626 0 3.8087 0.56277 4.9384 1.6882 1.1298 1.1254 1.6946 2.7653 1.6946 4.9197v17.846h-7.1171v-15.628c0-1.0289-0.17755-1.7524-0.53255-2.1704-0.35511-0.41808-1.0167-0.62702-1.9851-0.62702-0.77458 0-1.517 0.14468-2.2271 0.43404-0.71011 0.28947-1.743 0.85213-3.0986 1.6882v16.303h-6.875v-15.628c0-1.0289-0.20979-1.7524-0.62947-2.1704-0.38734-0.41808-1.0329-0.62702-1.9366-0.62702-1.2588 0-3.0179 0.69128-5.2773 2.0739v16.351h-7.1171v-23.779z"/><path d="m74.699 44.919c4.4543 0 7.6014 0.96468 9.4412 2.8939 1.872 1.8972 2.8081 5.1288 2.8081 9.6949 0 4.5661-0.93606 7.7977-2.8081 9.6948-1.8398 1.865-4.9869 2.7976-9.4412 2.7976-4.4865 0-7.6659-0.93255-9.5379-2.7976-1.8398-1.8971-2.7597-5.1287-2.7597-9.6948 0-4.5982 0.91989-7.846 2.7597-9.7431 1.872-1.8971 5.0514-2.8457 9.5379-2.8457zm0 5.3538c-1.9044 0-3.1793 0.48234-3.8248 1.447-0.64553 0.96468-0.9683 2.8939-0.9683 5.788 0 2.8297 0.32277 4.7268 0.9683 5.6915 0.64553 0.96457 1.9204 1.4469 3.8248 1.4469 1.8399 0 3.0826-0.48234 3.7281-1.4469 0.67777-0.96468 1.0167-2.8618 1.0167-5.6915 0-2.8618-0.32277-4.7751-0.9683-5.7398-0.64553-0.99681-1.9044-1.4952-3.7765-1.4952z"/><path d="m115.33 45.594-7.8434 22.091c-0.38734 1.1254-1.1619 1.6882-2.3239 1.6882h-6.1972c-1.162 0-1.9366-0.56277-2.3239-1.6882l-7.8434-22.091h7.6013l4.309 14.904c0.355 1.3184 0.69393 2.7332 1.0167 4.2445h0.62947l1.1135-4.2445 4.309-14.904z"/><path d="m120.82 35.079h3.1954c1.388 0 2.0819 0.69128 2.0819 2.0739v2.6046c0 1.3828-0.69394 2.074-2.0819 2.074h-3.1954c-1.3879 0-2.0818-0.69128-2.0818-2.074v-2.6046c0-1.3827 0.69393-2.0739 2.0818-2.0739zm5.1805 34.294h-7.1171v-23.779h7.1171z"/><path d="m137.78 45.594 0.48404 3.4728c3.034-2.7654 6.0681-4.1481 9.1021-4.1481 3.2277 0 5.2777 1.2862 6.1489 3.8586 2.8074-2.5724 5.7128-3.8586 8.7149-3.8586 2.1628 0 3.8085 0.56277 4.9383 1.6882 1.1298 1.1254 1.6947 2.7653 1.6947 4.9197v17.846h-7.117v-15.628c0-1.0289-0.17766-1.7524-0.53297-2.1704-0.35532-0.41808-1.017-0.62702-1.9851-0.62702-0.77447 0-1.517 0.14468-2.2266 0.43404-0.71064 0.28947-1.7436 0.85213-3.0989 1.6882v16.303h-6.8755v-15.628c0-1.0289-0.20958-1.7524-0.62873-2.1704-0.38723-0.41808-1.033-0.62702-1.9372-0.62702-1.2585 0-3.0181 0.69128-5.2766 2.0739v16.351h-7.1181v-23.779z"/><path d="m189.78 59.871h-8.6181c0.2266 1.7364 0.74256 2.91 1.55 3.521 0.83936 0.57883 2.2106 0.86819 4.1149 0.86819 2.55 0 5.5191-0.17681 8.9085-0.53053l0.67766 4.4374c-2.4851 1.1897-5.9553 1.7846-10.41 1.7846-4.4862 0-7.6819-0.96468-9.5862-2.8939-1.9042-1.9294-2.8564-5.1127-2.8564-9.5501 0-4.6626 0.92021-7.9263 2.7596-9.7913 1.8723-1.865 5.0032-2.7976 9.3926-2.7976 3.9702 0 6.8436 0.69138 8.6181 2.074 1.7755 1.3505 2.6798 3.4245 2.7117 6.222 0 2.2187-0.58085 3.8907-1.7426 5.0163-1.1298 1.0932-2.9702 1.6399-5.5202 1.6399zm-8.7628-4.2928h6.7777c0.87234 0 1.4532-0.20904 1.7436-0.62702 0.32234-0.41798 0.48404-1.0289 0.48404-1.8329 0-1.1254-0.29042-1.8971-0.87128-2.3151-0.58085-0.45021-1.6468-0.67532-3.1957-0.67532-1.8394 0-3.0989 0.36979-3.7766 1.1094-0.67766 0.70745-1.0649 2.1544-1.1617 4.341z"/><path d="m207.48 45.594 0.53191 3.521c3.4543-2.7976 6.8596-4.1963 10.216-4.1963 2.1628 0 3.8085 0.56277 4.9383 1.6882 1.1628 1.1254 1.7436 2.7653 1.7436 4.9197v17.846h-7.117v-15.628c0-1.0611-0.17766-1.7846-0.53298-2.1704-0.32234-0.41808-0.92021-0.62702-1.7915-0.62702-1.517 0-3.7277 0.72351-6.633 2.1704v16.255h-7.166v-23.779z"/><path d="m239.95 50.369v11.238c0 0.90032 0.19361 1.5273 0.58085 1.8811 0.38723 0.35372 1.0649 0.53053 2.033 0.53053h3.0511l0.77447 4.968c-1.8404 0.64319-4.083 0.96468-6.7298 0.96468-2.1628 0-3.8415-0.59489-5.0351-1.7846-1.1947-1.2219-1.7915-2.9101-1.7915-5.0645v-12.734h-4.2128v-4.5339l4.2128-0.24106v-6.6562h7.117v6.6562h6.633v4.775z"/><path d="m261.84 44.919c4.4543 0 7.6011 0.96468 9.4404 2.8939 1.8723 1.8972 2.8085 5.1288 2.8085 9.6949 0 4.5661-0.93617 7.7977-2.8085 9.6948-1.8394 1.865-4.9862 2.7976-9.4404 2.7976-4.4862 0-7.666-0.93255-9.5383-2.7976-1.8394-1.8971-2.7596-5.1287-2.7596-9.6948 0-4.5982 0.92021-7.846 2.7596-9.7431 1.8723-1.8971 5.0521-2.8457 9.5383-2.8457zm0 5.3538c-1.9042 0-3.1798 0.48234-3.8255 1.447-0.64468 0.96468-0.96809 2.8939-0.96809 5.788 0 2.8297 0.32341 4.7268 0.96809 5.6915 0.64574 0.96457 1.9213 1.4469 3.8255 1.4469 1.8394 0 3.0819-0.48234 3.7277-1.4469 0.67766-0.96468 1.017-2.8618 1.017-5.6915 0-2.8618-0.32234-4.7751-0.96808-5.7398-0.64575-0.99681-1.9043-1.4952-3.7766-1.4952z"/></g></svg>
