<?xml version="1.0" encoding="UTF-8" standalone="no"?>
<svg
   width="365"
   height="260"
   version="1.1"
   viewBox="0 0 365.00001 259.99999"
   xml:space="preserve"
   id="svg52"
   sodipodi:docname="rosalux.svg"
   inkscape:version="1.2.2 (b0a8486541, 2022-12-01)"
   xmlns:inkscape="http://www.inkscape.org/namespaces/inkscape"
   xmlns:sodipodi="http://sodipodi.sourceforge.net/DTD/sodipodi-0.dtd"
   xmlns="http://www.w3.org/2000/svg"
   xmlns:svg="http://www.w3.org/2000/svg"><defs
     id="defs56" /><sodipodi:namedview
     id="namedview54"
     pagecolor="#505050"
     bordercolor="#ffffff"
     borderopacity="1"
     inkscape:showpageshadow="0"
     inkscape:pageopacity="0"
     inkscape:pagecheckerboard="1"
     inkscape:deskcolor="#505050"
     showgrid="false"
     inkscape:zoom="1.7464971"
     inkscape:cx="175.20785"
     inkscape:cy="182.93761"
     inkscape:window-width="1920"
     inkscape:window-height="1009"
     inkscape:window-x="0"
     inkscape:window-y="41"
     inkscape:window-maximized="1"
     inkscape:current-layer="svg52" /><style
     type="text/css"
     id="style2">	.st0{fill:#ff3319;}</style><g
     fill="#ff3319"
     id="g50"
     transform="translate(-44.165001,-38.975)"><rect
       class="st0"
       x="60.330002"
       y="60"
       width="333"
       height="110.85"
       id="rect4" /><path
       class="st0"
       d="m 70.29,185.41 v 5.15 h 11.85 v 5.01 H 70.29 v 9.21 H 60 v -24.45 h 23 v 5.08 z"
       id="path6" /><path
       class="st0"
       d="m 113.8,199.95 c -0.78,1.39 -1.83,2.49 -3.15,3.3 -1.32,0.81 -2.87,1.38 -4.64,1.69 -1.77,0.32 -3.65,0.47 -5.64,0.47 -2.03,0 -3.93,-0.14 -5.71,-0.42 -1.77,-0.28 -3.32,-0.81 -4.64,-1.59 -1.32,-0.78 -2.36,-1.87 -3.12,-3.28 -0.76,-1.41 -1.13,-3.25 -1.13,-5.5 v -14.29 h 9.96 v 13.41 c 0,1.17 0.09,2.16 0.27,2.95 0.18,0.79 0.46,1.43 0.85,1.91 0.39,0.48 0.86,0.83 1.44,1.03 0.58,0.2 1.27,0.3 2.08,0.3 0.75,0 1.42,-0.1 2.02,-0.3 0.6,-0.2 1.1,-0.55 1.51,-1.03 0.41,-0.48 0.72,-1.12 0.93,-1.91 0.21,-0.79 0.32,-1.77 0.32,-2.95 v -13.41 h 9.82 v 14.29 c -0.01,2.17 -0.4,3.94 -1.17,5.33 z"
       id="path8" /><path
       class="st0"
       d="m 137.01,204.78 -8.67,-17.41 v 17.41 h -8.7 v -24.45 h 14.97 l 8.67,17.37 v -17.37 h 8.7 v 24.45 z"
       id="path10" /><path
       class="st0"
       d="m 188.18,192.59 c 0,2.46 -0.41,4.48 -1.24,6.05 -0.82,1.57 -2.01,2.81 -3.56,3.72 -1.55,0.92 -3.43,1.55 -5.64,1.9 -2.21,0.35 -4.7,0.53 -7.45,0.53 h -13.43 v -24.45 h 13.11 c 1.49,0 2.97,0.05 4.45,0.14 1.48,0.09 2.9,0.28 4.25,0.56 1.35,0.28 2.61,0.69 3.76,1.24 1.15,0.54 2.16,1.27 3.01,2.18 0.86,0.91 1.53,2.04 2.02,3.37 0.48,1.31 0.72,2.9 0.72,4.76 z m -10.63,0 c 0,-1.26 -0.18,-2.33 -0.52,-3.2 -0.35,-0.87 -0.85,-1.58 -1.49,-2.12 -0.64,-0.54 -1.42,-0.93 -2.34,-1.17 -0.91,-0.24 -1.93,-0.36 -3.03,-0.36 h -3.01 v 13.61 h 3.01 c 1.17,0 2.22,-0.12 3.13,-0.36 0.91,-0.24 1.69,-0.63 2.32,-1.17 0.63,-0.54 1.11,-1.24 1.44,-2.1 0.33,-0.84 0.49,-1.89 0.49,-3.13 z"
       id="path12" /><path
       class="st0"
       d="m 214.09,204.78 -1.83,-4.06 h -12.6 l -1.9,4.06 h -10.09 l 12.46,-24.45 h 12.84 l 12.46,24.45 z m -8.09,-18.26 -4.03,8.84 h 7.92 z"
       id="path14" /><path
       class="st0"
       d="m 255.43,199.12 c -0.46,1.02 -1.06,1.89 -1.79,2.62 -0.73,0.73 -1.59,1.34 -2.56,1.81 -0.97,0.47 -1.99,0.85 -3.06,1.12 -1.07,0.27 -2.18,0.46 -3.32,0.58 -1.14,0.11 -2.25,0.17 -3.34,0.17 l -1.49,1.63 0.07,0.07 c 0.18,-0.07 0.47,-0.14 0.88,-0.22 0.41,-0.08 0.84,-0.12 1.29,-0.12 1.04,0 1.86,0.22 2.47,0.66 0.61,0.44 0.91,1.13 0.91,2.08 0,1.04 -0.47,1.83 -1.42,2.39 -0.95,0.55 -2.31,0.83 -4.1,0.83 -0.86,0 -1.79,-0.07 -2.79,-0.22 -1,-0.15 -1.9,-0.34 -2.69,-0.59 l 0.71,-1.9 c 0.43,0.18 0.9,0.35 1.42,0.51 0.52,0.16 1.08,0.24 1.69,0.24 0.59,0 1.07,-0.1 1.46,-0.29 0.38,-0.19 0.58,-0.46 0.58,-0.8 0,-0.32 -0.13,-0.55 -0.39,-0.71 -0.26,-0.16 -0.59,-0.24 -1,-0.24 -0.32,0 -0.62,0.03 -0.9,0.08 -0.28,0.06 -0.51,0.13 -0.69,0.22 l -0.98,-1.05 2.61,-2.64 c -2.64,-0.14 -4.86,-0.54 -6.65,-1.2 -1.79,-0.67 -3.24,-1.55 -4.34,-2.66 -1.09,-1.11 -1.88,-2.42 -2.35,-3.93 -0.47,-1.51 -0.71,-3.18 -0.71,-5.01 0,-0.97 0.09,-1.96 0.27,-2.96 0.18,-1 0.5,-1.99 0.96,-2.95 0.46,-0.96 1.08,-1.86 1.86,-2.71 0.78,-0.85 1.77,-1.58 2.96,-2.2 1.2,-0.62 2.62,-1.12 4.28,-1.49 1.66,-0.37 3.6,-0.56 5.81,-0.56 1.83,0 3.63,0.16 5.42,0.47 1.79,0.32 3.38,0.85 4.79,1.59 1.41,0.75 2.56,1.74 3.44,2.98 0.88,1.24 1.34,2.8 1.39,4.67 H 245.7 c -0.16,-1.54 -0.62,-2.64 -1.37,-3.3 -0.76,-0.67 -1.88,-1 -3.37,-1 -0.95,0 -1.76,0.19 -2.44,0.58 -0.68,0.38 -1.24,0.91 -1.68,1.59 -0.44,0.68 -0.76,1.47 -0.96,2.37 -0.2,0.9 -0.3,1.87 -0.3,2.91 0,1.02 0.08,1.98 0.25,2.88 0.17,0.9 0.46,1.69 0.88,2.37 0.42,0.68 0.99,1.21 1.71,1.61 0.72,0.4 1.63,0.59 2.71,0.59 1.31,0 2.37,-0.32 3.17,-0.95 0.8,-0.63 1.28,-1.81 1.44,-3.52 h 10.5 c -0.09,1.39 -0.35,2.59 -0.81,3.6 z"
       id="path16" /><path
       class="st0"
       d="m 282.3,204.78 -1.83,-4.06 h -12.6 l -1.9,4.06 h -10.09 l 12.46,-24.45 h 12.84 l 12.46,24.45 z m -0.24,-29.48 c -0.2,0.64 -0.5,1.21 -0.9,1.71 -0.4,0.5 -0.89,0.89 -1.47,1.17 -0.59,0.28 -1.26,0.42 -2.03,0.42 -0.34,0 -0.71,-0.04 -1.1,-0.12 -0.4,-0.08 -0.8,-0.17 -1.22,-0.27 -0.42,-0.1 -0.83,-0.21 -1.24,-0.34 -0.41,-0.13 -0.77,-0.24 -1.08,-0.36 -0.25,-0.07 -0.58,-0.16 -1,-0.29 -0.42,-0.12 -0.75,-0.19 -1,-0.19 -0.34,0 -0.64,0.11 -0.91,0.32 -0.27,0.21 -0.44,0.49 -0.51,0.83 h -3.56 c 0.11,-1.67 0.57,-2.91 1.37,-3.73 0.8,-0.81 2.05,-1.22 3.74,-1.22 0.54,0 1.08,0.07 1.61,0.21 0.53,0.14 1.05,0.28 1.56,0.43 0.51,0.15 1.01,0.3 1.51,0.44 0.5,0.14 0.98,0.21 1.46,0.21 0.43,0 0.8,-0.1 1.1,-0.3 0.3,-0.2 0.48,-0.53 0.52,-0.99 h 3.46 c 0,0.74 -0.1,1.42 -0.31,2.07 z m -7.85,11.22 -4.03,8.84 h 7.92 z"
       id="path18" /><path
       class="st0"
       d="m 325.85,192.55 c 0,2.39 -0.45,4.41 -1.34,6.04 -0.89,1.63 -2.09,2.96 -3.61,3.98 -1.51,1.02 -3.25,1.74 -5.22,2.18 -1.96,0.44 -4.03,0.66 -6.2,0.66 -3.05,0 -5.62,-0.32 -7.71,-0.95 -2.09,-0.63 -3.78,-1.51 -5.06,-2.64 -1.29,-1.13 -2.21,-2.48 -2.76,-4.06 -0.55,-1.58 -0.83,-3.32 -0.83,-5.21 0,-2.44 0.44,-4.48 1.32,-6.13 0.88,-1.65 2.07,-2.97 3.57,-3.96 1.5,-0.99 3.24,-1.7 5.21,-2.13 1.98,-0.43 4.06,-0.64 6.25,-0.64 2.98,0 5.51,0.32 7.59,0.97 2.08,0.65 3.76,1.54 5.06,2.68 1.3,1.14 2.24,2.5 2.83,4.06 0.61,1.56 0.9,3.28 0.9,5.15 z m -10.5,0 c 0,-1.33 -0.15,-2.47 -0.44,-3.4 -0.29,-0.94 -0.69,-1.7 -1.2,-2.3 -0.51,-0.6 -1.12,-1.04 -1.85,-1.32 -0.72,-0.28 -1.5,-0.42 -2.34,-0.42 -0.86,0 -1.64,0.15 -2.35,0.44 -0.71,0.29 -1.33,0.75 -1.86,1.35 -0.53,0.61 -0.94,1.38 -1.24,2.32 -0.29,0.94 -0.44,2.05 -0.44,3.34 0,2.53 0.51,4.4 1.54,5.62 1.03,1.22 2.47,1.83 4.32,1.83 0.88,0 1.68,-0.14 2.4,-0.42 0.72,-0.28 1.34,-0.73 1.85,-1.34 0.51,-0.61 0.9,-1.38 1.19,-2.32 0.28,-0.95 0.42,-2.07 0.42,-3.38 z"
       id="path20" /><path
       class="st0"
       d="m 78.73,240.92 -0.85,-5.45 c -0.11,-0.75 -0.26,-1.35 -0.44,-1.81 -0.18,-0.46 -0.44,-0.81 -0.76,-1.05 -0.33,-0.24 -0.75,-0.39 -1.27,-0.47 -0.52,-0.08 -1.17,-0.12 -1.96,-0.12 H 70.2 v 8.91 H 60 v -24.45 h 17.37 c 1.67,0 3.17,0.14 4.5,0.42 1.33,0.28 2.47,0.71 3.4,1.29 0.94,0.58 1.65,1.32 2.15,2.24 0.5,0.92 0.75,1.99 0.75,3.23 0,0.88 -0.15,1.65 -0.44,2.32 -0.29,0.67 -0.69,1.22 -1.2,1.68 -0.51,0.45 -1.1,0.81 -1.78,1.08 -0.68,0.27 -1.39,0.45 -2.13,0.54 0.83,0.07 1.55,0.22 2.15,0.46 0.6,0.24 1.1,0.53 1.49,0.88 0.4,0.35 0.7,0.75 0.91,1.2 0.21,0.45 0.36,0.93 0.42,1.42 l 1.05,5.55 c 0.11,0.61 0.2,1.11 0.27,1.49 0.07,0.38 0.11,0.6 0.14,0.64 z m -0.65,-16.66 c 0,-1.08 -0.36,-1.85 -1.08,-2.3 -0.72,-0.45 -1.72,-0.68 -2.98,-0.68 h -3.83 v 6.06 h 3.83 c 1.24,0 2.23,-0.22 2.96,-0.68 0.74,-0.45 1.1,-1.25 1.1,-2.4 z"
       id="path22" /><path
       class="st0"
       d="m 123.94,228.7 c 0,2.39 -0.45,4.41 -1.34,6.04 -0.89,1.64 -2.09,2.96 -3.61,3.98 -1.51,1.02 -3.25,1.74 -5.22,2.18 -1.96,0.44 -4.03,0.66 -6.2,0.66 -3.05,0 -5.62,-0.32 -7.71,-0.95 -2.09,-0.63 -3.78,-1.51 -5.06,-2.64 -1.28,-1.13 -2.21,-2.48 -2.76,-4.06 -0.55,-1.58 -0.83,-3.32 -0.83,-5.21 0,-2.44 0.44,-4.48 1.32,-6.13 0.88,-1.65 2.07,-2.97 3.57,-3.96 1.5,-0.99 3.24,-1.7 5.22,-2.13 1.98,-0.43 4.06,-0.64 6.25,-0.64 2.98,0 5.51,0.32 7.59,0.97 2.08,0.64 3.76,1.54 5.06,2.67 1.3,1.14 2.24,2.5 2.83,4.06 0.6,1.56 0.89,3.28 0.89,5.16 z m -10.5,0 c 0,-1.33 -0.15,-2.47 -0.44,-3.4 -0.29,-0.94 -0.69,-1.7 -1.2,-2.3 -0.51,-0.6 -1.12,-1.04 -1.85,-1.32 -0.72,-0.28 -1.5,-0.42 -2.34,-0.42 -0.86,0 -1.64,0.15 -2.35,0.44 -0.71,0.29 -1.33,0.75 -1.86,1.35 -0.53,0.61 -0.94,1.38 -1.24,2.32 -0.29,0.94 -0.44,2.05 -0.44,3.34 0,2.53 0.51,4.4 1.54,5.62 1.03,1.22 2.47,1.83 4.32,1.83 0.88,0 1.68,-0.14 2.4,-0.42 0.72,-0.28 1.34,-0.73 1.85,-1.34 0.51,-0.61 0.9,-1.38 1.19,-2.32 0.28,-0.95 0.42,-2.07 0.42,-3.38 z"
       id="path24" /><path
       class="st0"
       d="m 155.64,233.57 c 0,1.17 -0.25,2.25 -0.76,3.22 -0.51,0.97 -1.34,1.81 -2.51,2.52 -1.16,0.71 -2.7,1.26 -4.61,1.66 -1.91,0.39 -4.25,0.59 -7.03,0.59 -2.08,0 -3.88,-0.1 -5.42,-0.3 -1.54,-0.2 -2.84,-0.49 -3.93,-0.86 -1.08,-0.37 -1.96,-0.81 -2.64,-1.32 -0.68,-0.51 -1.21,-1.07 -1.61,-1.69 -0.4,-0.62 -0.67,-1.28 -0.81,-1.98 -0.15,-0.7 -0.22,-1.42 -0.22,-2.17 h 10.43 c 0.07,1.24 0.42,2.18 1.07,2.83 0.64,0.64 1.69,0.97 3.13,0.97 0.54,0 1.06,-0.03 1.56,-0.1 0.5,-0.07 0.94,-0.19 1.34,-0.37 0.39,-0.18 0.71,-0.43 0.95,-0.76 0.24,-0.33 0.36,-0.75 0.36,-1.27 0,-0.47 -0.16,-0.87 -0.49,-1.19 -0.33,-0.32 -0.72,-0.58 -1.19,-0.78 -0.46,-0.2 -0.94,-0.37 -1.44,-0.49 -0.5,-0.12 -0.91,-0.23 -1.25,-0.32 l -6.6,-1.69 c -0.97,-0.25 -1.91,-0.52 -2.81,-0.81 -0.9,-0.29 -1.7,-0.67 -2.39,-1.13 -0.69,-0.46 -1.24,-1.04 -1.64,-1.74 -0.4,-0.7 -0.61,-1.59 -0.61,-2.68 0,-1.17 0.32,-2.25 0.95,-3.22 0.63,-0.97 1.55,-1.8 2.76,-2.49 1.21,-0.69 2.7,-1.22 4.49,-1.59 1.78,-0.37 3.83,-0.56 6.13,-0.56 2.55,0 4.7,0.17 6.43,0.51 1.74,0.34 3.15,0.84 4.25,1.51 1.09,0.67 1.9,1.48 2.42,2.46 0.52,0.97 0.83,2.1 0.95,3.39 h -10.1 c -0.11,-1.26 -0.51,-2.13 -1.2,-2.61 -0.69,-0.47 -1.63,-0.71 -2.83,-0.71 -1.08,0 -1.96,0.18 -2.64,0.54 -0.68,0.36 -1.02,0.92 -1.02,1.66 0,0.41 0.09,0.74 0.27,1.02 0.18,0.27 0.45,0.5 0.8,0.68 0.35,0.18 0.77,0.34 1.25,0.47 0.49,0.14 1.03,0.27 1.64,0.41 0.83,0.18 1.65,0.36 2.44,0.54 0.68,0.16 1.38,0.33 2.12,0.51 0.73,0.18 1.38,0.34 1.95,0.47 1.02,0.27 2.01,0.56 2.98,0.86 0.97,0.3 1.83,0.71 2.59,1.2 0.76,0.5 1.36,1.13 1.81,1.9 0.45,0.73 0.68,1.72 0.68,2.91 z"
       id="path26" /><path
       class="st0"
       d="m 182.56,240.92 -1.83,-4.06 h -12.6 l -1.9,4.06 h -10.08 l 12.46,-24.45 h 12.84 l 12.46,24.45 z m -8.09,-18.25 -4.03,8.84 h 7.92 z"
       id="path28" /><path
       class="st0"
       d="m 60,277.3 v -24.45 h 10.3 v 18.83 h 11.41 v 5.62 z"
       id="path30" /><path
       class="st0"
       d="m 111.7,272.48 c -0.78,1.39 -1.83,2.49 -3.15,3.3 -1.32,0.81 -2.87,1.38 -4.64,1.69 -1.77,0.32 -3.65,0.47 -5.64,0.47 -2.03,0 -3.93,-0.14 -5.71,-0.42 -1.77,-0.28 -3.32,-0.81 -4.64,-1.59 -1.32,-0.78 -2.36,-1.87 -3.12,-3.28 -0.76,-1.41 -1.13,-3.25 -1.13,-5.5 v -14.29 h 9.96 v 13.41 c 0,1.17 0.09,2.16 0.27,2.95 0.18,0.79 0.46,1.43 0.85,1.91 0.39,0.48 0.86,0.83 1.44,1.03 0.58,0.2 1.27,0.3 2.08,0.3 0.75,0 1.42,-0.1 2.02,-0.3 0.6,-0.2 1.1,-0.55 1.51,-1.03 0.41,-0.48 0.72,-1.12 0.93,-1.91 0.21,-0.79 0.32,-1.77 0.32,-2.95 v -13.41 h 9.82 v 14.29 c -0.01,2.16 -0.39,3.94 -1.17,5.33 z"
       id="path32" /><path
       class="st0"
       d="m 138.77,277.3 -5.66,-8.47 -5.89,8.47 h -12.46 l 10.7,-12.53 -10.13,-11.92 h 13.14 l 5.25,7.99 5.25,-7.99 h 12.56 l -10.3,11.92 10.87,12.53 z"
       id="path34" /><path
       class="st0"
       d="m 154.22,277.3 v -24.45 h 23.44 v 5.08 h -13.28 v 4.57 h 12.43 v 5.01 h -12.43 v 4.71 h 13.41 v 5.08 z"
       id="path36" /><path
       class="st0"
       d="M 213.48,277.3 V 258 l -6.54,19.3 H 196.85 L 190.31,258 v 19.3 h -8.7 v -24.45 h 15.58 l 5.15,16.63 5.11,-16.63 h 15.58 v 24.45 z"
       id="path38" /><path
       class="st0"
       d="m 256.19,270.56 c 0,1.42 -0.32,2.57 -0.95,3.45 -0.63,0.88 -1.45,1.56 -2.46,2.05 -1,0.49 -2.12,0.81 -3.34,0.98 -1.22,0.17 -2.4,0.25 -3.56,0.25 H 227.9 v -24.45 h 16.7 c 3.7,0 6.38,0.55 8.04,1.64 1.66,1.1 2.49,2.67 2.49,4.72 0,0.95 -0.15,1.74 -0.44,2.37 -0.29,0.63 -0.7,1.16 -1.22,1.57 -0.52,0.42 -1.12,0.76 -1.81,1.02 -0.69,0.26 -1.44,0.49 -2.25,0.69 0.81,0.09 1.62,0.25 2.42,0.47 0.8,0.22 1.52,0.56 2.17,1 0.65,0.44 1.17,1 1.57,1.68 0.42,0.7 0.62,1.55 0.62,2.56 z m -11.18,-10.6 c 0,-0.41 -0.06,-0.78 -0.17,-1.12 -0.11,-0.34 -0.32,-0.63 -0.61,-0.86 -0.29,-0.24 -0.69,-0.42 -1.2,-0.54 -0.51,-0.12 -1.17,-0.19 -1.98,-0.19 h -2.98 v 5.38 h 2.98 c 1.49,0 2.52,-0.22 3.1,-0.66 0.57,-0.43 0.86,-1.11 0.86,-2.01 z m 0.92,9.86 c 0,-1.02 -0.36,-1.75 -1.08,-2.2 -0.72,-0.45 -1.98,-0.68 -3.76,-0.68 h -3.01 v 5.99 h 3.01 c 1.78,0 3.04,-0.26 3.76,-0.8 0.72,-0.52 1.08,-1.3 1.08,-2.31 z"
       id="path40" /><path
       class="st0"
       d="m 287.02,272.48 c -0.78,1.39 -1.83,2.49 -3.15,3.3 -1.32,0.81 -2.87,1.38 -4.64,1.69 -1.77,0.32 -3.65,0.47 -5.64,0.47 -2.03,0 -3.93,-0.14 -5.71,-0.42 -1.77,-0.28 -3.32,-0.81 -4.64,-1.59 -1.32,-0.78 -2.36,-1.87 -3.12,-3.28 -0.76,-1.41 -1.13,-3.25 -1.13,-5.5 v -14.29 h 9.96 v 13.41 c 0,1.17 0.09,2.16 0.27,2.95 0.18,0.79 0.46,1.43 0.85,1.91 0.39,0.48 0.86,0.83 1.44,1.03 0.58,0.2 1.27,0.3 2.08,0.3 0.75,0 1.42,-0.1 2.01,-0.3 0.59,-0.2 1.1,-0.55 1.51,-1.03 0.41,-0.49 0.72,-1.12 0.93,-1.91 0.21,-0.79 0.32,-1.77 0.32,-2.95 v -13.41 h 9.82 v 14.29 c 0.01,2.16 -0.38,3.94 -1.16,5.33 z"
       id="path42" /><path
       class="st0"
       d="m 311.59,277.3 -0.85,-5.45 c -0.11,-0.75 -0.26,-1.35 -0.44,-1.81 -0.18,-0.46 -0.43,-0.81 -0.76,-1.05 -0.33,-0.24 -0.75,-0.39 -1.27,-0.47 -0.52,-0.08 -1.17,-0.12 -1.96,-0.12 h -3.25 v 8.91 h -10.19 v -24.45 h 17.37 c 1.67,0 3.17,0.14 4.5,0.42 1.33,0.28 2.47,0.71 3.4,1.29 0.94,0.58 1.65,1.32 2.15,2.24 0.5,0.92 0.75,1.99 0.75,3.23 0,0.88 -0.15,1.65 -0.44,2.32 -0.29,0.67 -0.69,1.22 -1.2,1.68 -0.51,0.45 -1.1,0.81 -1.78,1.08 -0.68,0.27 -1.39,0.45 -2.13,0.54 0.83,0.07 1.55,0.22 2.15,0.46 0.6,0.24 1.09,0.53 1.49,0.88 0.39,0.35 0.7,0.75 0.92,1.2 0.21,0.45 0.36,0.93 0.42,1.42 l 1.05,5.55 c 0.11,0.61 0.2,1.11 0.27,1.49 0.07,0.38 0.11,0.6 0.13,0.64 z m -0.64,-16.66 c 0,-1.08 -0.36,-1.85 -1.08,-2.3 -0.72,-0.45 -1.72,-0.68 -2.98,-0.68 h -3.83 v 6.06 h 3.83 c 1.24,0 2.23,-0.22 2.96,-0.68 0.73,-0.45 1.1,-1.25 1.1,-2.4 z"
       id="path44" /><path
       class="st0"
       d="m 355.25,276.44 c -0.66,0.12 -1.43,0.25 -2.32,0.39 -0.89,0.14 -1.87,0.27 -2.95,0.41 -1.07,0.13 -2.17,0.25 -3.29,0.36 -1.12,0.1 -2.24,0.19 -3.37,0.25 -1.13,0.07 -2.19,0.1 -3.18,0.1 -3.07,0 -5.63,-0.32 -7.69,-0.95 -2.06,-0.63 -3.7,-1.51 -4.94,-2.64 -1.24,-1.13 -2.12,-2.48 -2.64,-4.05 -0.52,-1.57 -0.78,-3.3 -0.78,-5.2 0,-8.6 5.7,-12.9 17.1,-12.9 2.21,0 4.24,0.14 6.1,0.42 1.86,0.28 3.45,0.74 4.81,1.37 1.35,0.63 2.43,1.47 3.23,2.51 0.8,1.04 1.26,2.3 1.37,3.79 h -10.5 c -0.11,-0.59 -0.33,-1.07 -0.64,-1.46 -0.32,-0.38 -0.69,-0.68 -1.13,-0.9 -0.44,-0.21 -0.94,-0.37 -1.49,-0.46 -0.55,-0.09 -1.13,-0.13 -1.74,-0.13 -2.21,0 -3.87,0.68 -4.96,2.05 -1.1,1.37 -1.64,3.27 -1.64,5.71 0,1.17 0.13,2.24 0.39,3.18 0.26,0.94 0.67,1.76 1.22,2.42 0.55,0.67 1.28,1.18 2.17,1.54 0.89,0.36 1.98,0.54 3.27,0.54 1.02,0 1.92,-0.07 2.73,-0.2 0.8,-0.14 1.48,-0.32 2.05,-0.54 v -3.9 h -5.96 v -5.01 h 16.26 v 12.97 c -0.34,0.1 -0.83,0.2 -1.48,0.33 z"
       id="path46" /><path
       class="st0"
       d="m 392.5,265.08 c 0,2.39 -0.45,4.41 -1.34,6.04 -0.89,1.63 -2.09,2.96 -3.61,3.98 -1.51,1.02 -3.25,1.74 -5.22,2.18 -1.96,0.44 -4.03,0.66 -6.2,0.66 -3.05,0 -5.62,-0.32 -7.71,-0.95 -2.09,-0.63 -3.78,-1.51 -5.06,-2.64 -1.29,-1.13 -2.21,-2.48 -2.76,-4.06 -0.55,-1.58 -0.83,-3.32 -0.83,-5.21 0,-2.44 0.44,-4.48 1.32,-6.13 0.88,-1.65 2.07,-2.97 3.57,-3.96 1.5,-0.99 3.24,-1.7 5.21,-2.13 1.98,-0.43 4.06,-0.64 6.25,-0.64 2.98,0 5.51,0.32 7.59,0.97 2.08,0.65 3.76,1.54 5.06,2.67 1.3,1.14 2.24,2.5 2.83,4.06 0.59,1.56 0.9,3.28 0.9,5.16 z m -10.5,0 c 0,-1.33 -0.15,-2.47 -0.44,-3.4 -0.29,-0.94 -0.69,-1.7 -1.2,-2.3 -0.51,-0.6 -1.12,-1.04 -1.85,-1.32 -0.73,-0.28 -1.5,-0.42 -2.34,-0.42 -0.86,0 -1.64,0.15 -2.35,0.44 -0.71,0.29 -1.33,0.75 -1.86,1.35 -0.53,0.61 -0.94,1.38 -1.24,2.32 -0.29,0.94 -0.44,2.05 -0.44,3.34 0,2.53 0.51,4.4 1.54,5.62 1.03,1.22 2.47,1.83 4.32,1.83 0.88,0 1.68,-0.14 2.4,-0.42 0.72,-0.28 1.34,-0.73 1.85,-1.34 0.51,-0.61 0.9,-1.38 1.19,-2.32 0.28,-0.95 0.42,-2.07 0.42,-3.38 z"
       id="path48" /></g></svg>
