<?xml version="1.0" encoding="UTF-8"?>
<svg width="215" height="90" version="1.1" viewBox="0 0 161.25 67.5" xmlns="http://www.w3.org/2000/svg">
 <defs></defs>
 <path d="m0 67.5h161.25v-67.5h-161.25z" fill="#231f20" stroke-width=".99062"/>
 <g fill="#fff">
  <g transform="matrix(.98926 0 0 .98926 31.374 39.767)">
   <path d="m14.125-17.234v-1.125c1.3438 0.09375 2.5391 0.14062 3.5938 0.14062 1.2188 0 2.5234-0.04687 3.9219-0.14062v1.125h-0.60938c-0.29297 0-0.58594 0.0625-0.875 0.1875-0.21094 0.08594-0.38281 0.19922-0.51562 0.34375-0.125 0.14844-0.58984 1.0547-1.3906 2.7188-1.4805 3.0312-2.6094 5.4297-3.3906 7.1875-0.78125 1.7617-1.7734 4.1328-2.9688 7.1094h-2c-1.7188-4.2812-3.4805-8.4453-5.2812-12.5-0.66797-1.4883-1.0703-2.4414-1.2031-2.8594-0.29297-0.84375-0.62109-1.4141-0.98438-1.7188-0.35547-0.3125-0.80859-0.46875-1.3594-0.46875h-0.65625v-1.125c1.9141 0.10547 3.5156 0.15625 4.7969 0.15625 1.3633 0 2.8594-0.05078 4.4844-0.15625v1.125h-0.85938c-0.79297 0-1.3516 0.08984-1.6719 0.26562-0.23047 0.125-0.34375 0.32031-0.34375 0.57812 0 0.21875 0.11328 0.66797 0.34375 1.3438 0.23828 0.67969 1.8164 4.6211 4.7344 11.828l3.5-8.4375c0.78906-1.957 1.2812-3.3125 1.4688-4.0625 0.05078-0.20703 0.07813-0.38281 0.07813-0.53125 0-0.25-0.08984-0.42969-0.26562-0.54688-0.16797-0.11328-0.60156-0.21094-1.2969-0.29688z"/>
  </g>
  <g transform="matrix(.98926 0 0 .98926 53.732 39.767)">
   <path d="m4.8281-9.3125c0.0625 2.5625 0.71875 4.5117 1.9688 5.8438 1.25 1.3242 2.8906 1.9844 4.9219 1.9844 0.91406 0 1.8203-0.14844 2.7188-0.45312 0.89453-0.30078 1.7852-0.75 2.6719-1.3438l0.32812 0.29688-0.625 1.6406c-1.0742 0.625-2.1836 1.0938-3.3281 1.4062-1.1484 0.3125-2.3281 0.46875-3.5469 0.46875-2.6367 0-4.7656-0.83594-6.3906-2.5156-1.625-1.6758-2.4375-3.9453-2.4375-6.8125 0-2.1875 0.45703-4.0781 1.375-5.6719 0.59375-1.0625 1.6953-2.0391 3.3125-2.9375 1.6133-0.89453 3.1875-1.3438 4.7188-1.3438 2.3008 0 4.125 0.67969 5.4688 2.0312 1.3516 1.3555 2.0312 3.25 2.0312 5.6875l-0.04687 1.1406c-0.85547 0.21094-1.6719 0.35156-2.4531 0.42188-1.3984 0.10547-3.3359 0.15625-5.8125 0.15625zm0.0625-1.4688c2.0078 0.09375 4.2344 0.14062 6.6719 0.14062 0.97656 0 1.9219-0.04687 2.8281-0.14062v-1.0938c0-1.1445-0.22656-2.2344-0.67188-3.2656-0.29297-0.63281-0.79688-1.1602-1.5156-1.5781-0.71094-0.42578-1.5312-0.64062-2.4688-0.64062-1.4609 0-2.625 0.53906-3.5 1.6094-0.875 1.0625-1.3242 2.7188-1.3438 4.9688z"/>
  </g>
  <g transform="matrix(.98926 0 0 .98926 72.686 39.767)">
   <path d="m7.4219-14.344c0.51953-0.48828 1.0859-1.1406 1.7031-1.9531 0.72656-0.94531 1.4062-1.5938 2.0312-1.9375 0.625-0.35156 1.2812-0.53125 1.9688-0.53125 0.71875 0 1.2656 0.08594 1.6406 0.25 0.1875 0.07422 0.28125 0.19922 0.28125 0.375l-0.03125 0.1875c-0.1875 1.0547-0.29688 2.5312-0.32812 4.4375h-0.875c-0.30469-0.66406-0.66406-1.1328-1.0781-1.4062-0.40625-0.26953-0.89844-0.40625-1.4688-0.40625-0.76172 0-1.4766 0.26172-2.1406 0.78125-0.65625 0.52344-1.0938 1.25-1.3125 2.1875s-0.32812 2.7773-0.32812 5.5156c0 1.8125 0.070313 3.3398 0.21875 4.5781 0.050781 0.46094 0.17969 0.74609 0.39062 0.85938 0.48828 0.27344 1.2188 0.40625 2.1875 0.40625h1.1719v1.1406c-2-0.09375-3.8906-0.14062-5.6719-0.14062-1.7305 0-3.4453 0.046875-5.1406 0.14062v-1.1406l1.875-0.15625c0.66406-0.050781 1.0859-0.17188 1.2656-0.35938 0.17578-0.19531 0.28906-0.83203 0.34375-1.9062 0.09375-1.875 0.14062-4.0977 0.14062-6.6719 0-3.1445-0.125-4.9883-0.375-5.5312-0.16797-0.35156-0.70312-0.53125-1.6094-0.53125h-1.6406v-1.125c1.2695-0.14453 2.3984-0.33203 3.3906-0.5625 0.98828-0.22656 1.8633-0.51953 2.625-0.875 0.1875-0.08203 0.33594-0.125 0.45312-0.125 0.14453 0 0.24219 0.04297 0.29688 0.125 0.050781 0.07422 0.078125 0.24609 0.078125 0.51562z"/>
  </g>
  <g transform="matrix(.98926 0 0 .98926 88.317 39.767)">
   <path d="m14.125-17.234v-1.125c1.3438 0.09375 2.5391 0.14062 3.5938 0.14062 1.2188 0 2.5234-0.04687 3.9219-0.14062v1.125h-0.60938c-0.29297 0-0.58594 0.0625-0.875 0.1875-0.21094 0.08594-0.38281 0.19922-0.51562 0.34375-0.125 0.14844-0.58984 1.0547-1.3906 2.7188-1.4805 3.0312-2.6094 5.4297-3.3906 7.1875-0.78125 1.7617-1.7734 4.1328-2.9688 7.1094h-2c-1.7188-4.2812-3.4805-8.4453-5.2812-12.5-0.66797-1.4883-1.0703-2.4414-1.2031-2.8594-0.29297-0.84375-0.62109-1.4141-0.98438-1.7188-0.35547-0.3125-0.80859-0.46875-1.3594-0.46875h-0.65625v-1.125c1.9141 0.10547 3.5156 0.15625 4.7969 0.15625 1.3633 0 2.8594-0.05078 4.4844-0.15625v1.125h-0.85938c-0.79297 0-1.3516 0.08984-1.6719 0.26562-0.23047 0.125-0.34375 0.32031-0.34375 0.57812 0 0.21875 0.11328 0.66797 0.34375 1.3438 0.23828 0.67969 1.8164 4.6211 4.7344 11.828l3.5-8.4375c0.78906-1.957 1.2812-3.3125 1.4688-4.0625 0.05078-0.20703 0.07813-0.38281 0.07813-0.53125 0-0.25-0.08984-0.42969-0.26562-0.54688-0.16797-0.11328-0.60156-0.21094-1.2969-0.29688z"/>
  </g>
  <g transform="matrix(.98926 0 0 .98926 110.67 39.767)">
   <path d="m4.8281-9.3125c0.0625 2.5625 0.71875 4.5117 1.9688 5.8438 1.25 1.3242 2.8906 1.9844 4.9219 1.9844 0.91406 0 1.8203-0.14844 2.7188-0.45312 0.89453-0.30078 1.7852-0.75 2.6719-1.3438l0.32812 0.29688-0.625 1.6406c-1.0742 0.625-2.1836 1.0938-3.3281 1.4062-1.1484 0.3125-2.3281 0.46875-3.5469 0.46875-2.6367 0-4.7656-0.83594-6.3906-2.5156-1.625-1.6758-2.4375-3.9453-2.4375-6.8125 0-2.1875 0.45703-4.0781 1.375-5.6719 0.59375-1.0625 1.6953-2.0391 3.3125-2.9375 1.6133-0.89453 3.1875-1.3438 4.7188-1.3438 2.3008 0 4.125 0.67969 5.4688 2.0312 1.3516 1.3555 2.0312 3.25 2.0312 5.6875l-0.04687 1.1406c-0.85547 0.21094-1.6719 0.35156-2.4531 0.42188-1.3984 0.10547-3.3359 0.15625-5.8125 0.15625zm0.0625-1.4688c2.0078 0.09375 4.2344 0.14062 6.6719 0.14062 0.97656 0 1.9219-0.04687 2.8281-0.14062v-1.0938c0-1.1445-0.22656-2.2344-0.67188-3.2656-0.29297-0.63281-0.79688-1.1602-1.5156-1.5781-0.71094-0.42578-1.5312-0.64062-2.4688-0.64062-1.4609 0-2.625 0.53906-3.5 1.6094-0.875 1.0625-1.3242 2.7188-1.3438 4.9688z"/>
  </g>
 </g>
</svg>
