<?xml version="1.0" encoding="UTF-8"?>
<svg width="46.719" height="16" version="1.1" xmlns="http://www.w3.org/2000/svg">
 <g transform="matrix(.4728 0 0 .4728 24.726 -549.47)">
  <g fill="#f5efbc" stroke="#000" stroke-linecap="round" stroke-linejoin="round" stroke-width="1.8">
   <path d="m-51.397 1163.1h85v29.525h-85l2-14.763z"/>
   <path d="m19.616 1166.9v24.625c0 2.002 5.8203 3.625 13 3.625s13-1.623 13-3.625v-24.625z"/>
   <path d="m45.616 1166.7c0 2.0021-5.8203 3.625-13 3.625s-13-1.6229-13-3.625c0-2.002 5.8203-3.625 13-3.625s13 1.623 13 3.625z"/>
  </g>
  <path d="m45.068 1167.4c-2.4486 5.5993-9.9067 7.192-21.528 5.7955l5.7779 9.7599-6.0228 7.2171c7.751 3.1192 17.186 1.5723 22.071-0.1842z" fill="#2e439b" stroke="#000" stroke-width="1.4"/>
  <path d="m34.459 1165.8c-3.4695-0.1017-8.0165 0.018-10.477 0.7778 1.2102 0.9782 6.112 1.5627 9.9471 1.2348 3.203-0.2738 6.082-0.1311 7.9386-1.1503-0.70667-1.1077-3.9384-3.3774-7.9186-3.2613" fill="none" stroke="#000" stroke-linecap="round" stroke-linejoin="round" stroke-width="1.4"/>
  <g transform="scale(.90246 1.1081)">
   <path d="m-31.244 1065.3c-0.4541 0.097-0.73383 0.1948-0.83917 0.2919-0.10538 0.097-0.15806 0.2918-0.15804 0.5836v3.9629c-0.72913 0.2755-1.4016 0.5065-2.0174 0.693-0.61585 0.1865-1.2075 0.3363-1.7748 0.4496-0.56738 0.1133-1.1266 0.1943-1.6776 0.243-0.55105 0.049-1.1347 0.073-1.7511 0.073-1.4424 0-2.7472-0.2107-3.9143-0.6322-1.1671-0.4214-2.164-1.0171-2.9905-1.787-0.82656-0.7699-1.4668-1.6979-1.9206-2.7839-0.45384-1.086-0.68076-2.3015-0.68076-3.6464-2e-6 -1.3133 0.231-2.4927 0.693-3.5381 0.462-1.0454 1.1306-1.9328 2.0059-2.6622 0.87528-0.7293 1.9328-1.2885 3.1727-1.6776 1.2398-0.389 2.6378-0.5835 4.194-0.5836 0.5995 1e-4 1.1627 0.02 1.6895 0.061 0.52679 0.041 1.0415 0.1055 1.544 0.1948 0.50255 0.089 1.0051 0.2067 1.5077 0.3524 0.50255 0.1457 1.0373 0.3239 1.6041 0.5346l0.14617 0.2678c-0.04849 0.2271-0.09301 0.4419-0.13356 0.6444-0.04058 0.2026-0.08114 0.4335-0.12168 0.6927-0.04058 0.2592-0.0851 0.5753-0.13355 0.9482-0.04849 0.373-0.10538 0.8511-0.17065 1.4342h-0.94824l-0.12094-2.0908c-0.14594-0.1459-0.27974-0.2675-0.40141-0.3647-0.1217-0.097-0.23522-0.1823-0.34056-0.2553-0.10538-0.073-0.21877-0.1418-0.34019-0.2066-0.12145-0.065-0.26329-0.1296-0.42552-0.1944-0.5189-0.2107-1.0781-0.3728-1.6776-0.4864-0.59952-0.1135-1.1993-0.1702-1.7993-0.1702-1.9934 0-3.5413 0.5957-4.6436 1.787-1.1023 1.1914-1.6535 2.8731-1.6535 5.045-5e-6 1.1669 0.15804 2.2245 0.47412 3.1727 0.31608 0.9483 0.7578 1.7628 1.3252 2.4437 0.56735 0.6809 1.2563 1.2077 2.0668 1.5804 0.81047 0.3727 1.702 0.5591 2.6744 0.5591 0.51838 0 1.0086-0.044 1.4706-0.1336 0.46199-0.089 1.0009-0.2471 1.6168-0.4741v-3.2098c-1.5e-5 -0.324-0.10129-0.5467-0.30384-0.6681-0.20257-0.1214-0.56305-0.1985-1.0814-0.2311l-1.2888-0.048v-0.9972c0.51887 0.016 0.96059 0.029 1.3252 0.037 0.36454 0.01 0.67654 0.016 0.936 0.024 0.25943 0.01 0.48635 0.012 0.68076 0.012h1.1059c0.20254 0 0.4417 0 0.71749-0.012 0.27575-0.01 0.60407-0.016 0.98497-0.024 0.38086-0.01 0.83866-0.02 1.3734-0.037z"/>
   <path d="m-23.706 1062c0.24336 0.033 0.47436 0.049 0.693 0.049h2.1762c0.51838 0 0.87082-0.036 1.0573-0.1095 0.18647-0.073 0.29579-0.2066 0.32795-0.401l0.14617-1.2888h0.97272c-0.01634 0.4699-0.02858 0.8508-0.03673 1.1426-0.0082 0.2919-0.01633 0.527-0.02449 0.7053-0.0082 0.1783-0.01225 0.3161-0.01224 0.4132-1.2e-5 0.097-1.2e-5 0.1782 0 0.243l0.07345 2.6259h-0.97272l-0.14617-1.2154c-0.03216-0.3245-0.1536-0.5556-0.36431-0.6933-0.21073-0.1378-0.55105-0.2067-1.021-0.2067h-1.2398c-0.27602 0-0.53151 0-0.76646 0.012-0.23496 0.01-0.5226 0.029-0.86291 0.061v4.546c-6e-6 0.5352 0.0082 0.9527 0.02448 1.2525 0.01632 0.2997 0.06096 0.5267 0.13393 0.6807 0.07295 0.1541 0.19043 0.2514 0.35244 0.292 0.16199 0.041 0.38075 0.069 0.65628 0.085l1.1426 0.073v0.972c-0.56737-0.016-1.0577-0.028-1.471-0.036-0.41328-0.01-0.77796-0.016-1.094-0.024-0.31608-0.01-0.58752-0.012-0.81431-0.012h-1.3129c-0.22705 0-0.48649 0-0.77833 0.012-0.29184 0.01-0.6282 0.016-1.0091 0.024-0.38088 0.01-0.82235 0.02-1.3244 0.036v-0.972l0.89927-0.073c0.29184-0.016 0.51468-0.048 0.66852-0.097 0.15383-0.049 0.26723-0.1461 0.34019-0.292 0.07296-0.1459 0.1176-0.3688 0.13393-0.6685 0.01632-0.2998 0.02448-0.7173 0.02448-1.2525v-9.9194c-3e-6 -0.5347-0.0082-0.9561-0.02448-1.2643-0.01633-0.3082-0.06493-0.5392-0.1458-0.693-0.08088-0.1538-0.19836-0.2551-0.35244-0.3039-0.15408-0.049-0.36889-0.089-0.6444-0.1213l-0.89927-0.073v-0.8993c0.59951 0.016 1.1221 0.029 1.5678 0.037 0.44568 0.01 0.83867 0.016 1.179 0.024 0.34031 0.01 0.63611 0.012 0.8874 0.012h1.1552c0.12959 0 0.33215 0 0.60768-0.012 0.27551-0.01 0.66851-0.016 1.179-0.024 0.51047-0.01 1.2277-0.02 2.1517-0.037h1.2398c0.4704 0 0.85956 0 1.1675 0.012 0.30791 0.01 0.68866 0.028 1.1423 0.06l0.14617 0.1707-0.34056 3.4524h-0.87478l-0.19514-1.8238c-0.01584-0.1459-0.26292-0.2593-0.74123-0.3402-0.47834-0.081-1.1308-0.1213-1.9573-0.1213h-0.63216c-0.1944 0-0.39696 0-0.60768 0.012-0.21073 0.01-0.44173 0.016-0.693 0.024-0.25129 0.01-0.54709 0.02-0.8874 0.037z"/>
   <path d="m-13.917 1070.3c0.17807-0.098 0.30359-0.2516 0.37655-0.4623 0.07296-0.2107 0.10944-0.5186 0.10944-0.9237v-10.892c-3e-6 -0.5347-8e-3 -0.9561-0.02411-1.2643-0.01608-0.3082-0.06468-0.5392-0.1458-0.693-0.08113-0.1538-0.19873-0.2551-0.35281-0.3039-0.15408-0.049-0.36889-0.089-0.6444-0.1213l-0.89927-0.073v-0.8993c1.1832 0.033 2.0706 0.053 2.6622 0.061 0.5916 0.01 1.0252 0.012 1.3007 0.012l2.5042-0.024c0.76175-0.016 1.4142-0.029 1.9573-0.037 0.54311-0.01 0.9606-0.012 1.2524-0.012 1.6368 0 2.9861 0.1621 4.0478 0.4864 1.0617 0.3242 1.9493 0.8348 2.6626 1.5318 0.61582 0.5995 1.0818 1.3572 1.3979 2.273 0.31606 0.9159 0.4741 1.9572 0.47412 3.1241-1.92e-5 2.6261-0.83474 4.7575-2.5042 6.3943-0.92402 0.9077-2.0223 1.6046-3.2947 2.0909-1.2725 0.4862-2.6218 0.7293-4.0478 0.7293h-0.65665c-0.2592 0-0.53472-0.01-0.82656-0.024-0.40512-0.016-0.81444-0.029-1.228-0.037-0.41353-0.01-0.78229-0.012-1.1063-0.012-0.35665 0-0.81457 0.01-1.3738 0.024-0.5592 0.016-1.3656 0.032-2.4192 0.048v-0.5587zm3.9139-0.4623c0.30816 0.049 0.57576 0.082 0.80281 0.098 0.22704 0.016 0.50255 0.024 0.82656 0.024 1.3939 0 2.5406-0.1337 3.4402-0.401 0.89951-0.2674 1.6572-0.709 2.273-1.3248 1.1832-1.1674 1.7748-2.9909 1.7748-5.4706-1.546e-5 -1.2158-0.12961-2.2411-0.38879-3.0758-0.25921-0.8347-0.66433-1.5195-1.2154-2.0542-0.21073-0.227-0.43357-0.4176-0.66852-0.5717-0.23497-0.154-0.48229-0.2877-0.74197-0.401-0.53473-0.227-1.2194-0.4135-2.0541-0.5595-0.83473-0.1459-1.6817-0.2188-2.5409-0.2188-0.29185 0-0.54709 0.01-0.76572 0.024-0.21864 0.016-0.46597 0.041-0.74197 0.073z"/>
   <path d="m10.324 1069.8c0.64798 0.033 1.2435 0.053 1.7867 0.061 0.54311 0.01 1.1874 0.012 1.9328 0.012 0.25918 0 0.52654-0.012 0.80207-0.037 0.27551-0.024 0.52679-0.057 0.75384-0.097 0.22703-0.04 0.41351-0.085 0.55945-0.1336 0.14591-0.049 0.22703-0.097 0.24337-0.1458l0.5587-2.4804h0.94824l-0.26711 4.0363-0.12168 0.1944c-0.34033 0.016-0.64825 0.033-0.92376 0.049-0.27553 0.016-0.54301 0.028-0.80244 0.036-0.25946 0.01-0.52286 0.012-0.7902 0.012h-0.88777c-1.1021 0-2.4149-0.024-3.9384-0.073-0.42145-0.016-0.72936-0.024-0.92376-0.024h-1.1308c-0.17016 0-0.36876 0-0.5958 0.012-0.22705 0.01-0.49453 0.016-0.80244 0.024-0.30792 0.01-0.6726 0.02-1.094 0.036v-0.5587l0.77833-0.4377c0.17807-0.098 0.30359-0.2475 0.37655-0.45 0.072958-0.2026 0.10944-0.5146 0.10944-0.936v-10.892c-3e-6 -0.5347-0.00804-0.9521-0.024114-1.2521-0.016079-0.3-0.060597-0.5229-0.13356-0.6689-0.072963-0.1459-0.18648-0.239-0.34057-0.2793-0.15409-0.04-0.37705-0.077-0.66889-0.1095l-0.89927-0.073v-0.9727c0.50256 0.016 0.94428 0.029 1.3252 0.037 0.38088 0.01 0.71724 0.016 1.0091 0.024 0.29184 0.01 0.55116 0.012 0.77796 0.012h1.3248c0.23495 0 0.49835 0 0.7902-0.012 0.29184-0.01 0.62412-0.016 0.99684-0.024 0.37271-0.01 0.81851-0.02 1.3374-0.037v0.9727l-0.90001 0.073c-0.29136 0.033-0.51407 0.069-0.66815 0.1095-0.15409 0.04-0.26761 0.1334-0.34056 0.2793-0.07297 0.146-0.11748 0.3689-0.13356 0.6689-0.01608 0.3-0.02412 0.7174-0.02411 1.2521z"/>
  </g>
 </g>
</svg>
