<?xml version="1.0" encoding="UTF-8" standalone="no"?>
<!-- Created with Inkscape (http://www.inkscape.org/) -->

<svg
   width="18.94063mm"
   height="6.6601257mm"
   viewBox="0 0 18.94063 6.6601257"
   version="1.1"
   id="svg5"
   xml:space="preserve"
   sodipodi:docname="mia.svg"
   inkscape:version="1.2.2 (b0a8486541, 2022-12-01)"
   xmlns:inkscape="http://www.inkscape.org/namespaces/inkscape"
   xmlns:sodipodi="http://sodipodi.sourceforge.net/DTD/sodipodi-0.dtd"
   xmlns="http://www.w3.org/2000/svg"
   xmlns:svg="http://www.w3.org/2000/svg"><sodipodi:namedview
     id="namedview7"
     pagecolor="#505050"
     bordercolor="#ffffff"
     borderopacity="1"
     inkscape:showpageshadow="0"
     inkscape:pageopacity="0"
     inkscape:pagecheckerboard="1"
     inkscape:deskcolor="#505050"
     inkscape:document-units="mm"
     showgrid="false"
     inkscape:zoom="4.4682782"
     inkscape:cx="44.87187"
     inkscape:cy="12.868491"
     inkscape:window-width="1366"
     inkscape:window-height="835"
     inkscape:window-x="0"
     inkscape:window-y="0"
     inkscape:window-maximized="1"
     inkscape:current-layer="layer1" /><defs
     id="defs2" /><g
     inkscape:label="Camada 1"
     inkscape:groupmode="layer"
     id="layer1"
     transform="translate(-139.59953,-133.14421)"><g
       aria-label="ARQUIVO
MARXISTA"
       id="text198"
       style="font-size:4.04974px;line-height:0.85;font-family:OpenDyslexic3;-inkscape-font-specification:OpenDyslexic3;stroke-width:0.253109"><path
         d="m 141.84714,136.12077 h 0.38472 l -1.31616,-2.97656 -1.31617,2.97656 h 0.38473 l 0.36043,-0.85044 h 1.14202 z m -0.93144,-2.19496 0.43332,1.02054 h -0.86664 z"
         style="font-family:'Jost*';-inkscape-font-specification:'Jost*';fill:#ffffff"
         id="path595" /><path
         d="m 142.57609,133.28596 v 2.83481 h 0.34423 v -1.13392 h 0.34423 l 0.7897,1.13392 h 0.42522 l -0.8464,-1.16632 c 0.40093,-0.0972 0.67631,-0.39283 0.67631,-0.81805 0,-0.52242 -0.41712,-0.85044 -0.96384,-0.85044 z m 0.76945,0.30373 c 0.36448,0 0.61961,0.19843 0.61961,0.54671 0,0.34828 -0.25513,0.54672 -0.61961,0.54672 h -0.42522 v -1.09343 z"
         style="font-family:'Jost*';-inkscape-font-specification:'Jost*';fill:#ffffff"
         id="path597" /><path
         d="m 144.68195,134.70336 c 0,0.82615 0.61151,1.45791 1.43766,1.45791 0.34423,0 0.65201,-0.10934 0.89094,-0.29968 l 0.25919,0.25918 h 0.44547 l -0.47787,-0.47787 c 0.20249,-0.25108 0.31993,-0.57506 0.31993,-0.93954 0,-0.82614 -0.61151,-1.4579 -1.43766,-1.4579 -0.82615,0 -1.43766,0.63176 -1.43766,1.4579 z m 0.36448,0 c 0,-0.63985 0.45357,-1.11367 1.07318,-1.11367 0.61961,0 1.07318,0.47382 1.07318,1.11367 0,0.26324 -0.0769,0.49812 -0.21058,0.68441 l -0.48192,-0.48192 h -0.44547 l 0.70465,0.70466 c -0.17414,0.13364 -0.39282,0.20653 -0.63986,0.20653 -0.61961,0 -1.07318,-0.47382 -1.07318,-1.11368 z"
         style="font-family:'Jost*';-inkscape-font-specification:'Jost*';fill:#ffffff"
         id="path599" /><path
         d="m 148.02299,133.28596 v 1.90337 c 0,0.56292 0.37663,0.97194 0.96384,0.97194 0.58721,0 0.96384,-0.40902 0.96384,-0.97194 v -1.90337 h -0.34423 v 1.90337 c 0,0.38878 -0.21463,0.64796 -0.61961,0.64796 -0.40497,0 -0.61961,-0.25918 -0.61961,-0.64796 v -1.90337 z"
         style="font-family:'Jost*';-inkscape-font-specification:'Jost*';fill:#ffffff"
         id="path601" /><path
         d="m 150.57838,133.28596 v 2.83481 h 0.34422 v -2.83481 z"
         style="font-family:'Jost*';-inkscape-font-specification:'Jost*';fill:#ffffff"
         id="path603" /><path
         d="m 152.583,135.48091 -0.93144,-2.19495 h -0.38472 l 1.31616,2.97655 1.31617,-2.97655 h -0.38473 z"
         style="font-family:'Jost*';-inkscape-font-specification:'Jost*';fill:#ffffff"
         id="path605" /><path
         d="m 154.02066,134.70336 c 0,0.82615 0.61151,1.45791 1.43766,1.45791 0.82615,0 1.43766,-0.63176 1.43766,-1.45791 0,-0.82614 -0.61151,-1.4579 -1.43766,-1.4579 -0.82615,0 -1.43766,0.63176 -1.43766,1.4579 z m 0.36448,0 c 0,-0.63985 0.45357,-1.11367 1.07318,-1.11367 0.61961,0 1.07318,0.47382 1.07318,1.11367 0,0.63986 -0.45357,1.11368 -1.07318,1.11368 -0.61961,0 -1.07318,-0.47382 -1.07318,-1.11368 z"
         style="font-family:'Jost*';-inkscape-font-specification:'Jost*';fill:#ffffff"
         id="path607" /><path
         d="m 140.42163,138.01841 0.8626,1.46195 0.86259,-1.46195 0.19844,1.72518 h 0.49407 l -0.38878,-2.97655 -1.16632,1.92362 -1.16228,-1.92362 -0.38878,2.97655 h 0.49407 z"
         style="font-weight:500;font-family:'Jost*';-inkscape-font-specification:'Jost*, Medium';fill:#ffffff"
         id="path609" /><path
         d="m 145.23677,139.74359 h 0.54267 l -1.38906,-2.99275 -1.38501,2.99275 h 0.53861 l 0.32398,-0.72895 h 1.04078 z m -0.84639,-2.03297 0.38877,0.89905 h -0.7735 z"
         style="font-weight:500;font-family:'Jost*';-inkscape-font-specification:'Jost*, Medium';fill:#ffffff"
         id="path611" /><path
         d="m 146.10342,136.90878 v 2.83481 h 0.47787 v -1.07318 h 0.29158 l 0.7168,1.07318 h 0.57912 l -0.80185,-1.12582 c 0.39282,-0.11745 0.63176,-0.41713 0.63176,-0.8302 0,-0.53052 -0.40498,-0.87879 -1.02054,-0.87879 z m 0.85449,0.41307 c 0.32803,0 0.54672,0.17414 0.54672,0.47787 0,0.30373 -0.21869,0.47382 -0.54672,0.47382 h -0.37662 v -0.95169 z"
         style="font-weight:500;font-family:'Jost*';-inkscape-font-specification:'Jost*, Medium';fill:#ffffff"
         id="path613" /><path
         d="m 149.98307,136.90878 -0.54267,0.95574 -0.53051,-0.95574 h -0.57912 l 0.84235,1.36071 -0.94359,1.4741 h 0.57911 l 0.62771,-1.08938 0.60746,1.08938 h 0.58317 l -0.91929,-1.4741 0.85854,-1.36071 z"
         style="font-weight:500;font-family:'Jost*';-inkscape-font-specification:'Jost*, Medium';fill:#ffffff"
         id="path615" /><path
         d="m 150.97525,136.90878 v 2.83481 h 0.48597 v -2.83481 z"
         style="font-weight:500;font-family:'Jost*';-inkscape-font-specification:'Jost*, Medium';fill:#ffffff"
         id="path617" /><path
         d="m 152.27522,138.82835 -0.35638,0.25109 c 0.18629,0.38877 0.58721,0.7249 1.08533,0.7249 0.48192,0 0.94359,-0.31588 0.94359,-0.8464 0,-0.49406 -0.38067,-0.733 -0.72085,-0.85044 -0.45762,-0.15794 -0.64391,-0.29968 -0.64391,-0.51837 0,-0.16199 0.12149,-0.30373 0.38472,-0.30373 0.28754,0 0.45762,0.18629 0.57507,0.39688 l 0.38472,-0.21869 c -0.14579,-0.29563 -0.44952,-0.60746 -0.95169,-0.60746 -0.51026,0 -0.89094,0.31183 -0.89094,0.7654 0,0.52647 0.47382,0.72895 0.75325,0.8302 0.36043,0.13364 0.60341,0.23083 0.60341,0.54266 0,0.22679 -0.17414,0.38068 -0.43737,0.38068 -0.31993,0 -0.54671,-0.21464 -0.72895,-0.54672 z"
         style="font-weight:500;font-family:'Jost*';-inkscape-font-specification:'Jost*, Medium';fill:#ffffff"
         id="path619" /><path
         d="m 154.15025,137.3502 h 0.7492 v 2.39339 h 0.47787 v -2.39339 h 0.7492 v -0.44142 h -1.97627 z"
         style="font-weight:500;font-family:'Jost*';-inkscape-font-specification:'Jost*, Medium';fill:#ffffff"
         id="path621" /><path
         d="m 157.9975,139.74359 h 0.54266 l -1.38906,-2.99275 -1.38501,2.99275 h 0.53862 l 0.32398,-0.72895 h 1.04078 z m -0.8464,-2.03297 0.38878,0.89905 h -0.7735 z"
         style="font-weight:500;font-family:'Jost*';-inkscape-font-specification:'Jost*, Medium';fill:#ffffff"
         id="path623" /></g></g></svg>
