<?xml version="1.0" encoding="UTF-8"?>
<!-- Created with Inkscape (http://www.inkscape.org/) -->
<svg width="32" height="16" version="1.1" viewBox="0 0 32 16" xmlns="http://www.w3.org/2000/svg">
 <g transform="translate(0,10.88)" stroke-linecap="round" stroke-linejoin="round">
  <path d="m6-8.88v12h23v-6h-6v-6z" fill="#efefef" stroke-width="11.339" style="paint-order:markers stroke fill"/>
  <path d="m24-7.88v4h4v-1h-1v-1h-1v-1h-1v-1z" fill="#cecece" stroke-width="11.339" style="paint-order:markers stroke fill"/>
  <path d="m5-9.88v14h25v-8h-1v-1h-1v1h-4v-4h1v-1h-1v-1h-19zm20 2v1h1v-1h-1zm1 1v1h1v-1h-1zm1 1v1h1v-1h-1zm-21-3h17v6h6v6h-23v-12z" stroke-width="6.9246" style="paint-order:markers stroke fill"/>
  <rect x="1" y="-6.88" width="21" height="7" fill="#fa0303" stroke-width="83.956" style="paint-order:markers stroke fill"/>
  <g fill="#fff5f5">
   <path d="m15-5.88v5h1v-2h2v-1h-2v-1h3v-1h-3z" stroke-width="15.484" style="paint-order:markers stroke fill"/>
   <path d="m9-5.88v5h3v-1h-2v-3h2v-1h-3zm3 1v3h1v-3h-1z" stroke-width="11.994" style="paint-order:markers stroke fill"/>
   <path d="m3-5.88v5h1v-2h2v-1h-2v-1h2v-1h-3zm3 1v1h1v-1h-1z" stroke-width="6.9246" style="paint-order:markers stroke fill"/>
  </g>
 </g>
</svg>
